%FSLAX24Y24*%
%MOIN*%
G70*
G01*
G75*
G04 Layer_Color=8388736*
%ADD10O,0.0709X0.0118*%
%ADD11O,0.0118X0.0709*%
%ADD12R,0.0571X0.0787*%
%ADD13R,0.0571X0.0354*%
%ADD14R,0.0315X0.0591*%
%ADD15R,0.0500X0.0360*%
%ADD16R,0.0360X0.0360*%
%ADD17R,0.0360X0.0500*%
%ADD18R,0.0360X0.0360*%
%ADD19R,0.0200X0.0500*%
%ADD20O,0.0394X0.1220*%
%ADD21R,0.0394X0.1220*%
%ADD22R,0.0200X0.0250*%
%ADD23R,0.0300X0.0300*%
%ADD24R,0.0236X0.0165*%
%ADD25R,0.0600X0.1000*%
%ADD26R,0.1000X0.0600*%
%ADD27R,0.0197X0.0906*%
%ADD28R,0.0787X0.0787*%
%ADD29R,0.0787X0.0984*%
%ADD30C,0.0500*%
%ADD31R,0.1181X0.0866*%
%ADD32R,0.0300X0.0300*%
%ADD33R,0.0866X0.1181*%
%ADD34O,0.0236X0.0866*%
%ADD35R,0.0590X0.0790*%
%ADD36R,0.1500X0.0790*%
%ADD37O,0.1220X0.0394*%
%ADD38R,0.1220X0.0394*%
%ADD39R,0.0787X0.0512*%
G04:AMPARAMS|DCode=40|XSize=78.7mil|YSize=51.2mil|CornerRadius=12.8mil|HoleSize=0mil|Usage=FLASHONLY|Rotation=180.000|XOffset=0mil|YOffset=0mil|HoleType=Round|Shape=RoundedRectangle|*
%AMROUNDEDRECTD40*
21,1,0.0787,0.0256,0,0,180.0*
21,1,0.0532,0.0512,0,0,180.0*
1,1,0.0256,-0.0266,0.0128*
1,1,0.0256,0.0266,0.0128*
1,1,0.0256,0.0266,-0.0128*
1,1,0.0256,-0.0266,-0.0128*
%
%ADD40ROUNDEDRECTD40*%
%ADD41C,0.0400*%
%ADD42C,0.0100*%
%ADD43C,0.0150*%
%ADD44C,0.0120*%
%ADD45C,0.0800*%
%ADD46C,0.1000*%
%ADD47C,0.0200*%
%ADD48C,0.0300*%
%ADD49C,0.0700*%
%ADD50C,0.0500*%
%ADD51C,0.0250*%
%ADD52C,0.0600*%
%ADD53R,0.4331X0.2953*%
%ADD54R,0.2362X0.2165*%
%ADD55R,0.3740X0.2953*%
%ADD56R,0.1378X0.0984*%
%ADD57R,0.5315X0.1378*%
%ADD58R,0.0591X0.0787*%
%ADD59R,0.0800X0.0800*%
%ADD60R,0.2510X0.3090*%
%ADD61R,0.0700X0.0700*%
%ADD62C,0.0700*%
%ADD63C,0.0591*%
%ADD64C,0.0900*%
%ADD65C,0.0354*%
%ADD66C,0.1000*%
%ADD67R,0.0700X0.0700*%
%ADD68C,0.0600*%
%ADD69C,0.2500*%
%ADD70C,0.0757*%
%ADD71C,0.0512*%
%ADD72C,0.0276*%
%ADD73R,0.0433X0.0492*%
%ADD74O,0.0800X0.0240*%
%ADD75R,0.0800X0.0240*%
%ADD76O,0.0240X0.0800*%
%ADD77R,0.0240X0.0800*%
%ADD78O,0.0827X0.0177*%
%ADD79O,0.0500X0.1000*%
%ADD80R,0.0500X0.1000*%
%ADD81O,0.1000X0.0500*%
%ADD82R,0.1000X0.0500*%
%ADD83R,0.0400X0.0500*%
%ADD84R,0.0500X0.0400*%
%ADD85R,0.0492X0.0433*%
%ADD86R,0.1280X0.1280*%
G04:AMPARAMS|DCode=87|XSize=9.8mil|YSize=35.4mil|CornerRadius=2.5mil|HoleSize=0mil|Usage=FLASHONLY|Rotation=0.000|XOffset=0mil|YOffset=0mil|HoleType=Round|Shape=RoundedRectangle|*
%AMROUNDEDRECTD87*
21,1,0.0098,0.0305,0,0,0.0*
21,1,0.0049,0.0354,0,0,0.0*
1,1,0.0049,0.0025,-0.0153*
1,1,0.0049,-0.0025,-0.0153*
1,1,0.0049,-0.0025,0.0153*
1,1,0.0049,0.0025,0.0153*
%
%ADD87ROUNDEDRECTD87*%
%ADD88R,0.0098X0.0354*%
%ADD89R,0.0354X0.0098*%
%ADD90R,0.0157X0.1575*%
%ADD91O,0.0157X0.1575*%
%ADD92R,0.0906X0.0906*%
%ADD93R,0.0906X0.0906*%
%ADD94R,0.0250X0.0200*%
%ADD95R,0.0157X0.0276*%
%ADD96O,0.0157X0.0276*%
%ADD97R,0.2362X0.3543*%
%ADD98R,0.5315X0.1575*%
%ADD99C,0.0040*%
%ADD100C,0.0098*%
%ADD101C,0.0236*%
%ADD102C,0.0050*%
%ADD103C,0.0079*%
%ADD104C,0.0060*%
%ADD105C,0.0080*%
%ADD106C,0.0059*%
%ADD107R,0.0197X0.0300*%
%ADD108R,0.0996X0.1000*%
%ADD109R,0.1000X0.0996*%
%ADD110O,0.0789X0.0198*%
%ADD111O,0.0198X0.0789*%
%ADD112R,0.0651X0.0867*%
%ADD113R,0.0651X0.0434*%
%ADD114R,0.0395X0.0671*%
%ADD115R,0.0580X0.0440*%
%ADD116R,0.0440X0.0440*%
%ADD117R,0.0440X0.0580*%
%ADD118R,0.0440X0.0440*%
%ADD119R,0.0280X0.0580*%
%ADD120O,0.0474X0.1300*%
%ADD121R,0.0474X0.1300*%
%ADD122R,0.0280X0.0330*%
%ADD123R,0.0380X0.0380*%
%ADD124R,0.0316X0.0245*%
%ADD125R,0.0680X0.1080*%
%ADD126R,0.1080X0.0680*%
%ADD127R,0.0277X0.0986*%
%ADD128R,0.0867X0.0867*%
%ADD129R,0.0867X0.1064*%
%ADD130C,0.0580*%
%ADD131R,0.1261X0.0946*%
%ADD132R,0.0380X0.0380*%
%ADD133R,0.0946X0.1261*%
%ADD134O,0.0316X0.0946*%
%ADD135R,0.0670X0.0870*%
%ADD136R,0.1580X0.0870*%
%ADD137O,0.1300X0.0474*%
%ADD138R,0.1300X0.0474*%
%ADD139R,0.0867X0.0592*%
G04:AMPARAMS|DCode=140|XSize=86.7mil|YSize=59.2mil|CornerRadius=16.8mil|HoleSize=0mil|Usage=FLASHONLY|Rotation=180.000|XOffset=0mil|YOffset=0mil|HoleType=Round|Shape=RoundedRectangle|*
%AMROUNDEDRECTD140*
21,1,0.0867,0.0256,0,0,180.0*
21,1,0.0532,0.0592,0,0,180.0*
1,1,0.0336,-0.0266,0.0128*
1,1,0.0336,0.0266,0.0128*
1,1,0.0336,0.0266,-0.0128*
1,1,0.0336,-0.0266,-0.0128*
%
%ADD140ROUNDEDRECTD140*%
%ADD141R,0.0780X0.0780*%
%ADD142C,0.0780*%
%ADD143C,0.0671*%
%ADD144C,0.0980*%
%ADD145C,0.0434*%
%ADD146C,0.1080*%
%ADD147R,0.0780X0.0780*%
%ADD148C,0.0680*%
%ADD149C,0.2580*%
%ADD150C,0.0837*%
%ADD151C,0.0592*%
%ADD152C,0.0356*%
D60*
X28035Y19365D02*
D03*
D110*
X34494Y15186D02*
D03*
Y14792D02*
D03*
Y14989D02*
D03*
Y15383D02*
D03*
Y14005D02*
D03*
Y13808D02*
D03*
Y13217D02*
D03*
Y13414D02*
D03*
Y13611D02*
D03*
Y14202D02*
D03*
X31306Y14398D02*
D03*
Y14595D02*
D03*
Y14792D02*
D03*
Y14989D02*
D03*
Y15186D02*
D03*
Y15383D02*
D03*
Y13808D02*
D03*
Y13611D02*
D03*
Y13414D02*
D03*
Y13217D02*
D03*
Y14005D02*
D03*
Y14202D02*
D03*
X34494Y14398D02*
D03*
Y14595D02*
D03*
D111*
X33195Y12706D02*
D03*
X33392D02*
D03*
X31817Y15894D02*
D03*
X32014D02*
D03*
X32605D02*
D03*
X33983Y12706D02*
D03*
X33786D02*
D03*
X33589D02*
D03*
X32998D02*
D03*
X32802D02*
D03*
X32605D02*
D03*
X32408D02*
D03*
X32211D02*
D03*
X32014D02*
D03*
X31817D02*
D03*
X33983Y15894D02*
D03*
X33195D02*
D03*
X32998D02*
D03*
X32802D02*
D03*
X32408D02*
D03*
X32211D02*
D03*
X33392D02*
D03*
X33589D02*
D03*
X33786D02*
D03*
D112*
X23573Y26988D02*
D03*
Y23720D02*
D03*
X18159D02*
D03*
Y26988D02*
D03*
D113*
X23573Y23051D02*
D03*
X18159Y27657D02*
D03*
D114*
X22126Y24744D02*
D03*
X21693D02*
D03*
X21260D02*
D03*
X20827D02*
D03*
X20394D02*
D03*
X19961D02*
D03*
X19528D02*
D03*
X19094D02*
D03*
D115*
X8070Y23678D02*
D03*
X9470D02*
D03*
X8075Y25255D02*
D03*
X9475D02*
D03*
X8108Y26790D02*
D03*
X9508D02*
D03*
X8084Y28403D02*
D03*
X9484D02*
D03*
X8075Y29905D02*
D03*
X9475D02*
D03*
X7052Y18163D02*
D03*
Y21894D02*
D03*
D116*
X8870Y24048D02*
D03*
Y23298D02*
D03*
X10270Y24048D02*
D03*
Y23298D02*
D03*
X8875Y25625D02*
D03*
Y24875D02*
D03*
X10275Y25625D02*
D03*
Y24875D02*
D03*
X8908Y27160D02*
D03*
Y26410D02*
D03*
X10308Y27160D02*
D03*
Y26410D02*
D03*
X8884Y28773D02*
D03*
Y28023D02*
D03*
X10284Y28773D02*
D03*
Y28023D02*
D03*
X8875Y30275D02*
D03*
Y29525D02*
D03*
X10275Y30275D02*
D03*
Y29525D02*
D03*
X6252Y18543D02*
D03*
Y17793D02*
D03*
Y22274D02*
D03*
Y21524D02*
D03*
D117*
X7555Y33625D02*
D03*
Y32225D02*
D03*
X9755Y33625D02*
D03*
Y32225D02*
D03*
X11955Y33625D02*
D03*
Y32225D02*
D03*
D118*
X7925Y32825D02*
D03*
X7175D02*
D03*
X7925Y31425D02*
D03*
X7175D02*
D03*
X10125Y32825D02*
D03*
X9375D02*
D03*
X10125Y31425D02*
D03*
X9375D02*
D03*
X12325Y32825D02*
D03*
X11575D02*
D03*
X12325Y31425D02*
D03*
X11575D02*
D03*
D119*
X15514Y12811D02*
D03*
X14764Y11811D02*
D03*
X15514D02*
D03*
X15134Y11811D02*
D03*
X14764Y12811D02*
D03*
D120*
X27953Y5630D02*
D03*
X26953D02*
D03*
X25953D02*
D03*
X24953Y7756D02*
D03*
X25953D02*
D03*
X26953D02*
D03*
X27953D02*
D03*
X22441Y36339D02*
D03*
D121*
X24953Y5630D02*
D03*
X23441Y36339D02*
D03*
X24441D02*
D03*
X25441D02*
D03*
X26441D02*
D03*
X27441D02*
D03*
X28441D02*
D03*
X29441D02*
D03*
Y38465D02*
D03*
X28441D02*
D03*
X27441D02*
D03*
X26441D02*
D03*
X25441D02*
D03*
X24441D02*
D03*
X23441D02*
D03*
X22441D02*
D03*
D122*
X23966Y6496D02*
D03*
Y6896D02*
D03*
D123*
X29528Y4921D02*
D03*
X30078D02*
D03*
X29528Y5906D02*
D03*
X30078D02*
D03*
X6842Y17165D02*
D03*
X7392D02*
D03*
X6842Y20896D02*
D03*
X7392D02*
D03*
D124*
X7650Y18346D02*
D03*
Y18602D02*
D03*
Y18090D02*
D03*
X8398Y18090D02*
D03*
Y18602D02*
D03*
X7650Y22077D02*
D03*
Y22333D02*
D03*
Y21821D02*
D03*
X8398Y21821D02*
D03*
Y22333D02*
D03*
X14374Y20600D02*
D03*
Y20344D02*
D03*
Y20856D02*
D03*
X13626Y20856D02*
D03*
Y20344D02*
D03*
D125*
X14500Y24750D02*
D03*
X13150D02*
D03*
X17000Y33250D02*
D03*
X15650D02*
D03*
X22550Y34500D02*
D03*
X23900D02*
D03*
D126*
X28700Y32750D02*
D03*
Y34100D02*
D03*
X20472Y4303D02*
D03*
Y2953D02*
D03*
X13551Y4303D02*
D03*
Y2953D02*
D03*
X4528Y13386D02*
D03*
Y14736D02*
D03*
Y11811D02*
D03*
Y10461D02*
D03*
D127*
X26929Y3150D02*
D03*
X27244D02*
D03*
X27559D02*
D03*
X27874D02*
D03*
X28189D02*
D03*
D128*
X25807Y3209D02*
D03*
X29311D02*
D03*
Y1043D02*
D03*
X25807D02*
D03*
D129*
X27244Y9646D02*
D03*
X25000D02*
D03*
X9764Y14764D02*
D03*
X12008D02*
D03*
D130*
X787Y35433D02*
D03*
X38583Y3937D02*
D03*
D131*
X3150Y4882D02*
D03*
X787D02*
D03*
Y9291D02*
D03*
X3150D02*
D03*
D132*
X11220Y5552D02*
D03*
Y6102D02*
D03*
X12008Y5552D02*
D03*
Y6102D02*
D03*
X18110Y5552D02*
D03*
Y6102D02*
D03*
X18898Y5552D02*
D03*
Y6102D02*
D03*
X13000Y20300D02*
D03*
Y20850D02*
D03*
X37100Y3900D02*
D03*
Y4450D02*
D03*
X36500Y3900D02*
D03*
Y4450D02*
D03*
X35300Y2900D02*
D03*
Y3450D02*
D03*
X29100Y14350D02*
D03*
Y14900D02*
D03*
X25700Y14350D02*
D03*
Y14900D02*
D03*
X27000Y16350D02*
D03*
Y15800D02*
D03*
X29400Y16350D02*
D03*
Y15800D02*
D03*
D133*
X9488Y3150D02*
D03*
Y787D02*
D03*
X5079D02*
D03*
Y3150D02*
D03*
D134*
X10833Y2598D02*
D03*
X11333D02*
D03*
X11833D02*
D03*
X12333D02*
D03*
X10833Y4488D02*
D03*
X11333D02*
D03*
X11833D02*
D03*
X12333D02*
D03*
X17754Y2598D02*
D03*
X18254D02*
D03*
X18754D02*
D03*
X19254D02*
D03*
X17754Y4488D02*
D03*
X18254D02*
D03*
X18754D02*
D03*
X19254D02*
D03*
D135*
X7800Y10544D02*
D03*
X6890D02*
D03*
X5980D02*
D03*
X12524D02*
D03*
X11614D02*
D03*
X10704D02*
D03*
D136*
X6890Y13024D02*
D03*
X11614D02*
D03*
D137*
X3031Y29724D02*
D03*
D138*
Y30724D02*
D03*
Y31724D02*
D03*
Y32724D02*
D03*
Y33724D02*
D03*
X906D02*
D03*
Y32724D02*
D03*
Y31724D02*
D03*
Y30724D02*
D03*
Y29724D02*
D03*
D139*
X28311Y15084D02*
D03*
X26500D02*
D03*
Y14100D02*
D03*
D140*
X28311D02*
D03*
D141*
X36400Y31095D02*
D03*
X38360Y31100D02*
D03*
X34460Y31105D02*
D03*
X32510Y31100D02*
D03*
X30560D02*
D03*
X22244Y3150D02*
D03*
X15323Y3150D02*
D03*
X18898Y8071D02*
D03*
X17717D02*
D03*
X10827D02*
D03*
X12008D02*
D03*
D142*
X36400Y30095D02*
D03*
X38360Y30100D02*
D03*
X34460Y30105D02*
D03*
X32510Y30100D02*
D03*
X30560D02*
D03*
X35033Y988D02*
D03*
X22244Y4150D02*
D03*
X15323Y4150D02*
D03*
X18898Y7071D02*
D03*
X17717D02*
D03*
X10827D02*
D03*
X12008D02*
D03*
X34033Y988D02*
D03*
X33033Y988D02*
D03*
X32033Y988D02*
D03*
D143*
X5118Y37205D02*
D03*
X7087D02*
D03*
Y35236D02*
D03*
X5118D02*
D03*
X9528D02*
D03*
Y37205D02*
D03*
X11496D02*
D03*
Y35236D02*
D03*
X15906D02*
D03*
Y37205D02*
D03*
X13937D02*
D03*
Y35236D02*
D03*
X18307Y37205D02*
D03*
X20276D02*
D03*
Y35236D02*
D03*
X18307D02*
D03*
X2040Y16685D02*
D03*
Y18654D02*
D03*
X4008D02*
D03*
Y16685D02*
D03*
Y21095D02*
D03*
X2040D02*
D03*
Y23063D02*
D03*
X4008D02*
D03*
Y27473D02*
D03*
X2040D02*
D03*
Y25504D02*
D03*
X4008D02*
D03*
D144*
X30118Y6693D02*
D03*
Y4134D02*
D03*
X8614Y16968D02*
D03*
Y20699D02*
D03*
D145*
X28425Y2126D02*
D03*
X26693D02*
D03*
D146*
X1772Y11024D02*
D03*
Y13024D02*
D03*
X15748Y6693D02*
D03*
X13748D02*
D03*
X22669Y6693D02*
D03*
X20669D02*
D03*
X8661Y8071D02*
D03*
X6661D02*
D03*
D147*
X31033Y988D02*
D03*
D148*
X37245Y38748D02*
D03*
X38345D02*
D03*
X38895Y37795D02*
D03*
X38345Y36843D02*
D03*
X37245D02*
D03*
X36695Y37795D02*
D03*
X37245Y2527D02*
D03*
X38345D02*
D03*
X38895Y1575D02*
D03*
X38345Y622D02*
D03*
X37245D02*
D03*
X36695Y1575D02*
D03*
X1025Y38748D02*
D03*
X2125D02*
D03*
X2675Y37795D02*
D03*
X2125Y36843D02*
D03*
X1025D02*
D03*
X475Y37795D02*
D03*
X1025Y2527D02*
D03*
X2125D02*
D03*
X2675Y1575D02*
D03*
X2125Y622D02*
D03*
X1025D02*
D03*
X475Y1575D02*
D03*
D149*
X37795Y37795D02*
D03*
Y1575D02*
D03*
X1575Y37795D02*
D03*
Y1575D02*
D03*
D150*
X2362Y7087D02*
D03*
X787D02*
D03*
X7283Y2362D02*
D03*
Y787D02*
D03*
D151*
X27590Y16400D02*
D03*
X28810D02*
D03*
D152*
X38122Y35402D02*
D03*
X37622Y34402D02*
D03*
X38122Y33402D02*
D03*
X37622Y32402D02*
D03*
X38122Y5402D02*
D03*
X37122Y35402D02*
D03*
X36622Y34402D02*
D03*
X37122Y33402D02*
D03*
X36622Y32402D02*
D03*
X35622Y38402D02*
D03*
Y36402D02*
D03*
X36122Y35402D02*
D03*
X35622Y34402D02*
D03*
X36122Y33402D02*
D03*
X35622Y32402D02*
D03*
X36122Y29402D02*
D03*
Y9402D02*
D03*
X34622Y38402D02*
D03*
X35122Y37402D02*
D03*
X34622Y36402D02*
D03*
X35122Y35402D02*
D03*
X34622Y34402D02*
D03*
X35122Y33402D02*
D03*
X34622Y32402D02*
D03*
Y18402D02*
D03*
X35122Y5402D02*
D03*
X34122Y37402D02*
D03*
Y35402D02*
D03*
X33622Y34402D02*
D03*
X34122Y33402D02*
D03*
X33622Y32402D02*
D03*
X34122Y5402D02*
D03*
X33622Y402D02*
D03*
X32622Y34402D02*
D03*
X33122Y33402D02*
D03*
X32622Y32402D02*
D03*
X31622Y34402D02*
D03*
X32122Y33402D02*
D03*
X31622Y32402D02*
D03*
X32122Y25402D02*
D03*
X30622Y34402D02*
D03*
X31122Y33402D02*
D03*
X30622Y32402D02*
D03*
X31122Y29402D02*
D03*
X30622Y2402D02*
D03*
X30122Y33402D02*
D03*
Y29402D02*
D03*
X29622Y24402D02*
D03*
Y18402D02*
D03*
X28622Y26402D02*
D03*
X29122Y25402D02*
D03*
X28622Y24402D02*
D03*
X29122Y23402D02*
D03*
Y19402D02*
D03*
X28122Y25402D02*
D03*
X26622Y22402D02*
D03*
Y6402D02*
D03*
X26122Y29402D02*
D03*
X25622Y28402D02*
D03*
Y26402D02*
D03*
X26122Y25402D02*
D03*
X25622Y24402D02*
D03*
X26122Y23402D02*
D03*
X25122Y29402D02*
D03*
X24622Y28402D02*
D03*
Y26402D02*
D03*
X25122Y25402D02*
D03*
X24622Y24402D02*
D03*
X25122Y23402D02*
D03*
X23622Y28402D02*
D03*
X24122Y25402D02*
D03*
X23622Y8402D02*
D03*
Y4402D02*
D03*
X22622Y28402D02*
D03*
Y26402D02*
D03*
X23122Y25402D02*
D03*
X22622Y12402D02*
D03*
X21622Y28402D02*
D03*
Y26402D02*
D03*
Y12402D02*
D03*
Y2402D02*
D03*
X20622Y28402D02*
D03*
Y26402D02*
D03*
Y12402D02*
D03*
X19622Y28402D02*
D03*
Y26402D02*
D03*
X17622Y36402D02*
D03*
Y34402D02*
D03*
X18122Y25402D02*
D03*
X17622Y22402D02*
D03*
X17122Y37402D02*
D03*
Y35402D02*
D03*
X16622Y34402D02*
D03*
X17122Y25402D02*
D03*
X16622Y22402D02*
D03*
X17122Y21402D02*
D03*
X16622Y8402D02*
D03*
Y4402D02*
D03*
X16122Y21402D02*
D03*
Y17402D02*
D03*
X15622Y16402D02*
D03*
X15122Y35402D02*
D03*
X14622Y34402D02*
D03*
Y28402D02*
D03*
X15122Y19402D02*
D03*
X14622Y16402D02*
D03*
X14122Y19402D02*
D03*
X13122Y37402D02*
D03*
Y35402D02*
D03*
X12622Y34402D02*
D03*
X13122Y19402D02*
D03*
X12622Y16402D02*
D03*
X11622Y34402D02*
D03*
X12122Y19402D02*
D03*
X11122Y33402D02*
D03*
X10122Y37402D02*
D03*
Y35402D02*
D03*
X9622Y4402D02*
D03*
X8622Y36402D02*
D03*
X9122Y21402D02*
D03*
X6622Y38402D02*
D03*
X5622D02*
D03*
Y34402D02*
D03*
X6122Y33402D02*
D03*
X5622Y32402D02*
D03*
Y28402D02*
D03*
X6122Y27402D02*
D03*
Y9402D02*
D03*
X5622Y6402D02*
D03*
X4622Y38402D02*
D03*
Y34402D02*
D03*
X5122Y33402D02*
D03*
X4622Y24402D02*
D03*
Y22402D02*
D03*
X5122Y21402D02*
D03*
Y17402D02*
D03*
Y9402D02*
D03*
X4622Y4402D02*
D03*
X3622Y38402D02*
D03*
X4122Y37402D02*
D03*
X3622Y24402D02*
D03*
Y20402D02*
D03*
Y12402D02*
D03*
X2622Y24402D02*
D03*
X3122Y23402D02*
D03*
X2622Y22402D02*
D03*
Y20402D02*
D03*
X3122Y17402D02*
D03*
Y13402D02*
D03*
X2622Y12402D02*
D03*
X3122Y11402D02*
D03*
Y3402D02*
D03*
X1622Y6402D02*
D03*
X33700Y10000D02*
D03*
X4200Y31200D02*
D03*
X11700Y24900D02*
D03*
X30100Y11600D02*
D03*
X29500Y11300D02*
D03*
X13400Y15100D02*
D03*
X12900Y15700D02*
D03*
X34800Y29200D02*
D03*
X36600D02*
D03*
X30500Y29100D02*
D03*
X14900Y34900D02*
D03*
X8200Y36300D02*
D03*
X10400D02*
D03*
X12900D02*
D03*
X14800D02*
D03*
X11900Y29400D02*
D03*
X13100Y29500D02*
D03*
X15000Y28700D02*
D03*
X16200Y28200D02*
D03*
X16700Y28700D02*
D03*
X4800Y19100D02*
D03*
X4200Y20000D02*
D03*
X3300D02*
D03*
X2200D02*
D03*
X35800Y8900D02*
D03*
Y8200D02*
D03*
X29100Y9300D02*
D03*
X31100Y8700D02*
D03*
X23000Y31600D02*
D03*
X23400Y32100D02*
D03*
X22800Y32600D02*
D03*
X37500Y7000D02*
D03*
X33500Y6100D02*
D03*
X27532Y12300D02*
D03*
X37100Y7300D02*
D03*
X33500Y6500D02*
D03*
X27888Y12300D02*
D03*
X37500Y14900D02*
D03*
X36700Y14600D02*
D03*
X36400Y27300D02*
D03*
X30612Y26188D02*
D03*
X35790Y14610D02*
D03*
X32570Y17090D02*
D03*
X38350Y16080D02*
D03*
X37550Y11750D02*
D03*
X24590Y12490D02*
D03*
X23580Y12480D02*
D03*
X21630Y14670D02*
D03*
X21134Y14676D02*
D03*
X20098Y15192D02*
D03*
X21060Y15200D02*
D03*
X31940Y10860D02*
D03*
X32680Y8090D02*
D03*
X16940Y31840D02*
D03*
X33920Y11800D02*
D03*
X27150Y31450D02*
D03*
X31300Y21500D02*
D03*
X31650Y21630D02*
D03*
X27650Y32950D02*
D03*
X27502Y31299D02*
D03*
X24750Y32450D02*
D03*
X27200Y33000D02*
D03*
X24450Y32750D02*
D03*
X20950Y32600D02*
D03*
X35200Y20700D02*
D03*
X32043Y17055D02*
D03*
X32600Y16600D02*
D03*
X30831Y5550D02*
D03*
X30709Y5906D02*
D03*
X32640Y8460D02*
D03*
X31490Y9100D02*
D03*
X37000Y11500D02*
D03*
X33300Y7100D02*
D03*
X35300Y11139D02*
D03*
X35200Y11500D02*
D03*
X36462Y22038D02*
D03*
X38100Y18400D02*
D03*
X34349Y20749D02*
D03*
X32800Y7500D02*
D03*
X33700Y7400D02*
D03*
X37400Y26300D02*
D03*
X36350Y26330D02*
D03*
X26100Y19100D02*
D03*
X24600Y14300D02*
D03*
X36800Y17600D02*
D03*
X37600Y15900D02*
D03*
X38167Y17840D02*
D03*
X30560Y11040D02*
D03*
X30662Y10502D02*
D03*
X30411Y10251D02*
D03*
X32800Y9884D02*
D03*
Y10240D02*
D03*
X31486Y9488D02*
D03*
X32325Y10900D02*
D03*
X32600Y9132D02*
D03*
Y9488D02*
D03*
X32681Y10900D02*
D03*
X33392D02*
D03*
X31900Y11300D02*
D03*
X33037Y10900D02*
D03*
X36211Y22289D02*
D03*
X38851Y24700D02*
D03*
X12300Y16700D02*
D03*
Y17100D02*
D03*
X15100Y13300D02*
D03*
X28708Y9668D02*
D03*
X28600Y10100D02*
D03*
X29600Y8600D02*
D03*
X31449Y8249D02*
D03*
X31700Y8500D02*
D03*
X31000Y5196D02*
D03*
X29000Y12700D02*
D03*
X34700Y17100D02*
D03*
X37100Y3300D02*
D03*
X36500D02*
D03*
X30200Y15900D02*
D03*
X30000Y17600D02*
D03*
X30600Y20200D02*
D03*
X32900Y29000D02*
D03*
X35100Y17900D02*
D03*
X35700Y16500D02*
D03*
X27300Y7600D02*
D03*
X29200Y7700D02*
D03*
X32500Y5700D02*
D03*
X34300Y12600D02*
D03*
X19800Y13600D02*
D03*
X32400Y14100D02*
D03*
X32300Y13700D02*
D03*
X20450Y21800D02*
D03*
X25750Y31450D02*
D03*
X20400Y32300D02*
D03*
X15450Y26250D02*
D03*
X15400Y27500D02*
D03*
X13850Y26656D02*
D03*
X15800Y29450D02*
D03*
X16650Y30900D02*
D03*
X16850Y31250D02*
D03*
X16750Y30500D02*
D03*
X16800Y30050D02*
D03*
X21200Y30400D02*
D03*
Y30900D02*
D03*
X11500Y26500D02*
D03*
X11750Y28450D02*
D03*
X21250Y31400D02*
D03*
X11500Y25550D02*
D03*
X9829Y24871D02*
D03*
X10875Y25475D02*
D03*
X10900Y28700D02*
D03*
X12150Y27600D02*
D03*
X21200Y31900D02*
D03*
X20400Y32900D02*
D03*
X18600Y33050D02*
D03*
X14400Y30700D02*
D03*
X19500Y33800D02*
D03*
X24500Y37500D02*
D03*
X18000Y33600D02*
D03*
X29250Y34450D02*
D03*
X15200Y24750D02*
D03*
X10900Y24500D02*
D03*
X15150Y33250D02*
D03*
X22600Y18500D02*
D03*
X23250D02*
D03*
X10900Y30100D02*
D03*
X8363Y25963D02*
D03*
X9800Y29900D02*
D03*
X9600Y28600D02*
D03*
X9800Y25300D02*
D03*
Y23700D02*
D03*
Y23200D02*
D03*
X9890Y26400D02*
D03*
X9800Y29500D02*
D03*
X8100Y27900D02*
D03*
Y24800D02*
D03*
X7800Y24400D02*
D03*
Y27600D02*
D03*
X2000Y28900D02*
D03*
X2800D02*
D03*
X3700D02*
D03*
X4600D02*
D03*
X3543Y36220D02*
D03*
X1000Y31200D02*
D03*
X6700Y31900D02*
D03*
X7800Y34200D02*
D03*
X12100D02*
D03*
X10000Y34300D02*
D03*
X32100Y37000D02*
D03*
X26800Y37300D02*
D03*
X32520Y37480D02*
D03*
X30787D02*
D03*
X29252Y37520D02*
D03*
X27677Y37480D02*
D03*
X25984Y37441D02*
D03*
X23622Y37480D02*
D03*
X20945Y37362D02*
D03*
X25551Y37229D02*
D03*
X22323Y37244D02*
D03*
X6890Y20079D02*
D03*
X6693Y15354D02*
D03*
X26969Y3937D02*
D03*
X30709Y4921D02*
D03*
X28740Y984D02*
D03*
X26378Y2559D02*
D03*
X26575Y2795D02*
D03*
X27953Y2362D02*
D03*
X27559D02*
D03*
X26575Y4528D02*
D03*
X27165Y2362D02*
D03*
X8208Y18950D02*
D03*
X7814Y17966D02*
D03*
X6239Y17375D02*
D03*
X6252Y21092D02*
D03*
X26181Y9646D02*
D03*
X25000Y3740D02*
D03*
Y4331D02*
D03*
X24213Y9449D02*
D03*
X24803Y7087D02*
D03*
Y7677D02*
D03*
Y8268D02*
D03*
Y8858D02*
D03*
X11780Y3346D02*
D03*
X11386D02*
D03*
X12795Y1575D02*
D03*
X13976D02*
D03*
X13386D02*
D03*
X11220Y5118D02*
D03*
X12008D02*
D03*
X4331Y2953D02*
D03*
Y1378D02*
D03*
Y787D02*
D03*
Y2362D02*
D03*
X8661Y3937D02*
D03*
X8071D02*
D03*
X10472Y4488D02*
D03*
X18307Y3346D02*
D03*
X18701D02*
D03*
X17394Y4488D02*
D03*
X18110Y5118D02*
D03*
X18898D02*
D03*
X20866Y1575D02*
D03*
X20276D02*
D03*
X19685D02*
D03*
X7677Y4921D02*
D03*
X7087D02*
D03*
X6496D02*
D03*
X5906D02*
D03*
X5315D02*
D03*
X787Y9252D02*
D03*
X1575D02*
D03*
X2362D02*
D03*
X3150D02*
D03*
X12992Y9646D02*
D03*
X13780D02*
D03*
X14567D02*
D03*
X15354D02*
D03*
X16339D02*
D03*
X17126D02*
D03*
Y10433D02*
D03*
X16339D02*
D03*
X15354D02*
D03*
X14567D02*
D03*
X13780D02*
D03*
X12992D02*
D03*
X13583Y13780D02*
D03*
Y12992D02*
D03*
Y12205D02*
D03*
X12598D02*
D03*
X11614D02*
D03*
X10827D02*
D03*
Y12992D02*
D03*
Y13780D02*
D03*
X11614D02*
D03*
Y12992D02*
D03*
X12598D02*
D03*
Y13780D02*
D03*
X8268Y12008D02*
D03*
X7480D02*
D03*
X6693D02*
D03*
X5906D02*
D03*
X4921D02*
D03*
Y12992D02*
D03*
X5906D02*
D03*
X6693D02*
D03*
X7480D02*
D03*
Y13780D02*
D03*
X6693D02*
D03*
X5906D02*
D03*
X4921D02*
D03*
X8268D02*
D03*
Y12992D02*
D03*
X9646Y13583D02*
D03*
Y12795D02*
D03*
Y12008D02*
D03*
Y11220D02*
D03*
Y10433D02*
D03*
X7677Y9252D02*
D03*
X8465D02*
D03*
X9252D02*
D03*
X7677Y8465D02*
D03*
Y7677D02*
D03*
X8268Y6890D02*
D03*
X11000Y20300D02*
D03*
X15300Y21900D02*
D03*
X15400Y24200D02*
D03*
X13200Y23600D02*
D03*
X20800Y23700D02*
D03*
X21400Y23100D02*
D03*
X19900Y23800D02*
D03*
X17500D02*
D03*
X23100Y23700D02*
D03*
X22900Y30500D02*
D03*
X28800Y29100D02*
D03*
X15900Y15600D02*
D03*
X34600Y3500D02*
D03*
X30200Y26600D02*
D03*
X37429Y24700D02*
D03*
X30500Y13900D02*
D03*
X31200Y15500D02*
D03*
X28150Y31650D02*
D03*
X7800Y21400D02*
D03*
X16100Y12800D02*
D03*
X26700Y17100D02*
D03*
X21200Y13900D02*
D03*
X20100D02*
D03*
X20300Y13200D02*
D03*
X21800Y13900D02*
D03*
X20500Y15200D02*
D03*
X36600Y18600D02*
D03*
X7950Y29400D02*
D03*
X11350Y28400D02*
D03*
X10900Y27000D02*
D03*
X9855Y27900D02*
D03*
X10900Y27400D02*
D03*
X7700Y29100D02*
D03*
X9800Y27000D02*
D03*
X12800Y32400D02*
D03*
X11100Y32000D02*
D03*
X9728Y31843D02*
D03*
X8100Y26300D02*
D03*
Y23300D02*
D03*
X8024Y22667D02*
D03*
X8600Y22800D02*
D03*
X8900Y31900D02*
D03*
X7600D02*
D03*
X7800Y30600D02*
D03*
X13879Y32800D02*
D03*
X14200Y31050D02*
D03*
X14500Y31605D02*
D03*
X32400Y20200D02*
D03*
Y19800D02*
D03*
X22300Y19900D02*
D03*
X20690Y19920D02*
D03*
X33500Y19400D02*
D03*
X21800Y18500D02*
D03*
X33700Y19900D02*
D03*
X34900Y19500D02*
D03*
X35700Y18800D02*
D03*
X29200Y17570D02*
D03*
X28190Y28520D02*
D03*
X28640Y28100D02*
D03*
X29200Y27570D02*
D03*
M02*
