M48
;Layer_Color=9474304
;FILE_FORMAT=2:4
INCH,LZ
;TYPE=PLATED
T1F00S00C0.0138
T2F00S00C0.0276
T3F00S00C0.0300
T4F00S00C0.0354
T5F00S00C0.0400
T6F00S00C0.0593
T7F00S00C0.0650
T8F00S00C0.0669
T9F00S00C0.1220
;TYPE=NON_PLATED
T10F00S00C0.0354
%
T01
X004331Y000787
Y001378
Y002362
Y002953
X003122Y003402
X004622Y004402
X005315Y004921
X005906
X006496
X007087
X007677
Y007677
Y008465
Y009252
X00315
X002362
X001575
X000787
X001622Y006402
X005622
X008268Y00689
X008465Y009252
X009252
X009622Y004402
X010472Y004488
X01122Y005118
X012008
X01178Y003346
X011386
X012795Y001575
X013386
X013976
X016622Y004402
X017394Y004488
X01811Y005118
X018898
X018701Y003346
X018307
X019685Y001575
X020276
X020866
X021622Y002402
X016622Y008402
X008661Y003937
X008071
X023622Y004402
X025Y004331
Y00374
X026969Y003937
X026575Y004528
Y002795
X026378Y002559
X027165Y002362
X027559
X027953
X02874Y000984
X030622Y002402
X030709Y004921
X031Y005196
X030831Y00555
X030709Y005906
X0325Y0057
X0335Y0061
Y0065
X0333Y0071
X0337Y0074
X0328Y0075
X03268Y00809
X03264Y00846
X0326Y009132
X03149Y0091
X0311Y0087
X031449Y008249
X0317Y0085
X0296Y0086
X0292Y0077
X0273Y0076
X026622Y006402
X024803Y007087
Y007677
Y008268
Y008858
X023622Y008402
X0358Y0082
Y0089
X0371Y0073
X0375Y007
X038122Y005402
X035122
X034122
X0346Y0035
X0365Y0033
X0371
X033622Y000402
X0337Y01
X0328Y009884
Y01024
X032681Y0109
X032325
X03194Y01086
X0319Y0113
X033037Y0109
X033392
X03392Y0118
X0343Y0126
X0352Y0115
X0353Y011139
X037Y0115
X03755Y01175
X0375Y0149
X0367Y0146
X03579Y01461
X0357Y0165
X0347Y0171
X0351Y0179
X034622Y018402
X0349Y0195
X0352Y0207
X034349Y020749
X0337Y0199
X0335Y0194
X0324Y0198
Y0202
X0306
X0313Y0215
X03165Y02163
X029122Y023402
X029622Y024402
X028622
X025622
X024622
X025122Y023402
X026122
X026622Y022402
X0261Y0191
X0267Y0171
X0292Y01757
X03Y0176
X029622Y018402
X029122Y019402
X0302Y0159
X0312Y0155
X0305Y0139
X0323Y0137
X0324Y0141
X0326Y0166
X03257Y01709
X032043Y017055
X0368Y0176
X0366Y0186
X0357Y0188
X0381Y0184
X038167Y01784
X03835Y01608
X0376Y0159
X036462Y022038
X036211Y022289
X037429Y0247
X038851
X036122Y009402
X0326Y009488
X031486
X030662Y010502
X030411Y010251
X03056Y01104
X0301Y0116
X0295Y0113
X029Y0127
X027888Y0123
X027532
X02459Y01249
X0246Y0143
X024213Y009449
X026181Y009646
X028708Y009668
X0286Y0101
X0291Y0093
X02358Y01248
X022622Y012402
X021622
X020622
X0203Y0132
X0198Y0136
X0201Y0139
X0212
X0218
X02163Y01467
X021134Y014676
X02106Y0152
X0205
X020098Y015192
X0159Y0156
X015622Y016402
X014622
X012622
X0123Y0167
Y0171
X0129Y0157
X0134Y0151
X013583Y01378
Y012992
Y012205
X012598
Y012992
Y01378
X011614
X010827
Y012992
X011614
Y012205
X010827
X009646Y012008
Y012795
Y013583
X008268Y01378
Y012992
Y012008
X009646Y01122
Y010433
X012992
Y009646
X01378
X014567
X015354
Y010433
X014567
X01378
X016339
X017126
Y009646
X016339
X0161Y0128
X0151Y0133
X016122Y017402
X015122Y019402
X014122
X013122
X012122
X011Y0203
X009122Y021402
X0086Y0228
X008024Y022667
X0081Y0233
Y0248
X009829Y024871
X0098Y0237
Y0232
X0109Y0245
X0132Y0236
X0154Y0242
X0152Y02475
X0153Y0219
X016122Y021402
X017122
X017622Y022402
X016622
X0175Y0238
X0199
X0208Y0237
X0214Y0231
X02045Y0218
X02069Y01992
X0223Y0199
X0226Y0185
X02325
X0218
X0231Y0237
X008208Y01895
X007814Y017966
X006239Y017375
X005122Y017402
X003122
X0033Y02
X003622Y020402
X0042Y02
X0048Y0191
X005122Y021402
X006252Y021092
X00689Y020079
X0078Y0214
Y0244
X004622Y024402
X003622
X002622
X003122Y023402
X002622Y022402
X004622
X002622Y020402
X0022Y02
X003122Y013402
X003622Y012402
X002622
X003122Y011402
X004921Y012008
X005906
X006693
X00748
Y012992
X006693
X005906
Y01378
X006693
X00748
X006693Y015354
X004921Y01378
Y012992
X005122Y009402
X006122
Y027402
X005622Y028402
X0046Y0289
X0037
X0028
X002
X001Y0312
X0042
X005622Y032402
X006122Y033402
X005122
X005622Y034402
X004622
X003543Y03622
X004122Y037402
X004622Y038402
X005622
X006622
X003622
X0078Y0342
X0076Y0319
X0067
X0078Y0306
X00795Y0294
X0077Y0291
X0078Y0276
X0081Y0279
Y0263
X008363Y025963
X00989Y0264
X0098Y027
X009855Y0279
X0096Y0286
X0098Y0295
Y0299
X0109Y0301
Y0287
X01135Y0284
X01175Y02845
X0119Y0294
X0131Y0295
X0144Y0307
X0142Y03105
X0145Y031605
X013879Y0328
X0128Y0324
X0111Y032
X011122Y033402
X011622Y034402
X0121Y0342
X012622Y034402
X013122Y035402
X0129Y0363
X013122Y037402
X0148Y0363
X015122Y035402
X0149Y0349
X014622Y034402
X01515Y03325
X016622Y034402
X017622
X018Y0336
X0186Y03305
X0195Y0338
X0204Y0329
Y0323
X02095Y0326
X0212Y0319
X02125Y0314
X0212Y0309
Y0304
X0229Y0305
X023Y0316
X0234Y0321
X0228Y0326
X022622Y028402
X021622
X020622
X019622
Y026402
X020622
X021622
X022622
X023122Y025402
X018122
X017122
X01545Y02625
X0154Y0275
X0162Y0282
X0167Y0287
X0168Y03005
X01675Y0305
X01665Y0309
X01685Y03125
X01694Y03184
X0158Y02945
X015Y0287
X014622Y028402
X01385Y026656
X0115Y0265
Y02555
X010875Y025475
X0098Y0253
X0117Y0249
X0109Y027
Y0274
X01215Y0276
X009728Y031843
X0089Y0319
X01Y0343
X010122Y035402
X0104Y0363
X010122Y037402
X008622Y036402
X0082Y0363
X017622Y036402
X017122Y037402
Y035402
X020945Y037362
X022323Y037244
X023622Y03748
X0245Y0375
X025551Y037229
X025984Y037441
X0268Y0373
X027677Y03748
X029252Y03752
X030787Y03748
X03252
X0321Y037
X034122Y037402
X035122
X035622Y038402
X034622
Y036402
X035622
X036122Y035402
X037122
X038122
X037622Y034402
X036622
X035622
X034622
X033622
X032622
X031622
X030622
X02925Y03445
X030122Y033402
X031122
X032122
X033122
X034122
X035122
X036122
X037122
X038122
X037622Y032402
X036622
X035622
X034622
X033622
X032622
X031622
X030622
X02815Y03165
X027502Y031299
X02715Y03145
X02575
X02475Y03245
X02445Y03275
X0272Y033
X02765Y03295
X02819Y02852
X02864Y0281
X0292Y02757
X028622Y026402
X029122Y025402
X028122
X026122
X025122
X024122
X024622Y026402
X025622
Y028402
X024622
X023622
X025122Y029402
X026122
X0288Y0291
X030122Y029402
X0305Y0291
X031122Y029402
X0329Y029
X0348Y0292
X036122Y029402
X0366Y0292
X0364Y0273
X03635Y02633
X0374Y0263
X032122Y025402
X030612Y026188
X0302Y0266
X034122Y035402
X035122
T02
X02759Y0164
X02881
T03
X001025Y000622
X002125
X002675Y001575
X002125Y002527
X001025
X000475Y001575
X036695
X037245Y002527
X038345
X038895Y001575
X038345Y000622
X037245
X002125Y036843
X001025
X000475Y037795
X001025Y038748
X002125
X002675Y037795
X036695
X037245Y038748
X038345
X038895Y037795
X038345Y036843
X037245
T04
X00204Y016685
Y018654
X004008
Y016685
Y021095
X00204
Y023063
X004008
Y025504
Y027473
X00204
Y025504
X005118Y035236
Y037205
X007087
Y035236
X009528
Y037205
X011496
Y035236
X013937
X015906
Y037205
X013937
X018307
X020276
Y035236
X018307
T05
X010827Y007071
X010827Y008071
X012008
X012008Y007071
X017717
X017717Y008071
X018898
X018898Y007071
X022244Y00415
X022244Y00315
X015323Y00315
X015323Y00415
X031033Y000988
X032033Y000988
X033033Y000988
X034033Y000988
X035033Y000988
X03446Y030105
X03446Y031105
X0364Y031095
X0364Y030095
X03836Y0301
X03836Y0311
X03251
X03251Y0301
X03056
X03056Y0311
T06
X006661Y008071
X008661
X013748Y006693
X015748
X020669Y006693
X022669
X001772Y011024
Y013024
T07
X030118Y004134
Y006693
X008614Y016968
Y020699
T08
X000787Y007087
X002362
X007283Y002362
Y000787
T09
X001575Y001575
X037795
X001575Y037795
X037795
T10
X026693Y002126
X028425
M30
