%FSLAX24Y24*%
%MOIN*%
G70*
G01*
G75*
%ADD10O,0.0709X0.0118*%
%ADD11O,0.0118X0.0709*%
%ADD12R,0.0571X0.0787*%
%ADD13R,0.0571X0.0354*%
%ADD14R,0.0315X0.0591*%
%ADD15R,0.0500X0.0360*%
%ADD16R,0.0360X0.0360*%
%ADD17R,0.0360X0.0500*%
%ADD18R,0.0360X0.0360*%
%ADD19R,0.0200X0.0500*%
%ADD20O,0.0394X0.1220*%
%ADD21R,0.0394X0.1220*%
%ADD22R,0.0200X0.0250*%
%ADD23R,0.0300X0.0300*%
%ADD24R,0.0236X0.0165*%
%ADD25R,0.0600X0.1000*%
%ADD26R,0.1000X0.0600*%
%ADD27R,0.0197X0.0906*%
%ADD28R,0.0787X0.0787*%
%ADD29R,0.0787X0.0984*%
%ADD30C,0.0500*%
%ADD31R,0.1181X0.0866*%
%ADD32R,0.0300X0.0300*%
%ADD33R,0.0866X0.1181*%
%ADD34O,0.0236X0.0866*%
%ADD35R,0.0590X0.0790*%
%ADD36R,0.1500X0.0790*%
%ADD37O,0.1220X0.0394*%
%ADD38R,0.1220X0.0394*%
%ADD39R,0.0787X0.0512*%
G04:AMPARAMS|DCode=40|XSize=78.7mil|YSize=51.2mil|CornerRadius=12.8mil|HoleSize=0mil|Usage=FLASHONLY|Rotation=180.000|XOffset=0mil|YOffset=0mil|HoleType=Round|Shape=RoundedRectangle|*
%AMROUNDEDRECTD40*
21,1,0.0787,0.0256,0,0,180.0*
21,1,0.0532,0.0512,0,0,180.0*
1,1,0.0256,-0.0266,0.0128*
1,1,0.0256,0.0266,0.0128*
1,1,0.0256,0.0266,-0.0128*
1,1,0.0256,-0.0266,-0.0128*
%
%ADD40ROUNDEDRECTD40*%
%ADD41C,0.0400*%
%ADD42C,0.0100*%
%ADD43C,0.0150*%
%ADD44C,0.0120*%
%ADD45C,0.0800*%
%ADD46C,0.1000*%
%ADD47C,0.0200*%
%ADD48C,0.0300*%
%ADD49C,0.0700*%
%ADD50C,0.0500*%
%ADD51C,0.0250*%
%ADD52C,0.0600*%
%ADD53R,0.4331X0.2953*%
%ADD54R,0.2362X0.2165*%
%ADD55R,0.3740X0.2953*%
%ADD56R,0.1378X0.0984*%
%ADD57R,0.5315X0.1378*%
%ADD58R,0.0591X0.0787*%
%ADD59R,0.0800X0.0800*%
%ADD60R,0.2510X0.3090*%
%ADD61R,0.0700X0.0700*%
%ADD62C,0.0700*%
%ADD63C,0.0591*%
%ADD64C,0.0900*%
%ADD65C,0.0354*%
%ADD66C,0.1000*%
%ADD67R,0.0700X0.0700*%
%ADD68C,0.0600*%
%ADD69C,0.2500*%
%ADD70C,0.0757*%
%ADD71C,0.0512*%
%ADD72C,0.0276*%
%ADD73R,0.0433X0.0492*%
%ADD74O,0.0800X0.0240*%
%ADD75R,0.0800X0.0240*%
%ADD76O,0.0240X0.0800*%
%ADD77R,0.0240X0.0800*%
%ADD78O,0.0827X0.0177*%
%ADD79O,0.0500X0.1000*%
%ADD80R,0.0500X0.1000*%
%ADD81O,0.1000X0.0500*%
%ADD82R,0.1000X0.0500*%
%ADD83R,0.0400X0.0500*%
%ADD84R,0.0500X0.0400*%
%ADD85R,0.0492X0.0433*%
%ADD86R,0.1280X0.1280*%
G04:AMPARAMS|DCode=87|XSize=9.8mil|YSize=35.4mil|CornerRadius=2.5mil|HoleSize=0mil|Usage=FLASHONLY|Rotation=0.000|XOffset=0mil|YOffset=0mil|HoleType=Round|Shape=RoundedRectangle|*
%AMROUNDEDRECTD87*
21,1,0.0098,0.0305,0,0,0.0*
21,1,0.0049,0.0354,0,0,0.0*
1,1,0.0049,0.0025,-0.0153*
1,1,0.0049,-0.0025,-0.0153*
1,1,0.0049,-0.0025,0.0153*
1,1,0.0049,0.0025,0.0153*
%
%ADD87ROUNDEDRECTD87*%
%ADD88R,0.0098X0.0354*%
%ADD89R,0.0354X0.0098*%
%ADD90R,0.0157X0.1575*%
%ADD91O,0.0157X0.1575*%
%ADD92R,0.0906X0.0906*%
%ADD93R,0.0906X0.0906*%
%ADD94R,0.0250X0.0200*%
%ADD95R,0.0157X0.0276*%
%ADD96O,0.0157X0.0276*%
%ADD97R,0.2362X0.3543*%
%ADD98R,0.5315X0.1575*%
%ADD99C,0.0040*%
%ADD100C,0.0098*%
%ADD101C,0.0236*%
%ADD102C,0.0050*%
%ADD103C,0.0079*%
%ADD104C,0.0060*%
%ADD105C,0.0080*%
%ADD106C,0.0059*%
%ADD107R,0.0197X0.0300*%
%ADD108R,0.0996X0.1000*%
%ADD109R,0.1000X0.0996*%
D42*
X18445Y28740D02*
X23287D01*
X18445Y22126D02*
X23287D01*
X18445D02*
Y28740D01*
X23287Y22126D02*
Y28740D01*
X8307Y34055D02*
Y39094D01*
X3937Y34055D02*
Y39094D01*
X5118Y37992D02*
Y39094D01*
X7087Y37992D02*
Y39094D01*
X3937D02*
X8307D01*
X3937Y34055D02*
X8307D01*
X8346D02*
X12717D01*
X8346Y39094D02*
X12717D01*
X11496Y37992D02*
Y39094D01*
X9528Y37992D02*
Y39094D01*
X8346Y34055D02*
Y39094D01*
X12717Y34055D02*
Y39094D01*
X17126Y34055D02*
Y39094D01*
X12756Y34055D02*
Y39094D01*
X13937Y37992D02*
Y39094D01*
X15906Y37992D02*
Y39094D01*
X12756D02*
X17126D01*
X12756Y34055D02*
X17126D01*
X12717D02*
Y39094D01*
X17126Y34055D02*
Y39094D01*
X18307Y37992D02*
Y39094D01*
X20276Y37992D02*
Y39094D01*
X17126D02*
X21496D01*
X17126Y34055D02*
X21496D01*
X21535D02*
Y39094D01*
X24253Y5893D02*
Y7493D01*
X27453Y7693D02*
X27653Y7893D01*
X27253D02*
X27453Y7693D01*
X28253Y7893D02*
X28453Y7693D01*
X28653Y7493D01*
X26253Y7893D02*
X26453Y7693D01*
X26653Y7893D01*
X25253D02*
X25453Y7693D01*
X25653Y7893D01*
X24453Y7693D02*
X24653Y7893D01*
X24253Y7493D02*
X24453Y7693D01*
X27453Y5693D02*
X27653Y5493D01*
X27253D02*
X27453Y5693D01*
X28253Y5493D02*
X28453Y5693D01*
X28653Y5893D02*
Y7493D01*
X28453Y5693D02*
X28653Y5893D01*
X26253Y5493D02*
X26453Y5693D01*
X26653Y5493D01*
X25253D02*
X25453Y5693D01*
X25653Y5493D01*
X24253Y5893D02*
X24653Y5493D01*
X3937Y8858D02*
X4331Y8465D01*
X3937Y5315D02*
X4331Y5709D01*
X-1181Y8858D02*
X3937D01*
X4331Y5709D02*
Y8465D01*
X-1181Y5315D02*
X3937D01*
X-1181D02*
Y8858D01*
X5512Y3937D02*
X5906Y4331D01*
X8661D02*
X9055Y3937D01*
X5512Y-1181D02*
Y3937D01*
X5906Y4331D02*
X8661D01*
X9055Y-1181D02*
Y3937D01*
X5512Y-1181D02*
X9055D01*
X29741Y38602D02*
X30141Y38202D01*
X28741Y38602D02*
X28941Y38402D01*
X29141Y38602D01*
X27741D02*
X27941Y38402D01*
X28141Y38602D01*
X26741D02*
X26941Y38402D01*
X27141Y38602D01*
X25741D02*
X25941Y38402D01*
X26141Y38602D01*
X24741D02*
X24941Y38402D01*
X25141Y38602D01*
X23741D02*
X23941Y38402D01*
X24141Y38602D01*
X21741Y38202D02*
X21941Y38402D01*
X21741Y36602D02*
Y38202D01*
X21941Y38402D02*
X22141Y38602D01*
X22941Y38402D02*
X23141Y38602D01*
X22741D02*
X22941Y38402D01*
X29941Y36402D02*
X30141Y36602D01*
X29741Y36202D02*
X29941Y36402D01*
X28741Y36202D02*
X28941Y36402D01*
X29141Y36202D01*
X27741D02*
X27941Y36402D01*
X28141Y36202D01*
X26741D02*
X26941Y36402D01*
X27141Y36202D01*
X25741D02*
X25941Y36402D01*
X26141Y36202D01*
X24741D02*
X24941Y36402D01*
X25141Y36202D01*
X23741D02*
X23941Y36402D01*
X24141Y36202D01*
X21741Y36602D02*
X21941Y36402D01*
X22141Y36202D01*
X22941Y36402D02*
X23141Y36202D01*
X22741D02*
X22941Y36402D01*
X30141Y36602D02*
Y38202D01*
X768Y34024D02*
X1169Y34424D01*
X768Y33024D02*
X969Y33224D01*
X768Y33424D02*
X969Y33224D01*
X768Y32024D02*
X969Y32224D01*
X768Y32424D02*
X969Y32224D01*
X768Y31024D02*
X969Y31224D01*
X768Y31424D02*
X969Y31224D01*
Y29224D02*
X1169Y29024D01*
X2768D01*
X768Y29424D02*
X969Y29224D01*
X768Y30424D02*
X969Y30224D01*
X768Y30024D02*
X969Y30224D01*
X2768Y34424D02*
X2968Y34224D01*
X3169Y34024D01*
X2968Y33224D02*
X3169Y33024D01*
X2968Y33224D02*
X3169Y33424D01*
X2968Y32224D02*
X3169Y32024D01*
X2968Y32224D02*
X3169Y32424D01*
X2968Y31224D02*
X3169Y31024D01*
X2968Y31224D02*
X3169Y31424D01*
X2768Y29024D02*
X2968Y29224D01*
X3169Y29424D01*
X2968Y30224D02*
X3169Y30424D01*
X2968Y30224D02*
X3169Y30024D01*
X1169Y34424D02*
X2768D01*
X150Y19874D02*
X5189D01*
X150Y15504D02*
X5189D01*
X150Y16685D02*
X1252D01*
X150Y18654D02*
X1252D01*
X150Y15504D02*
Y19874D01*
X5189Y15504D02*
Y19874D01*
Y19914D02*
Y24284D01*
X150Y19914D02*
Y24284D01*
Y23063D02*
X1252D01*
X150Y21095D02*
X1252D01*
X150Y19914D02*
X5189D01*
X150Y24284D02*
X5189D01*
X150Y28693D02*
X5189D01*
X150Y24323D02*
X5189D01*
X150Y25504D02*
X1252D01*
X150Y27473D02*
X1252D01*
X150Y24323D02*
Y28693D01*
X5189Y24323D02*
Y28693D01*
X150Y24284D02*
X5189D01*
X8417Y19536D02*
Y19036D01*
X8517Y18936D01*
X8717D01*
X8817Y19036D01*
Y19536D01*
X9017Y19436D02*
X9117Y19536D01*
X9317D01*
X9417Y19436D01*
Y19336D01*
X9317Y19236D01*
X9217D01*
X9317D01*
X9417Y19136D01*
Y19036D01*
X9317Y18936D01*
X9117D01*
X9017Y19036D01*
X9617Y19536D02*
Y18936D01*
X9917D01*
X10017Y19036D01*
Y19136D01*
X9917Y19236D01*
X9617D01*
X9917D01*
X10017Y19336D01*
Y19436D01*
X9917Y19536D01*
X9617D01*
X9195Y15984D02*
Y16383D01*
Y16184D01*
X9795D01*
Y16583D02*
X9195D01*
Y16883D01*
X9295Y16983D01*
X9495D01*
X9595Y16883D01*
Y16583D01*
X9795Y17183D02*
Y17383D01*
Y17283D01*
X9195D01*
X9295Y17183D01*
X9195Y17683D02*
X9795D01*
Y17983D01*
X9695Y18083D01*
X9595D01*
X9495Y17983D01*
Y17683D01*
Y17983D01*
X9395Y18083D01*
X9295D01*
X9195Y17983D01*
Y17683D01*
X6252Y16180D02*
Y16780D01*
X6552D01*
X6652Y16680D01*
Y16480D01*
X6552Y16380D01*
X6252D01*
X6452D02*
X6652Y16180D01*
X7252Y16780D02*
X7052Y16680D01*
X6852Y16480D01*
Y16280D01*
X6952Y16180D01*
X7152D01*
X7252Y16280D01*
Y16380D01*
X7152Y16480D01*
X6852D01*
X7452Y16780D02*
Y16180D01*
X7751D01*
X7851Y16280D01*
Y16380D01*
X7751Y16480D01*
X7452D01*
X7751D01*
X7851Y16580D01*
Y16680D01*
X7751Y16780D01*
X7452D01*
X6258Y19036D02*
Y19436D01*
X6158Y19536D01*
X5958D01*
X5858Y19436D01*
Y19036D01*
X5958Y18936D01*
X6158D01*
X6058Y19136D02*
X6258Y18936D01*
X6158D02*
X6258Y19036D01*
X6458Y18936D02*
X6658D01*
X6558D01*
Y19536D01*
X6458Y19436D01*
X6958Y19536D02*
Y18936D01*
X7258D01*
X7358Y19036D01*
Y19136D01*
X7258Y19236D01*
X6958D01*
X7258D01*
X7358Y19336D01*
Y19436D01*
X7258Y19536D01*
X6958D01*
X26200Y13600D02*
Y13500D01*
X26400Y13300D01*
X26600Y13500D01*
Y13600D01*
X26400Y13300D02*
Y13000D01*
X27200D02*
X26800D01*
X27200Y13400D01*
Y13500D01*
X27100Y13600D01*
X26900D01*
X26800Y13500D01*
X27080Y17700D02*
Y17600D01*
X27280Y17400D01*
X27480Y17600D01*
Y17700D01*
X27280Y17400D02*
Y17100D01*
X27680D02*
X27880D01*
X27780D01*
Y17700D01*
X27680Y17600D01*
X13180Y10236D02*
X13580D01*
X13780Y10436D01*
X13580Y10636D01*
X13180D01*
X13780Y10836D02*
X13180D01*
Y11136D01*
X13280Y11236D01*
X13480D01*
X13580Y11136D01*
Y10836D01*
Y11036D02*
X13780Y11236D01*
X13280Y11436D02*
X13180Y11536D01*
Y11736D01*
X13280Y11836D01*
X13380D01*
X13480Y11736D01*
Y11636D01*
Y11736D01*
X13580Y11836D01*
X13680D01*
X13780Y11736D01*
Y11536D01*
X13680Y11436D01*
X15936Y10827D02*
X16336D01*
X16535Y11027D01*
X16336Y11227D01*
X15936D01*
X16535Y11427D02*
X15936D01*
Y11726D01*
X16036Y11826D01*
X16236D01*
X16336Y11726D01*
Y11427D01*
Y11627D02*
X16535Y11826D01*
Y12426D02*
Y12026D01*
X16136Y12426D01*
X16036D01*
X15936Y12326D01*
Y12126D01*
X16036Y12026D01*
X8455Y10236D02*
X8855D01*
X9055Y10436D01*
X8855Y10636D01*
X8455D01*
X9055Y10836D02*
X8455D01*
Y11136D01*
X8555Y11236D01*
X8755D01*
X8855Y11136D01*
Y10836D01*
Y11036D02*
X9055Y11236D01*
Y11436D02*
Y11636D01*
Y11536D01*
X8455D01*
X8555Y11436D01*
X13492Y22031D02*
Y21532D01*
X13592Y21432D01*
X13792D01*
X13892Y21532D01*
Y22031D01*
X14492D02*
X14292Y21931D01*
X14092Y21731D01*
Y21532D01*
X14192Y21432D01*
X14392D01*
X14492Y21532D01*
Y21632D01*
X14392Y21731D01*
X14092D01*
X30935Y17265D02*
Y16765D01*
X31035Y16665D01*
X31235D01*
X31335Y16765D01*
Y17265D01*
X31935D02*
X31535D01*
Y16965D01*
X31735Y17065D01*
X31835D01*
X31935Y16965D01*
Y16765D01*
X31835Y16665D01*
X31635D01*
X31535Y16765D01*
X8858Y22844D02*
Y22344D01*
X8958Y22244D01*
X9158D01*
X9258Y22344D01*
Y22844D01*
X9458Y22744D02*
X9558Y22844D01*
X9758D01*
X9858Y22744D01*
Y22644D01*
X9758Y22544D01*
X9658D01*
X9758D01*
X9858Y22444D01*
Y22344D01*
X9758Y22244D01*
X9558D01*
X9458Y22344D01*
X10058Y22244D02*
Y22644D01*
X10258Y22844D01*
X10458Y22644D01*
Y22244D01*
Y22544D01*
X10058D01*
X30118Y3356D02*
X30518D01*
X30318D01*
Y2756D01*
X30718D02*
Y3356D01*
X31018D01*
X31118Y3256D01*
Y3056D01*
X31018Y2956D01*
X30718D01*
X31318Y3256D02*
X31418Y3356D01*
X31618D01*
X31718Y3256D01*
Y3156D01*
X31618Y3056D01*
X31518D01*
X31618D01*
X31718Y2956D01*
Y2856D01*
X31618Y2756D01*
X31418D01*
X31318Y2856D01*
X30118Y8080D02*
X30518D01*
X30318D01*
Y7480D01*
X30718D02*
Y8080D01*
X31018D01*
X31118Y7980D01*
Y7780D01*
X31018Y7680D01*
X30718D01*
X31718Y7480D02*
X31318D01*
X31718Y7880D01*
Y7980D01*
X31618Y8080D01*
X31418D01*
X31318Y7980D01*
X9195Y19714D02*
Y20114D01*
Y19914D01*
X9795D01*
Y20314D02*
X9195D01*
Y20614D01*
X9295Y20714D01*
X9495D01*
X9595Y20614D01*
Y20314D01*
X9795Y20914D02*
Y21114D01*
Y21014D01*
X9195D01*
X9295Y20914D01*
X9795Y21414D02*
X9395D01*
X9195Y21614D01*
X9395Y21814D01*
X9795D01*
X9495D01*
Y21414D01*
X30906Y4528D02*
Y5127D01*
X31205D01*
X31305Y5027D01*
Y4827D01*
X31205Y4727D01*
X30906D01*
X31105D02*
X31305Y4528D01*
X31505Y4628D02*
X31605Y4528D01*
X31805D01*
X31905Y4628D01*
Y5027D01*
X31805Y5127D01*
X31605D01*
X31505Y5027D01*
Y4927D01*
X31605Y4827D01*
X31905D01*
X30906Y5709D02*
Y6308D01*
X31205D01*
X31305Y6209D01*
Y6009D01*
X31205Y5909D01*
X30906D01*
X31105D02*
X31305Y5709D01*
X31505Y6209D02*
X31605Y6308D01*
X31805D01*
X31905Y6209D01*
Y6109D01*
X31805Y6009D01*
X31905Y5909D01*
Y5809D01*
X31805Y5709D01*
X31605D01*
X31505Y5809D01*
Y5909D01*
X31605Y6009D01*
X31505Y6109D01*
Y6209D01*
X31605Y6009D02*
X31805D01*
X6252Y19911D02*
Y20511D01*
X6552D01*
X6652Y20411D01*
Y20211D01*
X6552Y20111D01*
X6252D01*
X6452D02*
X6652Y19911D01*
X7252Y20511D02*
X7052Y20411D01*
X6852Y20211D01*
Y20011D01*
X6952Y19911D01*
X7152D01*
X7252Y20011D01*
Y20111D01*
X7152Y20211D01*
X6852D01*
X7452Y19911D02*
Y20311D01*
X7651Y20511D01*
X7851Y20311D01*
Y19911D01*
Y20211D01*
X7452D01*
X36700Y4900D02*
X36100D01*
Y5200D01*
X36200Y5300D01*
X36400D01*
X36500Y5200D01*
Y4900D01*
Y5100D02*
X36700Y5300D01*
Y5900D02*
Y5500D01*
X36300Y5900D01*
X36200D01*
X36100Y5800D01*
Y5600D01*
X36200Y5500D01*
X37500Y4900D02*
X36900D01*
Y5200D01*
X37000Y5300D01*
X37200D01*
X37300Y5200D01*
Y4900D01*
Y5100D02*
X37500Y5300D01*
Y5500D02*
Y5700D01*
Y5600D01*
X36900D01*
X37000Y5500D01*
X6258Y22767D02*
Y23167D01*
X6158Y23267D01*
X5958D01*
X5858Y23167D01*
Y22767D01*
X5958Y22667D01*
X6158D01*
X6058Y22867D02*
X6258Y22667D01*
X6158D02*
X6258Y22767D01*
X6458Y22667D02*
X6658D01*
X6558D01*
Y23267D01*
X6458Y23167D01*
X6958Y22667D02*
Y23067D01*
X7158Y23267D01*
X7358Y23067D01*
Y22667D01*
Y22967D01*
X6958D01*
X30503Y35630D02*
X31102D01*
X30902D01*
X30503Y36030D01*
X30802Y35730D01*
X31102Y36030D01*
Y36230D02*
Y36430D01*
Y36330D01*
X30503D01*
X30603Y36230D01*
X30503Y36730D02*
Y37129D01*
X30603D01*
X31002Y36730D01*
X31102D01*
X18701Y33671D02*
Y33071D01*
Y33271D01*
X19101Y33671D01*
X18801Y33371D01*
X19101Y33071D01*
X19301D02*
X19501D01*
X19401D01*
Y33671D01*
X19301Y33571D01*
X20200Y33671D02*
X20000Y33571D01*
X19800Y33371D01*
Y33171D01*
X19900Y33071D01*
X20100D01*
X20200Y33171D01*
Y33271D01*
X20100Y33371D01*
X19800D01*
X4134Y30127D02*
Y29528D01*
Y29727D01*
X4534Y30127D01*
X4234Y29827D01*
X4534Y29528D01*
X4734D02*
X4934D01*
X4834D01*
Y30127D01*
X4734Y30027D01*
X5633Y30127D02*
X5234D01*
Y29827D01*
X5433Y29927D01*
X5533D01*
X5633Y29827D01*
Y29628D01*
X5533Y29528D01*
X5333D01*
X5234Y29628D01*
X5315Y33868D02*
Y33268D01*
Y33468D01*
X5715Y33868D01*
X5415Y33568D01*
X5715Y33268D01*
X5915D02*
X6115D01*
X6015D01*
Y33868D01*
X5915Y33768D01*
X6715Y33268D02*
Y33868D01*
X6415Y33568D01*
X6814D01*
X30595Y2429D02*
Y1829D01*
Y2029D01*
X30995Y2429D01*
X30695Y2129D01*
X30995Y1829D01*
X31195D02*
X31395D01*
X31295D01*
Y2429D01*
X31195Y2329D01*
X31695D02*
X31795Y2429D01*
X31995D01*
X32095Y2329D01*
Y2229D01*
X31995Y2129D01*
X31895D01*
X31995D01*
X32095Y2029D01*
Y1929D01*
X31995Y1829D01*
X31795D01*
X31695Y1929D01*
X25478Y4539D02*
Y3939D01*
Y4139D01*
X25878Y4539D01*
X25578Y4239D01*
X25878Y3939D01*
X26078D02*
X26278D01*
X26178D01*
Y4539D01*
X26078Y4439D01*
X26977Y3939D02*
X26577D01*
X26977Y4339D01*
Y4439D01*
X26877Y4539D01*
X26677D01*
X26577Y4439D01*
X5512Y28553D02*
Y27953D01*
Y28153D01*
X5912Y28553D01*
X5612Y28253D01*
X5912Y27953D01*
X6112Y28053D02*
X6212Y27953D01*
X6412D01*
X6511Y28053D01*
Y28453D01*
X6412Y28553D01*
X6212D01*
X6112Y28453D01*
Y28353D01*
X6212Y28253D01*
X6511D01*
X18504Y21860D02*
Y21260D01*
Y21460D01*
X18904Y21860D01*
X18604Y21560D01*
X18904Y21260D01*
X19104Y21760D02*
X19204Y21860D01*
X19404D01*
X19504Y21760D01*
Y21660D01*
X19404Y21560D01*
X19504Y21460D01*
Y21360D01*
X19404Y21260D01*
X19204D01*
X19104Y21360D01*
Y21460D01*
X19204Y21560D01*
X19104Y21660D01*
Y21760D01*
X19204Y21560D02*
X19404D01*
X8268Y5127D02*
Y4528D01*
Y4727D01*
X8668Y5127D01*
X8368Y4827D01*
X8668Y4528D01*
X8868Y5127D02*
X9267D01*
Y5027D01*
X8868Y4628D01*
Y4528D01*
X279Y14900D02*
Y14300D01*
Y14500D01*
X679Y14900D01*
X379Y14600D01*
X679Y14300D01*
X1279Y14900D02*
X1079Y14800D01*
X879Y14600D01*
Y14400D01*
X979Y14300D01*
X1179D01*
X1279Y14400D01*
Y14500D01*
X1179Y14600D01*
X879D01*
X8465Y6308D02*
Y5709D01*
Y5909D01*
X8864Y6308D01*
X8565Y6009D01*
X8864Y5709D01*
X9464Y6308D02*
X9064D01*
Y6009D01*
X9264Y6109D01*
X9364D01*
X9464Y6009D01*
Y5809D01*
X9364Y5709D01*
X9164D01*
X9064Y5809D01*
X4528Y7686D02*
Y7087D01*
Y7287D01*
X4927Y7686D01*
X4628Y7387D01*
X4927Y7087D01*
X5427D02*
Y7686D01*
X5127Y7387D01*
X5527D01*
X28928Y6496D02*
X29528D01*
X29328D01*
X28928Y6896D01*
X29228Y6596D01*
X29528Y6896D01*
Y7496D02*
Y7096D01*
X29128Y7496D01*
X29028D01*
X28928Y7396D01*
Y7196D01*
X29028Y7096D01*
X13122Y26271D02*
X13022Y26371D01*
X12822D01*
X12722Y26271D01*
Y25872D01*
X12822Y25772D01*
X13022D01*
X13122Y25872D01*
X13622Y25772D02*
Y26371D01*
X13322Y26071D01*
X13722D01*
X13922Y26271D02*
X14022Y26371D01*
X14222D01*
X14322Y26271D01*
Y25872D01*
X14222Y25772D01*
X14022D01*
X13922Y25872D01*
Y26271D01*
X14521Y26371D02*
Y25772D01*
X14821D01*
X14921Y25872D01*
Y25972D01*
X14821Y26071D01*
X14521D01*
X14821D01*
X14921Y26171D01*
Y26271D01*
X14821Y26371D01*
X14521D01*
X13195Y33374D02*
X13095Y33474D01*
X12895D01*
X12795Y33374D01*
Y32974D01*
X12895Y32874D01*
X13095D01*
X13195Y32974D01*
X13695Y32874D02*
Y33474D01*
X13395Y33174D01*
X13795D01*
X13995Y33374D02*
X14095Y33474D01*
X14295D01*
X14395Y33374D01*
Y32974D01*
X14295Y32874D01*
X14095D01*
X13995Y32974D01*
Y33374D01*
X14595Y32874D02*
Y33274D01*
X14795Y33474D01*
X14995Y33274D01*
Y32874D01*
Y33174D01*
X14595D01*
X12099Y20282D02*
X11999Y20182D01*
Y19982D01*
X12099Y19882D01*
X12498D01*
X12598Y19982D01*
Y20182D01*
X12498Y20282D01*
X12099Y20482D02*
X11999Y20582D01*
Y20782D01*
X12099Y20882D01*
X12199D01*
X12299Y20782D01*
Y20682D01*
Y20782D01*
X12398Y20882D01*
X12498D01*
X12598Y20782D01*
Y20582D01*
X12498Y20482D01*
Y21082D02*
X12598Y21181D01*
Y21381D01*
X12498Y21481D01*
X12099D01*
X11999Y21381D01*
Y21181D01*
X12099Y21082D01*
X12199D01*
X12299Y21181D01*
Y21481D01*
X34900Y4400D02*
X34800Y4500D01*
X34600D01*
X34500Y4400D01*
Y4000D01*
X34600Y3900D01*
X34800D01*
X34900Y4000D01*
X35100Y4400D02*
X35200Y4500D01*
X35400D01*
X35500Y4400D01*
Y4300D01*
X35400Y4200D01*
X35300D01*
X35400D01*
X35500Y4100D01*
Y4000D01*
X35400Y3900D01*
X35200D01*
X35100Y4000D01*
X35700Y4400D02*
X35800Y4500D01*
X36000D01*
X36099Y4400D01*
Y4300D01*
X36000Y4200D01*
X35900D01*
X36000D01*
X36099Y4100D01*
Y4000D01*
X36000Y3900D01*
X35800D01*
X35700Y4000D01*
X13195Y15067D02*
X13095Y15167D01*
X12895D01*
X12795Y15067D01*
Y14667D01*
X12895Y14567D01*
X13095D01*
X13195Y14667D01*
X13795Y14567D02*
X13395D01*
X13795Y14967D01*
Y15067D01*
X13695Y15167D01*
X13495D01*
X13395Y15067D01*
X13995Y14567D02*
X14195D01*
X14095D01*
Y15167D01*
X13995Y15067D01*
X2368D02*
X2268Y15167D01*
X2068D01*
X1969Y15067D01*
Y14667D01*
X2068Y14567D01*
X2268D01*
X2368Y14667D01*
X2568Y14567D02*
X2768D01*
X2668D01*
Y15167D01*
X2568Y15067D01*
X3068Y15167D02*
X3468D01*
Y15067D01*
X3068Y14667D01*
Y14567D01*
X4337Y9555D02*
X4237Y9655D01*
X4037D01*
X3937Y9555D01*
Y9155D01*
X4037Y9055D01*
X4237D01*
X4337Y9155D01*
X4537Y9055D02*
X4737D01*
X4637D01*
Y9655D01*
X4537Y9555D01*
X5437Y9655D02*
X5237Y9555D01*
X5037Y9355D01*
Y9155D01*
X5137Y9055D01*
X5337D01*
X5437Y9155D01*
Y9255D01*
X5337Y9355D01*
X5037D01*
X24885Y11171D02*
X24785Y11271D01*
X24585D01*
X24485Y11171D01*
Y10772D01*
X24585Y10672D01*
X24785D01*
X24885Y10772D01*
X25084Y11171D02*
X25184Y11271D01*
X25384D01*
X25484Y11171D01*
Y11071D01*
X25384Y10971D01*
X25484Y10872D01*
Y10772D01*
X25384Y10672D01*
X25184D01*
X25084Y10772D01*
Y10872D01*
X25184Y10971D01*
X25084Y11071D01*
Y11171D01*
X25184Y10971D02*
X25384D01*
X23910Y8274D02*
X23810Y8174D01*
Y7974D01*
X23910Y7874D01*
X24309D01*
X24409Y7974D01*
Y8174D01*
X24309Y8274D01*
X23810Y8874D02*
X23910Y8674D01*
X24110Y8474D01*
X24309D01*
X24409Y8574D01*
Y8774D01*
X24309Y8874D01*
X24210D01*
X24110Y8774D01*
Y8474D01*
X28472Y35421D02*
X28372Y35521D01*
X28172D01*
X28072Y35421D01*
Y35022D01*
X28172Y34922D01*
X28372D01*
X28472Y35022D01*
X29072Y35521D02*
X28672D01*
Y35221D01*
X28872Y35321D01*
X28972D01*
X29072Y35221D01*
Y35022D01*
X28972Y34922D01*
X28772D01*
X28672Y35022D01*
X29272Y35521D02*
Y34922D01*
X29572D01*
X29672Y35022D01*
Y35122D01*
X29572Y35221D01*
X29272D01*
X29572D01*
X29672Y35321D01*
Y35421D01*
X29572Y35521D01*
X29272D01*
X22841Y33571D02*
X22741Y33671D01*
X22541D01*
X22441Y33571D01*
Y33171D01*
X22541Y33071D01*
X22741D01*
X22841Y33171D01*
X23441Y33671D02*
X23041D01*
Y33371D01*
X23241Y33471D01*
X23341D01*
X23441Y33371D01*
Y33171D01*
X23341Y33071D01*
X23141D01*
X23041Y33171D01*
X23641Y33071D02*
Y33471D01*
X23840Y33671D01*
X24040Y33471D01*
Y33071D01*
Y33371D01*
X23641D01*
X24800Y14400D02*
X24700Y14300D01*
Y14100D01*
X24800Y14000D01*
X25200D01*
X25300Y14100D01*
Y14300D01*
X25200Y14400D01*
X25300Y14900D02*
X24700D01*
X25000Y14600D01*
Y15000D01*
X29610Y14601D02*
X29510Y14501D01*
Y14302D01*
X29610Y14202D01*
X30010D01*
X30110Y14302D01*
Y14501D01*
X30010Y14601D01*
X29610Y14801D02*
X29510Y14901D01*
Y15101D01*
X29610Y15201D01*
X29710D01*
X29810Y15101D01*
Y15001D01*
Y15101D01*
X29910Y15201D01*
X30010D01*
X30110Y15101D01*
Y14901D01*
X30010Y14801D01*
X29900Y16100D02*
X29800Y16000D01*
Y15800D01*
X29900Y15700D01*
X30300D01*
X30400Y15800D01*
Y16000D01*
X30300Y16100D01*
X30400Y16700D02*
Y16300D01*
X30000Y16700D01*
X29900D01*
X29800Y16600D01*
Y16400D01*
X29900Y16300D01*
X26000Y16100D02*
X25900Y16000D01*
Y15800D01*
X26000Y15700D01*
X26400D01*
X26500Y15800D01*
Y16000D01*
X26400Y16100D01*
X26500Y16300D02*
Y16500D01*
Y16400D01*
X25900D01*
X26000Y16300D01*
X14967Y2075D02*
X14867Y2175D01*
X14667D01*
X14567Y2075D01*
Y1675D01*
X14667Y1575D01*
X14867D01*
X14967Y1675D01*
X15567Y1575D02*
X15167D01*
X15567Y1975D01*
Y2075D01*
X15467Y2175D01*
X15267D01*
X15167Y2075D01*
X16066Y1575D02*
Y2175D01*
X15767Y1875D01*
X16166D01*
X16366Y1575D02*
Y1975D01*
X16566Y2175D01*
X16766Y1975D01*
Y1575D01*
Y1875D01*
X16366D01*
X21857Y2075D02*
X21757Y2175D01*
X21557D01*
X21457Y2075D01*
Y1675D01*
X21557Y1575D01*
X21757D01*
X21857Y1675D01*
X22456Y1575D02*
X22057D01*
X22456Y1975D01*
Y2075D01*
X22356Y2175D01*
X22156D01*
X22057Y2075D01*
X22956Y1575D02*
Y2175D01*
X22656Y1875D01*
X23056D01*
X23256Y2175D02*
Y1575D01*
X23556D01*
X23656Y1675D01*
Y1775D01*
X23556Y1875D01*
X23256D01*
X23556D01*
X23656Y1975D01*
Y2075D01*
X23556Y2175D01*
X23256D01*
X9843Y9261D02*
Y8661D01*
Y8861D01*
X10242Y9261D01*
X9942Y8961D01*
X10242Y8661D01*
X10442D02*
X10642D01*
X10542D01*
Y9261D01*
X10442Y9161D01*
X11342Y9261D02*
X10942D01*
Y8661D01*
X11342D01*
X10942Y8961D02*
X11142D01*
X11614Y9261D02*
Y8661D01*
Y8861D01*
X12014Y9261D01*
X11714Y8961D01*
X12014Y8661D01*
X12214D02*
X12414D01*
X12314D01*
Y9261D01*
X12214Y9161D01*
X13114Y9261D02*
X12714D01*
Y8961D01*
X12914D01*
X12714D01*
Y8661D01*
X17510Y8858D02*
X18110D01*
X17910D01*
X17510Y9258D01*
X17810Y8958D01*
X18110Y9258D01*
Y9458D02*
Y9658D01*
Y9558D01*
X17510D01*
X17610Y9458D01*
Y10358D02*
X17510Y10258D01*
Y10058D01*
X17610Y9958D01*
X18010D01*
X18110Y10058D01*
Y10258D01*
X18010Y10358D01*
X17810D01*
Y10158D01*
X18495Y8858D02*
X19094D01*
X18895D01*
X18495Y9258D01*
X18795Y8958D01*
X19094Y9258D01*
Y9458D02*
Y9658D01*
Y9558D01*
X18495D01*
X18595Y9458D01*
X18495Y9958D02*
X19094D01*
X18795D01*
Y10358D01*
X18495D01*
X19094D01*
X16132Y2756D02*
X16732D01*
X16532D01*
X16132Y3156D01*
X16432Y2856D01*
X16732Y3156D01*
Y3356D02*
Y3556D01*
Y3456D01*
X16132D01*
X16232Y3356D01*
Y3856D02*
X16132Y3956D01*
Y4155D01*
X16232Y4255D01*
X16632D01*
X16732Y4155D01*
Y3956D01*
X16632Y3856D01*
X16232D01*
X16732Y4455D02*
X16332D01*
X16132Y4655D01*
X16332Y4855D01*
X16732D01*
X16432D01*
Y4455D01*
X23219Y2756D02*
X23819D01*
X23619D01*
X23219Y3156D01*
X23519Y2856D01*
X23819Y3156D01*
Y3356D02*
Y3556D01*
Y3456D01*
X23219D01*
X23319Y3356D01*
Y3856D02*
X23219Y3956D01*
Y4155D01*
X23319Y4255D01*
X23719D01*
X23819Y4155D01*
Y3956D01*
X23719Y3856D01*
X23319D01*
X23219Y4455D02*
X23819D01*
Y4755D01*
X23719Y4855D01*
X23619D01*
X23519Y4755D01*
Y4455D01*
Y4755D01*
X23419Y4855D01*
X23319D01*
X23219Y4755D01*
Y4455D01*
X13780Y9064D02*
Y8465D01*
Y8665D01*
X14179Y9064D01*
X13879Y8764D01*
X14179Y8465D01*
X14379D02*
X14579D01*
X14479D01*
Y9064D01*
X14379Y8964D01*
X14879Y8465D02*
X15079D01*
X14979D01*
Y9064D01*
X14879Y8964D01*
X15379Y8465D02*
Y8864D01*
X15579Y9064D01*
X15779Y8864D01*
Y8465D01*
Y8764D01*
X15379D01*
X20669Y9064D02*
Y8465D01*
Y8665D01*
X21069Y9064D01*
X20769Y8764D01*
X21069Y8465D01*
X21269D02*
X21469D01*
X21369D01*
Y9064D01*
X21269Y8964D01*
X21769Y8465D02*
X21969D01*
X21869D01*
Y9064D01*
X21769Y8964D01*
X22269Y9064D02*
Y8465D01*
X22569D01*
X22669Y8565D01*
Y8665D01*
X22569Y8764D01*
X22269D01*
X22569D01*
X22669Y8864D01*
Y8964D01*
X22569Y9064D01*
X22269D01*
X10630Y1978D02*
Y1478D01*
X10730Y1378D01*
X10930D01*
X11030Y1478D01*
Y1978D01*
X11630Y1378D02*
X11230D01*
X11630Y1778D01*
Y1878D01*
X11530Y1978D01*
X11330D01*
X11230Y1878D01*
X11830Y1378D02*
Y1778D01*
X12029Y1978D01*
X12229Y1778D01*
Y1378D01*
Y1678D01*
X11830D01*
X17520Y1978D02*
Y1478D01*
X17620Y1378D01*
X17820D01*
X17920Y1478D01*
Y1978D01*
X18519Y1378D02*
X18119D01*
X18519Y1778D01*
Y1878D01*
X18419Y1978D01*
X18219D01*
X18119Y1878D01*
X18719Y1978D02*
Y1378D01*
X19019D01*
X19119Y1478D01*
Y1578D01*
X19019Y1678D01*
X18719D01*
X19019D01*
X19119Y1778D01*
Y1878D01*
X19019Y1978D01*
X18719D01*
D43*
X36215Y33068D02*
X36425Y33018D01*
X36555Y33408D02*
X36715Y33268D01*
D51*
X34945Y34568D02*
X35845Y34618D01*
X34765Y34448D02*
X34945Y34568D01*
X34665Y34458D02*
X34765Y34448D01*
X34665Y34458D02*
X35305Y35618D01*
X35785Y34698D01*
X34965Y34738D02*
X35785Y34698D01*
X34965Y34738D02*
X35285Y35248D01*
X35525Y34888D01*
X35255Y34918D02*
X35525Y34888D01*
X36015Y33718D02*
X36145Y34088D01*
X36015Y33718D02*
X36555Y33408D01*
X36185Y33938D02*
X36555Y33408D01*
X35565D02*
X36215Y33068D01*
X35385Y33318D02*
X35565Y33408D01*
X35315Y33158D02*
X35385Y33318D01*
X35075Y33068D02*
X35315Y33158D01*
X34935D02*
X35075Y33068D01*
X34925Y33608D02*
X34935Y33158D01*
X34845Y33788D02*
X34925Y33608D01*
X34845Y33788D02*
X34995Y33718D01*
X34595Y33088D02*
X34885D01*
X34425Y33868D02*
X34595Y33088D01*
X34425Y33868D02*
X34495Y34008D01*
X34465Y34078D02*
X34495Y34008D01*
X33845Y33068D02*
X34465Y34078D01*
X33845Y33068D02*
X34415D01*
X34335Y33538D02*
X34415Y33068D01*
X34145Y33208D02*
X34335Y33538D01*
X35195Y33068D02*
X35985Y33078D01*
X35525Y33218D02*
X35985Y33078D01*
D99*
X30618Y6693D02*
G03*
X30618Y6693I-500J0D01*
G01*
Y4134D02*
G03*
X30618Y4134I-500J0D01*
G01*
X9114Y16968D02*
G03*
X9114Y16968I-500J0D01*
G01*
Y20699D02*
G03*
X9114Y20699I-500J0D01*
G01*
X9119Y23177D02*
Y23187D01*
X8959Y23047D02*
X8979D01*
X8969D02*
X9119D01*
Y23147D01*
X7769Y23047D02*
Y24297D01*
Y23047D02*
X9119D01*
Y24297D01*
X7769D02*
X9119D01*
X10479Y23137D02*
X10519Y23177D01*
Y23187D01*
X10459Y23047D02*
X10519Y23107D01*
X10369Y23047D02*
X10519D01*
Y23147D01*
X10419Y23047D02*
X10519Y23147D01*
X9169Y23047D02*
Y24297D01*
Y23047D02*
X10519D01*
Y24297D01*
X9169D02*
X10519D01*
X9124Y24755D02*
Y24765D01*
X8964Y24625D02*
X8984D01*
X8974D02*
X9124D01*
Y24725D01*
X7774Y24625D02*
Y25875D01*
Y24625D02*
X9124D01*
Y25875D01*
X7774D02*
X9124D01*
X10484Y24715D02*
X10524Y24755D01*
Y24765D01*
X10464Y24625D02*
X10524Y24685D01*
X10374Y24625D02*
X10524D01*
Y24725D01*
X10424Y24625D02*
X10524Y24725D01*
X9174Y24625D02*
Y25875D01*
Y24625D02*
X10524D01*
Y25875D01*
X9174D02*
X10524D01*
X9157Y26290D02*
Y26300D01*
X8997Y26160D02*
X9017D01*
X9007D02*
X9157D01*
Y26260D01*
X7807Y26160D02*
Y27410D01*
Y26160D02*
X9157D01*
Y27410D01*
X7807D02*
X9157D01*
X10517Y26250D02*
X10557Y26290D01*
Y26300D01*
X10497Y26160D02*
X10557Y26220D01*
X10407Y26160D02*
X10557D01*
Y26260D01*
X10457Y26160D02*
X10557Y26260D01*
X9207Y26160D02*
Y27410D01*
Y26160D02*
X10557D01*
Y27410D01*
X9207D02*
X10557D01*
X9132Y27902D02*
Y27912D01*
X8972Y27772D02*
X8992D01*
X8982D02*
X9132D01*
Y27872D01*
X7782Y27772D02*
Y29022D01*
Y27772D02*
X9132D01*
Y29022D01*
X7782D02*
X9132D01*
X10492Y27862D02*
X10532Y27902D01*
Y27912D01*
X10472Y27772D02*
X10532Y27832D01*
X10382Y27772D02*
X10532D01*
Y27872D01*
X10432Y27772D02*
X10532Y27872D01*
X9182Y27772D02*
Y29022D01*
Y27772D02*
X10532D01*
Y29022D01*
X9182D02*
X10532D01*
X9124Y29405D02*
Y29415D01*
X8964Y29275D02*
X8984D01*
X8974D02*
X9124D01*
Y29375D01*
X7774Y29275D02*
Y30525D01*
Y29275D02*
X9124D01*
Y30525D01*
X7774D02*
X9124D01*
X10484Y29365D02*
X10524Y29405D01*
Y29415D01*
X10464Y29275D02*
X10524Y29335D01*
X10374Y29275D02*
X10524D01*
Y29375D01*
X10424Y29275D02*
X10524Y29375D01*
X9174Y29275D02*
Y30525D01*
Y29275D02*
X10524D01*
Y30525D01*
X9174D02*
X10524D01*
X7055Y32576D02*
X7065D01*
X6925Y32716D02*
Y32736D01*
Y32576D02*
Y32726D01*
Y32576D02*
X7025D01*
X6925Y33926D02*
X8175D01*
X6925Y32576D02*
Y33926D01*
Y32576D02*
X8175D01*
Y33926D01*
X7015Y31216D02*
X7055Y31176D01*
X7065D01*
X6925Y31236D02*
X6985Y31176D01*
X6925D02*
Y31326D01*
Y31176D02*
X7025D01*
X6925Y31276D02*
X7025Y31176D01*
X6925Y32526D02*
X8175D01*
X6925Y31176D02*
Y32526D01*
Y31176D02*
X8175D01*
Y32526D01*
X9255Y32576D02*
X9265D01*
X9125Y32716D02*
Y32736D01*
Y32576D02*
Y32726D01*
Y32576D02*
X9225D01*
X9125Y33926D02*
X10375D01*
X9125Y32576D02*
Y33926D01*
Y32576D02*
X10375D01*
Y33926D01*
X9215Y31216D02*
X9255Y31176D01*
X9265D01*
X9125Y31236D02*
X9185Y31176D01*
X9125D02*
Y31326D01*
Y31176D02*
X9225D01*
X9125Y31276D02*
X9225Y31176D01*
X9125Y32526D02*
X10375D01*
X9125Y31176D02*
Y32526D01*
Y31176D02*
X10375D01*
Y32526D01*
X11455Y32576D02*
X11465D01*
X11325Y32716D02*
Y32736D01*
Y32576D02*
Y32726D01*
Y32576D02*
X11425D01*
X11325Y33926D02*
X12575D01*
X11325Y32576D02*
Y33926D01*
Y32576D02*
X12575D01*
Y33926D01*
X11415Y31216D02*
X11455Y31176D01*
X11465D01*
X11325Y31236D02*
X11385Y31176D01*
X11325D02*
Y31326D01*
Y31176D02*
X11425D01*
X11325Y31276D02*
X11425Y31176D01*
X11325Y32526D02*
X12575D01*
X11325Y31176D02*
Y32526D01*
Y31176D02*
X12575D01*
Y32526D01*
X6003Y17543D02*
X7353D01*
X6003D02*
Y18793D01*
X7353D01*
Y17543D02*
Y18793D01*
X6003Y18693D02*
Y18793D01*
X6153D01*
X6143D02*
X6163D01*
X6003Y18653D02*
Y18663D01*
Y21274D02*
X7353D01*
X6003D02*
Y22524D01*
X7353D01*
Y21274D02*
Y22524D01*
X6003Y22424D02*
Y22524D01*
X6153D01*
X6143D02*
X6163D01*
X6003Y22384D02*
Y22394D01*
X26112Y3507D02*
X28996D01*
X26102Y59D02*
X28996D01*
X26112D02*
Y3507D01*
X26102Y900D02*
X26112Y909D01*
X26673Y1483D02*
X26772Y400D01*
X27047Y400D01*
Y400D02*
X27146Y1483D01*
X26673Y2191D02*
X26781D01*
Y1483D02*
X26860Y567D01*
X26949D01*
X26959Y567D02*
X27037Y1483D01*
X26850Y823D02*
X26959D01*
X27037Y1483D02*
X27146D01*
X28346Y400D02*
X28445Y1483D01*
X28071Y400D02*
X28346D01*
X27972Y1483D02*
X28071Y400D01*
X28337Y2191D02*
X28445D01*
X28258Y567D02*
X28337Y1483D01*
X28169Y567D02*
X28258D01*
X28081Y1483D02*
X28159Y567D01*
Y823D02*
X28268D01*
X27972Y1483D02*
X28081D01*
X27185Y390D02*
X27293Y1817D01*
X27559D01*
X27185Y390D02*
X27283D01*
Y390D02*
X27352Y1276D01*
X27402Y1355D01*
Y1581D01*
X27559D01*
X27352Y1276D02*
X27559D01*
X27825Y1817D02*
X27933Y390D01*
X27559Y1817D02*
X27825D01*
X27835Y390D02*
X27933D01*
X27766Y1276D02*
X27835Y390D01*
X27717Y1355D02*
X27766Y1276D01*
X27717Y1355D02*
Y1581D01*
X27559D02*
X27717D01*
X27559Y1276D02*
X27766D01*
X28996Y59D02*
Y3507D01*
X197Y10039D02*
X3346D01*
X197Y13976D02*
X3346D01*
X197Y10039D02*
Y13976D01*
X3346Y10039D02*
Y13976D01*
X12764Y5118D02*
X16701D01*
X12764Y8268D02*
X16701D01*
Y5118D02*
Y8268D01*
X12764Y5118D02*
Y8268D01*
X19685Y5118D02*
X23622D01*
X19685Y8268D02*
X23622D01*
Y5118D02*
Y8268D01*
X19685Y5118D02*
Y8268D01*
X9646Y6496D02*
Y9646D01*
X5709Y6496D02*
Y9646D01*
Y6496D02*
X9646D01*
X5709Y9646D02*
X9646D01*
D100*
X7718Y18897D02*
G03*
X7718Y18897I-49J0D01*
G01*
Y22628D02*
G03*
X7718Y22628I-49J0D01*
G01*
X31355Y15658D02*
G03*
X31355Y15658I-49J0D01*
G01*
X14404Y20049D02*
G03*
X14404Y20049I-49J0D01*
G01*
X10547Y2598D02*
G03*
X10547Y2598I-49J0D01*
G01*
X17469Y2598D02*
G03*
X17469Y2598I-49J0D01*
G01*
D101*
X32329Y14989D02*
G03*
X32329Y14989I-118J0D01*
G01*
D102*
X39295Y37795D02*
G03*
X39295Y37795I-1500J0D01*
G01*
Y1575D02*
G03*
X39295Y1575I-1500J0D01*
G01*
X3075Y37795D02*
G03*
X3075Y37795I-1500J0D01*
G01*
Y1575D02*
G03*
X3075Y1575I-1500J0D01*
G01*
X15764Y11462D02*
Y13162D01*
X14514Y11462D02*
X15764D01*
X14514D02*
Y13162D01*
X15764D01*
X14514Y11462D02*
X14614D01*
X14514D02*
Y11612D01*
Y11602D02*
Y11622D01*
X14644Y11462D02*
X14654D01*
X23776Y6286D02*
X24156D01*
X23776D02*
Y7106D01*
X24156D01*
Y6286D02*
Y7106D01*
X29298Y5151D02*
X30308D01*
X29298Y4691D02*
X30308D01*
Y5151D01*
X29298Y4691D02*
Y5151D01*
Y6136D02*
X30308D01*
X29298Y5676D02*
X30308D01*
Y6136D01*
X29298Y5676D02*
Y6136D01*
X6612Y17395D02*
X7622D01*
X6612Y16935D02*
X7622D01*
Y17395D01*
X6612Y16935D02*
Y17395D01*
Y21126D02*
X7622D01*
X6612Y20666D02*
X7622D01*
Y21126D01*
X6612Y20666D02*
Y21126D01*
X12650Y24050D02*
Y25450D01*
X15000Y24050D02*
Y25450D01*
X12650Y24050D02*
X15000D01*
X12650Y25450D02*
X15000D01*
X28000Y34600D02*
X29400D01*
X28000Y32250D02*
X29400D01*
X28000D02*
Y34600D01*
X29400Y32250D02*
Y34600D01*
X27826Y8996D02*
Y10296D01*
X24426Y8996D02*
X27826D01*
X24426D02*
Y10076D01*
X24676Y10296D02*
X27826D01*
X24506Y10143D02*
Y10343D01*
X24406Y10243D02*
X24606D01*
X10990Y6332D02*
X11450D01*
X10990Y5322D02*
X11450D01*
X10990D02*
Y6332D01*
X11450Y5322D02*
Y6332D01*
X11778D02*
X12238D01*
X11778Y5322D02*
X12238D01*
X11778D02*
Y6332D01*
X12238Y5322D02*
Y6332D01*
X17880D02*
X18340D01*
X17880Y5322D02*
X18340D01*
X17880D02*
Y6332D01*
X18340Y5322D02*
Y6332D01*
X18668D02*
X19128D01*
X18668Y5322D02*
X19128D01*
X18668D02*
Y6332D01*
X19128Y5322D02*
Y6332D01*
X21172Y2453D02*
Y4803D01*
X19772Y2453D02*
Y4803D01*
Y2453D02*
X21172D01*
X19772Y4803D02*
X21172D01*
X14251Y2453D02*
Y4803D01*
X12851Y2453D02*
Y4803D01*
Y2453D02*
X14251D01*
X12851Y4803D02*
X14251D01*
X3828Y15236D02*
X5228D01*
X3828Y12886D02*
X5228D01*
X3828D02*
Y15236D01*
X5228Y12886D02*
Y15236D01*
X3828Y9961D02*
X5228D01*
X3828Y12311D02*
X5228D01*
Y9961D02*
Y12311D01*
X3828Y9961D02*
Y12311D01*
X8320Y10014D02*
Y13614D01*
X6890D02*
X8320D01*
X6900Y10014D02*
X8320D01*
X6900Y10004D02*
Y10014D01*
X5480D02*
Y13614D01*
X6910D01*
X5480Y10014D02*
X6900D01*
Y10004D02*
Y10014D01*
X5480Y10184D02*
X5640Y10024D01*
X5600D02*
X5640D01*
X5590D02*
X5600D01*
X5480Y10134D02*
X5590Y10024D01*
X5480Y10084D02*
Y10134D01*
Y10084D02*
X5540Y10024D01*
X5550D01*
X13044Y10014D02*
Y13614D01*
X11614D02*
X13044D01*
X11624Y10014D02*
X13044D01*
X11624Y10004D02*
Y10014D01*
X10204D02*
Y13614D01*
X11634D01*
X10204Y10014D02*
X11624D01*
Y10004D02*
Y10014D01*
X10204Y10184D02*
X10364Y10024D01*
X10324D02*
X10364D01*
X10314D02*
X10324D01*
X10204Y10134D02*
X10314Y10024D01*
X10204Y10084D02*
Y10134D01*
Y10084D02*
X10264Y10024D01*
X10274D01*
X9182Y14114D02*
Y15414D01*
X12582D01*
Y14334D02*
Y15414D01*
X9182Y14114D02*
X12332D01*
X12502Y14066D02*
Y14266D01*
X12402Y14166D02*
X12602D01*
X15150Y32550D02*
Y33950D01*
X17500Y32550D02*
Y33950D01*
X15150Y32550D02*
X17500D01*
X15150Y33950D02*
X17500D01*
X24400Y33800D02*
Y35200D01*
X22050Y33800D02*
Y35200D01*
X24400D01*
X22050Y33800D02*
X24400D01*
X12770Y20070D02*
Y21080D01*
X13230Y20070D02*
Y21080D01*
X12770D02*
X13230D01*
X12770Y20070D02*
X13230D01*
X36870Y3670D02*
Y4680D01*
X37330Y3670D02*
Y4680D01*
X36870D02*
X37330D01*
X36870Y3670D02*
X37330D01*
X36270D02*
Y4680D01*
X36730Y3670D02*
Y4680D01*
X36270D02*
X36730D01*
X36270Y3670D02*
X36730D01*
X35070Y2670D02*
Y3680D01*
X35530Y2670D02*
Y3680D01*
X35070D02*
X35530D01*
X35070Y2670D02*
X35530D01*
X28870Y15130D02*
X29330D01*
X28870Y14120D02*
X29330D01*
X28870D02*
Y15130D01*
X29330Y14120D02*
Y15130D01*
X25470D02*
X25930D01*
X25470Y14120D02*
X25930D01*
X25470D02*
Y15130D01*
X25930Y14120D02*
Y15130D01*
X26770Y15570D02*
X27230D01*
X26770Y16580D02*
X27230D01*
Y15570D02*
Y16580D01*
X26770Y15570D02*
Y16580D01*
X29170Y15570D02*
X29630D01*
X29170Y16580D02*
X29630D01*
Y15570D02*
Y16580D01*
X29170Y15570D02*
Y16580D01*
D103*
X27745Y15998D02*
G03*
X28668Y16004I459J402D01*
G01*
X28664Y16796D02*
G03*
X27741Y16802I-464J-396D01*
G01*
X7945Y18779D02*
X8102D01*
X7945Y17913D02*
X8102D01*
X7945Y22510D02*
X8102D01*
X7945Y21644D02*
X8102D01*
X31817Y13217D02*
X33983D01*
X31817Y15383D02*
X33983D01*
Y13217D02*
Y15383D01*
X31817Y13217D02*
Y15383D01*
X13921Y20167D02*
X14079D01*
X13921Y21033D02*
X14079D01*
X10598Y3189D02*
X12567D01*
X10598Y3898D02*
X12567D01*
X10598Y3189D02*
Y3898D01*
X12567Y3189D02*
Y3898D01*
X17520Y3189D02*
X19488D01*
X17520Y3898D02*
X19488D01*
X17520Y3189D02*
Y3898D01*
X19488Y3189D02*
Y3898D01*
D104*
X30618Y6693D02*
X30818D01*
X30618Y4134D02*
X30818D01*
X7914Y16968D02*
X8114D01*
X7914Y20699D02*
X8114D01*
X257Y35433D02*
X307D01*
X787Y34903D02*
Y34953D01*
X1257Y35433D02*
X1307D01*
X787Y35913D02*
Y35963D01*
X38053Y3937D02*
X38103D01*
X38583Y3407D02*
Y3457D01*
X39053Y3937D02*
X39103D01*
X38583Y4417D02*
Y4467D01*
D105*
X30533Y1488D02*
X30533Y488D01*
X30533Y1488D02*
X35533Y1488D01*
X33533Y488D02*
Y1488D01*
X30533Y488D02*
X35533Y488D01*
X34533Y488D02*
Y1488D01*
X35533Y488D02*
Y1488D01*
X32533Y488D02*
Y1488D01*
X31533Y488D02*
Y1488D01*
X35300Y35800D02*
X36005Y34578D01*
X35875Y34508D02*
X36005Y34578D01*
X35585Y34458D02*
X35875Y34508D01*
X34945Y34448D02*
X35585Y34458D01*
X34855Y34378D02*
X34945Y34448D01*
X34775Y34298D02*
X34855Y34378D01*
X34515Y34448D02*
X34775Y34298D01*
X34515Y34448D02*
X35300Y35800D01*
X36085Y34198D02*
X36185Y34238D01*
X35995Y34068D02*
X36085Y34198D01*
X35975Y33958D02*
X35995Y34068D01*
X35955Y33818D02*
X35975Y33958D01*
X35845Y33708D02*
X35955Y33818D01*
X35845Y33708D02*
X36835Y33138D01*
X36185Y34238D02*
X36835Y33138D01*
X34395Y34238D02*
X34635Y34078D01*
X34555Y33928D02*
X34635Y34078D01*
X34535Y33838D02*
X34555Y33928D01*
X34535Y33838D02*
X34685Y33228D01*
X34745Y33198D01*
X34795Y33218D01*
X34845Y33288D01*
X34795Y33498D02*
X34845Y33288D01*
X34785Y33628D02*
X34795Y33498D01*
X34725Y33758D02*
X34785Y33628D01*
X34725Y33758D02*
X34795Y33958D01*
X35165Y33738D01*
X35075Y33618D02*
X35165Y33738D01*
X35035Y33448D02*
X35075Y33618D01*
X35035Y33448D02*
X35075Y33198D01*
X35165Y33188D01*
X35225Y33238D01*
X35235Y33348D01*
X35315Y33438D01*
X35565Y33548D01*
X36575Y32968D01*
X33665D02*
X36575D01*
X33665D02*
X34395Y34238D01*
X21744Y3650D02*
X22744D01*
X21744Y4650D02*
X22744D01*
X21744Y2650D02*
X22744Y2650D01*
X21744Y2650D02*
Y4650D01*
X22744Y2650D02*
Y4650D01*
X14823Y3650D02*
X15823D01*
X14823Y4650D02*
X15823D01*
X14823Y2650D02*
X15823Y2650D01*
X14823Y2650D02*
Y4650D01*
X15823Y2650D02*
Y4650D01*
X18398Y7571D02*
X19398D01*
X18398Y6571D02*
X19398D01*
X18398Y8571D02*
X19398Y8571D01*
Y6571D02*
Y8571D01*
X18398Y6571D02*
Y8571D01*
X17217Y7571D02*
X18217D01*
X17217Y6571D02*
X18217D01*
X17217Y8571D02*
X18217Y8571D01*
Y6571D02*
Y8571D01*
X17217Y6571D02*
Y8571D01*
X10327Y7571D02*
X11327D01*
X10327Y6571D02*
X11327D01*
X10327Y8571D02*
X11327Y8571D01*
Y6571D02*
Y8571D01*
X10327Y6571D02*
Y8571D01*
X11508Y7571D02*
X12508D01*
X11508Y6571D02*
X12508D01*
X11508Y8571D02*
X12508Y8571D01*
Y6571D02*
Y8571D01*
X11508Y6571D02*
Y8571D01*
D106*
X26106Y13765D02*
X28626D01*
X26028Y13844D02*
X26106Y13765D01*
X26028Y13844D02*
Y15340D01*
X26106Y15419D02*
X28705D01*
X26028Y15340D02*
X26106Y15419D01*
X28705D02*
X28783Y15340D01*
Y13923D02*
Y15340D01*
X28626Y13765D02*
X28783Y13923D01*
D107*
X14626Y12311D02*
D03*
D108*
X31031Y988D02*
D03*
D109*
X22244Y3148D02*
D03*
X15323Y3148D02*
D03*
X18898Y8073D02*
D03*
X17717D02*
D03*
X10827D02*
D03*
X12008D02*
D03*
M02*
