G04 Layer_Physical_Order=1*
G04 Layer_Color=255*
%FSLAX25Y25*%
%MOIN*%
G70*
G01*
G75*
%ADD10R,0.06000X0.06000*%
%ADD11R,0.05000X0.04000*%
%ADD12R,0.03600X0.03600*%
%ADD13R,0.03600X0.05000*%
%ADD14R,0.03937X0.17716*%
%ADD15O,0.03937X0.17716*%
%ADD16R,0.06000X0.10000*%
%ADD17O,0.02400X0.08000*%
%ADD18R,0.02400X0.08000*%
%ADD19O,0.12205X0.03937*%
%ADD20R,0.12205X0.03937*%
%ADD21C,0.01000*%
%ADD22C,0.02000*%
%ADD23C,0.04000*%
G36*
X2549Y2549D02*
X187451D01*
Y237451D01*
X2549D01*
Y2549D01*
D02*
G37*
%LPC*%
G36*
X136870Y87968D02*
X144472D01*
Y84500D01*
X136870D01*
Y87968D01*
D02*
G37*
G36*
X153496Y88003D02*
X157130D01*
Y84500D01*
X149559D01*
X149630Y85036D01*
X150030Y86001D01*
X150666Y86830D01*
X151495Y87467D01*
X152460Y87866D01*
X153496Y88003D01*
D02*
G37*
G36*
X135500Y100500D02*
X140000D01*
Y94000D01*
X135500D01*
Y100500D01*
D02*
G37*
G36*
X141000D02*
X145500D01*
Y94000D01*
X141000D01*
Y100500D01*
D02*
G37*
G36*
X81500Y58500D02*
X84228D01*
Y56200D01*
X84118Y55365D01*
X83795Y54586D01*
X83282Y53918D01*
X82614Y53405D01*
X81835Y53082D01*
X81500Y53038D01*
Y58500D01*
D02*
G37*
G36*
X85500Y56000D02*
X89500D01*
Y52500D01*
X85500D01*
Y56000D01*
D02*
G37*
G36*
X136870Y83500D02*
X144472D01*
Y80032D01*
X136870D01*
Y83500D01*
D02*
G37*
G36*
X149559D02*
X157130D01*
Y79997D01*
X153496D01*
X152460Y80134D01*
X151495Y80533D01*
X150666Y81170D01*
X150030Y81999D01*
X149630Y82964D01*
X149559Y83500D01*
D02*
G37*
G36*
X141000Y108000D02*
X145500D01*
Y101500D01*
X141000D01*
Y108000D01*
D02*
G37*
G36*
X138013Y232998D02*
X184000D01*
Y221000D01*
X138013D01*
Y232998D01*
D02*
G37*
G36*
X62000Y227034D02*
X62000Y227034D01*
X97000D01*
X97000Y227034D01*
X98044Y226897D01*
X99017Y226494D01*
X99853Y225853D01*
X128853Y196853D01*
X129494Y196017D01*
X129897Y195044D01*
X130034Y194000D01*
X130034Y194000D01*
Y87968D01*
X135870D01*
Y84000D01*
Y80032D01*
X130034D01*
Y78035D01*
X163965D01*
Y80081D01*
X163465Y80409D01*
X162800Y80134D01*
X161764Y79997D01*
X158130D01*
Y84000D01*
Y88003D01*
X161764D01*
X162800Y87866D01*
X163465Y87591D01*
X163965Y87919D01*
Y92329D01*
X159500Y96794D01*
X159000Y96587D01*
Y94000D01*
X149000D01*
Y108000D01*
X159000D01*
Y105034D01*
X161000D01*
X162044Y104897D01*
X163017Y104494D01*
X163853Y103853D01*
X163853Y103853D01*
X170853Y96853D01*
X171494Y96017D01*
X171897Y95044D01*
X172035Y94000D01*
X172035Y94000D01*
Y76000D01*
X172035Y76000D01*
X171897Y74956D01*
X171494Y73983D01*
X170853Y73147D01*
X168853Y71147D01*
X168853Y71147D01*
X168017Y70506D01*
X167044Y70103D01*
X166000Y69965D01*
X126000D01*
X124956Y70103D01*
X123983Y70506D01*
X123147Y71147D01*
X122506Y71983D01*
X122103Y72956D01*
X121966Y74000D01*
Y89033D01*
X121503Y89224D01*
X120026Y87747D01*
Y69000D01*
X128500D01*
Y67968D01*
X144472D01*
Y65807D01*
X148000Y62279D01*
X149528Y63807D01*
Y67968D01*
X165732D01*
Y60031D01*
X154311D01*
X152710Y58430D01*
X152901Y57968D01*
X165732D01*
Y50032D01*
X149528D01*
Y53996D01*
X149028Y54263D01*
X149026Y54262D01*
Y51374D01*
X148923Y50591D01*
X148620Y49861D01*
X148140Y49234D01*
X147298Y48393D01*
Y36272D01*
X147195Y35489D01*
X146893Y34760D01*
X146412Y34133D01*
X133540Y21260D01*
X132913Y20779D01*
X132183Y20477D01*
X131400Y20374D01*
X73640D01*
X72857Y20477D01*
X72127Y20779D01*
X71501Y21260D01*
X63860Y28901D01*
X63380Y29527D01*
X63077Y30257D01*
X62974Y31040D01*
Y31112D01*
X62474Y31347D01*
X61835Y31082D01*
X61500Y31038D01*
Y37000D01*
Y42962D01*
X61835Y42918D01*
X62614Y42595D01*
X63160Y42176D01*
X63500Y42119D01*
X63840Y42176D01*
X64386Y42595D01*
X65165Y42918D01*
X66000Y43028D01*
X66835Y42918D01*
X67614Y42595D01*
X68160Y42176D01*
X68500Y42119D01*
X68840Y42176D01*
X69386Y42595D01*
X70165Y42918D01*
X71000Y43028D01*
X71835Y42918D01*
X72474Y42653D01*
X72974Y42888D01*
Y43000D01*
X73077Y43783D01*
X73379Y44513D01*
X73860Y45140D01*
X73860Y45140D01*
X74860Y46140D01*
X75487Y46621D01*
X76217Y46923D01*
X77000Y47026D01*
X85500D01*
Y48000D01*
Y51500D01*
X90000D01*
Y52000D01*
X90500D01*
Y56000D01*
X94500D01*
Y56000D01*
X94974Y56063D01*
Y100000D01*
X95077Y100783D01*
X95380Y101513D01*
X95860Y102140D01*
X95860Y102140D01*
X101974Y108253D01*
Y117000D01*
X92000D01*
Y120974D01*
X35253D01*
X34026Y119747D01*
Y119226D01*
X34032Y118728D01*
X41969D01*
Y97012D01*
X41026D01*
Y91800D01*
X40923Y91017D01*
X40620Y90287D01*
X40140Y89660D01*
X40000Y89521D01*
Y85800D01*
X43500D01*
Y94000D01*
X44974D01*
Y97012D01*
X44032D01*
Y118728D01*
X51968D01*
Y97012D01*
X51026D01*
Y94000D01*
X52500D01*
Y86000D01*
Y78779D01*
X53000Y78279D01*
X53500Y78486D01*
Y86000D01*
Y94000D01*
X54974D01*
Y97012D01*
X54031D01*
Y118728D01*
X61968D01*
Y97012D01*
X61026D01*
Y94000D01*
X62500D01*
Y86000D01*
Y78000D01*
X62500Y78000D01*
X62500D01*
X62699Y77580D01*
X63140Y77140D01*
X63621Y76513D01*
X63923Y75783D01*
X64026Y75000D01*
Y71958D01*
X64488Y71767D01*
X64974Y72253D01*
Y78000D01*
X63500D01*
Y86000D01*
Y94000D01*
X64974D01*
Y97012D01*
X64031D01*
Y118728D01*
X71969D01*
Y97012D01*
X71026D01*
Y94000D01*
X72500D01*
Y86000D01*
Y78000D01*
X71026D01*
Y72958D01*
X71488Y72767D01*
X74974Y76253D01*
Y78000D01*
X73500D01*
Y86000D01*
Y94000D01*
X74974D01*
Y97012D01*
X74032D01*
Y118728D01*
X81968D01*
Y97012D01*
X81026D01*
Y94000D01*
X83974D01*
Y95000D01*
X84077Y95783D01*
X84380Y96513D01*
X84860Y97140D01*
X84860Y97140D01*
X84974Y97253D01*
Y98405D01*
X84534Y98979D01*
X84134Y99944D01*
X83997Y100980D01*
Y114760D01*
X84134Y115796D01*
X84534Y116761D01*
X85170Y117590D01*
X85999Y118226D01*
X86964Y118626D01*
X88000Y118763D01*
X89036Y118626D01*
X90001Y118226D01*
X90830Y117590D01*
X91466Y116761D01*
X91866Y115796D01*
X92003Y114760D01*
Y100980D01*
X91866Y99944D01*
X91466Y98979D01*
X91026Y98405D01*
Y96000D01*
X90923Y95217D01*
X90620Y94487D01*
X90591Y94448D01*
X90812Y94000D01*
X91500D01*
Y86000D01*
Y78000D01*
X90026D01*
Y76000D01*
X89923Y75217D01*
X89621Y74487D01*
X89140Y73860D01*
X80752Y65473D01*
X80898Y65176D01*
X81012Y65026D01*
X81835Y64918D01*
X82614Y64595D01*
X83282Y64082D01*
X83795Y63414D01*
X84118Y62635D01*
X84228Y61800D01*
Y59500D01*
X81000D01*
Y59000D01*
X80500D01*
Y53038D01*
X80165Y53082D01*
X79386Y53405D01*
X78840Y53824D01*
X78500Y53881D01*
X78160Y53824D01*
X77614Y53405D01*
X76835Y53082D01*
X76000Y52972D01*
X75165Y53082D01*
X74386Y53405D01*
X73840Y53824D01*
X73500Y53881D01*
X73160Y53824D01*
X72614Y53405D01*
X71835Y53082D01*
X71000Y52972D01*
X70165Y53082D01*
X69386Y53405D01*
X68840Y53824D01*
X68500Y53881D01*
X68160Y53824D01*
X67614Y53405D01*
X66835Y53082D01*
X66000Y52972D01*
X65165Y53082D01*
X64386Y53405D01*
X63840Y53824D01*
X63500Y53881D01*
X63160Y53824D01*
X62614Y53405D01*
X61835Y53082D01*
X61000Y52972D01*
X60165Y53082D01*
X59386Y53405D01*
X58840Y53824D01*
X58500Y53881D01*
X58160Y53824D01*
X57614Y53405D01*
X56835Y53082D01*
X56000Y52972D01*
X55165Y53082D01*
X54386Y53405D01*
X53840Y53824D01*
X53500Y53881D01*
X53160Y53824D01*
X52614Y53405D01*
X51835Y53082D01*
X51000Y52972D01*
X50165Y53082D01*
X49720Y53267D01*
X49437Y52843D01*
X53140Y49140D01*
X53620Y48513D01*
X53923Y47783D01*
X54026Y47000D01*
Y42888D01*
X54526Y42653D01*
X55165Y42918D01*
X56000Y43028D01*
X56835Y42918D01*
X57614Y42595D01*
X58160Y42176D01*
X58500Y42119D01*
X58840Y42176D01*
X59386Y42595D01*
X60165Y42918D01*
X60500Y42962D01*
Y37000D01*
Y31038D01*
X60165Y31082D01*
X59526Y31347D01*
X59026Y31112D01*
Y27879D01*
X68079Y18826D01*
X136547D01*
X154604Y36883D01*
Y40031D01*
X149528D01*
Y47969D01*
X165732D01*
Y40031D01*
X160656D01*
Y35630D01*
X160553Y34847D01*
X160250Y34117D01*
X159770Y33490D01*
X139940Y13660D01*
X139313Y13180D01*
X138583Y12877D01*
X137800Y12774D01*
X66826D01*
X66043Y12877D01*
X65313Y13180D01*
X64686Y13660D01*
X53860Y24486D01*
X53379Y25113D01*
X53077Y25843D01*
X52974Y26626D01*
Y31112D01*
X52474Y31347D01*
X51835Y31082D01*
X51000Y30972D01*
X50165Y31082D01*
X49386Y31405D01*
X48840Y31824D01*
X48500Y31881D01*
X48160Y31824D01*
X47614Y31405D01*
X46835Y31082D01*
X46000Y30972D01*
X45165Y31082D01*
X44386Y31405D01*
X43718Y31918D01*
X43205Y32586D01*
X42882Y33365D01*
X42772Y34200D01*
Y39800D01*
X42882Y40635D01*
X42974Y40857D01*
Y41747D01*
X34860Y49860D01*
X34380Y50487D01*
X34077Y51217D01*
X33974Y52000D01*
Y60747D01*
X31747Y62974D01*
X24000D01*
X23217Y63077D01*
X22487Y63380D01*
X21860Y63860D01*
X16860Y68860D01*
X16379Y69487D01*
X16077Y70217D01*
X15974Y71000D01*
X15974Y71000D01*
Y164000D01*
X15974Y164000D01*
X16077Y164783D01*
X16379Y165513D01*
X16860Y166140D01*
X16860Y166140D01*
X28360Y177640D01*
X28987Y178121D01*
X29717Y178423D01*
X30500Y178526D01*
X37974D01*
Y196000D01*
X37974Y196000D01*
X38077Y196783D01*
X38379Y197513D01*
X38860Y198140D01*
X40860Y200140D01*
X41487Y200621D01*
X42217Y200923D01*
X42500Y200960D01*
Y202000D01*
X42965D01*
Y208000D01*
X43103Y209044D01*
X43506Y210017D01*
X44147Y210853D01*
X44147Y210853D01*
X59147Y225853D01*
X59983Y226494D01*
X60956Y226897D01*
X62000Y227034D01*
D02*
G37*
G36*
X135500Y108000D02*
X140000D01*
Y101500D01*
X135500D01*
Y108000D01*
D02*
G37*
%LPD*%
G36*
X75500Y198038D02*
X75165Y198082D01*
X74386Y198405D01*
X73718Y198918D01*
X73205Y199586D01*
X73007Y200064D01*
X72443Y200119D01*
X72298Y199902D01*
X71702Y199504D01*
X71000Y199365D01*
X70298Y199504D01*
X69702Y199902D01*
X69304Y200498D01*
X69165Y201200D01*
Y201627D01*
X68860Y201860D01*
X68750Y202004D01*
X68250D01*
X68140Y201860D01*
X67835Y201627D01*
Y201200D01*
X67696Y200498D01*
X67298Y199902D01*
X66702Y199504D01*
X66000Y199365D01*
X65298Y199504D01*
X64702Y199902D01*
X64526Y200166D01*
X64026Y200015D01*
Y200000D01*
X63923Y199217D01*
X63621Y198487D01*
X63140Y197860D01*
X61140Y195860D01*
X60513Y195379D01*
X59783Y195077D01*
X59000Y194974D01*
X59000Y194974D01*
X51500D01*
Y194000D01*
Y190500D01*
X47000D01*
Y190000D01*
X46500D01*
Y186000D01*
X44026D01*
Y176753D01*
X52979Y167800D01*
X57521D01*
X57974Y168253D01*
Y176112D01*
X57474Y176347D01*
X56835Y176082D01*
X56500Y176038D01*
Y182000D01*
Y187962D01*
X56835Y187918D01*
X57614Y187595D01*
X58282Y187082D01*
X58795Y186414D01*
X58993Y185936D01*
X59557Y185881D01*
X59702Y186098D01*
X60298Y186496D01*
X61000Y186635D01*
X61702Y186496D01*
X62298Y186098D01*
X62696Y185502D01*
X62835Y184800D01*
Y184373D01*
X63140Y184140D01*
X63250Y183996D01*
X63750D01*
X63860Y184140D01*
X64165Y184373D01*
Y184800D01*
X64304Y185502D01*
X64702Y186098D01*
X65298Y186496D01*
X66000Y186635D01*
X66702Y186496D01*
X67298Y186098D01*
X67696Y185502D01*
X67835Y184800D01*
Y184373D01*
X68140Y184140D01*
X68250Y183996D01*
X68750D01*
X68860Y184140D01*
X69165Y184373D01*
Y184800D01*
X69304Y185502D01*
X69702Y186098D01*
X70298Y186496D01*
X71000Y186635D01*
X71702Y186496D01*
X72298Y186098D01*
X72696Y185502D01*
X72835Y184800D01*
Y184373D01*
X73140Y184140D01*
X73250Y183996D01*
X73750D01*
X73860Y184140D01*
X74165Y184373D01*
Y184800D01*
X74304Y185502D01*
X74702Y186098D01*
X75298Y186496D01*
X76000Y186635D01*
X76702Y186496D01*
X77298Y186098D01*
X77696Y185502D01*
X77835Y184800D01*
Y184373D01*
X78140Y184140D01*
X78620Y183513D01*
X78665Y183406D01*
X79165Y183506D01*
Y184800D01*
X79304Y185502D01*
X79702Y186098D01*
X80298Y186496D01*
X81000Y186635D01*
X81702Y186496D01*
X82298Y186098D01*
X82696Y185502D01*
X82835Y184800D01*
Y179200D01*
X82696Y178498D01*
X82298Y177902D01*
X81702Y177504D01*
X81000Y177365D01*
X80298Y177504D01*
X79702Y177902D01*
X79526Y178166D01*
X79026Y178015D01*
Y176253D01*
X85189Y170090D01*
X85385Y169940D01*
X87525Y167800D01*
X98300D01*
Y164431D01*
X98620Y164013D01*
X98923Y163283D01*
X99026Y162500D01*
Y127000D01*
X101974D01*
Y181747D01*
X93747Y189974D01*
X86000D01*
X85217Y190077D01*
X84487Y190380D01*
X83860Y190860D01*
X78860Y195860D01*
X78379Y196487D01*
X78077Y197217D01*
X77974Y198000D01*
X77974Y198000D01*
Y198112D01*
X77474Y198347D01*
X76835Y198082D01*
X76500Y198038D01*
Y204000D01*
X75500D01*
Y198038D01*
D02*
G37*
%LPC*%
G36*
X47500Y189500D02*
X51500D01*
Y186000D01*
X47500D01*
Y189500D01*
D02*
G37*
G36*
X86000Y186635D02*
X86702Y186496D01*
X87298Y186098D01*
X87696Y185502D01*
X87835Y184800D01*
Y179200D01*
X87696Y178498D01*
X87298Y177902D01*
X86702Y177504D01*
X86000Y177365D01*
X85298Y177504D01*
X84702Y177902D01*
X84304Y178498D01*
X84165Y179200D01*
Y184800D01*
X84304Y185502D01*
X84702Y186098D01*
X85298Y186496D01*
X86000Y186635D01*
D02*
G37*
G36*
X52772Y181500D02*
X55500D01*
Y176038D01*
X55165Y176082D01*
X54386Y176405D01*
X53718Y176918D01*
X53205Y177586D01*
X52882Y178365D01*
X52772Y179200D01*
Y181500D01*
D02*
G37*
G36*
X55500Y187962D02*
Y182500D01*
X52772D01*
Y184800D01*
X52882Y185635D01*
X53205Y186414D01*
X53718Y187082D01*
X54386Y187595D01*
X55165Y187918D01*
X55500Y187962D01*
D02*
G37*
G36*
X89200Y186600D02*
X92800D01*
Y177400D01*
X89200D01*
Y186600D01*
D02*
G37*
%LPD*%
D10*
X110500Y122000D02*
D03*
X97000D02*
D03*
X123500Y64000D02*
D03*
X110000D02*
D03*
D11*
X87000Y90000D02*
D03*
Y82000D02*
D03*
X78000Y90000D02*
D03*
Y82000D02*
D03*
X68000Y90000D02*
D03*
Y82000D02*
D03*
X58000Y90000D02*
D03*
Y82000D02*
D03*
X48000Y90000D02*
D03*
Y82000D02*
D03*
X80000Y164000D02*
D03*
Y156000D02*
D03*
X72000Y164000D02*
D03*
Y156000D02*
D03*
X38000Y163000D02*
D03*
Y155000D02*
D03*
X90000Y44000D02*
D03*
Y52000D02*
D03*
X47000Y198000D02*
D03*
Y190000D02*
D03*
D12*
X40000Y82000D02*
D03*
X32500D02*
D03*
X87000Y164000D02*
D03*
X94500D02*
D03*
X58000D02*
D03*
X65500D02*
D03*
X45000D02*
D03*
X52500D02*
D03*
D13*
X36200Y90000D02*
D03*
X90800Y156000D02*
D03*
X61800D02*
D03*
X48800D02*
D03*
D14*
X88000Y136130D02*
D03*
X78000D02*
D03*
X68000D02*
D03*
X58000D02*
D03*
X48000D02*
D03*
X38000D02*
D03*
Y107870D02*
D03*
X48000D02*
D03*
X58000D02*
D03*
X68000D02*
D03*
X78000D02*
D03*
D15*
X88000D02*
D03*
D16*
X154000Y101000D02*
D03*
X140500D02*
D03*
D17*
X46000Y37000D02*
D03*
X71000D02*
D03*
X76000D02*
D03*
X51000D02*
D03*
X66000D02*
D03*
X71000Y59000D02*
D03*
X66000D02*
D03*
X61000D02*
D03*
X56000D02*
D03*
X51000D02*
D03*
X81000D02*
D03*
X61000Y37000D02*
D03*
X76000Y59000D02*
D03*
X81000Y37000D02*
D03*
X56000D02*
D03*
X91000Y204000D02*
D03*
X66000D02*
D03*
X61000D02*
D03*
X86000D02*
D03*
X71000D02*
D03*
X66000Y182000D02*
D03*
X71000D02*
D03*
X76000D02*
D03*
X81000D02*
D03*
X86000D02*
D03*
X56000D02*
D03*
X76000Y204000D02*
D03*
X61000Y182000D02*
D03*
X56000Y204000D02*
D03*
X81000D02*
D03*
D18*
X46000Y59000D02*
D03*
X91000Y182000D02*
D03*
D19*
X157630Y84000D02*
D03*
D20*
Y74000D02*
D03*
Y64000D02*
D03*
Y54000D02*
D03*
Y44000D02*
D03*
X136370D02*
D03*
Y54000D02*
D03*
Y64000D02*
D03*
Y74000D02*
D03*
Y84000D02*
D03*
D21*
X190000Y240000D02*
X0D01*
Y0D02*
Y240000D01*
X190000Y0D02*
X0D01*
X190000D02*
Y240000D01*
X181000Y224000D02*
Y227999D01*
X179001Y229998D01*
X177001Y227999D01*
Y224000D01*
Y226999D01*
X181000D01*
X175002Y229998D02*
Y224000D01*
X171003D01*
X169004Y229998D02*
X165005D01*
X167005D01*
Y224000D01*
X163006Y228998D02*
X162006Y229998D01*
X160007D01*
X159007Y228998D01*
Y225000D01*
X160007Y224000D01*
X162006D01*
X163006Y225000D01*
Y228998D01*
X157008D02*
X156008Y229998D01*
X154009D01*
X153009Y228998D01*
Y225000D01*
X154009Y224000D01*
X156008D01*
X157008Y225000D01*
Y228998D01*
X147011Y229998D02*
X149010Y228998D01*
X151010Y226999D01*
Y225000D01*
X150010Y224000D01*
X148011D01*
X147011Y225000D01*
Y225999D01*
X148011Y226999D01*
X151010D01*
X145012Y228998D02*
X144012Y229998D01*
X142013D01*
X141013Y228998D01*
Y227999D01*
X142013Y226999D01*
X143012D01*
X142013D01*
X141013Y225999D01*
Y225000D01*
X142013Y224000D01*
X144012D01*
X145012Y225000D01*
D22*
X102000Y180000D02*
X92000Y190000D01*
X102000Y109000D02*
Y180000D01*
Y109000D02*
X94000Y101000D01*
X105000Y107000D02*
Y183000D01*
X96000Y124000D02*
X62000D01*
X96000D02*
Y162500D01*
X94000Y58000D02*
Y101000D01*
X105000Y183000D02*
X95000Y193000D01*
X105000Y107000D02*
X98000Y100000D01*
Y39000D02*
Y100000D01*
X102000Y34000D02*
Y92000D01*
X111000Y101000D02*
X102000Y92000D01*
X111000Y101000D02*
Y184000D01*
X91000Y204000D01*
X112000Y63000D02*
Y91000D01*
X117000Y96000D02*
X112000Y91000D01*
X117000Y96000D02*
Y187000D01*
X121000Y93000D02*
X117000Y89000D01*
Y33000D02*
Y89000D01*
Y33000D02*
X110200Y26200D01*
X121000Y93000D02*
Y190071D01*
X94071Y217000D01*
X69929D01*
X136370Y64000D02*
X123500D01*
X102000Y34000D02*
X97000Y29000D01*
X98000Y39000D02*
X96000Y37000D01*
X94000Y58000D02*
X88000Y52000D01*
X76000Y31000D02*
Y37000D01*
X78000Y29000D02*
X76000Y31000D01*
X97000Y29000D02*
X78000D01*
X76800Y26200D02*
X71000Y32000D01*
X110200Y26200D02*
X76800D01*
X71000Y32000D02*
Y37000D01*
X66826Y15800D02*
X56000Y26626D01*
X157630Y35630D02*
X137800Y15800D01*
X73640Y23400D02*
X66000Y31040D01*
X144272Y36272D02*
X131400Y23400D01*
X73640D01*
X137800Y15800D02*
X66826D01*
X66000Y31040D02*
Y37000D01*
X56000Y26626D02*
Y37000D01*
X144272Y36272D02*
Y49646D01*
X157630Y35630D02*
Y44000D01*
X146000Y51374D02*
X144272Y49646D01*
X146000Y51374D02*
Y56000D01*
X142000Y64000D02*
X136370D01*
X146000Y60000D02*
X142000Y64000D01*
X146000Y56000D02*
Y60000D01*
X136370Y54000D02*
X117000D01*
X154000Y64000D02*
X146000Y56000D01*
X90000Y52000D02*
X88000D01*
X92000Y190000D02*
X72000D01*
X117000Y187000D02*
X92000Y212000D01*
X72000D01*
X69929Y217000D02*
X66000Y213071D01*
X72000Y212000D02*
X71000Y211000D01*
X66000Y204000D02*
Y213071D01*
X71000Y204000D02*
Y211000D01*
X81000Y198000D02*
Y204000D01*
X86000Y193000D02*
X81000Y198000D01*
X95000Y193000D02*
X86000D01*
X96000Y37000D02*
X81000D01*
X37000Y52000D02*
Y62000D01*
X46000Y43000D02*
X37000Y52000D01*
X46000Y37000D02*
Y43000D01*
X37000Y62000D02*
X33000Y66000D01*
X24000D01*
X19000Y71000D01*
X23000Y73000D02*
Y162000D01*
X26000Y70000D02*
X23000Y73000D01*
X36000Y70000D02*
X26000D01*
X27000Y76000D02*
Y159000D01*
X29000Y74000D02*
X27000Y76000D01*
X39000Y74000D02*
X29000D01*
X41000Y65000D02*
X36000Y70000D01*
X46000Y67000D02*
X39000Y74000D01*
X41000Y54000D02*
Y65000D01*
X46000Y59000D02*
Y67000D01*
X19000Y71000D02*
Y164000D01*
X30500Y175500D02*
X19000Y164000D01*
X30000Y169000D02*
X23000Y162000D01*
X41000Y175500D02*
X30500D01*
X52500Y164000D02*
X41000Y175500D01*
Y196000D01*
X43000Y198000D02*
X41000Y196000D01*
X47000Y198000D02*
X43000D01*
X32500Y82000D02*
X31000Y83500D01*
Y121000D01*
X34000Y124000D02*
X31000Y121000D01*
Y163000D02*
X27000Y159000D01*
X54000Y124000D02*
X34000D01*
X72000Y190000D02*
X47000D01*
X76000Y194000D02*
X72000Y190000D01*
X76000Y194000D02*
Y204000D01*
X61000Y200000D02*
Y204000D01*
Y200000D02*
X59000Y198000D01*
X47000D01*
X55000Y182000D02*
X47000Y190000D01*
X56000Y182000D02*
X55000D01*
X54000Y124000D02*
X53000Y125000D01*
X62000Y124000D02*
X54000D01*
X63000Y125000D02*
X62000Y124000D01*
X63000Y125000D02*
Y148000D01*
X53000Y125000D02*
Y161000D01*
X52500Y161500D01*
Y164000D01*
X58000Y136130D02*
Y152200D01*
X61800Y156000D02*
X58000Y152200D01*
X66000Y151000D02*
X63000Y148000D01*
X66000Y151000D02*
Y163500D01*
X68000Y136130D02*
Y149040D01*
X68800Y149840D02*
X68000Y149040D01*
X68800Y149840D02*
Y152800D01*
X72000Y156000D02*
X68800Y152800D01*
X66000Y163500D02*
X65500Y164000D01*
X38000Y136130D02*
Y155000D01*
X48800Y136930D02*
Y156000D01*
X76000Y175000D02*
Y182000D01*
X83200Y167800D02*
X76000Y175000D01*
X83246Y167800D02*
X83200D01*
X87000Y164046D02*
X83246Y167800D01*
X87000Y164000D02*
Y164046D01*
X80000Y164000D02*
X71000Y173000D01*
Y182000D01*
X72000Y164000D02*
X66000Y170000D01*
Y182000D01*
X61000Y167000D02*
Y182000D01*
Y167000D02*
X58000Y164000D01*
X88000Y52000D02*
X66000D01*
X61000Y47000D01*
Y37000D02*
Y47000D01*
X76000Y37000D02*
Y43000D01*
X77000Y44000D02*
X76000Y43000D01*
X90000Y44000D02*
X77000D01*
X88000Y52000D02*
X81000Y59000D01*
X88000Y96000D02*
Y107870D01*
Y96000D02*
X87000Y95000D01*
Y90000D02*
Y95000D01*
X78000Y90000D02*
Y107870D01*
X68000Y90000D02*
Y107870D01*
X58000Y90000D02*
Y107870D01*
X48000Y90000D02*
Y107870D01*
X38000Y91800D02*
Y107870D01*
Y91800D02*
X36200Y90000D01*
X88000Y136130D02*
Y153200D01*
X90800Y156000D02*
X88000Y153200D01*
X78000Y136130D02*
Y154000D01*
X80000Y156000D02*
X78000Y154000D01*
X45000Y164000D02*
X40000Y169000D01*
X30000D01*
X44000Y51000D02*
X41000Y54000D01*
X47000Y51000D02*
X44000D01*
X51000Y47000D02*
X47000Y51000D01*
X51000Y37000D02*
Y47000D01*
X38000Y163000D02*
X31000D01*
X51000Y71000D02*
X40000Y82000D01*
X51000Y59000D02*
Y71000D01*
X56000Y59000D02*
Y71000D01*
X48000Y79000D01*
Y82000D01*
X61000Y59000D02*
Y75000D01*
X58000Y78000D01*
Y82000D01*
X66000Y59000D02*
Y69000D01*
X68000Y71000D02*
X66000Y69000D01*
X68000Y71000D02*
Y82000D01*
X71000Y59000D02*
Y68000D01*
X78000Y75000D02*
X71000Y68000D01*
X78000Y75000D02*
Y82000D01*
X76000Y59000D02*
Y65000D01*
X87000Y76000D02*
X76000Y65000D01*
X87000Y76000D02*
Y82000D01*
D23*
X126000Y74000D02*
Y194000D01*
X97000Y223000D01*
X62000D01*
X68400Y19600D02*
X61000Y27000D01*
X148072Y34072D02*
X133600Y19600D01*
X68400D01*
X47000Y198000D02*
Y208000D01*
X62000Y223000D02*
X47000Y208000D01*
X136370Y74000D02*
X126000D01*
X61000Y27000D02*
Y37000D01*
X148072Y34072D02*
Y48072D01*
X149000Y49000D02*
X148072Y48072D01*
X167000Y49000D02*
X149000D01*
X173000Y55000D02*
X167000Y49000D01*
X173000Y55000D02*
Y99000D01*
X160000Y112000D01*
X168000Y94000D02*
X161000Y101000D01*
X168000Y76000D02*
Y94000D01*
Y76000D02*
X166000Y74000D01*
X157630D01*
X160000Y112000D02*
X143000D01*
X140500Y109500D01*
Y101000D02*
Y109500D01*
X157630Y74000D02*
X136370D01*
X161000Y101000D02*
X154000D01*
X140500Y88130D02*
Y101000D01*
Y88130D02*
X136370Y84000D01*
X157630D02*
X136370D01*
M02*
