  0
SECTION
  2
HEADER
  9
$EXTMIN
 10
-0.035000
 20
-0.006000
  9
$EXTMAX
 10
5.035000
 20
5.006000
  9
$LIMMIN
 10
-0.035000
 20
-0.006000
  9
$LIMMAX
 10
5.035000
 20
5.006000
  9
$FILLMODE
 70
  1
  0
ENDSEC
  0
SECTION
  2
TABLES
  0
TABLE
  2
LTYPE
 70
  1
  0
LTYPE
  2
CONTINUOUS
 70
 64
  3
Solid line
 72
 65
 73
  0
 40
0.0
  0
ENDTAB
  0
TABLE
  2
LAYER
 70
 1
  0
LAYER
  2
0
 70
  0
 62
7
  6
CONTINUOUS
  0
LAYER
  2
bottomstencil
 70
  0
 62
8
  6
CONTINUOUS
  0
ENDTAB
  0
TABLE
  2
STYLE
 70
  1
  0
STYLE
  2
STANDARD
 70
  0
 40
0.0
 41
1.0
 50
0.0
 71
  0
 42
0.2
  3
txt
  4

  0
ENDTAB
  0
ENDSEC
  0
SECTION
  2
BLOCKS
  0
BLOCK
  8
0
  2
D10
 70
64
 10
0.0
 20
0.0
  3
D10
  0
POLYLINE
  8
0
 66
1
 10
0.0
 20
0.0
 40
0.011800
 41
0.011800
  0
VERTEX
  8
0
 10
-0.029550
 20
0.000000
  0
VERTEX
  8
0
 10
0.029550
 20
0.000000
  0
SEQEND
  8
0
  0
POLYLINE
  8
0
 66
1
 10
0.0
 20
0.0
 70
1
 40
0.005900
 41
0.005900
  0
VERTEX
  8
0
 10
-0.032500
 20
0.000000
 42
1.0
  0
VERTEX
  8
0
 10
-0.026600
 20
0.000000
 42
1.0
  0
SEQEND
  8
0
  0
POLYLINE
  8
0
 66
1
 10
0.0
 20
0.0
 70
1
 40
0.005900
 41
0.005900
  0
VERTEX
  8
0
 10
0.026600
 20
0.000000
 42
1.0
  0
VERTEX
  8
0
 10
0.032500
 20
0.000000
 42
1.0
  0
SEQEND
  8
0
 0
ENDBLK
  8
0
  0
BLOCK
  8
0
  2
D11
 70
64
 10
0.0
 20
0.0
  3
D11
  0
POLYLINE
  8
0
 66
1
 10
0.0
 20
0.0
 40
0.011800
 41
0.011800
  0
VERTEX
  8
0
 10
0.000000
 20
-0.029550
  0
VERTEX
  8
0
 10
0.000000
 20
0.029550
  0
SEQEND
  8
0
  0
POLYLINE
  8
0
 66
1
 10
0.0
 20
0.0
 70
1
 40
0.005900
 41
0.005900
  0
VERTEX
  8
0
 10
-0.002950
 20
-0.029550
 42
1.0
  0
VERTEX
  8
0
 10
0.002950
 20
-0.029550
 42
1.0
  0
SEQEND
  8
0
  0
POLYLINE
  8
0
 66
1
 10
0.0
 20
0.0
 70
1
 40
0.005900
 41
0.005900
  0
VERTEX
  8
0
 10
-0.002950
 20
0.029550
 42
1.0
  0
VERTEX
  8
0
 10
0.002950
 20
0.029550
 42
1.0
  0
SEQEND
  8
0
 0
ENDBLK
  8
0
  0
BLOCK
  8
0
  2
D12
 70
64
 10
0.0
 20
0.0
  3
D12
  0
POLYLINE
  8
0
 66
1
 10
0.0
 20
0.0
 40
0.078700
 41
0.078700
  0
VERTEX
  8
0
 10
-0.028550
 20
0.0
  0
VERTEX
  8
0
 10
0.028550
 20
0.0
  0
SEQEND
  8
0
 0
ENDBLK
  8
0
  0
BLOCK
  8
0
  2
D13
 70
64
 10
0.0
 20
0.0
  3
D13
  0
POLYLINE
  8
0
 66
1
 10
0.0
 20
0.0
 40
0.035400
 41
0.035400
  0
VERTEX
  8
0
 10
-0.028550
 20
0.0
  0
VERTEX
  8
0
 10
0.028550
 20
0.0
  0
SEQEND
  8
0
 0
ENDBLK
  8
0
  0
BLOCK
  8
0
  2
D14
 70
64
 10
0.0
 20
0.0
  3
D14
  0
POLYLINE
  8
0
 66
1
 10
0.0
 20
0.0
 40
0.059100
 41
0.059100
  0
VERTEX
  8
0
 10
-0.015750
 20
0.0
  0
VERTEX
  8
0
 10
0.015750
 20
0.0
  0
SEQEND
  8
0
 0
ENDBLK
  8
0
  0
BLOCK
  8
0
  2
D15
 70
64
 10
0.0
 20
0.0
  3
D15
  0
POLYLINE
  8
0
 66
1
 10
0.0
 20
0.0
 40
0.036000
 41
0.036000
  0
VERTEX
  8
0
 10
-0.025000
 20
0.0
  0
VERTEX
  8
0
 10
0.025000
 20
0.0
  0
SEQEND
  8
0
 0
ENDBLK
  8
0
  0
BLOCK
  8
0
  2
D16
 70
64
 10
0.0
 20
0.0
  3
D16
  0
POLYLINE
  8
0
 66
1
 10
0.0
 20
0.0
 40
0.036000
 41
0.036000
  0
VERTEX
  8
0
 10
-0.018000
 20
0.0
  0
VERTEX
  8
0
 10
0.018000
 20
0.0
  0
SEQEND
  8
0
 0
ENDBLK
  8
0
  0
BLOCK
  8
0
  2
D17
 70
64
 10
0.0
 20
0.0
  3
D17
  0
POLYLINE
  8
0
 66
1
 10
0.0
 20
0.0
 40
0.050000
 41
0.050000
  0
VERTEX
  8
0
 10
-0.018000
 20
0.0
  0
VERTEX
  8
0
 10
0.018000
 20
0.0
  0
SEQEND
  8
0
 0
ENDBLK
  8
0
  0
BLOCK
  8
0
  2
D18
 70
64
 10
0.0
 20
0.0
  3
D18
  0
POLYLINE
  8
0
 66
1
 10
0.0
 20
0.0
 40
0.036000
 41
0.036000
  0
VERTEX
  8
0
 10
-0.018000
 20
0.0
  0
VERTEX
  8
0
 10
0.018000
 20
0.0
  0
SEQEND
  8
0
 0
ENDBLK
  8
0
  0
BLOCK
  8
0
  2
D19
 70
64
 10
0.0
 20
0.0
  3
D19
  0
POLYLINE
  8
0
 66
1
 10
0.0
 20
0.0
 40
0.050000
 41
0.050000
  0
VERTEX
  8
0
 10
-0.010000
 20
0.0
  0
VERTEX
  8
0
 10
0.010000
 20
0.0
  0
SEQEND
  8
0
 0
ENDBLK
  8
0
  0
BLOCK
  8
0
  2
D20
 70
64
 10
0.0
 20
0.0
  3
D20
  0
POLYLINE
  8
0
 66
1
 10
0.0
 20
0.0
 40
0.039400
 41
0.039400
  0
VERTEX
  8
0
 10
0.000000
 20
-0.041300
  0
VERTEX
  8
0
 10
0.000000
 20
0.041300
  0
SEQEND
  8
0
  0
POLYLINE
  8
0
 66
1
 10
0.0
 20
0.0
 70
1
 40
0.019700
 41
0.019700
  0
VERTEX
  8
0
 10
-0.009850
 20
-0.041300
 42
1.0
  0
VERTEX
  8
0
 10
0.009850
 20
-0.041300
 42
1.0
  0
SEQEND
  8
0
  0
POLYLINE
  8
0
 66
1
 10
0.0
 20
0.0
 70
1
 40
0.019700
 41
0.019700
  0
VERTEX
  8
0
 10
-0.009850
 20
0.041300
 42
1.0
  0
VERTEX
  8
0
 10
0.009850
 20
0.041300
 42
1.0
  0
SEQEND
  8
0
 0
ENDBLK
  8
0
  0
BLOCK
  8
0
  2
D21
 70
64
 10
0.0
 20
0.0
  3
D21
  0
POLYLINE
  8
0
 66
1
 10
0.0
 20
0.0
 40
0.122000
 41
0.122000
  0
VERTEX
  8
0
 10
-0.019700
 20
0.0
  0
VERTEX
  8
0
 10
0.019700
 20
0.0
  0
SEQEND
  8
0
 0
ENDBLK
  8
0
  0
BLOCK
  8
0
  2
D22
 70
64
 10
0.0
 20
0.0
  3
D22
  0
POLYLINE
  8
0
 66
1
 10
0.0
 20
0.0
 40
0.025000
 41
0.025000
  0
VERTEX
  8
0
 10
-0.010000
 20
0.0
  0
VERTEX
  8
0
 10
0.010000
 20
0.0
  0
SEQEND
  8
0
 0
ENDBLK
  8
0
  0
BLOCK
  8
0
  2
D23
 70
64
 10
0.0
 20
0.0
  3
D23
  0
POLYLINE
  8
0
 66
1
 10
0.0
 20
0.0
 40
0.030000
 41
0.030000
  0
VERTEX
  8
0
 10
-0.015000
 20
0.0
  0
VERTEX
  8
0
 10
0.015000
 20
0.0
  0
SEQEND
  8
0
 0
ENDBLK
  8
0
  0
BLOCK
  8
0
  2
D24
 70
64
 10
0.0
 20
0.0
  3
D24
  0
POLYLINE
  8
0
 66
1
 10
0.0
 20
0.0
 40
0.016500
 41
0.016500
  0
VERTEX
  8
0
 10
-0.011800
 20
0.0
  0
VERTEX
  8
0
 10
0.011800
 20
0.0
  0
SEQEND
  8
0
 0
ENDBLK
  8
0
  0
BLOCK
  8
0
  2
D25
 70
64
 10
0.0
 20
0.0
  3
D25
  0
POLYLINE
  8
0
 66
1
 10
0.0
 20
0.0
 40
0.100000
 41
0.100000
  0
VERTEX
  8
0
 10
-0.030000
 20
0.0
  0
VERTEX
  8
0
 10
0.030000
 20
0.0
  0
SEQEND
  8
0
 0
ENDBLK
  8
0
  0
BLOCK
  8
0
  2
D26
 70
64
 10
0.0
 20
0.0
  3
D26
  0
POLYLINE
  8
0
 66
1
 10
0.0
 20
0.0
 40
0.060000
 41
0.060000
  0
VERTEX
  8
0
 10
-0.050000
 20
0.0
  0
VERTEX
  8
0
 10
0.050000
 20
0.0
  0
SEQEND
  8
0
 0
ENDBLK
  8
0
  0
BLOCK
  8
0
  2
D27
 70
64
 10
0.0
 20
0.0
  3
D27
  0
POLYLINE
  8
0
 66
1
 10
0.0
 20
0.0
 40
0.090600
 41
0.090600
  0
VERTEX
  8
0
 10
-0.009850
 20
0.0
  0
VERTEX
  8
0
 10
0.009850
 20
0.0
  0
SEQEND
  8
0
 0
ENDBLK
  8
0
  0
BLOCK
  8
0
  2
D28
 70
64
 10
0.0
 20
0.0
  3
D28
  0
POLYLINE
  8
0
 66
1
 10
0.0
 20
0.0
 40
0.078700
 41
0.078700
  0
VERTEX
  8
0
 10
-0.039350
 20
0.0
  0
VERTEX
  8
0
 10
0.039350
 20
0.0
  0
SEQEND
  8
0
 0
ENDBLK
  8
0
  0
BLOCK
  8
0
  2
D29
 70
64
 10
0.0
 20
0.0
  3
D29
  0
POLYLINE
  8
0
 66
1
 10
0.0
 20
0.0
 40
0.098400
 41
0.098400
  0
VERTEX
  8
0
 10
-0.039350
 20
0.0
  0
VERTEX
  8
0
 10
0.039350
 20
0.0
  0
SEQEND
  8
0
 0
ENDBLK
  8
0
  0
BLOCK
  8
0
  2
D30
 70
64
 10
0.0
 20
0.0
  3
D30
  0
POLYLINE
  8
0
 66
1
 10
0.0
 20
0.0
 70
1
 40
0.025000
 41
0.025000
  0
VERTEX
  8
0
 10
-0.012500
 20
0.0
 42
1.0
  0
VERTEX
  8
0
 10
0.012500
 20
0.0
 42
1.0
  0
SEQEND
  8
0
 0
ENDBLK
  8
0
  0
BLOCK
  8
0
  2
D31
 70
64
 10
0.0
 20
0.0
  3
D31
  0
POLYLINE
  8
0
 66
1
 10
0.0
 20
0.0
 40
0.086600
 41
0.086600
  0
VERTEX
  8
0
 10
-0.059050
 20
0.0
  0
VERTEX
  8
0
 10
0.059050
 20
0.0
  0
SEQEND
  8
0
 0
ENDBLK
  8
0
  0
BLOCK
  8
0
  2
D32
 70
64
 10
0.0
 20
0.0
  3
D32
  0
POLYLINE
  8
0
 66
1
 10
0.0
 20
0.0
 40
0.030000
 41
0.030000
  0
VERTEX
  8
0
 10
-0.015000
 20
0.0
  0
VERTEX
  8
0
 10
0.015000
 20
0.0
  0
SEQEND
  8
0
 0
ENDBLK
  8
0
  0
BLOCK
  8
0
  2
D33
 70
64
 10
0.0
 20
0.0
  3
D33
  0
POLYLINE
  8
0
 66
1
 10
0.0
 20
0.0
 40
0.118100
 41
0.118100
  0
VERTEX
  8
0
 10
-0.043300
 20
0.0
  0
VERTEX
  8
0
 10
0.043300
 20
0.0
  0
SEQEND
  8
0
 0
ENDBLK
  8
0
  0
BLOCK
  8
0
  2
D34
 70
64
 10
0.0
 20
0.0
  3
D34
  0
POLYLINE
  8
0
 66
1
 10
0.0
 20
0.0
 40
0.023600
 41
0.023600
  0
VERTEX
  8
0
 10
0.000000
 20
-0.031500
  0
VERTEX
  8
0
 10
0.000000
 20
0.031500
  0
SEQEND
  8
0
  0
POLYLINE
  8
0
 66
1
 10
0.0
 20
0.0
 70
1
 40
0.011800
 41
0.011800
  0
VERTEX
  8
0
 10
-0.005900
 20
-0.031500
 42
1.0
  0
VERTEX
  8
0
 10
0.005900
 20
-0.031500
 42
1.0
  0
SEQEND
  8
0
  0
POLYLINE
  8
0
 66
1
 10
0.0
 20
0.0
 70
1
 40
0.011800
 41
0.011800
  0
VERTEX
  8
0
 10
-0.005900
 20
0.031500
 42
1.0
  0
VERTEX
  8
0
 10
0.005900
 20
0.031500
 42
1.0
  0
SEQEND
  8
0
 0
ENDBLK
  8
0
  0
BLOCK
  8
0
  2
D35
 70
64
 10
0.0
 20
0.0
  3
D35
  0
POLYLINE
  8
0
 66
1
 10
0.0
 20
0.0
 40
0.079000
 41
0.079000
  0
VERTEX
  8
0
 10
-0.029500
 20
0.0
  0
VERTEX
  8
0
 10
0.029500
 20
0.0
  0
SEQEND
  8
0
 0
ENDBLK
  8
0
  0
BLOCK
  8
0
  2
D36
 70
64
 10
0.0
 20
0.0
  3
D36
  0
POLYLINE
  8
0
 66
1
 10
0.0
 20
0.0
 40
0.079000
 41
0.079000
  0
VERTEX
  8
0
 10
-0.075000
 20
0.0
  0
VERTEX
  8
0
 10
0.075000
 20
0.0
  0
SEQEND
  8
0
 0
ENDBLK
  8
0
  0
BLOCK
  8
0
  2
D37
 70
64
 10
0.0
 20
0.0
  3
D37
  0
POLYLINE
  8
0
 66
1
 10
0.0
 20
0.0
 40
0.039400
 41
0.039400
  0
VERTEX
  8
0
 10
-0.041300
 20
0.000000
  0
VERTEX
  8
0
 10
0.041300
 20
0.000000
  0
SEQEND
  8
0
  0
POLYLINE
  8
0
 66
1
 10
0.0
 20
0.0
 70
1
 40
0.019700
 41
0.019700
  0
VERTEX
  8
0
 10
-0.051150
 20
0.000000
 42
1.0
  0
VERTEX
  8
0
 10
-0.031450
 20
0.000000
 42
1.0
  0
SEQEND
  8
0
  0
POLYLINE
  8
0
 66
1
 10
0.0
 20
0.0
 70
1
 40
0.019700
 41
0.019700
  0
VERTEX
  8
0
 10
0.031450
 20
0.000000
 42
1.0
  0
VERTEX
  8
0
 10
0.051150
 20
0.000000
 42
1.0
  0
SEQEND
  8
0
 0
ENDBLK
  8
0
  0
BLOCK
  8
0
  2
D38
 70
64
 10
0.0
 20
0.0
  3
D38
  0
POLYLINE
  8
0
 66
1
 10
0.0
 20
0.0
 40
0.039400
 41
0.039400
  0
VERTEX
  8
0
 10
-0.061000
 20
0.0
  0
VERTEX
  8
0
 10
0.061000
 20
0.0
  0
SEQEND
  8
0
 0
ENDBLK
  8
0
  0
BLOCK
  8
0
  2
D39
 70
64
 10
0.0
 20
0.0
  3
D39
  0
POLYLINE
  8
0
 66
1
 10
0.0
 20
0.0
 40
0.051200
 41
0.051200
  0
VERTEX
  8
0
 10
-0.039350
 20
0.0
  0
VERTEX
  8
0
 10
0.039350
 20
0.0
  0
SEQEND
  8
0
 0
ENDBLK
  8
0
  0
BLOCK
  8
0
  2
D40
 70
64
 10
0.0
 20
0.0
  3
D40
  0
POLYLINE
  8
0
 66
1
 10
0.0
 20
0.0
 40
0
 41
0
 70
1
  0
VERTEX
  8
0
 10
-0.026500
 20
-0.025600
 42
0
  0
VERTEX
  8
0
 10
0.026500
 20
-0.025600
 42
0
  0
VERTEX
  8
0
 10
0.039300
 20
-0.012800
 42
0
  0
VERTEX
  8
0
 10
0.039300
 20
0.012800
 42
0
  0
VERTEX
  8
0
 10
0.026500
 20
0.025600
 42
0
  0
VERTEX
  8
0
 10
-0.026500
 20
0.025600
 42
0
  0
VERTEX
  8
0
 10
-0.039300
 20
0.012800
 42
0
  0
VERTEX
  8
0
 10
-0.039300
 20
-0.012800
 42
0
  0
SEQEND
  8
0
  0
CIRCLE
  8
0
 10
-0.026500
 20
-0.012800
 40
0.012800
  0
CIRCLE
  8
0
 10
0.026500
 20
-0.012800
 40
0.012800
  0
CIRCLE
  8
0
 10
0.026500
 20
0.012800
 40
0.012800
  0
CIRCLE
  8
0
 10
-0.026500
 20
0.012800
 40
0.012800
 0
ENDBLK
  8
0
  0
BLOCK
  8
0
  2
D41
 70
64
 10
0.0
 20
0.0
  3
D41
  0
POLYLINE
  8
0
 66
1
 10
0.0
 20
0.0
 70
1
 40
0.020000
 41
0.020000
  0
VERTEX
  8
0
 10
-0.010000
 20
0.0
 42
1.0
  0
VERTEX
  8
0
 10
0.010000
 20
0.0
 42
1.0
  0
SEQEND
  8
0
 0
ENDBLK
  8
0
  0
BLOCK
  8
0
  2
D42
 70
64
 10
0.0
 20
0.0
  3
D42
  0
POLYLINE
  8
0
 66
1
 10
0.0
 20
0.0
 70
1
 40
0.005000
 41
0.005000
  0
VERTEX
  8
0
 10
-0.002500
 20
0.0
 42
1.0
  0
VERTEX
  8
0
 10
0.002500
 20
0.0
 42
1.0
  0
SEQEND
  8
0
 0
ENDBLK
  8
0
  0
BLOCK
  8
0
  2
D43
 70
64
 10
0.0
 20
0.0
  3
D43
  0
POLYLINE
  8
0
 66
1
 10
0.0
 20
0.0
 70
1
 40
0.007500
 41
0.007500
  0
VERTEX
  8
0
 10
-0.003750
 20
0.0
 42
1.0
  0
VERTEX
  8
0
 10
0.003750
 20
0.0
 42
1.0
  0
SEQEND
  8
0
 0
ENDBLK
  8
0
  0
BLOCK
  8
0
  2
D44
 70
64
 10
0.0
 20
0.0
  3
D44
  0
POLYLINE
  8
0
 66
1
 10
0.0
 20
0.0
 70
1
 40
0.006000
 41
0.006000
  0
VERTEX
  8
0
 10
-0.003000
 20
0.0
 42
1.0
  0
VERTEX
  8
0
 10
0.003000
 20
0.0
 42
1.0
  0
SEQEND
  8
0
 0
ENDBLK
  8
0
  0
BLOCK
  8
0
  2
D45
 70
64
 10
0.0
 20
0.0
  3
D45
  0
POLYLINE
  8
0
 66
1
 10
0.0
 20
0.0
 70
1
 40
0.040000
 41
0.040000
  0
VERTEX
  8
0
 10
-0.020000
 20
0.0
 42
1.0
  0
VERTEX
  8
0
 10
0.020000
 20
0.0
 42
1.0
  0
SEQEND
  8
0
 0
ENDBLK
  8
0
  0
BLOCK
  8
0
  2
D46
 70
64
 10
0.0
 20
0.0
  3
D46
  0
POLYLINE
  8
0
 66
1
 10
0.0
 20
0.0
 70
1
 40
0.050000
 41
0.050000
  0
VERTEX
  8
0
 10
-0.025000
 20
0.0
 42
1.0
  0
VERTEX
  8
0
 10
0.025000
 20
0.0
 42
1.0
  0
SEQEND
  8
0
 0
ENDBLK
  8
0
  0
BLOCK
  8
0
  2
D47
 70
64
 10
0.0
 20
0.0
  3
D47
  0
POLYLINE
  8
0
 66
1
 10
0.0
 20
0.0
 70
1
 40
0.010000
 41
0.010000
  0
VERTEX
  8
0
 10
-0.005000
 20
0.0
 42
1.0
  0
VERTEX
  8
0
 10
0.005000
 20
0.0
 42
1.0
  0
SEQEND
  8
0
 0
ENDBLK
  8
0
  0
BLOCK
  8
0
  2
D48
 70
64
 10
0.0
 20
0.0
  3
D48
  0
POLYLINE
  8
0
 66
1
 10
0.0
 20
0.0
 70
1
 40
0.015000
 41
0.015000
  0
VERTEX
  8
0
 10
-0.007500
 20
0.0
 42
1.0
  0
VERTEX
  8
0
 10
0.007500
 20
0.0
 42
1.0
  0
SEQEND
  8
0
 0
ENDBLK
  8
0
  0
BLOCK
  8
0
  2
D49
 70
64
 10
0.0
 20
0.0
  3
D49
  0
POLYLINE
  8
0
 66
1
 10
0.0
 20
0.0
 70
1
 40
0.035000
 41
0.035000
  0
VERTEX
  8
0
 10
-0.017500
 20
0.0
 42
1.0
  0
VERTEX
  8
0
 10
0.017500
 20
0.0
 42
1.0
  0
SEQEND
  8
0
 0
ENDBLK
  8
0
  0
BLOCK
  8
0
  2
D50
 70
64
 10
0.0
 20
0.0
  3
D50
  0
POLYLINE
  8
0
 66
1
 10
0.0
 20
0.0
 70
1
 40
0.025000
 41
0.025000
  0
VERTEX
  8
0
 10
-0.012500
 20
0.0
 42
1.0
  0
VERTEX
  8
0
 10
0.012500
 20
0.0
 42
1.0
  0
SEQEND
  8
0
 0
ENDBLK
  8
0
  0
BLOCK
  8
0
  2
D51
 70
64
 10
0.0
 20
0.0
  3
D51
  0
POLYLINE
  8
0
 66
1
 10
0.0
 20
0.0
 70
1
 40
0.012500
 41
0.012500
  0
VERTEX
  8
0
 10
-0.006250
 20
0.0
 42
1.0
  0
VERTEX
  8
0
 10
0.006250
 20
0.0
 42
1.0
  0
SEQEND
  8
0
 0
ENDBLK
  8
0
  0
BLOCK
  8
0
  2
D52
 70
64
 10
0.0
 20
0.0
  3
D52
  0
POLYLINE
  8
0
 66
1
 10
0.0
 20
0.0
 70
1
 40
0.030000
 41
0.030000
  0
VERTEX
  8
0
 10
-0.015000
 20
0.0
 42
1.0
  0
VERTEX
  8
0
 10
0.015000
 20
0.0
 42
1.0
  0
SEQEND
  8
0
 0
ENDBLK
  8
0
  0
BLOCK
  8
0
  2
D53
 70
64
 10
0.0
 20
0.0
  3
D53
  0
POLYLINE
  8
0
 66
1
 10
0.0
 20
0.0
 40
0.295300
 41
0.295300
  0
VERTEX
  8
0
 10
-0.216550
 20
0.0
  0
VERTEX
  8
0
 10
0.216550
 20
0.0
  0
SEQEND
  8
0
 0
ENDBLK
  8
0
  0
BLOCK
  8
0
  2
D54
 70
64
 10
0.0
 20
0.0
  3
D54
  0
POLYLINE
  8
0
 66
1
 10
0.0
 20
0.0
 40
0.216500
 41
0.216500
  0
VERTEX
  8
0
 10
-0.118100
 20
0.0
  0
VERTEX
  8
0
 10
0.118100
 20
0.0
  0
SEQEND
  8
0
 0
ENDBLK
  8
0
  0
BLOCK
  8
0
  2
D55
 70
64
 10
0.0
 20
0.0
  3
D55
  0
POLYLINE
  8
0
 66
1
 10
0.0
 20
0.0
 40
0.295300
 41
0.295300
  0
VERTEX
  8
0
 10
-0.187000
 20
0.0
  0
VERTEX
  8
0
 10
0.187000
 20
0.0
  0
SEQEND
  8
0
 0
ENDBLK
  8
0
  0
BLOCK
  8
0
  2
D56
 70
64
 10
0.0
 20
0.0
  3
D56
  0
POLYLINE
  8
0
 66
1
 10
0.0
 20
0.0
 40
0.098400
 41
0.098400
  0
VERTEX
  8
0
 10
-0.068900
 20
0.0
  0
VERTEX
  8
0
 10
0.068900
 20
0.0
  0
SEQEND
  8
0
 0
ENDBLK
  8
0
  0
BLOCK
  8
0
  2
D57
 70
64
 10
0.0
 20
0.0
  3
D57
  0
POLYLINE
  8
0
 66
1
 10
0.0
 20
0.0
 40
0.137800
 41
0.137800
  0
VERTEX
  8
0
 10
-0.265750
 20
0.0
  0
VERTEX
  8
0
 10
0.265750
 20
0.0
  0
SEQEND
  8
0
 0
ENDBLK
  8
0
  0
BLOCK
  8
0
  2
D58
 70
64
 10
0.0
 20
0.0
  3
D58
  0
POLYLINE
  8
0
 66
1
 10
0.0
 20
0.0
 40
0.078700
 41
0.078700
  0
VERTEX
  8
0
 10
-0.029550
 20
0.0
  0
VERTEX
  8
0
 10
0.029550
 20
0.0
  0
SEQEND
  8
0
 0
ENDBLK
  8
0
  0
BLOCK
  8
0
  2
D59
 70
64
 10
0.0
 20
0.0
  3
D59
  0
POLYLINE
  8
0
 66
1
 10
0.0
 20
0.0
 40
0.080000
 41
0.080000
  0
VERTEX
  8
0
 10
-0.040000
 20
0.0
  0
VERTEX
  8
0
 10
0.040000
 20
0.0
  0
SEQEND
  8
0
 0
ENDBLK
  8
0
  0
BLOCK
  8
0
  2
D60
 70
64
 10
0.0
 20
0.0
  3
D60
  0
POLYLINE
  8
0
 66
1
 10
0.0
 20
0.0
 40
0.309000
 41
0.309000
  0
VERTEX
  8
0
 10
-0.125500
 20
0.0
  0
VERTEX
  8
0
 10
0.125500
 20
0.0
  0
SEQEND
  8
0
 0
ENDBLK
  8
0
  0
BLOCK
  8
0
  2
D61
 70
64
 10
0.0
 20
0.0
  3
D61
  0
POLYLINE
  8
0
 66
1
 10
0.0
 20
0.0
 40
0.070000
 41
0.070000
  0
VERTEX
  8
0
 10
-0.035000
 20
0.0
  0
VERTEX
  8
0
 10
0.035000
 20
0.0
  0
SEQEND
  8
0
 0
ENDBLK
  8
0
  0
BLOCK
  8
0
  2
D62
 70
64
 10
0.0
 20
0.0
  3
D62
  0
POLYLINE
  8
0
 66
1
 10
0.0
 20
0.0
 70
1
 40
0.035000
 41
0.035000
  0
VERTEX
  8
0
 10
-0.017500
 20
0.0
 42
1.0
  0
VERTEX
  8
0
 10
0.017500
 20
0.0
 42
1.0
  0
SEQEND
  8
0
 0
ENDBLK
  8
0
  0
BLOCK
  8
0
  2
D63
 70
64
 10
0.0
 20
0.0
  3
D63
  0
POLYLINE
  8
0
 66
1
 10
0.0
 20
0.0
 70
1
 40
0.029550
 41
0.029550
  0
VERTEX
  8
0
 10
-0.014775
 20
0.0
 42
1.0
  0
VERTEX
  8
0
 10
0.014775
 20
0.0
 42
1.0
  0
SEQEND
  8
0
 0
ENDBLK
  8
0
  0
BLOCK
  8
0
  2
D64
 70
64
 10
0.0
 20
0.0
  3
D64
  0
POLYLINE
  8
0
 66
1
 10
0.0
 20
0.0
 70
1
 40
0.045000
 41
0.045000
  0
VERTEX
  8
0
 10
-0.022500
 20
0.0
 42
1.0
  0
VERTEX
  8
0
 10
0.022500
 20
0.0
 42
1.0
  0
SEQEND
  8
0
 0
ENDBLK
  8
0
  0
BLOCK
  8
0
  2
D65
 70
64
 10
0.0
 20
0.0
  3
D65
  0
POLYLINE
  8
0
 66
1
 10
0.0
 20
0.0
 70
1
 40
0.017700
 41
0.017700
  0
VERTEX
  8
0
 10
-0.008850
 20
0.0
 42
1.0
  0
VERTEX
  8
0
 10
0.008850
 20
0.0
 42
1.0
  0
SEQEND
  8
0
 0
ENDBLK
  8
0
  0
BLOCK
  8
0
  2
D66
 70
64
 10
0.0
 20
0.0
  3
D66
  0
POLYLINE
  8
0
 66
1
 10
0.0
 20
0.0
 70
1
 40
0.050000
 41
0.050000
  0
VERTEX
  8
0
 10
-0.025000
 20
0.0
 42
1.0
  0
VERTEX
  8
0
 10
0.025000
 20
0.0
 42
1.0
  0
SEQEND
  8
0
 0
ENDBLK
  8
0
  0
BLOCK
  8
0
  2
D67
 70
64
 10
0.0
 20
0.0
  3
D67
  0
POLYLINE
  8
0
 66
1
 10
0.0
 20
0.0
 40
0.070000
 41
0.070000
  0
VERTEX
  8
0
 10
-0.035000
 20
0.0
  0
VERTEX
  8
0
 10
0.035000
 20
0.0
  0
SEQEND
  8
0
 0
ENDBLK
  8
0
  0
BLOCK
  8
0
  2
D68
 70
64
 10
0.0
 20
0.0
  3
D68
  0
POLYLINE
  8
0
 66
1
 10
0.0
 20
0.0
 70
1
 40
0.030000
 41
0.030000
  0
VERTEX
  8
0
 10
-0.015000
 20
0.0
 42
1.0
  0
VERTEX
  8
0
 10
0.015000
 20
0.0
 42
1.0
  0
SEQEND
  8
0
 0
ENDBLK
  8
0
  0
BLOCK
  8
0
  2
D69
 70
64
 10
0.0
 20
0.0
  3
D69
  0
POLYLINE
  8
0
 66
1
 10
0.0
 20
0.0
 70
1
 40
0.125000
 41
0.125000
  0
VERTEX
  8
0
 10
-0.062500
 20
0.0
 42
1.0
  0
VERTEX
  8
0
 10
0.062500
 20
0.0
 42
1.0
  0
SEQEND
  8
0
 0
ENDBLK
  8
0
  0
BLOCK
  8
0
  2
D70
 70
64
 10
0.0
 20
0.0
  3
D70
  0
POLYLINE
  8
0
 66
1
 10
0.0
 20
0.0
 70
1
 40
0.037850
 41
0.037850
  0
VERTEX
  8
0
 10
-0.018925
 20
0.0
 42
1.0
  0
VERTEX
  8
0
 10
0.018925
 20
0.0
 42
1.0
  0
SEQEND
  8
0
 0
ENDBLK
  8
0
  0
BLOCK
  8
0
  2
D71
 70
64
 10
0.0
 20
0.0
  3
D71
  0
POLYLINE
  8
0
 66
1
 10
0.0
 20
0.0
 70
1
 40
0.025600
 41
0.025600
  0
VERTEX
  8
0
 10
-0.012800
 20
0.0
 42
1.0
  0
VERTEX
  8
0
 10
0.012800
 20
0.0
 42
1.0
  0
SEQEND
  8
0
 0
ENDBLK
  8
0
  0
BLOCK
  8
0
  2
D72
 70
64
 10
0.0
 20
0.0
  3
D72
  0
POLYLINE
  8
0
 66
1
 10
0.0
 20
0.0
 70
1
 40
0.013800
 41
0.013800
  0
VERTEX
  8
0
 10
-0.006900
 20
0.0
 42
1.0
  0
VERTEX
  8
0
 10
0.006900
 20
0.0
 42
1.0
  0
SEQEND
  8
0
 0
ENDBLK
  8
0
  0
BLOCK
  8
0
  2
D73
 70
64
 10
0.0
 20
0.0
  3
D73
  0
POLYLINE
  8
0
 66
1
 10
0.0
 20
0.0
 40
0.049200
 41
0.049200
  0
VERTEX
  8
0
 10
-0.021650
 20
0.0
  0
VERTEX
  8
0
 10
0.021650
 20
0.0
  0
SEQEND
  8
0
 0
ENDBLK
  8
0
  0
BLOCK
  8
0
  2
D74
 70
64
 10
0.0
 20
0.0
  3
D74
  0
POLYLINE
  8
0
 66
1
 10
0.0
 20
0.0
 40
0.024000
 41
0.024000
  0
VERTEX
  8
0
 10
-0.028000
 20
0.000000
  0
VERTEX
  8
0
 10
0.028000
 20
0.000000
  0
SEQEND
  8
0
  0
POLYLINE
  8
0
 66
1
 10
0.0
 20
0.0
 70
1
 40
0.012000
 41
0.012000
  0
VERTEX
  8
0
 10
-0.034000
 20
0.000000
 42
1.0
  0
VERTEX
  8
0
 10
-0.022000
 20
0.000000
 42
1.0
  0
SEQEND
  8
0
  0
POLYLINE
  8
0
 66
1
 10
0.0
 20
0.0
 70
1
 40
0.012000
 41
0.012000
  0
VERTEX
  8
0
 10
0.022000
 20
0.000000
 42
1.0
  0
VERTEX
  8
0
 10
0.034000
 20
0.000000
 42
1.0
  0
SEQEND
  8
0
 0
ENDBLK
  8
0
  0
BLOCK
  8
0
  2
D75
 70
64
 10
0.0
 20
0.0
  3
D75
  0
POLYLINE
  8
0
 66
1
 10
0.0
 20
0.0
 40
0.024000
 41
0.024000
  0
VERTEX
  8
0
 10
-0.040000
 20
0.0
  0
VERTEX
  8
0
 10
0.040000
 20
0.0
  0
SEQEND
  8
0
 0
ENDBLK
  8
0
  0
BLOCK
  8
0
  2
D76
 70
64
 10
0.0
 20
0.0
  3
D76
  0
POLYLINE
  8
0
 66
1
 10
0.0
 20
0.0
 40
0.024000
 41
0.024000
  0
VERTEX
  8
0
 10
0.000000
 20
-0.028000
  0
VERTEX
  8
0
 10
0.000000
 20
0.028000
  0
SEQEND
  8
0
  0
POLYLINE
  8
0
 66
1
 10
0.0
 20
0.0
 70
1
 40
0.012000
 41
0.012000
  0
VERTEX
  8
0
 10
-0.006000
 20
-0.028000
 42
1.0
  0
VERTEX
  8
0
 10
0.006000
 20
-0.028000
 42
1.0
  0
SEQEND
  8
0
  0
POLYLINE
  8
0
 66
1
 10
0.0
 20
0.0
 70
1
 40
0.012000
 41
0.012000
  0
VERTEX
  8
0
 10
-0.006000
 20
0.028000
 42
1.0
  0
VERTEX
  8
0
 10
0.006000
 20
0.028000
 42
1.0
  0
SEQEND
  8
0
 0
ENDBLK
  8
0
  0
BLOCK
  8
0
  2
D77
 70
64
 10
0.0
 20
0.0
  3
D77
  0
POLYLINE
  8
0
 66
1
 10
0.0
 20
0.0
 40
0.080000
 41
0.080000
  0
VERTEX
  8
0
 10
-0.012000
 20
0.0
  0
VERTEX
  8
0
 10
0.012000
 20
0.0
  0
SEQEND
  8
0
 0
ENDBLK
  8
0
  0
BLOCK
  8
0
  2
D78
 70
64
 10
0.0
 20
0.0
  3
D78
  0
POLYLINE
  8
0
 66
1
 10
0.0
 20
0.0
 40
0.017700
 41
0.017700
  0
VERTEX
  8
0
 10
-0.032500
 20
0.000000
  0
VERTEX
  8
0
 10
0.032500
 20
0.000000
  0
SEQEND
  8
0
  0
POLYLINE
  8
0
 66
1
 10
0.0
 20
0.0
 70
1
 40
0.008850
 41
0.008850
  0
VERTEX
  8
0
 10
-0.036925
 20
0.000000
 42
1.0
  0
VERTEX
  8
0
 10
-0.028075
 20
0.000000
 42
1.0
  0
SEQEND
  8
0
  0
POLYLINE
  8
0
 66
1
 10
0.0
 20
0.0
 70
1
 40
0.008850
 41
0.008850
  0
VERTEX
  8
0
 10
0.028075
 20
0.000000
 42
1.0
  0
VERTEX
  8
0
 10
0.036925
 20
0.000000
 42
1.0
  0
SEQEND
  8
0
 0
ENDBLK
  8
0
  0
BLOCK
  8
0
  2
D79
 70
64
 10
0.0
 20
0.0
  3
D79
  0
POLYLINE
  8
0
 66
1
 10
0.0
 20
0.0
 40
0.050000
 41
0.050000
  0
VERTEX
  8
0
 10
0.000000
 20
-0.025000
  0
VERTEX
  8
0
 10
0.000000
 20
0.025000
  0
SEQEND
  8
0
  0
POLYLINE
  8
0
 66
1
 10
0.0
 20
0.0
 70
1
 40
0.025000
 41
0.025000
  0
VERTEX
  8
0
 10
-0.012500
 20
-0.025000
 42
1.0
  0
VERTEX
  8
0
 10
0.012500
 20
-0.025000
 42
1.0
  0
SEQEND
  8
0
  0
POLYLINE
  8
0
 66
1
 10
0.0
 20
0.0
 70
1
 40
0.025000
 41
0.025000
  0
VERTEX
  8
0
 10
-0.012500
 20
0.025000
 42
1.0
  0
VERTEX
  8
0
 10
0.012500
 20
0.025000
 42
1.0
  0
SEQEND
  8
0
 0
ENDBLK
  8
0
  0
BLOCK
  8
0
  2
D80
 70
64
 10
0.0
 20
0.0
  3
D80
  0
POLYLINE
  8
0
 66
1
 10
0.0
 20
0.0
 40
0.100000
 41
0.100000
  0
VERTEX
  8
0
 10
-0.025000
 20
0.0
  0
VERTEX
  8
0
 10
0.025000
 20
0.0
  0
SEQEND
  8
0
 0
ENDBLK
  8
0
  0
BLOCK
  8
0
  2
D81
 70
64
 10
0.0
 20
0.0
  3
D81
  0
POLYLINE
  8
0
 66
1
 10
0.0
 20
0.0
 40
0.050000
 41
0.050000
  0
VERTEX
  8
0
 10
-0.025000
 20
0.000000
  0
VERTEX
  8
0
 10
0.025000
 20
0.000000
  0
SEQEND
  8
0
  0
POLYLINE
  8
0
 66
1
 10
0.0
 20
0.0
 70
1
 40
0.025000
 41
0.025000
  0
VERTEX
  8
0
 10
-0.037500
 20
0.000000
 42
1.0
  0
VERTEX
  8
0
 10
-0.012500
 20
0.000000
 42
1.0
  0
SEQEND
  8
0
  0
POLYLINE
  8
0
 66
1
 10
0.0
 20
0.0
 70
1
 40
0.025000
 41
0.025000
  0
VERTEX
  8
0
 10
0.012500
 20
0.000000
 42
1.0
  0
VERTEX
  8
0
 10
0.037500
 20
0.000000
 42
1.0
  0
SEQEND
  8
0
 0
ENDBLK
  8
0
  0
BLOCK
  8
0
  2
D82
 70
64
 10
0.0
 20
0.0
  3
D82
  0
POLYLINE
  8
0
 66
1
 10
0.0
 20
0.0
 40
0.050000
 41
0.050000
  0
VERTEX
  8
0
 10
-0.050000
 20
0.0
  0
VERTEX
  8
0
 10
0.050000
 20
0.0
  0
SEQEND
  8
0
 0
ENDBLK
  8
0
  0
BLOCK
  8
0
  2
D83
 70
64
 10
0.0
 20
0.0
  3
D83
  0
POLYLINE
  8
0
 66
1
 10
0.0
 20
0.0
 40
0.050000
 41
0.050000
  0
VERTEX
  8
0
 10
-0.020000
 20
0.0
  0
VERTEX
  8
0
 10
0.020000
 20
0.0
  0
SEQEND
  8
0
 0
ENDBLK
  8
0
  0
BLOCK
  8
0
  2
D84
 70
64
 10
0.0
 20
0.0
  3
D84
  0
POLYLINE
  8
0
 66
1
 10
0.0
 20
0.0
 40
0.040000
 41
0.040000
  0
VERTEX
  8
0
 10
-0.025000
 20
0.0
  0
VERTEX
  8
0
 10
0.025000
 20
0.0
  0
SEQEND
  8
0
 0
ENDBLK
  8
0
  0
BLOCK
  8
0
  2
D85
 70
64
 10
0.0
 20
0.0
  3
D85
  0
POLYLINE
  8
0
 66
1
 10
0.0
 20
0.0
 40
0.043300
 41
0.043300
  0
VERTEX
  8
0
 10
-0.024600
 20
0.0
  0
VERTEX
  8
0
 10
0.024600
 20
0.0
  0
SEQEND
  8
0
 0
ENDBLK
  8
0
  0
BLOCK
  8
0
  2
D86
 70
64
 10
0.0
 20
0.0
  3
D86
  0
POLYLINE
  8
0
 66
1
 10
0.0
 20
0.0
 40
0.128000
 41
0.128000
  0
VERTEX
  8
0
 10
-0.064000
 20
0.0
  0
VERTEX
  8
0
 10
0.064000
 20
0.0
  0
SEQEND
  8
0
 0
ENDBLK
  8
0
  0
BLOCK
  8
0
  2
D87
 70
64
 10
0.0
 20
0.0
  3
D87
  0
POLYLINE
  8
0
 66
1
 10
0.0
 20
0.0
 40
0
 41
0
 70
1
  0
VERTEX
  8
0
 10
0.002400
 20
0.017700
 42
0
  0
VERTEX
  8
0
 10
-0.002400
 20
0.017700
 42
0
  0
VERTEX
  8
0
 10
-0.004900
 20
0.015200
 42
0
  0
VERTEX
  8
0
 10
-0.004900
 20
-0.015200
 42
0
  0
VERTEX
  8
0
 10
-0.002400
 20
-0.017700
 42
0
  0
VERTEX
  8
0
 10
0.002400
 20
-0.017700
 42
0
  0
VERTEX
  8
0
 10
0.004900
 20
-0.015200
 42
0
  0
VERTEX
  8
0
 10
0.004900
 20
0.015200
 42
0
  0
SEQEND
  8
0
  0
CIRCLE
  8
0
 10
0.002400
 20
0.015200
 40
0.002500
  0
CIRCLE
  8
0
 10
-0.002400
 20
0.015200
 40
0.002500
  0
CIRCLE
  8
0
 10
-0.002400
 20
-0.015200
 40
0.002500
  0
CIRCLE
  8
0
 10
0.002400
 20
-0.015200
 40
0.002500
 0
ENDBLK
  8
0
  0
BLOCK
  8
0
  2
D88
 70
64
 10
0.0
 20
0.0
  3
D88
  0
POLYLINE
  8
0
 66
1
 10
0.0
 20
0.0
 40
0.035400
 41
0.035400
  0
VERTEX
  8
0
 10
-0.004900
 20
0.0
  0
VERTEX
  8
0
 10
0.004900
 20
0.0
  0
SEQEND
  8
0
 0
ENDBLK
  8
0
  0
BLOCK
  8
0
  2
D89
 70
64
 10
0.0
 20
0.0
  3
D89
  0
POLYLINE
  8
0
 66
1
 10
0.0
 20
0.0
 40
0.009800
 41
0.009800
  0
VERTEX
  8
0
 10
-0.017700
 20
0.0
  0
VERTEX
  8
0
 10
0.017700
 20
0.0
  0
SEQEND
  8
0
 0
ENDBLK
  8
0
  0
BLOCK
  8
0
  2
D90
 70
64
 10
0.0
 20
0.0
  3
D90
  0
POLYLINE
  8
0
 66
1
 10
0.0
 20
0.0
 40
0.157500
 41
0.157500
  0
VERTEX
  8
0
 10
-0.007850
 20
0.0
  0
VERTEX
  8
0
 10
0.007850
 20
0.0
  0
SEQEND
  8
0
 0
ENDBLK
  8
0
  0
BLOCK
  8
0
  2
D91
 70
64
 10
0.0
 20
0.0
  3
D91
  0
POLYLINE
  8
0
 66
1
 10
0.0
 20
0.0
 40
0.015700
 41
0.015700
  0
VERTEX
  8
0
 10
0.000000
 20
-0.070900
  0
VERTEX
  8
0
 10
0.000000
 20
0.070900
  0
SEQEND
  8
0
  0
POLYLINE
  8
0
 66
1
 10
0.0
 20
0.0
 70
1
 40
0.007850
 41
0.007850
  0
VERTEX
  8
0
 10
-0.003925
 20
-0.070900
 42
1.0
  0
VERTEX
  8
0
 10
0.003925
 20
-0.070900
 42
1.0
  0
SEQEND
  8
0
  0
POLYLINE
  8
0
 66
1
 10
0.0
 20
0.0
 70
1
 40
0.007850
 41
0.007850
  0
VERTEX
  8
0
 10
-0.003925
 20
0.070900
 42
1.0
  0
VERTEX
  8
0
 10
0.003925
 20
0.070900
 42
1.0
  0
SEQEND
  8
0
 0
ENDBLK
  8
0
  0
BLOCK
  8
0
  2
D92
 70
64
 10
0.0
 20
0.0
  3
D92
  0
POLYLINE
  8
0
 66
1
 10
0.0
 20
0.0
 40
0.090600
 41
0.090600
  0
VERTEX
  8
0
 10
-0.045300
 20
0.0
  0
VERTEX
  8
0
 10
0.045300
 20
0.0
  0
SEQEND
  8
0
 0
ENDBLK
  8
0
  0
BLOCK
  8
0
  2
D93
 70
64
 10
0.0
 20
0.0
  3
D93
  0
POLYLINE
  8
0
 66
1
 10
0.0
 20
0.0
 40
0.090600
 41
0.090600
  0
VERTEX
  8
0
 10
-0.045300
 20
0.0
  0
VERTEX
  8
0
 10
0.045300
 20
0.0
  0
SEQEND
  8
0
 0
ENDBLK
  8
0
  0
BLOCK
  8
0
  2
D94
 70
64
 10
0.0
 20
0.0
  3
D94
  0
POLYLINE
  8
0
 66
1
 10
0.0
 20
0.0
 40
0.020000
 41
0.020000
  0
VERTEX
  8
0
 10
-0.012500
 20
0.0
  0
VERTEX
  8
0
 10
0.012500
 20
0.0
  0
SEQEND
  8
0
 0
ENDBLK
  8
0
  0
BLOCK
  8
0
  2
D95
 70
64
 10
0.0
 20
0.0
  3
D95
  0
POLYLINE
  8
0
 66
1
 10
0.0
 20
0.0
 40
0.027600
 41
0.027600
  0
VERTEX
  8
0
 10
-0.007850
 20
0.0
  0
VERTEX
  8
0
 10
0.007850
 20
0.0
  0
SEQEND
  8
0
 0
ENDBLK
  8
0
  0
BLOCK
  8
0
  2
D96
 70
64
 10
0.0
 20
0.0
  3
D96
  0
POLYLINE
  8
0
 66
1
 10
0.0
 20
0.0
 40
0.015700
 41
0.015700
  0
VERTEX
  8
0
 10
0.000000
 20
-0.005950
  0
VERTEX
  8
0
 10
0.000000
 20
0.005950
  0
SEQEND
  8
0
  0
POLYLINE
  8
0
 66
1
 10
0.0
 20
0.0
 70
1
 40
0.007850
 41
0.007850
  0
VERTEX
  8
0
 10
-0.003925
 20
-0.005950
 42
1.0
  0
VERTEX
  8
0
 10
0.003925
 20
-0.005950
 42
1.0
  0
SEQEND
  8
0
  0
POLYLINE
  8
0
 66
1
 10
0.0
 20
0.0
 70
1
 40
0.007850
 41
0.007850
  0
VERTEX
  8
0
 10
-0.003925
 20
0.005950
 42
1.0
  0
VERTEX
  8
0
 10
0.003925
 20
0.005950
 42
1.0
  0
SEQEND
  8
0
 0
ENDBLK
  8
0
  0
BLOCK
  8
0
  2
D97
 70
64
 10
0.0
 20
0.0
  3
D97
  0
POLYLINE
  8
0
 66
1
 10
0.0
 20
0.0
 40
0.354300
 41
0.354300
  0
VERTEX
  8
0
 10
-0.118100
 20
0.0
  0
VERTEX
  8
0
 10
0.118100
 20
0.0
  0
SEQEND
  8
0
 0
ENDBLK
  8
0
  0
BLOCK
  8
0
  2
D98
 70
64
 10
0.0
 20
0.0
  3
D98
  0
POLYLINE
  8
0
 66
1
 10
0.0
 20
0.0
 40
0.157500
 41
0.157500
  0
VERTEX
  8
0
 10
-0.265750
 20
0.0
  0
VERTEX
  8
0
 10
0.265750
 20
0.0
  0
SEQEND
  8
0
 0
ENDBLK
  8
0
  0
BLOCK
  8
0
  2
D99
 70
64
 10
0.0
 20
0.0
  3
D99
  0
POLYLINE
  8
0
 66
1
 10
0.0
 20
0.0
 70
1
 40
0.002000
 41
0.002000
  0
VERTEX
  8
0
 10
-0.001000
 20
0.0
 42
1.0
  0
VERTEX
  8
0
 10
0.001000
 20
0.0
 42
1.0
  0
SEQEND
  8
0
 0
ENDBLK
  8
0
  0
BLOCK
  8
0
  2
D100
 70
64
 10
0.0
 20
0.0
  3
D100
  0
POLYLINE
  8
0
 66
1
 10
0.0
 20
0.0
 70
1
 40
0.004900
 41
0.004900
  0
VERTEX
  8
0
 10
-0.002450
 20
0.0
 42
1.0
  0
VERTEX
  8
0
 10
0.002450
 20
0.0
 42
1.0
  0
SEQEND
  8
0
 0
ENDBLK
  8
0
  0
BLOCK
  8
0
  2
D101
 70
64
 10
0.0
 20
0.0
  3
D101
  0
POLYLINE
  8
0
 66
1
 10
0.0
 20
0.0
 70
1
 40
0.011800
 41
0.011800
  0
VERTEX
  8
0
 10
-0.005900
 20
0.0
 42
1.0
  0
VERTEX
  8
0
 10
0.005900
 20
0.0
 42
1.0
  0
SEQEND
  8
0
 0
ENDBLK
  8
0
  0
BLOCK
  8
0
  2
D102
 70
64
 10
0.0
 20
0.0
  3
D102
  0
POLYLINE
  8
0
 66
1
 10
0.0
 20
0.0
 70
1
 40
0.002500
 41
0.002500
  0
VERTEX
  8
0
 10
-0.001250
 20
0.0
 42
1.0
  0
VERTEX
  8
0
 10
0.001250
 20
0.0
 42
1.0
  0
SEQEND
  8
0
 0
ENDBLK
  8
0
  0
BLOCK
  8
0
  2
D103
 70
64
 10
0.0
 20
0.0
  3
D103
  0
POLYLINE
  8
0
 66
1
 10
0.0
 20
0.0
 70
1
 40
0.003950
 41
0.003950
  0
VERTEX
  8
0
 10
-0.001975
 20
0.0
 42
1.0
  0
VERTEX
  8
0
 10
0.001975
 20
0.0
 42
1.0
  0
SEQEND
  8
0
 0
ENDBLK
  8
0
  0
BLOCK
  8
0
  2
D104
 70
64
 10
0.0
 20
0.0
  3
D104
  0
POLYLINE
  8
0
 66
1
 10
0.0
 20
0.0
 70
1
 40
0.003000
 41
0.003000
  0
VERTEX
  8
0
 10
-0.001500
 20
0.0
 42
1.0
  0
VERTEX
  8
0
 10
0.001500
 20
0.0
 42
1.0
  0
SEQEND
  8
0
 0
ENDBLK
  8
0
  0
BLOCK
  8
0
  2
D105
 70
64
 10
0.0
 20
0.0
  3
D105
  0
POLYLINE
  8
0
 66
1
 10
0.0
 20
0.0
 70
1
 40
0.004000
 41
0.004000
  0
VERTEX
  8
0
 10
-0.002000
 20
0.0
 42
1.0
  0
VERTEX
  8
0
 10
0.002000
 20
0.0
 42
1.0
  0
SEQEND
  8
0
 0
ENDBLK
  8
0
  0
BLOCK
  8
0
  2
D106
 70
64
 10
0.0
 20
0.0
  3
D106
  0
POLYLINE
  8
0
 66
1
 10
0.0
 20
0.0
 70
1
 40
0.002950
 41
0.002950
  0
VERTEX
  8
0
 10
-0.001475
 20
0.0
 42
1.0
  0
VERTEX
  8
0
 10
0.001475
 20
0.0
 42
1.0
  0
SEQEND
  8
0
 0
ENDBLK
  8
0
  0
BLOCK
  8
0
  2
D107
 70
64
 10
0.0
 20
0.0
  3
D107
  0
POLYLINE
  8
0
 66
1
 10
0.0
 20
0.0
 40
0.030000
 41
0.030000
  0
VERTEX
  8
0
 10
-0.009850
 20
0.0
  0
VERTEX
  8
0
 10
0.009850
 20
0.0
  0
SEQEND
  8
0
 0
ENDBLK
  8
0
  0
BLOCK
  8
0
  2
D108
 70
64
 10
0.0
 20
0.0
  3
D108
  0
POLYLINE
  8
0
 66
1
 10
0.0
 20
0.0
 40
0.100000
 41
0.100000
  0
VERTEX
  8
0
 10
-0.049800
 20
0.0
  0
VERTEX
  8
0
 10
0.049800
 20
0.0
  0
SEQEND
  8
0
 0
ENDBLK
  8
0
  0
BLOCK
  8
0
  2
D109
 70
64
 10
0.0
 20
0.0
  3
D109
  0
POLYLINE
  8
0
 66
1
 10
0.0
 20
0.0
 40
0.099600
 41
0.099600
  0
VERTEX
  8
0
 10
-0.050000
 20
0.0
  0
VERTEX
  8
0
 10
0.050000
 20
0.0
  0
SEQEND
  8
0
 0
ENDBLK
  8
0
  0
BLOCK
  8
0
  2
D110
 70
64
 10
0.0
 20
0.0
  3
D110
  0
POLYLINE
  8
0
 66
1
 10
0.0
 20
0.0
 40
0.019800
 41
0.019800
  0
VERTEX
  8
0
 10
-0.029550
 20
0.000000
  0
VERTEX
  8
0
 10
0.029550
 20
0.000000
  0
SEQEND
  8
0
  0
POLYLINE
  8
0
 66
1
 10
0.0
 20
0.0
 70
1
 40
0.009900
 41
0.009900
  0
VERTEX
  8
0
 10
-0.034500
 20
0.000000
 42
1.0
  0
VERTEX
  8
0
 10
-0.024600
 20
0.000000
 42
1.0
  0
SEQEND
  8
0
  0
POLYLINE
  8
0
 66
1
 10
0.0
 20
0.0
 70
1
 40
0.009900
 41
0.009900
  0
VERTEX
  8
0
 10
0.024600
 20
0.000000
 42
1.0
  0
VERTEX
  8
0
 10
0.034500
 20
0.000000
 42
1.0
  0
SEQEND
  8
0
 0
ENDBLK
  8
0
  0
BLOCK
  8
0
  2
D111
 70
64
 10
0.0
 20
0.0
  3
D111
  0
POLYLINE
  8
0
 66
1
 10
0.0
 20
0.0
 40
0.019800
 41
0.019800
  0
VERTEX
  8
0
 10
0.000000
 20
-0.029550
  0
VERTEX
  8
0
 10
0.000000
 20
0.029550
  0
SEQEND
  8
0
  0
POLYLINE
  8
0
 66
1
 10
0.0
 20
0.0
 70
1
 40
0.009900
 41
0.009900
  0
VERTEX
  8
0
 10
-0.004950
 20
-0.029550
 42
1.0
  0
VERTEX
  8
0
 10
0.004950
 20
-0.029550
 42
1.0
  0
SEQEND
  8
0
  0
POLYLINE
  8
0
 66
1
 10
0.0
 20
0.0
 70
1
 40
0.009900
 41
0.009900
  0
VERTEX
  8
0
 10
-0.004950
 20
0.029550
 42
1.0
  0
VERTEX
  8
0
 10
0.004950
 20
0.029550
 42
1.0
  0
SEQEND
  8
0
 0
ENDBLK
  8
0
  0
BLOCK
  8
0
  2
D112
 70
64
 10
0.0
 20
0.0
  3
D112
  0
POLYLINE
  8
0
 66
1
 10
0.0
 20
0.0
 40
0.086700
 41
0.086700
  0
VERTEX
  8
0
 10
-0.032550
 20
0.0
  0
VERTEX
  8
0
 10
0.032550
 20
0.0
  0
SEQEND
  8
0
 0
ENDBLK
  8
0
  0
BLOCK
  8
0
  2
D113
 70
64
 10
0.0
 20
0.0
  3
D113
  0
POLYLINE
  8
0
 66
1
 10
0.0
 20
0.0
 40
0.043400
 41
0.043400
  0
VERTEX
  8
0
 10
-0.032550
 20
0.0
  0
VERTEX
  8
0
 10
0.032550
 20
0.0
  0
SEQEND
  8
0
 0
ENDBLK
  8
0
  0
BLOCK
  8
0
  2
D114
 70
64
 10
0.0
 20
0.0
  3
D114
  0
POLYLINE
  8
0
 66
1
 10
0.0
 20
0.0
 40
0.067100
 41
0.067100
  0
VERTEX
  8
0
 10
-0.019750
 20
0.0
  0
VERTEX
  8
0
 10
0.019750
 20
0.0
  0
SEQEND
  8
0
 0
ENDBLK
  8
0
  0
BLOCK
  8
0
  2
D115
 70
64
 10
0.0
 20
0.0
  3
D115
  0
POLYLINE
  8
0
 66
1
 10
0.0
 20
0.0
 40
0.044000
 41
0.044000
  0
VERTEX
  8
0
 10
-0.029000
 20
0.0
  0
VERTEX
  8
0
 10
0.029000
 20
0.0
  0
SEQEND
  8
0
 0
ENDBLK
  8
0
  0
BLOCK
  8
0
  2
D116
 70
64
 10
0.0
 20
0.0
  3
D116
  0
POLYLINE
  8
0
 66
1
 10
0.0
 20
0.0
 40
0.044000
 41
0.044000
  0
VERTEX
  8
0
 10
-0.022000
 20
0.0
  0
VERTEX
  8
0
 10
0.022000
 20
0.0
  0
SEQEND
  8
0
 0
ENDBLK
  8
0
  0
BLOCK
  8
0
  2
D117
 70
64
 10
0.0
 20
0.0
  3
D117
  0
POLYLINE
  8
0
 66
1
 10
0.0
 20
0.0
 40
0.058000
 41
0.058000
  0
VERTEX
  8
0
 10
-0.022000
 20
0.0
  0
VERTEX
  8
0
 10
0.022000
 20
0.0
  0
SEQEND
  8
0
 0
ENDBLK
  8
0
  0
BLOCK
  8
0
  2
D118
 70
64
 10
0.0
 20
0.0
  3
D118
  0
POLYLINE
  8
0
 66
1
 10
0.0
 20
0.0
 40
0.044000
 41
0.044000
  0
VERTEX
  8
0
 10
-0.022000
 20
0.0
  0
VERTEX
  8
0
 10
0.022000
 20
0.0
  0
SEQEND
  8
0
 0
ENDBLK
  8
0
  0
BLOCK
  8
0
  2
D119
 70
64
 10
0.0
 20
0.0
  3
D119
  0
POLYLINE
  8
0
 66
1
 10
0.0
 20
0.0
 40
0.058000
 41
0.058000
  0
VERTEX
  8
0
 10
-0.014000
 20
0.0
  0
VERTEX
  8
0
 10
0.014000
 20
0.0
  0
SEQEND
  8
0
 0
ENDBLK
  8
0
  0
BLOCK
  8
0
  2
D120
 70
64
 10
0.0
 20
0.0
  3
D120
  0
POLYLINE
  8
0
 66
1
 10
0.0
 20
0.0
 40
0.047400
 41
0.047400
  0
VERTEX
  8
0
 10
0.000000
 20
-0.041300
  0
VERTEX
  8
0
 10
0.000000
 20
0.041300
  0
SEQEND
  8
0
  0
POLYLINE
  8
0
 66
1
 10
0.0
 20
0.0
 70
1
 40
0.023700
 41
0.023700
  0
VERTEX
  8
0
 10
-0.011850
 20
-0.041300
 42
1.0
  0
VERTEX
  8
0
 10
0.011850
 20
-0.041300
 42
1.0
  0
SEQEND
  8
0
  0
POLYLINE
  8
0
 66
1
 10
0.0
 20
0.0
 70
1
 40
0.023700
 41
0.023700
  0
VERTEX
  8
0
 10
-0.011850
 20
0.041300
 42
1.0
  0
VERTEX
  8
0
 10
0.011850
 20
0.041300
 42
1.0
  0
SEQEND
  8
0
 0
ENDBLK
  8
0
  0
BLOCK
  8
0
  2
D121
 70
64
 10
0.0
 20
0.0
  3
D121
  0
POLYLINE
  8
0
 66
1
 10
0.0
 20
0.0
 40
0.130000
 41
0.130000
  0
VERTEX
  8
0
 10
-0.023700
 20
0.0
  0
VERTEX
  8
0
 10
0.023700
 20
0.0
  0
SEQEND
  8
0
 0
ENDBLK
  8
0
  0
BLOCK
  8
0
  2
D122
 70
64
 10
0.0
 20
0.0
  3
D122
  0
POLYLINE
  8
0
 66
1
 10
0.0
 20
0.0
 40
0.033000
 41
0.033000
  0
VERTEX
  8
0
 10
-0.014000
 20
0.0
  0
VERTEX
  8
0
 10
0.014000
 20
0.0
  0
SEQEND
  8
0
 0
ENDBLK
  8
0
  0
BLOCK
  8
0
  2
D123
 70
64
 10
0.0
 20
0.0
  3
D123
  0
POLYLINE
  8
0
 66
1
 10
0.0
 20
0.0
 40
0.038000
 41
0.038000
  0
VERTEX
  8
0
 10
-0.019000
 20
0.0
  0
VERTEX
  8
0
 10
0.019000
 20
0.0
  0
SEQEND
  8
0
 0
ENDBLK
  8
0
  0
BLOCK
  8
0
  2
D124
 70
64
 10
0.0
 20
0.0
  3
D124
  0
POLYLINE
  8
0
 66
1
 10
0.0
 20
0.0
 40
0.024500
 41
0.024500
  0
VERTEX
  8
0
 10
-0.015800
 20
0.0
  0
VERTEX
  8
0
 10
0.015800
 20
0.0
  0
SEQEND
  8
0
 0
ENDBLK
  8
0
  0
BLOCK
  8
0
  2
D125
 70
64
 10
0.0
 20
0.0
  3
D125
  0
POLYLINE
  8
0
 66
1
 10
0.0
 20
0.0
 40
0.108000
 41
0.108000
  0
VERTEX
  8
0
 10
-0.034000
 20
0.0
  0
VERTEX
  8
0
 10
0.034000
 20
0.0
  0
SEQEND
  8
0
 0
ENDBLK
  8
0
  0
BLOCK
  8
0
  2
D126
 70
64
 10
0.0
 20
0.0
  3
D126
  0
POLYLINE
  8
0
 66
1
 10
0.0
 20
0.0
 40
0.068000
 41
0.068000
  0
VERTEX
  8
0
 10
-0.054000
 20
0.0
  0
VERTEX
  8
0
 10
0.054000
 20
0.0
  0
SEQEND
  8
0
 0
ENDBLK
  8
0
  0
BLOCK
  8
0
  2
D127
 70
64
 10
0.0
 20
0.0
  3
D127
  0
POLYLINE
  8
0
 66
1
 10
0.0
 20
0.0
 40
0.098600
 41
0.098600
  0
VERTEX
  8
0
 10
-0.013850
 20
0.0
  0
VERTEX
  8
0
 10
0.013850
 20
0.0
  0
SEQEND
  8
0
 0
ENDBLK
  8
0
  0
BLOCK
  8
0
  2
D128
 70
64
 10
0.0
 20
0.0
  3
D128
  0
POLYLINE
  8
0
 66
1
 10
0.0
 20
0.0
 40
0.086700
 41
0.086700
  0
VERTEX
  8
0
 10
-0.043350
 20
0.0
  0
VERTEX
  8
0
 10
0.043350
 20
0.0
  0
SEQEND
  8
0
 0
ENDBLK
  8
0
  0
BLOCK
  8
0
  2
D129
 70
64
 10
0.0
 20
0.0
  3
D129
  0
POLYLINE
  8
0
 66
1
 10
0.0
 20
0.0
 40
0.106400
 41
0.106400
  0
VERTEX
  8
0
 10
-0.043350
 20
0.0
  0
VERTEX
  8
0
 10
0.043350
 20
0.0
  0
SEQEND
  8
0
 0
ENDBLK
  8
0
  0
BLOCK
  8
0
  2
D130
 70
64
 10
0.0
 20
0.0
  3
D130
  0
POLYLINE
  8
0
 66
1
 10
0.0
 20
0.0
 70
1
 40
0.029000
 41
0.029000
  0
VERTEX
  8
0
 10
-0.014500
 20
0.0
 42
1.0
  0
VERTEX
  8
0
 10
0.014500
 20
0.0
 42
1.0
  0
SEQEND
  8
0
 0
ENDBLK
  8
0
  0
BLOCK
  8
0
  2
D131
 70
64
 10
0.0
 20
0.0
  3
D131
  0
POLYLINE
  8
0
 66
1
 10
0.0
 20
0.0
 40
0.094600
 41
0.094600
  0
VERTEX
  8
0
 10
-0.063050
 20
0.0
  0
VERTEX
  8
0
 10
0.063050
 20
0.0
  0
SEQEND
  8
0
 0
ENDBLK
  8
0
  0
BLOCK
  8
0
  2
D132
 70
64
 10
0.0
 20
0.0
  3
D132
  0
POLYLINE
  8
0
 66
1
 10
0.0
 20
0.0
 40
0.038000
 41
0.038000
  0
VERTEX
  8
0
 10
-0.019000
 20
0.0
  0
VERTEX
  8
0
 10
0.019000
 20
0.0
  0
SEQEND
  8
0
 0
ENDBLK
  8
0
  0
BLOCK
  8
0
  2
D133
 70
64
 10
0.0
 20
0.0
  3
D133
  0
POLYLINE
  8
0
 66
1
 10
0.0
 20
0.0
 40
0.126100
 41
0.126100
  0
VERTEX
  8
0
 10
-0.047300
 20
0.0
  0
VERTEX
  8
0
 10
0.047300
 20
0.0
  0
SEQEND
  8
0
 0
ENDBLK
  8
0
  0
BLOCK
  8
0
  2
D134
 70
64
 10
0.0
 20
0.0
  3
D134
  0
POLYLINE
  8
0
 66
1
 10
0.0
 20
0.0
 40
0.031600
 41
0.031600
  0
VERTEX
  8
0
 10
0.000000
 20
-0.031500
  0
VERTEX
  8
0
 10
0.000000
 20
0.031500
  0
SEQEND
  8
0
  0
POLYLINE
  8
0
 66
1
 10
0.0
 20
0.0
 70
1
 40
0.015800
 41
0.015800
  0
VERTEX
  8
0
 10
-0.007900
 20
-0.031500
 42
1.0
  0
VERTEX
  8
0
 10
0.007900
 20
-0.031500
 42
1.0
  0
SEQEND
  8
0
  0
POLYLINE
  8
0
 66
1
 10
0.0
 20
0.0
 70
1
 40
0.015800
 41
0.015800
  0
VERTEX
  8
0
 10
-0.007900
 20
0.031500
 42
1.0
  0
VERTEX
  8
0
 10
0.007900
 20
0.031500
 42
1.0
  0
SEQEND
  8
0
 0
ENDBLK
  8
0
  0
BLOCK
  8
0
  2
D135
 70
64
 10
0.0
 20
0.0
  3
D135
  0
POLYLINE
  8
0
 66
1
 10
0.0
 20
0.0
 40
0.087000
 41
0.087000
  0
VERTEX
  8
0
 10
-0.033500
 20
0.0
  0
VERTEX
  8
0
 10
0.033500
 20
0.0
  0
SEQEND
  8
0
 0
ENDBLK
  8
0
  0
BLOCK
  8
0
  2
D136
 70
64
 10
0.0
 20
0.0
  3
D136
  0
POLYLINE
  8
0
 66
1
 10
0.0
 20
0.0
 40
0.087000
 41
0.087000
  0
VERTEX
  8
0
 10
-0.079000
 20
0.0
  0
VERTEX
  8
0
 10
0.079000
 20
0.0
  0
SEQEND
  8
0
 0
ENDBLK
  8
0
  0
BLOCK
  8
0
  2
D137
 70
64
 10
0.0
 20
0.0
  3
D137
  0
POLYLINE
  8
0
 66
1
 10
0.0
 20
0.0
 40
0.047400
 41
0.047400
  0
VERTEX
  8
0
 10
-0.041300
 20
0.000000
  0
VERTEX
  8
0
 10
0.041300
 20
0.000000
  0
SEQEND
  8
0
  0
POLYLINE
  8
0
 66
1
 10
0.0
 20
0.0
 70
1
 40
0.023700
 41
0.023700
  0
VERTEX
  8
0
 10
-0.053150
 20
0.000000
 42
1.0
  0
VERTEX
  8
0
 10
-0.029450
 20
0.000000
 42
1.0
  0
SEQEND
  8
0
  0
POLYLINE
  8
0
 66
1
 10
0.0
 20
0.0
 70
1
 40
0.023700
 41
0.023700
  0
VERTEX
  8
0
 10
0.029450
 20
0.000000
 42
1.0
  0
VERTEX
  8
0
 10
0.053150
 20
0.000000
 42
1.0
  0
SEQEND
  8
0
 0
ENDBLK
  8
0
  0
BLOCK
  8
0
  2
D138
 70
64
 10
0.0
 20
0.0
  3
D138
  0
POLYLINE
  8
0
 66
1
 10
0.0
 20
0.0
 40
0.047400
 41
0.047400
  0
VERTEX
  8
0
 10
-0.065000
 20
0.0
  0
VERTEX
  8
0
 10
0.065000
 20
0.0
  0
SEQEND
  8
0
 0
ENDBLK
  8
0
  0
BLOCK
  8
0
  2
D139
 70
64
 10
0.0
 20
0.0
  3
D139
  0
POLYLINE
  8
0
 66
1
 10
0.0
 20
0.0
 40
0.059200
 41
0.059200
  0
VERTEX
  8
0
 10
-0.043350
 20
0.0
  0
VERTEX
  8
0
 10
0.043350
 20
0.0
  0
SEQEND
  8
0
 0
ENDBLK
  8
0
  0
BLOCK
  8
0
  2
D140
 70
64
 10
0.0
 20
0.0
  3
D140
  0
POLYLINE
  8
0
 66
1
 10
0.0
 20
0.0
 40
0
 41
0
 70
1
  0
VERTEX
  8
0
 10
-0.026500
 20
-0.029600
 42
0
  0
VERTEX
  8
0
 10
0.026500
 20
-0.029600
 42
0
  0
VERTEX
  8
0
 10
0.043300
 20
-0.012800
 42
0
  0
VERTEX
  8
0
 10
0.043300
 20
0.012800
 42
0
  0
VERTEX
  8
0
 10
0.026500
 20
0.029600
 42
0
  0
VERTEX
  8
0
 10
-0.026500
 20
0.029600
 42
0
  0
VERTEX
  8
0
 10
-0.043300
 20
0.012800
 42
0
  0
VERTEX
  8
0
 10
-0.043300
 20
-0.012800
 42
0
  0
SEQEND
  8
0
  0
CIRCLE
  8
0
 10
-0.026500
 20
-0.012800
 40
0.016800
  0
CIRCLE
  8
0
 10
0.026500
 20
-0.012800
 40
0.016800
  0
CIRCLE
  8
0
 10
0.026500
 20
0.012800
 40
0.016800
  0
CIRCLE
  8
0
 10
-0.026500
 20
0.012800
 40
0.016800
 0
ENDBLK
  8
0
  0
BLOCK
  8
0
  2
D141
 70
64
 10
0.0
 20
0.0
  3
D141
  0
POLYLINE
  8
0
 66
1
 10
0.0
 20
0.0
 40
0.078000
 41
0.078000
  0
VERTEX
  8
0
 10
-0.039000
 20
0.0
  0
VERTEX
  8
0
 10
0.039000
 20
0.0
  0
SEQEND
  8
0
 0
ENDBLK
  8
0
  0
BLOCK
  8
0
  2
D142
 70
64
 10
0.0
 20
0.0
  3
D142
  0
POLYLINE
  8
0
 66
1
 10
0.0
 20
0.0
 70
1
 40
0.039000
 41
0.039000
  0
VERTEX
  8
0
 10
-0.019500
 20
0.0
 42
1.0
  0
VERTEX
  8
0
 10
0.019500
 20
0.0
 42
1.0
  0
SEQEND
  8
0
 0
ENDBLK
  8
0
  0
BLOCK
  8
0
  2
D143
 70
64
 10
0.0
 20
0.0
  3
D143
  0
POLYLINE
  8
0
 66
1
 10
0.0
 20
0.0
 70
1
 40
0.033550
 41
0.033550
  0
VERTEX
  8
0
 10
-0.016775
 20
0.0
 42
1.0
  0
VERTEX
  8
0
 10
0.016775
 20
0.0
 42
1.0
  0
SEQEND
  8
0
 0
ENDBLK
  8
0
  0
BLOCK
  8
0
  2
D144
 70
64
 10
0.0
 20
0.0
  3
D144
  0
POLYLINE
  8
0
 66
1
 10
0.0
 20
0.0
 70
1
 40
0.049000
 41
0.049000
  0
VERTEX
  8
0
 10
-0.024500
 20
0.0
 42
1.0
  0
VERTEX
  8
0
 10
0.024500
 20
0.0
 42
1.0
  0
SEQEND
  8
0
 0
ENDBLK
  8
0
  0
BLOCK
  8
0
  2
D145
 70
64
 10
0.0
 20
0.0
  3
D145
  0
POLYLINE
  8
0
 66
1
 10
0.0
 20
0.0
 70
1
 40
0.021700
 41
0.021700
  0
VERTEX
  8
0
 10
-0.010850
 20
0.0
 42
1.0
  0
VERTEX
  8
0
 10
0.010850
 20
0.0
 42
1.0
  0
SEQEND
  8
0
 0
ENDBLK
  8
0
  0
BLOCK
  8
0
  2
D146
 70
64
 10
0.0
 20
0.0
  3
D146
  0
POLYLINE
  8
0
 66
1
 10
0.0
 20
0.0
 70
1
 40
0.054000
 41
0.054000
  0
VERTEX
  8
0
 10
-0.027000
 20
0.0
 42
1.0
  0
VERTEX
  8
0
 10
0.027000
 20
0.0
 42
1.0
  0
SEQEND
  8
0
 0
ENDBLK
  8
0
  0
BLOCK
  8
0
  2
D147
 70
64
 10
0.0
 20
0.0
  3
D147
  0
POLYLINE
  8
0
 66
1
 10
0.0
 20
0.0
 40
0.078000
 41
0.078000
  0
VERTEX
  8
0
 10
-0.039000
 20
0.0
  0
VERTEX
  8
0
 10
0.039000
 20
0.0
  0
SEQEND
  8
0
 0
ENDBLK
  8
0
  0
BLOCK
  8
0
  2
D148
 70
64
 10
0.0
 20
0.0
  3
D148
  0
POLYLINE
  8
0
 66
1
 10
0.0
 20
0.0
 70
1
 40
0.034000
 41
0.034000
  0
VERTEX
  8
0
 10
-0.017000
 20
0.0
 42
1.0
  0
VERTEX
  8
0
 10
0.017000
 20
0.0
 42
1.0
  0
SEQEND
  8
0
 0
ENDBLK
  8
0
  0
BLOCK
  8
0
  2
D149
 70
64
 10
0.0
 20
0.0
  3
D149
  0
POLYLINE
  8
0
 66
1
 10
0.0
 20
0.0
 70
1
 40
0.129000
 41
0.129000
  0
VERTEX
  8
0
 10
-0.064500
 20
0.0
 42
1.0
  0
VERTEX
  8
0
 10
0.064500
 20
0.0
 42
1.0
  0
SEQEND
  8
0
 0
ENDBLK
  8
0
  0
BLOCK
  8
0
  2
D150
 70
64
 10
0.0
 20
0.0
  3
D150
  0
POLYLINE
  8
0
 66
1
 10
0.0
 20
0.0
 70
1
 40
0.041850
 41
0.041850
  0
VERTEX
  8
0
 10
-0.020925
 20
0.0
 42
1.0
  0
VERTEX
  8
0
 10
0.020925
 20
0.0
 42
1.0
  0
SEQEND
  8
0
 0
ENDBLK
  8
0
  0
BLOCK
  8
0
  2
D151
 70
64
 10
0.0
 20
0.0
  3
D151
  0
POLYLINE
  8
0
 66
1
 10
0.0
 20
0.0
 70
1
 40
0.029600
 41
0.029600
  0
VERTEX
  8
0
 10
-0.014800
 20
0.0
 42
1.0
  0
VERTEX
  8
0
 10
0.014800
 20
0.0
 42
1.0
  0
SEQEND
  8
0
 0
ENDBLK
  8
0
  0
BLOCK
  8
0
  2
D152
 70
64
 10
0.0
 20
0.0
  3
D152
  0
POLYLINE
  8
0
 66
1
 10
0.0
 20
0.0
 70
1
 40
0.017800
 41
0.017800
  0
VERTEX
  8
0
 10
-0.008900
 20
0.0
 42
1.0
  0
VERTEX
  8
0
 10
0.008900
 20
0.0
 42
1.0
  0
SEQEND
  8
0
 0
ENDBLK
  8
0
  0
BLOCK
  8
0
  2
D153
 70
64
 10
0.0
 20
0.0
  3
D153
  0
POLYLINE
  8
0
 66
1
 10
0.0
 20
0.0
 40
0.057200
 41
0.057200
  0
VERTEX
  8
0
 10
-0.025650
 20
0.0
  0
VERTEX
  8
0
 10
0.025650
 20
0.0
  0
SEQEND
  8
0
 0
ENDBLK
  8
0
  0
BLOCK
  8
0
  2
D154
 70
64
 10
0.0
 20
0.0
  3
D154
  0
POLYLINE
  8
0
 66
1
 10
0.0
 20
0.0
 40
0.032000
 41
0.032000
  0
VERTEX
  8
0
 10
-0.028000
 20
0.000000
  0
VERTEX
  8
0
 10
0.028000
 20
0.000000
  0
SEQEND
  8
0
  0
POLYLINE
  8
0
 66
1
 10
0.0
 20
0.0
 70
1
 40
0.016000
 41
0.016000
  0
VERTEX
  8
0
 10
-0.036000
 20
0.000000
 42
1.0
  0
VERTEX
  8
0
 10
-0.020000
 20
0.000000
 42
1.0
  0
SEQEND
  8
0
  0
POLYLINE
  8
0
 66
1
 10
0.0
 20
0.0
 70
1
 40
0.016000
 41
0.016000
  0
VERTEX
  8
0
 10
0.020000
 20
0.000000
 42
1.0
  0
VERTEX
  8
0
 10
0.036000
 20
0.000000
 42
1.0
  0
SEQEND
  8
0
 0
ENDBLK
  8
0
  0
BLOCK
  8
0
  2
D155
 70
64
 10
0.0
 20
0.0
  3
D155
  0
POLYLINE
  8
0
 66
1
 10
0.0
 20
0.0
 40
0.032000
 41
0.032000
  0
VERTEX
  8
0
 10
-0.044000
 20
0.0
  0
VERTEX
  8
0
 10
0.044000
 20
0.0
  0
SEQEND
  8
0
 0
ENDBLK
  8
0
  0
BLOCK
  8
0
  2
D156
 70
64
 10
0.0
 20
0.0
  3
D156
  0
POLYLINE
  8
0
 66
1
 10
0.0
 20
0.0
 40
0.032000
 41
0.032000
  0
VERTEX
  8
0
 10
0.000000
 20
-0.028000
  0
VERTEX
  8
0
 10
0.000000
 20
0.028000
  0
SEQEND
  8
0
  0
POLYLINE
  8
0
 66
1
 10
0.0
 20
0.0
 70
1
 40
0.016000
 41
0.016000
  0
VERTEX
  8
0
 10
-0.008000
 20
-0.028000
 42
1.0
  0
VERTEX
  8
0
 10
0.008000
 20
-0.028000
 42
1.0
  0
SEQEND
  8
0
  0
POLYLINE
  8
0
 66
1
 10
0.0
 20
0.0
 70
1
 40
0.016000
 41
0.016000
  0
VERTEX
  8
0
 10
-0.008000
 20
0.028000
 42
1.0
  0
VERTEX
  8
0
 10
0.008000
 20
0.028000
 42
1.0
  0
SEQEND
  8
0
 0
ENDBLK
  8
0
  0
BLOCK
  8
0
  2
D157
 70
64
 10
0.0
 20
0.0
  3
D157
  0
POLYLINE
  8
0
 66
1
 10
0.0
 20
0.0
 40
0.088000
 41
0.088000
  0
VERTEX
  8
0
 10
-0.016000
 20
0.0
  0
VERTEX
  8
0
 10
0.016000
 20
0.0
  0
SEQEND
  8
0
 0
ENDBLK
  8
0
  0
BLOCK
  8
0
  2
D158
 70
64
 10
0.0
 20
0.0
  3
D158
  0
POLYLINE
  8
0
 66
1
 10
0.0
 20
0.0
 40
0.025700
 41
0.025700
  0
VERTEX
  8
0
 10
-0.032500
 20
0.000000
  0
VERTEX
  8
0
 10
0.032500
 20
0.000000
  0
SEQEND
  8
0
  0
POLYLINE
  8
0
 66
1
 10
0.0
 20
0.0
 70
1
 40
0.012850
 41
0.012850
  0
VERTEX
  8
0
 10
-0.038925
 20
0.000000
 42
1.0
  0
VERTEX
  8
0
 10
-0.026075
 20
0.000000
 42
1.0
  0
SEQEND
  8
0
  0
POLYLINE
  8
0
 66
1
 10
0.0
 20
0.0
 70
1
 40
0.012850
 41
0.012850
  0
VERTEX
  8
0
 10
0.026075
 20
0.000000
 42
1.0
  0
VERTEX
  8
0
 10
0.038925
 20
0.000000
 42
1.0
  0
SEQEND
  8
0
 0
ENDBLK
  8
0
  0
BLOCK
  8
0
  2
D159
 70
64
 10
0.0
 20
0.0
  3
D159
  0
POLYLINE
  8
0
 66
1
 10
0.0
 20
0.0
 40
0.058000
 41
0.058000
  0
VERTEX
  8
0
 10
0.000000
 20
-0.025000
  0
VERTEX
  8
0
 10
0.000000
 20
0.025000
  0
SEQEND
  8
0
  0
POLYLINE
  8
0
 66
1
 10
0.0
 20
0.0
 70
1
 40
0.029000
 41
0.029000
  0
VERTEX
  8
0
 10
-0.014500
 20
-0.025000
 42
1.0
  0
VERTEX
  8
0
 10
0.014500
 20
-0.025000
 42
1.0
  0
SEQEND
  8
0
  0
POLYLINE
  8
0
 66
1
 10
0.0
 20
0.0
 70
1
 40
0.029000
 41
0.029000
  0
VERTEX
  8
0
 10
-0.014500
 20
0.025000
 42
1.0
  0
VERTEX
  8
0
 10
0.014500
 20
0.025000
 42
1.0
  0
SEQEND
  8
0
 0
ENDBLK
  8
0
  0
BLOCK
  8
0
  2
D160
 70
64
 10
0.0
 20
0.0
  3
D160
  0
POLYLINE
  8
0
 66
1
 10
0.0
 20
0.0
 40
0.108000
 41
0.108000
  0
VERTEX
  8
0
 10
-0.029000
 20
0.0
  0
VERTEX
  8
0
 10
0.029000
 20
0.0
  0
SEQEND
  8
0
 0
ENDBLK
  8
0
  0
BLOCK
  8
0
  2
D161
 70
64
 10
0.0
 20
0.0
  3
D161
  0
POLYLINE
  8
0
 66
1
 10
0.0
 20
0.0
 40
0.058000
 41
0.058000
  0
VERTEX
  8
0
 10
-0.025000
 20
0.000000
  0
VERTEX
  8
0
 10
0.025000
 20
0.000000
  0
SEQEND
  8
0
  0
POLYLINE
  8
0
 66
1
 10
0.0
 20
0.0
 70
1
 40
0.029000
 41
0.029000
  0
VERTEX
  8
0
 10
-0.039500
 20
0.000000
 42
1.0
  0
VERTEX
  8
0
 10
-0.010500
 20
0.000000
 42
1.0
  0
SEQEND
  8
0
  0
POLYLINE
  8
0
 66
1
 10
0.0
 20
0.0
 70
1
 40
0.029000
 41
0.029000
  0
VERTEX
  8
0
 10
0.010500
 20
0.000000
 42
1.0
  0
VERTEX
  8
0
 10
0.039500
 20
0.000000
 42
1.0
  0
SEQEND
  8
0
 0
ENDBLK
  8
0
  0
BLOCK
  8
0
  2
D162
 70
64
 10
0.0
 20
0.0
  3
D162
  0
POLYLINE
  8
0
 66
1
 10
0.0
 20
0.0
 40
0.058000
 41
0.058000
  0
VERTEX
  8
0
 10
-0.054000
 20
0.0
  0
VERTEX
  8
0
 10
0.054000
 20
0.0
  0
SEQEND
  8
0
 0
ENDBLK
  8
0
  0
BLOCK
  8
0
  2
D163
 70
64
 10
0.0
 20
0.0
  3
D163
  0
POLYLINE
  8
0
 66
1
 10
0.0
 20
0.0
 40
0.058000
 41
0.058000
  0
VERTEX
  8
0
 10
-0.024000
 20
0.0
  0
VERTEX
  8
0
 10
0.024000
 20
0.0
  0
SEQEND
  8
0
 0
ENDBLK
  8
0
  0
BLOCK
  8
0
  2
D164
 70
64
 10
0.0
 20
0.0
  3
D164
  0
POLYLINE
  8
0
 66
1
 10
0.0
 20
0.0
 40
0.048000
 41
0.048000
  0
VERTEX
  8
0
 10
-0.029000
 20
0.0
  0
VERTEX
  8
0
 10
0.029000
 20
0.0
  0
SEQEND
  8
0
 0
ENDBLK
  8
0
  0
BLOCK
  8
0
  2
D165
 70
64
 10
0.0
 20
0.0
  3
D165
  0
POLYLINE
  8
0
 66
1
 10
0.0
 20
0.0
 40
0.051300
 41
0.051300
  0
VERTEX
  8
0
 10
-0.028600
 20
0.0
  0
VERTEX
  8
0
 10
0.028600
 20
0.0
  0
SEQEND
  8
0
 0
ENDBLK
  8
0
  0
BLOCK
  8
0
  2
D166
 70
64
 10
0.0
 20
0.0
  3
D166
  0
POLYLINE
  8
0
 66
1
 10
0.0
 20
0.0
 40
0.136000
 41
0.136000
  0
VERTEX
  8
0
 10
-0.068000
 20
0.0
  0
VERTEX
  8
0
 10
0.068000
 20
0.0
  0
SEQEND
  8
0
 0
ENDBLK
  8
0
  0
BLOCK
  8
0
  2
D167
 70
64
 10
0.0
 20
0.0
  3
D167
  0
POLYLINE
  8
0
 66
1
 10
0.0
 20
0.0
 40
0
 41
0
 70
1
  0
VERTEX
  8
0
 10
0.002400
 20
0.021700
 42
0
  0
VERTEX
  8
0
 10
-0.002400
 20
0.021700
 42
0
  0
VERTEX
  8
0
 10
-0.008900
 20
0.015200
 42
0
  0
VERTEX
  8
0
 10
-0.008900
 20
-0.015200
 42
0
  0
VERTEX
  8
0
 10
-0.002400
 20
-0.021700
 42
0
  0
VERTEX
  8
0
 10
0.002400
 20
-0.021700
 42
0
  0
VERTEX
  8
0
 10
0.008900
 20
-0.015200
 42
0
  0
VERTEX
  8
0
 10
0.008900
 20
0.015200
 42
0
  0
SEQEND
  8
0
  0
CIRCLE
  8
0
 10
0.002400
 20
0.015200
 40
0.006500
  0
CIRCLE
  8
0
 10
-0.002400
 20
0.015200
 40
0.006500
  0
CIRCLE
  8
0
 10
-0.002400
 20
-0.015200
 40
0.006500
  0
CIRCLE
  8
0
 10
0.002400
 20
-0.015200
 40
0.006500
 0
ENDBLK
  8
0
  0
BLOCK
  8
0
  2
D168
 70
64
 10
0.0
 20
0.0
  3
D168
  0
POLYLINE
  8
0
 66
1
 10
0.0
 20
0.0
 40
0.043400
 41
0.043400
  0
VERTEX
  8
0
 10
-0.008900
 20
0.0
  0
VERTEX
  8
0
 10
0.008900
 20
0.0
  0
SEQEND
  8
0
 0
ENDBLK
  8
0
  0
BLOCK
  8
0
  2
D169
 70
64
 10
0.0
 20
0.0
  3
D169
  0
POLYLINE
  8
0
 66
1
 10
0.0
 20
0.0
 40
0.017800
 41
0.017800
  0
VERTEX
  8
0
 10
-0.021700
 20
0.0
  0
VERTEX
  8
0
 10
0.021700
 20
0.0
  0
SEQEND
  8
0
 0
ENDBLK
  8
0
  0
BLOCK
  8
0
  2
D170
 70
64
 10
0.0
 20
0.0
  3
D170
  0
POLYLINE
  8
0
 66
1
 10
0.0
 20
0.0
 40
0.165500
 41
0.165500
  0
VERTEX
  8
0
 10
-0.011850
 20
0.0
  0
VERTEX
  8
0
 10
0.011850
 20
0.0
  0
SEQEND
  8
0
 0
ENDBLK
  8
0
  0
BLOCK
  8
0
  2
D171
 70
64
 10
0.0
 20
0.0
  3
D171
  0
POLYLINE
  8
0
 66
1
 10
0.0
 20
0.0
 40
0.023700
 41
0.023700
  0
VERTEX
  8
0
 10
0.000000
 20
-0.070900
  0
VERTEX
  8
0
 10
0.000000
 20
0.070900
  0
SEQEND
  8
0
  0
POLYLINE
  8
0
 66
1
 10
0.0
 20
0.0
 70
1
 40
0.011850
 41
0.011850
  0
VERTEX
  8
0
 10
-0.005925
 20
-0.070900
 42
1.0
  0
VERTEX
  8
0
 10
0.005925
 20
-0.070900
 42
1.0
  0
SEQEND
  8
0
  0
POLYLINE
  8
0
 66
1
 10
0.0
 20
0.0
 70
1
 40
0.011850
 41
0.011850
  0
VERTEX
  8
0
 10
-0.005925
 20
0.070900
 42
1.0
  0
VERTEX
  8
0
 10
0.005925
 20
0.070900
 42
1.0
  0
SEQEND
  8
0
 0
ENDBLK
  8
0
  0
BLOCK
  8
0
  2
D172
 70
64
 10
0.0
 20
0.0
  3
D172
  0
POLYLINE
  8
0
 66
1
 10
0.0
 20
0.0
 40
0.098600
 41
0.098600
  0
VERTEX
  8
0
 10
-0.049300
 20
0.0
  0
VERTEX
  8
0
 10
0.049300
 20
0.0
  0
SEQEND
  8
0
 0
ENDBLK
  8
0
  0
BLOCK
  8
0
  2
D173
 70
64
 10
0.0
 20
0.0
  3
D173
  0
POLYLINE
  8
0
 66
1
 10
0.0
 20
0.0
 40
0.098600
 41
0.098600
  0
VERTEX
  8
0
 10
-0.049300
 20
0.0
  0
VERTEX
  8
0
 10
0.049300
 20
0.0
  0
SEQEND
  8
0
 0
ENDBLK
  8
0
  0
BLOCK
  8
0
  2
D174
 70
64
 10
0.0
 20
0.0
  3
D174
  0
POLYLINE
  8
0
 66
1
 10
0.0
 20
0.0
 40
0.028000
 41
0.028000
  0
VERTEX
  8
0
 10
-0.016500
 20
0.0
  0
VERTEX
  8
0
 10
0.016500
 20
0.0
  0
SEQEND
  8
0
 0
ENDBLK
  8
0
  0
BLOCK
  8
0
  2
D175
 70
64
 10
0.0
 20
0.0
  3
D175
  0
POLYLINE
  8
0
 66
1
 10
0.0
 20
0.0
 40
0.035600
 41
0.035600
  0
VERTEX
  8
0
 10
-0.011850
 20
0.0
  0
VERTEX
  8
0
 10
0.011850
 20
0.0
  0
SEQEND
  8
0
 0
ENDBLK
  8
0
  0
BLOCK
  8
0
  2
D176
 70
64
 10
0.0
 20
0.0
  3
D176
  0
POLYLINE
  8
0
 66
1
 10
0.0
 20
0.0
 40
0.023700
 41
0.023700
  0
VERTEX
  8
0
 10
0.000000
 20
-0.005950
  0
VERTEX
  8
0
 10
0.000000
 20
0.005950
  0
SEQEND
  8
0
  0
POLYLINE
  8
0
 66
1
 10
0.0
 20
0.0
 70
1
 40
0.011850
 41
0.011850
  0
VERTEX
  8
0
 10
-0.005925
 20
-0.005950
 42
1.0
  0
VERTEX
  8
0
 10
0.005925
 20
-0.005950
 42
1.0
  0
SEQEND
  8
0
  0
POLYLINE
  8
0
 66
1
 10
0.0
 20
0.0
 70
1
 40
0.011850
 41
0.011850
  0
VERTEX
  8
0
 10
-0.005925
 20
0.005950
 42
1.0
  0
VERTEX
  8
0
 10
0.005925
 20
0.005950
 42
1.0
  0
SEQEND
  8
0
 0
ENDBLK
  8
0
  0
BLOCK
  8
0
  2
D177
 70
64
 10
0.0
 20
0.0
  3
D177
  0
POLYLINE
  8
0
 66
1
 10
0.0
 20
0.0
 70
1
 40
0.003950
 41
0.003950
  0
VERTEX
  8
0
 10
-0.001975
 20
0.0
 42
1.0
  0
VERTEX
  8
0
 10
0.001975
 20
0.0
 42
1.0
  0
SEQEND
  8
0
 0
ENDBLK
  8
0
  0
BLOCK
  8
0
  2
D178
 70
64
 10
0.0
 20
0.0
  3
D178
  0
POLYLINE
  8
0
 66
1
 10
0.0
 20
0.0
 70
1
 40
0.001950
 41
0.001950
  0
VERTEX
  8
0
 10
-0.000975
 20
0.0
 42
1.0
  0
VERTEX
  8
0
 10
0.000975
 20
0.0
 42
1.0
  0
SEQEND
  8
0
 0
ENDBLK
  8
0
  0
BLOCK
  8
0
  2
D179
 70
64
 10
0.0
 20
0.0
  3
D179
  0
POLYLINE
  8
0
 66
1
 10
0.0
 20
0.0
 40
0.040700
 41
0.040700
  0
VERTEX
  8
0
 10
-0.046250
 20
0.0
  0
VERTEX
  8
0
 10
0.046250
 20
0.0
  0
SEQEND
  8
0
 0
ENDBLK
  8
0
  0
BLOCK
  8
0
  2
D180
 70
64
 10
0.0
 20
0.0
  3
D180
  0
POLYLINE
  8
0
 66
1
 10
0.0
 20
0.0
 40
0.092500
 41
0.092500
  0
VERTEX
  8
0
 10
-0.020350
 20
0.0
  0
VERTEX
  8
0
 10
0.020350
 20
0.0
  0
SEQEND
  8
0
 0
ENDBLK
  8
0
  0
BLOCK
  8
0
  2
D1010
 70
64
 10
0.0
 20
0.0
  3
D1010
 0
ENDBLK
  8
0
  0
ENDSEC
  0
SECTION
  2
ENTITIES
  0
POLYLINE
  8
bottomstencil
 62
8
 40
0.000000
 41
0.000000
 66
  1
  0
VERTEX
  8
bottomstencil
 10
5.000000
 20
5.000000
  0
VERTEX
  8
bottomstencil
 10
0.000000
 20
5.000000
  0
VERTEX
  8
bottomstencil
 10
0.000000
 20
0.000000
  0
VERTEX
  8
bottomstencil
 10
5.000000
 20
0.000000
  0
VERTEX
  8
bottomstencil
 10
5.000000
 20
5.000000
  0
SEQEND
  8
bottomstencil
  0
INSERT
  8
bottomstencil
  2
D15
 10
1.013900
 20
2.372300
 41
1.0
 42
1.0
 43
1.0
 50
0.0
  0
INSERT
  8
bottomstencil
  2
D15
 10
1.013900
 20
2.745400
 41
1.0
 42
1.0
 43
1.0
 50
0.0
  0
INSERT
  8
bottomstencil
  2
D16
 10
1.093900
 20
2.410300
 41
1.0
 42
1.0
 43
1.0
 50
0.0
  0
INSERT
  8
bottomstencil
  2
D16
 10
1.093900
 20
2.335300
 41
1.0
 42
1.0
 43
1.0
 50
0.0
  0
INSERT
  8
bottomstencil
  2
D16
 10
1.093900
 20
2.783400
 41
1.0
 42
1.0
 43
1.0
 50
0.0
  0
INSERT
  8
bottomstencil
  2
D16
 10
1.093900
 20
2.708400
 41
1.0
 42
1.0
 43
1.0
 50
0.0
  0
INSERT
  8
bottomstencil
  2
D17
 10
2.594800
 20
4.304600
 41
1.0
 42
1.0
 43
1.0
 50
0.0
  0
INSERT
  8
bottomstencil
  2
D17
 10
2.760200
 20
4.304600
 41
1.0
 42
1.0
 43
1.0
 50
0.0
  0
INSERT
  8
bottomstencil
  2
D17
 10
2.923000
 20
4.305800
 41
1.0
 42
1.0
 43
1.0
 50
0.0
  0
INSERT
  8
bottomstencil
  2
D17
 10
3.086300
 20
4.305500
 41
1.0
 42
1.0
 43
1.0
 50
0.0
  0
INSERT
  8
bottomstencil
  2
D17
 10
3.252300
 20
4.304600
 41
1.0
 42
1.0
 43
1.0
 50
0.0
  0
INSERT
  8
bottomstencil
  2
D17
 10
3.413700
 20
4.304600
 41
1.0
 42
1.0
 43
1.0
 50
0.0
  0
INSERT
  8
bottomstencil
  2
D17
 10
3.579100
 20
4.304600
 41
1.0
 42
1.0
 43
1.0
 50
0.0
  0
INSERT
  8
bottomstencil
  2
D17
 10
3.742900
 20
4.304500
 41
1.0
 42
1.0
 43
1.0
 50
0.0
  0
INSERT
  8
bottomstencil
  2
D18
 10
2.557800
 20
4.224600
 41
1.0
 42
1.0
 43
1.0
 50
0.0
  0
INSERT
  8
bottomstencil
  2
D18
 10
2.632800
 20
4.224600
 41
1.0
 42
1.0
 43
1.0
 50
0.0
  0
INSERT
  8
bottomstencil
  2
D18
 10
2.723200
 20
4.224600
 41
1.0
 42
1.0
 43
1.0
 50
0.0
  0
INSERT
  8
bottomstencil
  2
D18
 10
2.798200
 20
4.224600
 41
1.0
 42
1.0
 43
1.0
 50
0.0
  0
INSERT
  8
bottomstencil
  2
D18
 10
2.886000
 20
4.225800
 41
1.0
 42
1.0
 43
1.0
 50
0.0
  0
INSERT
  8
bottomstencil
  2
D18
 10
2.961000
 20
4.225800
 41
1.0
 42
1.0
 43
1.0
 50
0.0
  0
INSERT
  8
bottomstencil
  2
D18
 10
3.049300
 20
4.225500
 41
1.0
 42
1.0
 43
1.0
 50
0.0
  0
INSERT
  8
bottomstencil
  2
D18
 10
3.124300
 20
4.225500
 41
1.0
 42
1.0
 43
1.0
 50
0.0
  0
INSERT
  8
bottomstencil
  2
D18
 10
3.215300
 20
4.224600
 41
1.0
 42
1.0
 43
1.0
 50
0.0
  0
INSERT
  8
bottomstencil
  2
D18
 10
3.290300
 20
4.224600
 41
1.0
 42
1.0
 43
1.0
 50
0.0
  0
INSERT
  8
bottomstencil
  2
D18
 10
3.376700
 20
4.224600
 41
1.0
 42
1.0
 43
1.0
 50
0.0
  0
INSERT
  8
bottomstencil
  2
D18
 10
3.451700
 20
4.224600
 41
1.0
 42
1.0
 43
1.0
 50
0.0
  0
INSERT
  8
bottomstencil
  2
D18
 10
3.542100
 20
4.224600
 41
1.0
 42
1.0
 43
1.0
 50
0.0
  0
INSERT
  8
bottomstencil
  2
D18
 10
3.617100
 20
4.224600
 41
1.0
 42
1.0
 43
1.0
 50
0.0
  0
INSERT
  8
bottomstencil
  2
D18
 10
3.705900
 20
4.224500
 41
1.0
 42
1.0
 43
1.0
 50
0.0
  0
INSERT
  8
bottomstencil
  2
D18
 10
3.780900
 20
4.224500
 41
1.0
 42
1.0
 43
1.0
 50
0.0
  0
INSERT
  8
bottomstencil
  2
D22
 10
3.649000
 20
1.926000
 41
1.0
 42
1.0
 43
1.0
 50
0.0
  0
INSERT
  8
bottomstencil
  2
D22
 10
3.649000
 20
1.966000
 41
1.0
 42
1.0
 43
1.0
 50
0.0
  0
INSERT
  8
bottomstencil
  2
D23
 10
3.669000
 20
2.716000
 41
1.0
 42
1.0
 43
1.0
 50
0.0
  0
INSERT
  8
bottomstencil
  2
D23
 10
3.724000
 20
2.716000
 41
1.0
 42
1.0
 43
1.0
 50
0.0
  0
INSERT
  8
bottomstencil
  2
D23
 10
3.669000
 20
2.656000
 41
1.0
 42
1.0
 43
1.0
 50
0.0
  0
INSERT
  8
bottomstencil
  2
D23
 10
3.724000
 20
2.656000
 41
1.0
 42
1.0
 43
1.0
 50
0.0
  0
INSERT
  8
bottomstencil
  2
D23
 10
3.729000
 20
2.926000
 41
1.0
 42
1.0
 43
1.0
 50
0.0
  0
INSERT
  8
bottomstencil
  2
D23
 10
3.674000
 20
2.926000
 41
1.0
 42
1.0
 43
1.0
 50
0.0
  0
INSERT
  8
bottomstencil
  2
D23
 10
3.729000
 20
2.986000
 41
1.0
 42
1.0
 43
1.0
 50
0.0
  0
INSERT
  8
bottomstencil
  2
D23
 10
3.674000
 20
2.986000
 41
1.0
 42
1.0
 43
1.0
 50
0.0
  0
INSERT
  8
bottomstencil
  2
D23
 10
2.929300
 20
0.634700
 41
1.0
 42
1.0
 43
1.0
 50
0.0
  0
INSERT
  8
bottomstencil
  2
D23
 10
2.874300
 20
0.634700
 41
1.0
 42
1.0
 43
1.0
 50
0.0
  0
INSERT
  8
bottomstencil
  2
D23
 10
1.290700
 20
2.390600
 41
1.0
 42
1.0
 43
1.0
 50
0.0
  0
INSERT
  8
bottomstencil
  2
D23
 10
1.235700
 20
2.390600
 41
1.0
 42
1.0
 43
1.0
 50
0.0
  0
INSERT
  8
bottomstencil
  2
D23
 10
1.074200
 20
2.469300
 41
1.0
 42
1.0
 43
1.0
 50
0.0
  0
INSERT
  8
bottomstencil
  2
D23
 10
1.019200
 20
2.469300
 41
1.0
 42
1.0
 43
1.0
 50
0.0
  0
INSERT
  8
bottomstencil
  2
D23
 10
1.074200
 20
2.842400
 41
1.0
 42
1.0
 43
1.0
 50
0.0
  0
INSERT
  8
bottomstencil
  2
D23
 10
1.019200
 20
2.842400
 41
1.0
 42
1.0
 43
1.0
 50
0.0
  0
INSERT
  8
bottomstencil
  2
D23
 10
1.290700
 20
2.763700
 41
1.0
 42
1.0
 43
1.0
 50
0.0
  0
INSERT
  8
bottomstencil
  2
D23
 10
1.235700
 20
2.763700
 41
1.0
 42
1.0
 43
1.0
 50
0.0
  0
INSERT
  8
bottomstencil
  2
D23
 10
2.264100
 20
0.851300
 41
1.0
 42
1.0
 43
1.0
 50
0.0
  0
INSERT
  8
bottomstencil
  2
D23
 10
2.319100
 20
0.851300
 41
1.0
 42
1.0
 43
1.0
 50
0.0
  0
INSERT
  8
bottomstencil
  2
D23
 10
1.572000
 20
0.851300
 41
1.0
 42
1.0
 43
1.0
 50
0.0
  0
INSERT
  8
bottomstencil
  2
D23
 10
1.627000
 20
0.851300
 41
1.0
 42
1.0
 43
1.0
 50
0.0
  0
INSERT
  8
bottomstencil
  2
D23
 10
1.949100
 20
1.835500
 41
1.0
 42
1.0
 43
1.0
 50
0.0
  0
INSERT
  8
bottomstencil
  2
D23
 10
2.004100
 20
1.835500
 41
1.0
 42
1.0
 43
1.0
 50
0.0
  0
INSERT
  8
bottomstencil
  2
D23
 10
1.153600
 20
2.032400
 41
1.0
 42
1.0
 43
1.0
 50
0.0
  0
INSERT
  8
bottomstencil
  2
D23
 10
1.098600
 20
2.032400
 41
1.0
 42
1.0
 43
1.0
 50
0.0
  0
INSERT
  8
bottomstencil
  2
D23
 10
1.330800
 20
2.032400
 41
1.0
 42
1.0
 43
1.0
 50
0.0
  0
INSERT
  8
bottomstencil
  2
D23
 10
1.275800
 20
2.032400
 41
1.0
 42
1.0
 43
1.0
 50
0.0
  0
INSERT
  8
bottomstencil
  2
D25
 10
2.069000
 20
2.106000
 41
1.0
 42
1.0
 43
1.0
 50
0.0
  0
INSERT
  8
bottomstencil
  2
D25
 10
2.204000
 20
2.106000
 41
1.0
 42
1.0
 43
1.0
 50
0.0
  0
INSERT
  8
bottomstencil
  2
D25
 10
3.008100
 20
0.811900
 41
1.0
 42
1.0
 43
1.0
 50
0.0
  0
INSERT
  8
bottomstencil
  2
D25
 10
2.873100
 20
0.811900
 41
1.0
 42
1.0
 43
1.0
 50
0.0
  0
INSERT
  8
bottomstencil
  2
D25
 10
3.129000
 20
0.654400
 41
1.0
 42
1.0
 43
1.0
 50
0.0
  0
INSERT
  8
bottomstencil
  2
D25
 10
3.264000
 20
0.654400
 41
1.0
 42
1.0
 43
1.0
 50
0.0
  0
INSERT
  8
bottomstencil
  2
D25
 10
1.098600
 20
0.910300
 41
1.0
 42
1.0
 43
1.0
 50
0.0
  0
INSERT
  8
bottomstencil
  2
D25
 10
1.233600
 20
0.910300
 41
1.0
 42
1.0
 43
1.0
 50
0.0
  0
INSERT
  8
bottomstencil
  2
D25
 10
1.551400
 20
2.071700
 41
1.0
 42
1.0
 43
1.0
 50
0.0
  0
INSERT
  8
bottomstencil
  2
D25
 10
1.416400
 20
2.071700
 41
1.0
 42
1.0
 43
1.0
 50
0.0
  0
INSERT
  8
bottomstencil
  2
D26
 10
3.244300
 20
2.386700
 41
1.0
 42
1.0
 43
1.0
 50
0.0
  0
INSERT
  8
bottomstencil
  2
D26
 10
3.244300
 20
2.521700
 41
1.0
 42
1.0
 43
1.0
 50
0.0
  0
INSERT
  8
bottomstencil
  2
D26
 10
2.870300
 20
1.146600
 41
1.0
 42
1.0
 43
1.0
 50
0.0
  0
INSERT
  8
bottomstencil
  2
D26
 10
2.870300
 20
1.281600
 41
1.0
 42
1.0
 43
1.0
 50
0.0
  0
INSERT
  8
bottomstencil
  2
D26
 10
1.197000
 20
1.245000
 41
1.0
 42
1.0
 43
1.0
 50
0.0
  0
INSERT
  8
bottomstencil
  2
D26
 10
1.197000
 20
1.110000
 41
1.0
 42
1.0
 43
1.0
 50
0.0
  0
INSERT
  8
bottomstencil
  2
D26
 10
1.354500
 20
1.110000
 41
1.0
 42
1.0
 43
1.0
 50
0.0
  0
INSERT
  8
bottomstencil
  2
D26
 10
1.354500
 20
1.245000
 41
1.0
 42
1.0
 43
1.0
 50
0.0
  0
INSERT
  8
bottomstencil
  2
D26
 10
3.789000
 20
2.036000
 41
1.0
 42
1.0
 43
1.0
 50
0.0
  0
INSERT
  8
bottomstencil
  2
D26
 10
3.789000
 20
1.901000
 41
1.0
 42
1.0
 43
1.0
 50
0.0
  0
INSERT
  8
bottomstencil
  2
D32
 10
3.994000
 20
3.510500
 41
1.0
 42
1.0
 43
1.0
 50
0.0
  0
INSERT
  8
bottomstencil
  2
D32
 10
4.190000
 20
3.511000
 41
1.0
 42
1.0
 43
1.0
 50
0.0
  0
INSERT
  8
bottomstencil
  2
D32
 10
3.800000
 20
3.511500
 41
1.0
 42
1.0
 43
1.0
 50
0.0
  0
INSERT
  8
bottomstencil
  2
D32
 10
3.605000
 20
3.511000
 41
1.0
 42
1.0
 43
1.0
 50
0.0
  0
INSERT
  8
bottomstencil
  2
D32
 10
3.410000
 20
3.511000
 41
1.0
 42
1.0
 43
1.0
 50
0.0
  0
INSERT
  8
bottomstencil
  2
D32
 10
2.799000
 20
2.166000
 41
1.0
 42
1.0
 43
1.0
 50
0.0
  0
INSERT
  8
bottomstencil
  2
D32
 10
2.799000
 20
2.111000
 41
1.0
 42
1.0
 43
1.0
 50
0.0
  0
INSERT
  8
bottomstencil
  2
D32
 10
2.849000
 20
2.111000
 41
1.0
 42
1.0
 43
1.0
 50
0.0
  0
INSERT
  8
bottomstencil
  2
D32
 10
2.849000
 20
2.166000
 41
1.0
 42
1.0
 43
1.0
 50
0.0
  0
INSERT
  8
bottomstencil
  2
D32
 10
2.344000
 20
2.116000
 41
1.0
 42
1.0
 43
1.0
 50
0.0
  0
INSERT
  8
bottomstencil
  2
D32
 10
2.344000
 20
2.061000
 41
1.0
 42
1.0
 43
1.0
 50
0.0
  0
INSERT
  8
bottomstencil
  2
D32
 10
2.939000
 20
2.166000
 41
1.0
 42
1.0
 43
1.0
 50
0.0
  0
INSERT
  8
bottomstencil
  2
D32
 10
2.939000
 20
2.111000
 41
1.0
 42
1.0
 43
1.0
 50
0.0
  0
INSERT
  8
bottomstencil
  2
D32
 10
2.739000
 20
2.166000
 41
1.0
 42
1.0
 43
1.0
 50
0.0
  0
INSERT
  8
bottomstencil
  2
D32
 10
2.739000
 20
2.111000
 41
1.0
 42
1.0
 43
1.0
 50
0.0
  0
INSERT
  8
bottomstencil
  2
D32
 10
2.289000
 20
2.061000
 41
1.0
 42
1.0
 43
1.0
 50
0.0
  0
INSERT
  8
bottomstencil
  2
D32
 10
2.289000
 20
2.116000
 41
1.0
 42
1.0
 43
1.0
 50
0.0
  0
INSERT
  8
bottomstencil
  2
D32
 10
1.979000
 20
2.846000
 41
1.0
 42
1.0
 43
1.0
 50
0.0
  0
INSERT
  8
bottomstencil
  2
D32
 10
1.979000
 20
2.791000
 41
1.0
 42
1.0
 43
1.0
 50
0.0
  0
INSERT
  8
bottomstencil
  2
D32
 10
3.809000
 20
2.796000
 41
1.0
 42
1.0
 43
1.0
 50
0.0
  0
INSERT
  8
bottomstencil
  2
D32
 10
3.809000
 20
2.851000
 41
1.0
 42
1.0
 43
1.0
 50
0.0
  0
INSERT
  8
bottomstencil
  2
D32
 10
3.599000
 20
2.846000
 41
1.0
 42
1.0
 43
1.0
 50
0.0
  0
INSERT
  8
bottomstencil
  2
D32
 10
3.599000
 20
2.791000
 41
1.0
 42
1.0
 43
1.0
 50
0.0
  0
INSERT
  8
bottomstencil
  2
D32
 10
1.919000
 20
2.846000
 41
1.0
 42
1.0
 43
1.0
 50
0.0
  0
INSERT
  8
bottomstencil
  2
D32
 10
1.919000
 20
2.791000
 41
1.0
 42
1.0
 43
1.0
 50
0.0
  0
INSERT
  8
bottomstencil
  2
D32
 10
3.869000
 20
2.796000
 41
1.0
 42
1.0
 43
1.0
 50
0.0
  0
INSERT
  8
bottomstencil
  2
D32
 10
3.869000
 20
2.851000
 41
1.0
 42
1.0
 43
1.0
 50
0.0
  0
INSERT
  8
bottomstencil
  2
D32
 10
3.539000
 20
2.846000
 41
1.0
 42
1.0
 43
1.0
 50
0.0
  0
INSERT
  8
bottomstencil
  2
D32
 10
3.539000
 20
2.791000
 41
1.0
 42
1.0
 43
1.0
 50
0.0
  0
INSERT
  8
bottomstencil
  2
D32
 10
4.190000
 20
3.456000
 41
1.0
 42
1.0
 43
1.0
 50
0.0
  0
INSERT
  8
bottomstencil
  2
D32
 10
3.605000
 20
3.456000
 41
1.0
 42
1.0
 43
1.0
 50
0.0
  0
INSERT
  8
bottomstencil
  2
D32
 10
3.410000
 20
3.456000
 41
1.0
 42
1.0
 43
1.0
 50
0.0
  0
INSERT
  8
bottomstencil
  2
D32
 10
3.800000
 20
3.456500
 41
1.0
 42
1.0
 43
1.0
 50
0.0
  0
INSERT
  8
bottomstencil
  2
D32
 10
3.994000
 20
3.455500
 41
1.0
 42
1.0
 43
1.0
 50
0.0
  0
INSERT
  8
bottomstencil
  2
D73
 10
3.994000
 20
3.666800
 41
1.0
 42
1.0
 43
1.0
 50
0.0
  0
INSERT
  8
bottomstencil
  2
D73
 10
3.994000
 20
3.574200
 41
1.0
 42
1.0
 43
1.0
 50
0.0
  0
INSERT
  8
bottomstencil
  2
D73
 10
4.190000
 20
3.667300
 41
1.0
 42
1.0
 43
1.0
 50
0.0
  0
INSERT
  8
bottomstencil
  2
D73
 10
4.190000
 20
3.574700
 41
1.0
 42
1.0
 43
1.0
 50
0.0
  0
INSERT
  8
bottomstencil
  2
D73
 10
3.800000
 20
3.667800
 41
1.0
 42
1.0
 43
1.0
 50
0.0
  0
INSERT
  8
bottomstencil
  2
D73
 10
3.800000
 20
3.575200
 41
1.0
 42
1.0
 43
1.0
 50
0.0
  0
INSERT
  8
bottomstencil
  2
D73
 10
3.605000
 20
3.667300
 41
1.0
 42
1.0
 43
1.0
 50
0.0
  0
INSERT
  8
bottomstencil
  2
D73
 10
3.605000
 20
3.574700
 41
1.0
 42
1.0
 43
1.0
 50
0.0
  0
INSERT
  8
bottomstencil
  2
D73
 10
3.410000
 20
3.667300
 41
1.0
 42
1.0
 43
1.0
 50
0.0
  0
INSERT
  8
bottomstencil
  2
D73
 10
3.410000
 20
3.574700
 41
1.0
 42
1.0
 43
1.0
 50
0.0
  0
INSERT
  8
bottomstencil
  2
D73
 10
1.571000
 20
1.133800
 41
1.0
 42
1.0
 43
1.0
 50
0.0
  0
INSERT
  8
bottomstencil
  2
D73
 10
1.571000
 20
1.041200
 41
1.0
 42
1.0
 43
1.0
 50
0.0
  0
INSERT
  8
bottomstencil
  2
D73
 10
2.260000
 20
1.133800
 41
1.0
 42
1.0
 43
1.0
 50
0.0
  0
INSERT
  8
bottomstencil
  2
D73
 10
2.260000
 20
1.041200
 41
1.0
 42
1.0
 43
1.0
 50
0.0
  0
INSERT
  8
bottomstencil
  2
D73
 10
2.338800
 20
1.133800
 41
1.0
 42
1.0
 43
1.0
 50
0.0
  0
INSERT
  8
bottomstencil
  2
D73
 10
2.338800
 20
1.041200
 41
1.0
 42
1.0
 43
1.0
 50
0.0
  0
INSERT
  8
bottomstencil
  2
D73
 10
1.649800
 20
1.133800
 41
1.0
 42
1.0
 43
1.0
 50
0.0
  0
INSERT
  8
bottomstencil
  2
D73
 10
1.649800
 20
1.041200
 41
1.0
 42
1.0
 43
1.0
 50
0.0
  0
INSERT
  8
bottomstencil
  2
D73
 10
1.039600
 20
2.025500
 41
1.0
 42
1.0
 43
1.0
 50
0.0
  0
INSERT
  8
bottomstencil
  2
D73
 10
1.039600
 20
2.118000
 41
1.0
 42
1.0
 43
1.0
 50
0.0
  0
INSERT
  8
bottomstencil
  2
D73
 10
1.216700
 20
2.025500
 41
1.0
 42
1.0
 43
1.0
 50
0.0
  0
INSERT
  8
bottomstencil
  2
D73
 10
1.216700
 20
2.118000
 41
1.0
 42
1.0
 43
1.0
 50
0.0
  0
INSERT
  8
bottomstencil
  2
D74
 10
2.414000
 20
3.796000
 41
1.0
 42
1.0
 43
1.0
 50
0.0
  0
INSERT
  8
bottomstencil
  2
D74
 10
2.414000
 20
3.546000
 41
1.0
 42
1.0
 43
1.0
 50
0.0
  0
INSERT
  8
bottomstencil
  2
D74
 10
2.634000
 20
3.596000
 41
1.0
 42
1.0
 43
1.0
 50
0.0
  0
INSERT
  8
bottomstencil
  2
D74
 10
2.414000
 20
3.746000
 41
1.0
 42
1.0
 43
1.0
 50
0.0
  0
INSERT
  8
bottomstencil
  2
D74
 10
2.634000
 20
3.546000
 41
1.0
 42
1.0
 43
1.0
 50
0.0
  0
INSERT
  8
bottomstencil
  2
D74
 10
2.634000
 20
3.846000
 41
1.0
 42
1.0
 43
1.0
 50
0.0
  0
INSERT
  8
bottomstencil
  2
D74
 10
2.634000
 20
3.796000
 41
1.0
 42
1.0
 43
1.0
 50
0.0
  0
INSERT
  8
bottomstencil
  2
D74
 10
2.634000
 20
3.746000
 41
1.0
 42
1.0
 43
1.0
 50
0.0
  0
INSERT
  8
bottomstencil
  2
D74
 10
2.634000
 20
3.696000
 41
1.0
 42
1.0
 43
1.0
 50
0.0
  0
INSERT
  8
bottomstencil
  2
D74
 10
2.634000
 20
3.646000
 41
1.0
 42
1.0
 43
1.0
 50
0.0
  0
INSERT
  8
bottomstencil
  2
D74
 10
2.414000
 20
3.696000
 41
1.0
 42
1.0
 43
1.0
 50
0.0
  0
INSERT
  8
bottomstencil
  2
D74
 10
2.414000
 20
3.846000
 41
1.0
 42
1.0
 43
1.0
 50
0.0
  0
INSERT
  8
bottomstencil
  2
D74
 10
2.414000
 20
3.596000
 41
1.0
 42
1.0
 43
1.0
 50
0.0
  0
INSERT
  8
bottomstencil
  2
D74
 10
2.414000
 20
3.646000
 41
1.0
 42
1.0
 43
1.0
 50
0.0
  0
INSERT
  8
bottomstencil
  2
D74
 10
2.414000
 20
3.896000
 41
1.0
 42
1.0
 43
1.0
 50
0.0
  0
INSERT
  8
bottomstencil
  2
D75
 10
2.634000
 20
3.896000
 41
1.0
 42
1.0
 43
1.0
 50
0.0
  0
INSERT
  8
bottomstencil
  2
D76
 10
3.064000
 20
3.781000
 41
1.0
 42
1.0
 43
1.0
 50
0.0
  0
INSERT
  8
bottomstencil
  2
D76
 10
3.314000
 20
3.781000
 41
1.0
 42
1.0
 43
1.0
 50
0.0
  0
INSERT
  8
bottomstencil
  2
D76
 10
3.264000
 20
4.001000
 41
1.0
 42
1.0
 43
1.0
 50
0.0
  0
INSERT
  8
bottomstencil
  2
D76
 10
3.114000
 20
3.781000
 41
1.0
 42
1.0
 43
1.0
 50
0.0
  0
INSERT
  8
bottomstencil
  2
D76
 10
3.314000
 20
4.001000
 41
1.0
 42
1.0
 43
1.0
 50
0.0
  0
INSERT
  8
bottomstencil
  2
D76
 10
3.014000
 20
4.001000
 41
1.0
 42
1.0
 43
1.0
 50
0.0
  0
INSERT
  8
bottomstencil
  2
D76
 10
3.064000
 20
4.001000
 41
1.0
 42
1.0
 43
1.0
 50
0.0
  0
INSERT
  8
bottomstencil
  2
D76
 10
3.114000
 20
4.001000
 41
1.0
 42
1.0
 43
1.0
 50
0.0
  0
INSERT
  8
bottomstencil
  2
D76
 10
3.164000
 20
4.001000
 41
1.0
 42
1.0
 43
1.0
 50
0.0
  0
INSERT
  8
bottomstencil
  2
D76
 10
3.214000
 20
4.001000
 41
1.0
 42
1.0
 43
1.0
 50
0.0
  0
INSERT
  8
bottomstencil
  2
D76
 10
3.164000
 20
3.781000
 41
1.0
 42
1.0
 43
1.0
 50
0.0
  0
INSERT
  8
bottomstencil
  2
D76
 10
3.014000
 20
3.781000
 41
1.0
 42
1.0
 43
1.0
 50
0.0
  0
INSERT
  8
bottomstencil
  2
D76
 10
3.264000
 20
3.781000
 41
1.0
 42
1.0
 43
1.0
 50
0.0
  0
INSERT
  8
bottomstencil
  2
D76
 10
3.214000
 20
3.781000
 41
1.0
 42
1.0
 43
1.0
 50
0.0
  0
INSERT
  8
bottomstencil
  2
D76
 10
2.964000
 20
3.781000
 41
1.0
 42
1.0
 43
1.0
 50
0.0
  0
INSERT
  8
bottomstencil
  2
D77
 10
2.964000
 20
4.001000
 41
1.0
 42
1.0
 43
1.0
 50
0.0
  0
INSERT
  8
bottomstencil
  2
D78
 10
1.925900
 20
3.247200
 41
1.0
 42
1.0
 43
1.0
 50
0.0
  0
INSERT
  8
bottomstencil
  2
D78
 10
1.925900
 20
3.221600
 41
1.0
 42
1.0
 43
1.0
 50
0.0
  0
INSERT
  8
bottomstencil
  2
D78
 10
1.925900
 20
3.196000
 41
1.0
 42
1.0
 43
1.0
 50
0.0
  0
INSERT
  8
bottomstencil
  2
D78
 10
1.925900
 20
3.170400
 41
1.0
 42
1.0
 43
1.0
 50
0.0
  0
INSERT
  8
bottomstencil
  2
D78
 10
1.925900
 20
3.144800
 41
1.0
 42
1.0
 43
1.0
 50
0.0
  0
INSERT
  8
bottomstencil
  2
D78
 10
1.925900
 20
3.119200
 41
1.0
 42
1.0
 43
1.0
 50
0.0
  0
INSERT
  8
bottomstencil
  2
D78
 10
1.925900
 20
3.272800
 41
1.0
 42
1.0
 43
1.0
 50
0.0
  0
INSERT
  8
bottomstencil
  2
D78
 10
1.662100
 20
3.272800
 41
1.0
 42
1.0
 43
1.0
 50
0.0
  0
INSERT
  8
bottomstencil
  2
D78
 10
1.662100
 20
3.247200
 41
1.0
 42
1.0
 43
1.0
 50
0.0
  0
INSERT
  8
bottomstencil
  2
D78
 10
1.662100
 20
3.221600
 41
1.0
 42
1.0
 43
1.0
 50
0.0
  0
INSERT
  8
bottomstencil
  2
D78
 10
1.662100
 20
3.196000
 41
1.0
 42
1.0
 43
1.0
 50
0.0
  0
INSERT
  8
bottomstencil
  2
D78
 10
1.662100
 20
3.170400
 41
1.0
 42
1.0
 43
1.0
 50
0.0
  0
INSERT
  8
bottomstencil
  2
D78
 10
1.662100
 20
3.144800
 41
1.0
 42
1.0
 43
1.0
 50
0.0
  0
INSERT
  8
bottomstencil
  2
D78
 10
1.662100
 20
3.119200
 41
1.0
 42
1.0
 43
1.0
 50
0.0
  0
INSERT
  8
bottomstencil
  2
D78
 10
2.215900
 20
3.767200
 41
1.0
 42
1.0
 43
1.0
 50
0.0
  0
INSERT
  8
bottomstencil
  2
D78
 10
2.215900
 20
3.741600
 41
1.0
 42
1.0
 43
1.0
 50
0.0
  0
INSERT
  8
bottomstencil
  2
D78
 10
2.215900
 20
3.716000
 41
1.0
 42
1.0
 43
1.0
 50
0.0
  0
INSERT
  8
bottomstencil
  2
D78
 10
2.215900
 20
3.690400
 41
1.0
 42
1.0
 43
1.0
 50
0.0
  0
INSERT
  8
bottomstencil
  2
D78
 10
2.215900
 20
3.664800
 41
1.0
 42
1.0
 43
1.0
 50
0.0
  0
INSERT
  8
bottomstencil
  2
D78
 10
2.215900
 20
3.639200
 41
1.0
 42
1.0
 43
1.0
 50
0.0
  0
INSERT
  8
bottomstencil
  2
D78
 10
2.215900
 20
3.792800
 41
1.0
 42
1.0
 43
1.0
 50
0.0
  0
INSERT
  8
bottomstencil
  2
D78
 10
1.952100
 20
3.792800
 41
1.0
 42
1.0
 43
1.0
 50
0.0
  0
INSERT
  8
bottomstencil
  2
D78
 10
1.952100
 20
3.767200
 41
1.0
 42
1.0
 43
1.0
 50
0.0
  0
INSERT
  8
bottomstencil
  2
D78
 10
1.952100
 20
3.741600
 41
1.0
 42
1.0
 43
1.0
 50
0.0
  0
INSERT
  8
bottomstencil
  2
D78
 10
1.952100
 20
3.716000
 41
1.0
 42
1.0
 43
1.0
 50
0.0
  0
INSERT
  8
bottomstencil
  2
D78
 10
1.952100
 20
3.690400
 41
1.0
 42
1.0
 43
1.0
 50
0.0
  0
INSERT
  8
bottomstencil
  2
D78
 10
1.952100
 20
3.664800
 41
1.0
 42
1.0
 43
1.0
 50
0.0
  0
INSERT
  8
bottomstencil
  2
D78
 10
1.952100
 20
3.639200
 41
1.0
 42
1.0
 43
1.0
 50
0.0
  0
INSERT
  8
bottomstencil
  2
D79
 10
3.610800
 20
3.296600
 41
1.0
 42
1.0
 43
1.0
 50
0.0
  0
INSERT
  8
bottomstencil
  2
D79
 10
3.610800
 20
3.006600
 41
1.0
 42
1.0
 43
1.0
 50
0.0
  0
INSERT
  8
bottomstencil
  2
D79
 10
3.785800
 20
3.296600
 41
1.0
 42
1.0
 43
1.0
 50
0.0
  0
INSERT
  8
bottomstencil
  2
D79
 10
3.783300
 20
2.342900
 41
1.0
 42
1.0
 43
1.0
 50
0.0
  0
INSERT
  8
bottomstencil
  2
D79
 10
3.783300
 20
2.632900
 41
1.0
 42
1.0
 43
1.0
 50
0.0
  0
INSERT
  8
bottomstencil
  2
D79
 10
3.608300
 20
2.342900
 41
1.0
 42
1.0
 43
1.0
 50
0.0
  0
INSERT
  8
bottomstencil
  2
D80
 10
3.785800
 20
3.006600
 41
1.0
 42
1.0
 43
1.0
 50
0.0
  0
INSERT
  8
bottomstencil
  2
D80
 10
3.608300
 20
2.632900
 41
1.0
 42
1.0
 43
1.0
 50
0.0
  0
INSERT
  8
bottomstencil
  2
D81
 10
3.220200
 20
2.733500
 41
1.0
 42
1.0
 43
1.0
 50
0.0
  0
INSERT
  8
bottomstencil
  2
D81
 10
3.510200
 20
2.733500
 41
1.0
 42
1.0
 43
1.0
 50
0.0
  0
INSERT
  8
bottomstencil
  2
D81
 10
3.220200
 20
2.908500
 41
1.0
 42
1.0
 43
1.0
 50
0.0
  0
INSERT
  8
bottomstencil
  2
D81
 10
4.173900
 20
2.906000
 41
1.0
 42
1.0
 43
1.0
 50
0.0
  0
INSERT
  8
bottomstencil
  2
D81
 10
3.883900
 20
2.906000
 41
1.0
 42
1.0
 43
1.0
 50
0.0
  0
INSERT
  8
bottomstencil
  2
D81
 10
4.173900
 20
2.731000
 41
1.0
 42
1.0
 43
1.0
 50
0.0
  0
INSERT
  8
bottomstencil
  2
D81
 10
1.606000
 20
2.733500
 41
1.0
 42
1.0
 43
1.0
 50
0.0
  0
INSERT
  8
bottomstencil
  2
D81
 10
1.896000
 20
2.733500
 41
1.0
 42
1.0
 43
1.0
 50
0.0
  0
INSERT
  8
bottomstencil
  2
D81
 10
1.606000
 20
2.908500
 41
1.0
 42
1.0
 43
1.0
 50
0.0
  0
INSERT
  8
bottomstencil
  2
D81
 10
4.002300
 20
0.959800
 41
1.0
 42
1.0
 43
1.0
 50
0.0
  0
INSERT
  8
bottomstencil
  2
D81
 10
3.712300
 20
0.959800
 41
1.0
 42
1.0
 43
1.0
 50
0.0
  0
INSERT
  8
bottomstencil
  2
D81
 10
4.002300
 20
0.784800
 41
1.0
 42
1.0
 43
1.0
 50
0.0
  0
INSERT
  8
bottomstencil
  2
D82
 10
3.510200
 20
2.908500
 41
1.0
 42
1.0
 43
1.0
 50
0.0
  0
INSERT
  8
bottomstencil
  2
D82
 10
3.883900
 20
2.731000
 41
1.0
 42
1.0
 43
1.0
 50
0.0
  0
INSERT
  8
bottomstencil
  2
D82
 10
1.896000
 20
2.908500
 41
1.0
 42
1.0
 43
1.0
 50
0.0
  0
INSERT
  8
bottomstencil
  2
D82
 10
3.712300
 20
0.784800
 41
1.0
 42
1.0
 43
1.0
 50
0.0
  0
INSERT
  8
bottomstencil
  2
D83
 10
1.336000
 20
2.945800
 41
1.0
 42
1.0
 43
1.0
 50
0.0
  0
INSERT
  8
bottomstencil
  2
D83
 10
1.256000
 20
2.945800
 41
1.0
 42
1.0
 43
1.0
 50
0.0
  0
INSERT
  8
bottomstencil
  2
D83
 10
1.396000
 20
2.945800
 41
1.0
 42
1.0
 43
1.0
 50
0.0
  0
INSERT
  8
bottomstencil
  2
D83
 10
1.476000
 20
2.945800
 41
1.0
 42
1.0
 43
1.0
 50
0.0
  0
INSERT
  8
bottomstencil
  2
D83
 10
1.396000
 20
2.875800
 41
1.0
 42
1.0
 43
1.0
 50
0.0
  0
INSERT
  8
bottomstencil
  2
D83
 10
1.476000
 20
2.875800
 41
1.0
 42
1.0
 43
1.0
 50
0.0
  0
INSERT
  8
bottomstencil
  2
D83
 10
1.336500
 20
3.103500
 41
1.0
 42
1.0
 43
1.0
 50
0.0
  0
INSERT
  8
bottomstencil
  2
D83
 10
1.256500
 20
3.103500
 41
1.0
 42
1.0
 43
1.0
 50
0.0
  0
INSERT
  8
bottomstencil
  2
D83
 10
1.396500
 20
3.103500
 41
1.0
 42
1.0
 43
1.0
 50
0.0
  0
INSERT
  8
bottomstencil
  2
D83
 10
1.476500
 20
3.103500
 41
1.0
 42
1.0
 43
1.0
 50
0.0
  0
INSERT
  8
bottomstencil
  2
D83
 10
1.396500
 20
3.033500
 41
1.0
 42
1.0
 43
1.0
 50
0.0
  0
INSERT
  8
bottomstencil
  2
D83
 10
1.476500
 20
3.033500
 41
1.0
 42
1.0
 43
1.0
 50
0.0
  0
INSERT
  8
bottomstencil
  2
D83
 10
1.339800
 20
3.257000
 41
1.0
 42
1.0
 43
1.0
 50
0.0
  0
INSERT
  8
bottomstencil
  2
D83
 10
1.259800
 20
3.257000
 41
1.0
 42
1.0
 43
1.0
 50
0.0
  0
INSERT
  8
bottomstencil
  2
D83
 10
1.399800
 20
3.257000
 41
1.0
 42
1.0
 43
1.0
 50
0.0
  0
INSERT
  8
bottomstencil
  2
D83
 10
1.479800
 20
3.257000
 41
1.0
 42
1.0
 43
1.0
 50
0.0
  0
INSERT
  8
bottomstencil
  2
D83
 10
1.399800
 20
3.187000
 41
1.0
 42
1.0
 43
1.0
 50
0.0
  0
INSERT
  8
bottomstencil
  2
D83
 10
1.479800
 20
3.187000
 41
1.0
 42
1.0
 43
1.0
 50
0.0
  0
INSERT
  8
bottomstencil
  2
D83
 10
1.337400
 20
3.418300
 41
1.0
 42
1.0
 43
1.0
 50
0.0
  0
INSERT
  8
bottomstencil
  2
D83
 10
1.257400
 20
3.418300
 41
1.0
 42
1.0
 43
1.0
 50
0.0
  0
INSERT
  8
bottomstencil
  2
D83
 10
1.397400
 20
3.418300
 41
1.0
 42
1.0
 43
1.0
 50
0.0
  0
INSERT
  8
bottomstencil
  2
D83
 10
1.477400
 20
3.418300
 41
1.0
 42
1.0
 43
1.0
 50
0.0
  0
INSERT
  8
bottomstencil
  2
D83
 10
1.397400
 20
3.348300
 41
1.0
 42
1.0
 43
1.0
 50
0.0
  0
INSERT
  8
bottomstencil
  2
D83
 10
1.477400
 20
3.348300
 41
1.0
 42
1.0
 43
1.0
 50
0.0
  0
INSERT
  8
bottomstencil
  2
D83
 10
1.336500
 20
3.568500
 41
1.0
 42
1.0
 43
1.0
 50
0.0
  0
INSERT
  8
bottomstencil
  2
D83
 10
1.256500
 20
3.568500
 41
1.0
 42
1.0
 43
1.0
 50
0.0
  0
INSERT
  8
bottomstencil
  2
D83
 10
1.396500
 20
3.568500
 41
1.0
 42
1.0
 43
1.0
 50
0.0
  0
INSERT
  8
bottomstencil
  2
D83
 10
1.476500
 20
3.568500
 41
1.0
 42
1.0
 43
1.0
 50
0.0
  0
INSERT
  8
bottomstencil
  2
D83
 10
1.396500
 20
3.498500
 41
1.0
 42
1.0
 43
1.0
 50
0.0
  0
INSERT
  8
bottomstencil
  2
D83
 10
1.476500
 20
3.498500
 41
1.0
 42
1.0
 43
1.0
 50
0.0
  0
INSERT
  8
bottomstencil
  2
D83
 10
2.554800
 20
4.370600
 41
1.0
 42
1.0
 43
1.0
 50
0.0
  0
INSERT
  8
bottomstencil
  2
D83
 10
2.634800
 20
4.370600
 41
1.0
 42
1.0
 43
1.0
 50
0.0
  0
INSERT
  8
bottomstencil
  2
D83
 10
2.634800
 20
4.162600
 41
1.0
 42
1.0
 43
1.0
 50
0.0
  0
INSERT
  8
bottomstencil
  2
D83
 10
2.554800
 20
4.162600
 41
1.0
 42
1.0
 43
1.0
 50
0.0
  0
INSERT
  8
bottomstencil
  2
D83
 10
2.720200
 20
4.370600
 41
1.0
 42
1.0
 43
1.0
 50
0.0
  0
INSERT
  8
bottomstencil
  2
D83
 10
2.800200
 20
4.370600
 41
1.0
 42
1.0
 43
1.0
 50
0.0
  0
INSERT
  8
bottomstencil
  2
D83
 10
2.800200
 20
4.162600
 41
1.0
 42
1.0
 43
1.0
 50
0.0
  0
INSERT
  8
bottomstencil
  2
D83
 10
2.720200
 20
4.162600
 41
1.0
 42
1.0
 43
1.0
 50
0.0
  0
INSERT
  8
bottomstencil
  2
D83
 10
2.883000
 20
4.371800
 41
1.0
 42
1.0
 43
1.0
 50
0.0
  0
INSERT
  8
bottomstencil
  2
D83
 10
2.963000
 20
4.371800
 41
1.0
 42
1.0
 43
1.0
 50
0.0
  0
INSERT
  8
bottomstencil
  2
D83
 10
2.963000
 20
4.163800
 41
1.0
 42
1.0
 43
1.0
 50
0.0
  0
INSERT
  8
bottomstencil
  2
D83
 10
2.883000
 20
4.163800
 41
1.0
 42
1.0
 43
1.0
 50
0.0
  0
INSERT
  8
bottomstencil
  2
D83
 10
3.046300
 20
4.371500
 41
1.0
 42
1.0
 43
1.0
 50
0.0
  0
INSERT
  8
bottomstencil
  2
D83
 10
3.126300
 20
4.371500
 41
1.0
 42
1.0
 43
1.0
 50
0.0
  0
INSERT
  8
bottomstencil
  2
D83
 10
3.126300
 20
4.163500
 41
1.0
 42
1.0
 43
1.0
 50
0.0
  0
INSERT
  8
bottomstencil
  2
D83
 10
3.046300
 20
4.163500
 41
1.0
 42
1.0
 43
1.0
 50
0.0
  0
INSERT
  8
bottomstencil
  2
D83
 10
3.212300
 20
4.370600
 41
1.0
 42
1.0
 43
1.0
 50
0.0
  0
INSERT
  8
bottomstencil
  2
D83
 10
3.292300
 20
4.370600
 41
1.0
 42
1.0
 43
1.0
 50
0.0
  0
INSERT
  8
bottomstencil
  2
D83
 10
3.292300
 20
4.162600
 41
1.0
 42
1.0
 43
1.0
 50
0.0
  0
INSERT
  8
bottomstencil
  2
D83
 10
3.212300
 20
4.162600
 41
1.0
 42
1.0
 43
1.0
 50
0.0
  0
INSERT
  8
bottomstencil
  2
D83
 10
3.373700
 20
4.370600
 41
1.0
 42
1.0
 43
1.0
 50
0.0
  0
INSERT
  8
bottomstencil
  2
D83
 10
3.453700
 20
4.370600
 41
1.0
 42
1.0
 43
1.0
 50
0.0
  0
INSERT
  8
bottomstencil
  2
D83
 10
3.453700
 20
4.162600
 41
1.0
 42
1.0
 43
1.0
 50
0.0
  0
INSERT
  8
bottomstencil
  2
D83
 10
3.373700
 20
4.162600
 41
1.0
 42
1.0
 43
1.0
 50
0.0
  0
INSERT
  8
bottomstencil
  2
D83
 10
3.539100
 20
4.370600
 41
1.0
 42
1.0
 43
1.0
 50
0.0
  0
INSERT
  8
bottomstencil
  2
D83
 10
3.619100
 20
4.370600
 41
1.0
 42
1.0
 43
1.0
 50
0.0
  0
INSERT
  8
bottomstencil
  2
D83
 10
3.619100
 20
4.162600
 41
1.0
 42
1.0
 43
1.0
 50
0.0
  0
INSERT
  8
bottomstencil
  2
D83
 10
3.539100
 20
4.162600
 41
1.0
 42
1.0
 43
1.0
 50
0.0
  0
INSERT
  8
bottomstencil
  2
D83
 10
3.782900
 20
4.162500
 41
1.0
 42
1.0
 43
1.0
 50
0.0
  0
INSERT
  8
bottomstencil
  2
D83
 10
3.702900
 20
4.162500
 41
1.0
 42
1.0
 43
1.0
 50
0.0
  0
INSERT
  8
bottomstencil
  2
D83
 10
3.702900
 20
4.370500
 41
1.0
 42
1.0
 43
1.0
 50
0.0
  0
INSERT
  8
bottomstencil
  2
D83
 10
3.782900
 20
4.370500
 41
1.0
 42
1.0
 43
1.0
 50
0.0
  0
INSERT
  8
bottomstencil
  2
D84
 10
1.226500
 20
3.838500
 41
1.0
 42
1.0
 43
1.0
 50
0.0
  0
INSERT
  8
bottomstencil
  2
D84
 10
1.226500
 20
3.918500
 41
1.0
 42
1.0
 43
1.0
 50
0.0
  0
INSERT
  8
bottomstencil
  2
D84
 10
1.226500
 20
3.778500
 41
1.0
 42
1.0
 43
1.0
 50
0.0
  0
INSERT
  8
bottomstencil
  2
D84
 10
1.226500
 20
3.698500
 41
1.0
 42
1.0
 43
1.0
 50
0.0
  0
INSERT
  8
bottomstencil
  2
D84
 10
1.156500
 20
3.778500
 41
1.0
 42
1.0
 43
1.0
 50
0.0
  0
INSERT
  8
bottomstencil
  2
D84
 10
1.156500
 20
3.698500
 41
1.0
 42
1.0
 43
1.0
 50
0.0
  0
INSERT
  8
bottomstencil
  2
D84
 10
1.446500
 20
3.838500
 41
1.0
 42
1.0
 43
1.0
 50
0.0
  0
INSERT
  8
bottomstencil
  2
D84
 10
1.446500
 20
3.918500
 41
1.0
 42
1.0
 43
1.0
 50
0.0
  0
INSERT
  8
bottomstencil
  2
D84
 10
1.446500
 20
3.778500
 41
1.0
 42
1.0
 43
1.0
 50
0.0
  0
INSERT
  8
bottomstencil
  2
D84
 10
1.446500
 20
3.698500
 41
1.0
 42
1.0
 43
1.0
 50
0.0
  0
INSERT
  8
bottomstencil
  2
D84
 10
1.376500
 20
3.778500
 41
1.0
 42
1.0
 43
1.0
 50
0.0
  0
INSERT
  8
bottomstencil
  2
D84
 10
1.376500
 20
3.698500
 41
1.0
 42
1.0
 43
1.0
 50
0.0
  0
INSERT
  8
bottomstencil
  2
D84
 10
1.666500
 20
3.778500
 41
1.0
 42
1.0
 43
1.0
 50
0.0
  0
INSERT
  8
bottomstencil
  2
D84
 10
1.666500
 20
3.698500
 41
1.0
 42
1.0
 43
1.0
 50
0.0
  0
INSERT
  8
bottomstencil
  2
D84
 10
1.596500
 20
3.778500
 41
1.0
 42
1.0
 43
1.0
 50
0.0
  0
INSERT
  8
bottomstencil
  2
D84
 10
1.596500
 20
3.698500
 41
1.0
 42
1.0
 43
1.0
 50
0.0
  0
INSERT
  8
bottomstencil
  2
D84
 10
1.666500
 20
3.838500
 41
1.0
 42
1.0
 43
1.0
 50
0.0
  0
INSERT
  8
bottomstencil
  2
D84
 10
1.666500
 20
3.918500
 41
1.0
 42
1.0
 43
1.0
 50
0.0
  0
INSERT
  8
bottomstencil
  2
D85
 10
2.686200
 20
0.634700
 41
1.0
 42
1.0
 43
1.0
 50
0.0
  0
INSERT
  8
bottomstencil
  2
D85
 10
2.778700
 20
0.634700
 41
1.0
 42
1.0
 43
1.0
 50
0.0
  0
INSERT
  8
bottomstencil
  2
D85
 10
3.375200
 20
1.146600
 41
1.0
 42
1.0
 43
1.0
 50
0.0
  0
INSERT
  8
bottomstencil
  2
D85
 10
3.467700
 20
1.146600
 41
1.0
 42
1.0
 43
1.0
 50
0.0
  0
INSERT
  8
bottomstencil
  2
D85
 10
3.375200
 20
1.048100
 41
1.0
 42
1.0
 43
1.0
 50
0.0
  0
INSERT
  8
bottomstencil
  2
D85
 10
3.467700
 20
1.048100
 41
1.0
 42
1.0
 43
1.0
 50
0.0
  0
INSERT
  8
bottomstencil
  2
D86
 10
3.204900
 20
1.103200
 41
1.0
 42
1.0
 43
1.0
 50
0.0
  0
INSERT
  8
bottomstencil
  2
D87
 10
3.264000
 20
1.008800
 41
1.0
 42
1.0
 43
1.0
 50
0.0
  0
INSERT
  8
bottomstencil
  2
D88
 10
3.244300
 20
1.008800
 41
1.0
 42
1.0
 43
1.0
 50
0.0
  0
INSERT
  8
bottomstencil
  2
D88
 10
3.224600
 20
1.008800
 41
1.0
 42
1.0
 43
1.0
 50
0.0
  0
INSERT
  8
bottomstencil
  2
D88
 10
3.204900
 20
1.008800
 41
1.0
 42
1.0
 43
1.0
 50
0.0
  0
INSERT
  8
bottomstencil
  2
D88
 10
3.185200
 20
1.008800
 41
1.0
 42
1.0
 43
1.0
 50
0.0
  0
INSERT
  8
bottomstencil
  2
D88
 10
3.165500
 20
1.008800
 41
1.0
 42
1.0
 43
1.0
 50
0.0
  0
INSERT
  8
bottomstencil
  2
D88
 10
3.145900
 20
1.008800
 41
1.0
 42
1.0
 43
1.0
 50
0.0
  0
INSERT
  8
bottomstencil
  2
D88
 10
3.145900
 20
1.197700
 41
1.0
 42
1.0
 43
1.0
 50
0.0
  0
INSERT
  8
bottomstencil
  2
D88
 10
3.165500
 20
1.197700
 41
1.0
 42
1.0
 43
1.0
 50
0.0
  0
INSERT
  8
bottomstencil
  2
D88
 10
3.185200
 20
1.197700
 41
1.0
 42
1.0
 43
1.0
 50
0.0
  0
INSERT
  8
bottomstencil
  2
D88
 10
3.204900
 20
1.197700
 41
1.0
 42
1.0
 43
1.0
 50
0.0
  0
INSERT
  8
bottomstencil
  2
D88
 10
3.224600
 20
1.197700
 41
1.0
 42
1.0
 43
1.0
 50
0.0
  0
INSERT
  8
bottomstencil
  2
D88
 10
3.244300
 20
1.197700
 41
1.0
 42
1.0
 43
1.0
 50
0.0
  0
INSERT
  8
bottomstencil
  2
D88
 10
3.264000
 20
1.197700
 41
1.0
 42
1.0
 43
1.0
 50
0.0
  0
INSERT
  8
bottomstencil
  2
D89
 10
3.110400
 20
1.044200
 41
1.0
 42
1.0
 43
1.0
 50
0.0
  0
INSERT
  8
bottomstencil
  2
D89
 10
3.110400
 20
1.063900
 41
1.0
 42
1.0
 43
1.0
 50
0.0
  0
INSERT
  8
bottomstencil
  2
D89
 10
3.110400
 20
1.083600
 41
1.0
 42
1.0
 43
1.0
 50
0.0
  0
INSERT
  8
bottomstencil
  2
D89
 10
3.110400
 20
1.103200
 41
1.0
 42
1.0
 43
1.0
 50
0.0
  0
INSERT
  8
bottomstencil
  2
D89
 10
3.110400
 20
1.122900
 41
1.0
 42
1.0
 43
1.0
 50
0.0
  0
INSERT
  8
bottomstencil
  2
D89
 10
3.110400
 20
1.142600
 41
1.0
 42
1.0
 43
1.0
 50
0.0
  0
INSERT
  8
bottomstencil
  2
D89
 10
3.110400
 20
1.162300
 41
1.0
 42
1.0
 43
1.0
 50
0.0
  0
INSERT
  8
bottomstencil
  2
D89
 10
3.299400
 20
1.162300
 41
1.0
 42
1.0
 43
1.0
 50
0.0
  0
INSERT
  8
bottomstencil
  2
D89
 10
3.299400
 20
1.142600
 41
1.0
 42
1.0
 43
1.0
 50
0.0
  0
INSERT
  8
bottomstencil
  2
D89
 10
3.299400
 20
1.122900
 41
1.0
 42
1.0
 43
1.0
 50
0.0
  0
INSERT
  8
bottomstencil
  2
D89
 10
3.299400
 20
1.103200
 41
1.0
 42
1.0
 43
1.0
 50
0.0
  0
INSERT
  8
bottomstencil
  2
D89
 10
3.299400
 20
1.083600
 41
1.0
 42
1.0
 43
1.0
 50
0.0
  0
INSERT
  8
bottomstencil
  2
D89
 10
3.299400
 20
1.063900
 41
1.0
 42
1.0
 43
1.0
 50
0.0
  0
INSERT
  8
bottomstencil
  2
D89
 10
3.299400
 20
1.044200
 41
1.0
 42
1.0
 43
1.0
 50
0.0
  0
INSERT
  8
bottomstencil
  2
D90
 10
2.155700
 20
2.288300
 41
1.0
 42
1.0
 43
1.0
 50
0.0
  0
INSERT
  8
bottomstencil
  2
D90
 10
2.431300
 20
2.288300
 41
1.0
 42
1.0
 43
1.0
 50
0.0
  0
INSERT
  8
bottomstencil
  2
D90
 10
2.706900
 20
2.288300
 41
1.0
 42
1.0
 43
1.0
 50
0.0
  0
INSERT
  8
bottomstencil
  2
D90
 10
2.954900
 20
2.288300
 41
1.0
 42
1.0
 43
1.0
 50
0.0
  0
INSERT
  8
bottomstencil
  2
D91
 10
2.183300
 20
2.288300
 41
1.0
 42
1.0
 43
1.0
 50
0.0
  0
INSERT
  8
bottomstencil
  2
D91
 10
2.210800
 20
2.288300
 41
1.0
 42
1.0
 43
1.0
 50
0.0
  0
INSERT
  8
bottomstencil
  2
D91
 10
2.238400
 20
2.288300
 41
1.0
 42
1.0
 43
1.0
 50
0.0
  0
INSERT
  8
bottomstencil
  2
D91
 10
2.265900
 20
2.288300
 41
1.0
 42
1.0
 43
1.0
 50
0.0
  0
INSERT
  8
bottomstencil
  2
D91
 10
2.293500
 20
2.288300
 41
1.0
 42
1.0
 43
1.0
 50
0.0
  0
INSERT
  8
bottomstencil
  2
D91
 10
2.321000
 20
2.288300
 41
1.0
 42
1.0
 43
1.0
 50
0.0
  0
INSERT
  8
bottomstencil
  2
D91
 10
2.348600
 20
2.288300
 41
1.0
 42
1.0
 43
1.0
 50
0.0
  0
INSERT
  8
bottomstencil
  2
D91
 10
2.376200
 20
2.288300
 41
1.0
 42
1.0
 43
1.0
 50
0.0
  0
INSERT
  8
bottomstencil
  2
D91
 10
2.403700
 20
2.288300
 41
1.0
 42
1.0
 43
1.0
 50
0.0
  0
INSERT
  8
bottomstencil
  2
D91
 10
2.458800
 20
2.288300
 41
1.0
 42
1.0
 43
1.0
 50
0.0
  0
INSERT
  8
bottomstencil
  2
D91
 10
2.486400
 20
2.288300
 41
1.0
 42
1.0
 43
1.0
 50
0.0
  0
INSERT
  8
bottomstencil
  2
D91
 10
2.514000
 20
2.288300
 41
1.0
 42
1.0
 43
1.0
 50
0.0
  0
INSERT
  8
bottomstencil
  2
D91
 10
2.541500
 20
2.288300
 41
1.0
 42
1.0
 43
1.0
 50
0.0
  0
INSERT
  8
bottomstencil
  2
D91
 10
2.569100
 20
2.288300
 41
1.0
 42
1.0
 43
1.0
 50
0.0
  0
INSERT
  8
bottomstencil
  2
D91
 10
2.651800
 20
2.288300
 41
1.0
 42
1.0
 43
1.0
 50
0.0
  0
INSERT
  8
bottomstencil
  2
D91
 10
2.679300
 20
2.288300
 41
1.0
 42
1.0
 43
1.0
 50
0.0
  0
INSERT
  8
bottomstencil
  2
D91
 10
2.734400
 20
2.288300
 41
1.0
 42
1.0
 43
1.0
 50
0.0
  0
INSERT
  8
bottomstencil
  2
D91
 10
2.762000
 20
2.288300
 41
1.0
 42
1.0
 43
1.0
 50
0.0
  0
INSERT
  8
bottomstencil
  2
D91
 10
2.789600
 20
2.288300
 41
1.0
 42
1.0
 43
1.0
 50
0.0
  0
INSERT
  8
bottomstencil
  2
D91
 10
2.817100
 20
2.288300
 41
1.0
 42
1.0
 43
1.0
 50
0.0
  0
INSERT
  8
bottomstencil
  2
D91
 10
2.844700
 20
2.288300
 41
1.0
 42
1.0
 43
1.0
 50
0.0
  0
INSERT
  8
bottomstencil
  2
D91
 10
2.872200
 20
2.288300
 41
1.0
 42
1.0
 43
1.0
 50
0.0
  0
INSERT
  8
bottomstencil
  2
D91
 10
2.899800
 20
2.288300
 41
1.0
 42
1.0
 43
1.0
 50
0.0
  0
INSERT
  8
bottomstencil
  2
D91
 10
2.927300
 20
2.288300
 41
1.0
 42
1.0
 43
1.0
 50
0.0
  0
INSERT
  8
bottomstencil
  2
D91
 10
2.624200
 20
2.288300
 41
1.0
 42
1.0
 43
1.0
 50
0.0
  0
INSERT
  8
bottomstencil
  2
D91
 10
2.596600
 20
2.288300
 41
1.0
 42
1.0
 43
1.0
 50
0.0
  0
INSERT
  8
bottomstencil
  2
D92
 10
0.823000
 20
1.353200
 41
1.0
 42
1.0
 43
1.0
 50
0.0
  0
INSERT
  8
bottomstencil
  2
D92
 10
0.823000
 20
1.176100
 41
1.0
 42
1.0
 43
1.0
 50
0.0
  0
INSERT
  8
bottomstencil
  2
D93
 10
1.994300
 20
1.363100
 41
1.0
 42
1.0
 43
1.0
 50
0.0
  0
INSERT
  8
bottomstencil
  2
D93
 10
1.817100
 20
1.363100
 41
1.0
 42
1.0
 43
1.0
 50
0.0
  0
INSERT
  8
bottomstencil
  2
D93
 10
2.683300
 20
1.363100
 41
1.0
 42
1.0
 43
1.0
 50
0.0
  0
INSERT
  8
bottomstencil
  2
D93
 10
2.506100
 20
1.363100
 41
1.0
 42
1.0
 43
1.0
 50
0.0
  0
INSERT
  8
bottomstencil
  2
D93
 10
1.502200
 20
1.520600
 41
1.0
 42
1.0
 43
1.0
 50
0.0
  0
INSERT
  8
bottomstencil
  2
D93
 10
1.325000
 20
1.520600
 41
1.0
 42
1.0
 43
1.0
 50
0.0
  0
INSERT
  8
bottomstencil
  2
D94
 10
3.619000
 20
2.106000
 41
1.0
 42
1.0
 43
1.0
 50
0.0
  0
INSERT
  8
bottomstencil
  2
D94
 10
3.659000
 20
2.106000
 41
1.0
 42
1.0
 43
1.0
 50
0.0
  0
INSERT
  8
bottomstencil
  2
D94
 10
3.619000
 20
2.146000
 41
1.0
 42
1.0
 43
1.0
 50
0.0
  0
INSERT
  8
bottomstencil
  2
D94
 10
3.659000
 20
2.146000
 41
1.0
 42
1.0
 43
1.0
 50
0.0
  0
INSERT
  8
bottomstencil
  2
D94
 10
3.859000
 20
1.776000
 41
1.0
 42
1.0
 43
1.0
 50
0.0
  0
INSERT
  8
bottomstencil
  2
D94
 10
3.819000
 20
1.776000
 41
1.0
 42
1.0
 43
1.0
 50
0.0
  0
INSERT
  8
bottomstencil
  2
D95
 10
4.150700
 20
0.940400
 41
1.0
 42
1.0
 43
1.0
 50
0.0
  0
INSERT
  8
bottomstencil
  2
D95
 10
4.107300
 20
0.940400
 41
1.0
 42
1.0
 43
1.0
 50
0.0
  0
INSERT
  8
bottomstencil
  2
D96
 10
4.150700
 20
0.991600
 41
1.0
 42
1.0
 43
1.0
 50
0.0
  0
INSERT
  8
bottomstencil
  2
D96
 10
4.107300
 20
0.991600
 41
1.0
 42
1.0
 43
1.0
 50
0.0
  0
ENDSEC
  0
EOF
