  0
SECTION
  2
HEADER
  9
$EXTMIN
 10
-0.123000
 20
-0.123000
  9
$EXTMAX
 10
5.035000
 20
5.006000
  9
$LIMMIN
 10
-0.123000
 20
-0.123000
  9
$LIMMAX
 10
5.035000
 20
5.006000
  9
$FILLMODE
 70
  1
  0
ENDSEC
  0
SECTION
  2
TABLES
  0
TABLE
  2
LTYPE
 70
  1
  0
LTYPE
  2
CONTINUOUS
 70
 64
  3
Solid line
 72
 65
 73
  0
 40
0.0
  0
ENDTAB
  0
TABLE
  2
LAYER
 70
 1
  0
LAYER
  2
0
 70
  0
 62
7
  6
CONTINUOUS
  0
LAYER
  2
film1
 70
  0
 62
1
  6
CONTINUOUS
  0
ENDTAB
  0
TABLE
  2
STYLE
 70
  1
  0
STYLE
  2
STANDARD
 70
  0
 40
0.0
 41
1.0
 50
0.0
 71
  0
 42
0.2
  3
txt
  4

  0
ENDTAB
  0
ENDSEC
  0
SECTION
  2
BLOCKS
  0
BLOCK
  8
0
  2
D10
 70
64
 10
0.0
 20
0.0
  3
D10
  0
POLYLINE
  8
0
 66
1
 10
0.0
 20
0.0
 40
0.011800
 41
0.011800
  0
VERTEX
  8
0
 10
-0.029550
 20
0.000000
  0
VERTEX
  8
0
 10
0.029550
 20
0.000000
  0
SEQEND
  8
0
  0
POLYLINE
  8
0
 66
1
 10
0.0
 20
0.0
 70
1
 40
0.005900
 41
0.005900
  0
VERTEX
  8
0
 10
-0.032500
 20
0.000000
 42
1.0
  0
VERTEX
  8
0
 10
-0.026600
 20
0.000000
 42
1.0
  0
SEQEND
  8
0
  0
POLYLINE
  8
0
 66
1
 10
0.0
 20
0.0
 70
1
 40
0.005900
 41
0.005900
  0
VERTEX
  8
0
 10
0.026600
 20
0.000000
 42
1.0
  0
VERTEX
  8
0
 10
0.032500
 20
0.000000
 42
1.0
  0
SEQEND
  8
0
 0
ENDBLK
  8
0
  0
BLOCK
  8
0
  2
D11
 70
64
 10
0.0
 20
0.0
  3
D11
  0
POLYLINE
  8
0
 66
1
 10
0.0
 20
0.0
 40
0.011800
 41
0.011800
  0
VERTEX
  8
0
 10
0.000000
 20
-0.029550
  0
VERTEX
  8
0
 10
0.000000
 20
0.029550
  0
SEQEND
  8
0
  0
POLYLINE
  8
0
 66
1
 10
0.0
 20
0.0
 70
1
 40
0.005900
 41
0.005900
  0
VERTEX
  8
0
 10
-0.002950
 20
-0.029550
 42
1.0
  0
VERTEX
  8
0
 10
0.002950
 20
-0.029550
 42
1.0
  0
SEQEND
  8
0
  0
POLYLINE
  8
0
 66
1
 10
0.0
 20
0.0
 70
1
 40
0.005900
 41
0.005900
  0
VERTEX
  8
0
 10
-0.002950
 20
0.029550
 42
1.0
  0
VERTEX
  8
0
 10
0.002950
 20
0.029550
 42
1.0
  0
SEQEND
  8
0
 0
ENDBLK
  8
0
  0
BLOCK
  8
0
  2
D12
 70
64
 10
0.0
 20
0.0
  3
D12
  0
POLYLINE
  8
0
 66
1
 10
0.0
 20
0.0
 40
0.078700
 41
0.078700
  0
VERTEX
  8
0
 10
-0.028550
 20
0.0
  0
VERTEX
  8
0
 10
0.028550
 20
0.0
  0
SEQEND
  8
0
 0
ENDBLK
  8
0
  0
BLOCK
  8
0
  2
D13
 70
64
 10
0.0
 20
0.0
  3
D13
  0
POLYLINE
  8
0
 66
1
 10
0.0
 20
0.0
 40
0.035400
 41
0.035400
  0
VERTEX
  8
0
 10
-0.028550
 20
0.0
  0
VERTEX
  8
0
 10
0.028550
 20
0.0
  0
SEQEND
  8
0
 0
ENDBLK
  8
0
  0
BLOCK
  8
0
  2
D14
 70
64
 10
0.0
 20
0.0
  3
D14
  0
POLYLINE
  8
0
 66
1
 10
0.0
 20
0.0
 40
0.059100
 41
0.059100
  0
VERTEX
  8
0
 10
-0.015750
 20
0.0
  0
VERTEX
  8
0
 10
0.015750
 20
0.0
  0
SEQEND
  8
0
 0
ENDBLK
  8
0
  0
BLOCK
  8
0
  2
D15
 70
64
 10
0.0
 20
0.0
  3
D15
  0
POLYLINE
  8
0
 66
1
 10
0.0
 20
0.0
 40
0.036000
 41
0.036000
  0
VERTEX
  8
0
 10
-0.025000
 20
0.0
  0
VERTEX
  8
0
 10
0.025000
 20
0.0
  0
SEQEND
  8
0
 0
ENDBLK
  8
0
  0
BLOCK
  8
0
  2
D16
 70
64
 10
0.0
 20
0.0
  3
D16
  0
POLYLINE
  8
0
 66
1
 10
0.0
 20
0.0
 40
0.036000
 41
0.036000
  0
VERTEX
  8
0
 10
-0.018000
 20
0.0
  0
VERTEX
  8
0
 10
0.018000
 20
0.0
  0
SEQEND
  8
0
 0
ENDBLK
  8
0
  0
BLOCK
  8
0
  2
D17
 70
64
 10
0.0
 20
0.0
  3
D17
  0
POLYLINE
  8
0
 66
1
 10
0.0
 20
0.0
 40
0.050000
 41
0.050000
  0
VERTEX
  8
0
 10
-0.018000
 20
0.0
  0
VERTEX
  8
0
 10
0.018000
 20
0.0
  0
SEQEND
  8
0
 0
ENDBLK
  8
0
  0
BLOCK
  8
0
  2
D18
 70
64
 10
0.0
 20
0.0
  3
D18
  0
POLYLINE
  8
0
 66
1
 10
0.0
 20
0.0
 40
0.036000
 41
0.036000
  0
VERTEX
  8
0
 10
-0.018000
 20
0.0
  0
VERTEX
  8
0
 10
0.018000
 20
0.0
  0
SEQEND
  8
0
 0
ENDBLK
  8
0
  0
BLOCK
  8
0
  2
D19
 70
64
 10
0.0
 20
0.0
  3
D19
  0
POLYLINE
  8
0
 66
1
 10
0.0
 20
0.0
 40
0.050000
 41
0.050000
  0
VERTEX
  8
0
 10
-0.010000
 20
0.0
  0
VERTEX
  8
0
 10
0.010000
 20
0.0
  0
SEQEND
  8
0
 0
ENDBLK
  8
0
  0
BLOCK
  8
0
  2
D20
 70
64
 10
0.0
 20
0.0
  3
D20
  0
POLYLINE
  8
0
 66
1
 10
0.0
 20
0.0
 40
0.039400
 41
0.039400
  0
VERTEX
  8
0
 10
0.000000
 20
-0.041300
  0
VERTEX
  8
0
 10
0.000000
 20
0.041300
  0
SEQEND
  8
0
  0
POLYLINE
  8
0
 66
1
 10
0.0
 20
0.0
 70
1
 40
0.019700
 41
0.019700
  0
VERTEX
  8
0
 10
-0.009850
 20
-0.041300
 42
1.0
  0
VERTEX
  8
0
 10
0.009850
 20
-0.041300
 42
1.0
  0
SEQEND
  8
0
  0
POLYLINE
  8
0
 66
1
 10
0.0
 20
0.0
 70
1
 40
0.019700
 41
0.019700
  0
VERTEX
  8
0
 10
-0.009850
 20
0.041300
 42
1.0
  0
VERTEX
  8
0
 10
0.009850
 20
0.041300
 42
1.0
  0
SEQEND
  8
0
 0
ENDBLK
  8
0
  0
BLOCK
  8
0
  2
D21
 70
64
 10
0.0
 20
0.0
  3
D21
  0
POLYLINE
  8
0
 66
1
 10
0.0
 20
0.0
 40
0.122000
 41
0.122000
  0
VERTEX
  8
0
 10
-0.019700
 20
0.0
  0
VERTEX
  8
0
 10
0.019700
 20
0.0
  0
SEQEND
  8
0
 0
ENDBLK
  8
0
  0
BLOCK
  8
0
  2
D22
 70
64
 10
0.0
 20
0.0
  3
D22
  0
POLYLINE
  8
0
 66
1
 10
0.0
 20
0.0
 40
0.025000
 41
0.025000
  0
VERTEX
  8
0
 10
-0.010000
 20
0.0
  0
VERTEX
  8
0
 10
0.010000
 20
0.0
  0
SEQEND
  8
0
 0
ENDBLK
  8
0
  0
BLOCK
  8
0
  2
D23
 70
64
 10
0.0
 20
0.0
  3
D23
  0
POLYLINE
  8
0
 66
1
 10
0.0
 20
0.0
 40
0.030000
 41
0.030000
  0
VERTEX
  8
0
 10
-0.015000
 20
0.0
  0
VERTEX
  8
0
 10
0.015000
 20
0.0
  0
SEQEND
  8
0
 0
ENDBLK
  8
0
  0
BLOCK
  8
0
  2
D24
 70
64
 10
0.0
 20
0.0
  3
D24
  0
POLYLINE
  8
0
 66
1
 10
0.0
 20
0.0
 40
0.016500
 41
0.016500
  0
VERTEX
  8
0
 10
-0.011800
 20
0.0
  0
VERTEX
  8
0
 10
0.011800
 20
0.0
  0
SEQEND
  8
0
 0
ENDBLK
  8
0
  0
BLOCK
  8
0
  2
D25
 70
64
 10
0.0
 20
0.0
  3
D25
  0
POLYLINE
  8
0
 66
1
 10
0.0
 20
0.0
 40
0.100000
 41
0.100000
  0
VERTEX
  8
0
 10
-0.030000
 20
0.0
  0
VERTEX
  8
0
 10
0.030000
 20
0.0
  0
SEQEND
  8
0
 0
ENDBLK
  8
0
  0
BLOCK
  8
0
  2
D26
 70
64
 10
0.0
 20
0.0
  3
D26
  0
POLYLINE
  8
0
 66
1
 10
0.0
 20
0.0
 40
0.060000
 41
0.060000
  0
VERTEX
  8
0
 10
-0.050000
 20
0.0
  0
VERTEX
  8
0
 10
0.050000
 20
0.0
  0
SEQEND
  8
0
 0
ENDBLK
  8
0
  0
BLOCK
  8
0
  2
D27
 70
64
 10
0.0
 20
0.0
  3
D27
  0
POLYLINE
  8
0
 66
1
 10
0.0
 20
0.0
 40
0.090600
 41
0.090600
  0
VERTEX
  8
0
 10
-0.009850
 20
0.0
  0
VERTEX
  8
0
 10
0.009850
 20
0.0
  0
SEQEND
  8
0
 0
ENDBLK
  8
0
  0
BLOCK
  8
0
  2
D28
 70
64
 10
0.0
 20
0.0
  3
D28
  0
POLYLINE
  8
0
 66
1
 10
0.0
 20
0.0
 40
0.078700
 41
0.078700
  0
VERTEX
  8
0
 10
-0.039350
 20
0.0
  0
VERTEX
  8
0
 10
0.039350
 20
0.0
  0
SEQEND
  8
0
 0
ENDBLK
  8
0
  0
BLOCK
  8
0
  2
D29
 70
64
 10
0.0
 20
0.0
  3
D29
  0
POLYLINE
  8
0
 66
1
 10
0.0
 20
0.0
 40
0.098400
 41
0.098400
  0
VERTEX
  8
0
 10
-0.039350
 20
0.0
  0
VERTEX
  8
0
 10
0.039350
 20
0.0
  0
SEQEND
  8
0
 0
ENDBLK
  8
0
  0
BLOCK
  8
0
  2
D30
 70
64
 10
0.0
 20
0.0
  3
D30
  0
POLYLINE
  8
0
 66
1
 10
0.0
 20
0.0
 70
1
 40
0.025000
 41
0.025000
  0
VERTEX
  8
0
 10
-0.012500
 20
0.0
 42
1.0
  0
VERTEX
  8
0
 10
0.012500
 20
0.0
 42
1.0
  0
SEQEND
  8
0
 0
ENDBLK
  8
0
  0
BLOCK
  8
0
  2
D31
 70
64
 10
0.0
 20
0.0
  3
D31
  0
POLYLINE
  8
0
 66
1
 10
0.0
 20
0.0
 40
0.086600
 41
0.086600
  0
VERTEX
  8
0
 10
-0.059050
 20
0.0
  0
VERTEX
  8
0
 10
0.059050
 20
0.0
  0
SEQEND
  8
0
 0
ENDBLK
  8
0
  0
BLOCK
  8
0
  2
D32
 70
64
 10
0.0
 20
0.0
  3
D32
  0
POLYLINE
  8
0
 66
1
 10
0.0
 20
0.0
 40
0.030000
 41
0.030000
  0
VERTEX
  8
0
 10
-0.015000
 20
0.0
  0
VERTEX
  8
0
 10
0.015000
 20
0.0
  0
SEQEND
  8
0
 0
ENDBLK
  8
0
  0
BLOCK
  8
0
  2
D33
 70
64
 10
0.0
 20
0.0
  3
D33
  0
POLYLINE
  8
0
 66
1
 10
0.0
 20
0.0
 40
0.118100
 41
0.118100
  0
VERTEX
  8
0
 10
-0.043300
 20
0.0
  0
VERTEX
  8
0
 10
0.043300
 20
0.0
  0
SEQEND
  8
0
 0
ENDBLK
  8
0
  0
BLOCK
  8
0
  2
D34
 70
64
 10
0.0
 20
0.0
  3
D34
  0
POLYLINE
  8
0
 66
1
 10
0.0
 20
0.0
 40
0.023600
 41
0.023600
  0
VERTEX
  8
0
 10
0.000000
 20
-0.031500
  0
VERTEX
  8
0
 10
0.000000
 20
0.031500
  0
SEQEND
  8
0
  0
POLYLINE
  8
0
 66
1
 10
0.0
 20
0.0
 70
1
 40
0.011800
 41
0.011800
  0
VERTEX
  8
0
 10
-0.005900
 20
-0.031500
 42
1.0
  0
VERTEX
  8
0
 10
0.005900
 20
-0.031500
 42
1.0
  0
SEQEND
  8
0
  0
POLYLINE
  8
0
 66
1
 10
0.0
 20
0.0
 70
1
 40
0.011800
 41
0.011800
  0
VERTEX
  8
0
 10
-0.005900
 20
0.031500
 42
1.0
  0
VERTEX
  8
0
 10
0.005900
 20
0.031500
 42
1.0
  0
SEQEND
  8
0
 0
ENDBLK
  8
0
  0
BLOCK
  8
0
  2
D35
 70
64
 10
0.0
 20
0.0
  3
D35
  0
POLYLINE
  8
0
 66
1
 10
0.0
 20
0.0
 40
0.079000
 41
0.079000
  0
VERTEX
  8
0
 10
-0.029500
 20
0.0
  0
VERTEX
  8
0
 10
0.029500
 20
0.0
  0
SEQEND
  8
0
 0
ENDBLK
  8
0
  0
BLOCK
  8
0
  2
D36
 70
64
 10
0.0
 20
0.0
  3
D36
  0
POLYLINE
  8
0
 66
1
 10
0.0
 20
0.0
 40
0.079000
 41
0.079000
  0
VERTEX
  8
0
 10
-0.075000
 20
0.0
  0
VERTEX
  8
0
 10
0.075000
 20
0.0
  0
SEQEND
  8
0
 0
ENDBLK
  8
0
  0
BLOCK
  8
0
  2
D37
 70
64
 10
0.0
 20
0.0
  3
D37
  0
POLYLINE
  8
0
 66
1
 10
0.0
 20
0.0
 40
0.039400
 41
0.039400
  0
VERTEX
  8
0
 10
-0.041300
 20
0.000000
  0
VERTEX
  8
0
 10
0.041300
 20
0.000000
  0
SEQEND
  8
0
  0
POLYLINE
  8
0
 66
1
 10
0.0
 20
0.0
 70
1
 40
0.019700
 41
0.019700
  0
VERTEX
  8
0
 10
-0.051150
 20
0.000000
 42
1.0
  0
VERTEX
  8
0
 10
-0.031450
 20
0.000000
 42
1.0
  0
SEQEND
  8
0
  0
POLYLINE
  8
0
 66
1
 10
0.0
 20
0.0
 70
1
 40
0.019700
 41
0.019700
  0
VERTEX
  8
0
 10
0.031450
 20
0.000000
 42
1.0
  0
VERTEX
  8
0
 10
0.051150
 20
0.000000
 42
1.0
  0
SEQEND
  8
0
 0
ENDBLK
  8
0
  0
BLOCK
  8
0
  2
D38
 70
64
 10
0.0
 20
0.0
  3
D38
  0
POLYLINE
  8
0
 66
1
 10
0.0
 20
0.0
 40
0.039400
 41
0.039400
  0
VERTEX
  8
0
 10
-0.061000
 20
0.0
  0
VERTEX
  8
0
 10
0.061000
 20
0.0
  0
SEQEND
  8
0
 0
ENDBLK
  8
0
  0
BLOCK
  8
0
  2
D39
 70
64
 10
0.0
 20
0.0
  3
D39
  0
POLYLINE
  8
0
 66
1
 10
0.0
 20
0.0
 40
0.051200
 41
0.051200
  0
VERTEX
  8
0
 10
-0.039350
 20
0.0
  0
VERTEX
  8
0
 10
0.039350
 20
0.0
  0
SEQEND
  8
0
 0
ENDBLK
  8
0
  0
BLOCK
  8
0
  2
D40
 70
64
 10
0.0
 20
0.0
  3
D40
  0
POLYLINE
  8
0
 66
1
 10
0.0
 20
0.0
 40
0
 41
0
 70
1
  0
VERTEX
  8
0
 10
-0.026500
 20
-0.025600
 42
0
  0
VERTEX
  8
0
 10
0.026500
 20
-0.025600
 42
0
  0
VERTEX
  8
0
 10
0.039300
 20
-0.012800
 42
0
  0
VERTEX
  8
0
 10
0.039300
 20
0.012800
 42
0
  0
VERTEX
  8
0
 10
0.026500
 20
0.025600
 42
0
  0
VERTEX
  8
0
 10
-0.026500
 20
0.025600
 42
0
  0
VERTEX
  8
0
 10
-0.039300
 20
0.012800
 42
0
  0
VERTEX
  8
0
 10
-0.039300
 20
-0.012800
 42
0
  0
SEQEND
  8
0
  0
CIRCLE
  8
0
 10
-0.026500
 20
-0.012800
 40
0.012800
  0
CIRCLE
  8
0
 10
0.026500
 20
-0.012800
 40
0.012800
  0
CIRCLE
  8
0
 10
0.026500
 20
0.012800
 40
0.012800
  0
CIRCLE
  8
0
 10
-0.026500
 20
0.012800
 40
0.012800
 0
ENDBLK
  8
0
  0
BLOCK
  8
0
  2
D41
 70
64
 10
0.0
 20
0.0
  3
D41
  0
POLYLINE
  8
0
 66
1
 10
0.0
 20
0.0
 70
1
 40
0.020000
 41
0.020000
  0
VERTEX
  8
0
 10
-0.010000
 20
0.0
 42
1.0
  0
VERTEX
  8
0
 10
0.010000
 20
0.0
 42
1.0
  0
SEQEND
  8
0
 0
ENDBLK
  8
0
  0
BLOCK
  8
0
  2
D42
 70
64
 10
0.0
 20
0.0
  3
D42
  0
POLYLINE
  8
0
 66
1
 10
0.0
 20
0.0
 70
1
 40
0.005000
 41
0.005000
  0
VERTEX
  8
0
 10
-0.002500
 20
0.0
 42
1.0
  0
VERTEX
  8
0
 10
0.002500
 20
0.0
 42
1.0
  0
SEQEND
  8
0
 0
ENDBLK
  8
0
  0
BLOCK
  8
0
  2
D43
 70
64
 10
0.0
 20
0.0
  3
D43
  0
POLYLINE
  8
0
 66
1
 10
0.0
 20
0.0
 70
1
 40
0.007500
 41
0.007500
  0
VERTEX
  8
0
 10
-0.003750
 20
0.0
 42
1.0
  0
VERTEX
  8
0
 10
0.003750
 20
0.0
 42
1.0
  0
SEQEND
  8
0
 0
ENDBLK
  8
0
  0
BLOCK
  8
0
  2
D44
 70
64
 10
0.0
 20
0.0
  3
D44
  0
POLYLINE
  8
0
 66
1
 10
0.0
 20
0.0
 70
1
 40
0.006000
 41
0.006000
  0
VERTEX
  8
0
 10
-0.003000
 20
0.0
 42
1.0
  0
VERTEX
  8
0
 10
0.003000
 20
0.0
 42
1.0
  0
SEQEND
  8
0
 0
ENDBLK
  8
0
  0
BLOCK
  8
0
  2
D45
 70
64
 10
0.0
 20
0.0
  3
D45
  0
POLYLINE
  8
0
 66
1
 10
0.0
 20
0.0
 70
1
 40
0.040000
 41
0.040000
  0
VERTEX
  8
0
 10
-0.020000
 20
0.0
 42
1.0
  0
VERTEX
  8
0
 10
0.020000
 20
0.0
 42
1.0
  0
SEQEND
  8
0
 0
ENDBLK
  8
0
  0
BLOCK
  8
0
  2
D46
 70
64
 10
0.0
 20
0.0
  3
D46
  0
POLYLINE
  8
0
 66
1
 10
0.0
 20
0.0
 70
1
 40
0.050000
 41
0.050000
  0
VERTEX
  8
0
 10
-0.025000
 20
0.0
 42
1.0
  0
VERTEX
  8
0
 10
0.025000
 20
0.0
 42
1.0
  0
SEQEND
  8
0
 0
ENDBLK
  8
0
  0
BLOCK
  8
0
  2
D47
 70
64
 10
0.0
 20
0.0
  3
D47
  0
POLYLINE
  8
0
 66
1
 10
0.0
 20
0.0
 70
1
 40
0.010000
 41
0.010000
  0
VERTEX
  8
0
 10
-0.005000
 20
0.0
 42
1.0
  0
VERTEX
  8
0
 10
0.005000
 20
0.0
 42
1.0
  0
SEQEND
  8
0
 0
ENDBLK
  8
0
  0
BLOCK
  8
0
  2
D48
 70
64
 10
0.0
 20
0.0
  3
D48
  0
POLYLINE
  8
0
 66
1
 10
0.0
 20
0.0
 70
1
 40
0.015000
 41
0.015000
  0
VERTEX
  8
0
 10
-0.007500
 20
0.0
 42
1.0
  0
VERTEX
  8
0
 10
0.007500
 20
0.0
 42
1.0
  0
SEQEND
  8
0
 0
ENDBLK
  8
0
  0
BLOCK
  8
0
  2
D49
 70
64
 10
0.0
 20
0.0
  3
D49
  0
POLYLINE
  8
0
 66
1
 10
0.0
 20
0.0
 70
1
 40
0.035000
 41
0.035000
  0
VERTEX
  8
0
 10
-0.017500
 20
0.0
 42
1.0
  0
VERTEX
  8
0
 10
0.017500
 20
0.0
 42
1.0
  0
SEQEND
  8
0
 0
ENDBLK
  8
0
  0
BLOCK
  8
0
  2
D50
 70
64
 10
0.0
 20
0.0
  3
D50
  0
POLYLINE
  8
0
 66
1
 10
0.0
 20
0.0
 70
1
 40
0.025000
 41
0.025000
  0
VERTEX
  8
0
 10
-0.012500
 20
0.0
 42
1.0
  0
VERTEX
  8
0
 10
0.012500
 20
0.0
 42
1.0
  0
SEQEND
  8
0
 0
ENDBLK
  8
0
  0
BLOCK
  8
0
  2
D51
 70
64
 10
0.0
 20
0.0
  3
D51
  0
POLYLINE
  8
0
 66
1
 10
0.0
 20
0.0
 70
1
 40
0.012500
 41
0.012500
  0
VERTEX
  8
0
 10
-0.006250
 20
0.0
 42
1.0
  0
VERTEX
  8
0
 10
0.006250
 20
0.0
 42
1.0
  0
SEQEND
  8
0
 0
ENDBLK
  8
0
  0
BLOCK
  8
0
  2
D52
 70
64
 10
0.0
 20
0.0
  3
D52
  0
POLYLINE
  8
0
 66
1
 10
0.0
 20
0.0
 70
1
 40
0.030000
 41
0.030000
  0
VERTEX
  8
0
 10
-0.015000
 20
0.0
 42
1.0
  0
VERTEX
  8
0
 10
0.015000
 20
0.0
 42
1.0
  0
SEQEND
  8
0
 0
ENDBLK
  8
0
  0
BLOCK
  8
0
  2
D53
 70
64
 10
0.0
 20
0.0
  3
D53
  0
POLYLINE
  8
0
 66
1
 10
0.0
 20
0.0
 40
0.295300
 41
0.295300
  0
VERTEX
  8
0
 10
-0.216550
 20
0.0
  0
VERTEX
  8
0
 10
0.216550
 20
0.0
  0
SEQEND
  8
0
 0
ENDBLK
  8
0
  0
BLOCK
  8
0
  2
D54
 70
64
 10
0.0
 20
0.0
  3
D54
  0
POLYLINE
  8
0
 66
1
 10
0.0
 20
0.0
 40
0.216500
 41
0.216500
  0
VERTEX
  8
0
 10
-0.118100
 20
0.0
  0
VERTEX
  8
0
 10
0.118100
 20
0.0
  0
SEQEND
  8
0
 0
ENDBLK
  8
0
  0
BLOCK
  8
0
  2
D55
 70
64
 10
0.0
 20
0.0
  3
D55
  0
POLYLINE
  8
0
 66
1
 10
0.0
 20
0.0
 40
0.295300
 41
0.295300
  0
VERTEX
  8
0
 10
-0.187000
 20
0.0
  0
VERTEX
  8
0
 10
0.187000
 20
0.0
  0
SEQEND
  8
0
 0
ENDBLK
  8
0
  0
BLOCK
  8
0
  2
D56
 70
64
 10
0.0
 20
0.0
  3
D56
  0
POLYLINE
  8
0
 66
1
 10
0.0
 20
0.0
 40
0.098400
 41
0.098400
  0
VERTEX
  8
0
 10
-0.068900
 20
0.0
  0
VERTEX
  8
0
 10
0.068900
 20
0.0
  0
SEQEND
  8
0
 0
ENDBLK
  8
0
  0
BLOCK
  8
0
  2
D57
 70
64
 10
0.0
 20
0.0
  3
D57
  0
POLYLINE
  8
0
 66
1
 10
0.0
 20
0.0
 40
0.137800
 41
0.137800
  0
VERTEX
  8
0
 10
-0.265750
 20
0.0
  0
VERTEX
  8
0
 10
0.265750
 20
0.0
  0
SEQEND
  8
0
 0
ENDBLK
  8
0
  0
BLOCK
  8
0
  2
D58
 70
64
 10
0.0
 20
0.0
  3
D58
  0
POLYLINE
  8
0
 66
1
 10
0.0
 20
0.0
 40
0.078700
 41
0.078700
  0
VERTEX
  8
0
 10
-0.029550
 20
0.0
  0
VERTEX
  8
0
 10
0.029550
 20
0.0
  0
SEQEND
  8
0
 0
ENDBLK
  8
0
  0
BLOCK
  8
0
  2
D59
 70
64
 10
0.0
 20
0.0
  3
D59
  0
POLYLINE
  8
0
 66
1
 10
0.0
 20
0.0
 40
0.080000
 41
0.080000
  0
VERTEX
  8
0
 10
-0.040000
 20
0.0
  0
VERTEX
  8
0
 10
0.040000
 20
0.0
  0
SEQEND
  8
0
 0
ENDBLK
  8
0
  0
BLOCK
  8
0
  2
D60
 70
64
 10
0.0
 20
0.0
  3
D60
  0
POLYLINE
  8
0
 66
1
 10
0.0
 20
0.0
 40
0.309000
 41
0.309000
  0
VERTEX
  8
0
 10
-0.125500
 20
0.0
  0
VERTEX
  8
0
 10
0.125500
 20
0.0
  0
SEQEND
  8
0
 0
ENDBLK
  8
0
  0
BLOCK
  8
0
  2
D61
 70
64
 10
0.0
 20
0.0
  3
D61
  0
POLYLINE
  8
0
 66
1
 10
0.0
 20
0.0
 40
0.070000
 41
0.070000
  0
VERTEX
  8
0
 10
-0.035000
 20
0.0
  0
VERTEX
  8
0
 10
0.035000
 20
0.0
  0
SEQEND
  8
0
 0
ENDBLK
  8
0
  0
BLOCK
  8
0
  2
D62
 70
64
 10
0.0
 20
0.0
  3
D62
  0
POLYLINE
  8
0
 66
1
 10
0.0
 20
0.0
 70
1
 40
0.035000
 41
0.035000
  0
VERTEX
  8
0
 10
-0.017500
 20
0.0
 42
1.0
  0
VERTEX
  8
0
 10
0.017500
 20
0.0
 42
1.0
  0
SEQEND
  8
0
 0
ENDBLK
  8
0
  0
BLOCK
  8
0
  2
D63
 70
64
 10
0.0
 20
0.0
  3
D63
  0
POLYLINE
  8
0
 66
1
 10
0.0
 20
0.0
 70
1
 40
0.029550
 41
0.029550
  0
VERTEX
  8
0
 10
-0.014775
 20
0.0
 42
1.0
  0
VERTEX
  8
0
 10
0.014775
 20
0.0
 42
1.0
  0
SEQEND
  8
0
 0
ENDBLK
  8
0
  0
BLOCK
  8
0
  2
D64
 70
64
 10
0.0
 20
0.0
  3
D64
  0
POLYLINE
  8
0
 66
1
 10
0.0
 20
0.0
 70
1
 40
0.045000
 41
0.045000
  0
VERTEX
  8
0
 10
-0.022500
 20
0.0
 42
1.0
  0
VERTEX
  8
0
 10
0.022500
 20
0.0
 42
1.0
  0
SEQEND
  8
0
 0
ENDBLK
  8
0
  0
BLOCK
  8
0
  2
D65
 70
64
 10
0.0
 20
0.0
  3
D65
  0
POLYLINE
  8
0
 66
1
 10
0.0
 20
0.0
 70
1
 40
0.017700
 41
0.017700
  0
VERTEX
  8
0
 10
-0.008850
 20
0.0
 42
1.0
  0
VERTEX
  8
0
 10
0.008850
 20
0.0
 42
1.0
  0
SEQEND
  8
0
 0
ENDBLK
  8
0
  0
BLOCK
  8
0
  2
D66
 70
64
 10
0.0
 20
0.0
  3
D66
  0
POLYLINE
  8
0
 66
1
 10
0.0
 20
0.0
 70
1
 40
0.050000
 41
0.050000
  0
VERTEX
  8
0
 10
-0.025000
 20
0.0
 42
1.0
  0
VERTEX
  8
0
 10
0.025000
 20
0.0
 42
1.0
  0
SEQEND
  8
0
 0
ENDBLK
  8
0
  0
BLOCK
  8
0
  2
D67
 70
64
 10
0.0
 20
0.0
  3
D67
  0
POLYLINE
  8
0
 66
1
 10
0.0
 20
0.0
 40
0.070000
 41
0.070000
  0
VERTEX
  8
0
 10
-0.035000
 20
0.0
  0
VERTEX
  8
0
 10
0.035000
 20
0.0
  0
SEQEND
  8
0
 0
ENDBLK
  8
0
  0
BLOCK
  8
0
  2
D68
 70
64
 10
0.0
 20
0.0
  3
D68
  0
POLYLINE
  8
0
 66
1
 10
0.0
 20
0.0
 70
1
 40
0.030000
 41
0.030000
  0
VERTEX
  8
0
 10
-0.015000
 20
0.0
 42
1.0
  0
VERTEX
  8
0
 10
0.015000
 20
0.0
 42
1.0
  0
SEQEND
  8
0
 0
ENDBLK
  8
0
  0
BLOCK
  8
0
  2
D69
 70
64
 10
0.0
 20
0.0
  3
D69
  0
POLYLINE
  8
0
 66
1
 10
0.0
 20
0.0
 70
1
 40
0.125000
 41
0.125000
  0
VERTEX
  8
0
 10
-0.062500
 20
0.0
 42
1.0
  0
VERTEX
  8
0
 10
0.062500
 20
0.0
 42
1.0
  0
SEQEND
  8
0
 0
ENDBLK
  8
0
  0
BLOCK
  8
0
  2
D70
 70
64
 10
0.0
 20
0.0
  3
D70
  0
POLYLINE
  8
0
 66
1
 10
0.0
 20
0.0
 70
1
 40
0.037850
 41
0.037850
  0
VERTEX
  8
0
 10
-0.018925
 20
0.0
 42
1.0
  0
VERTEX
  8
0
 10
0.018925
 20
0.0
 42
1.0
  0
SEQEND
  8
0
 0
ENDBLK
  8
0
  0
BLOCK
  8
0
  2
D71
 70
64
 10
0.0
 20
0.0
  3
D71
  0
POLYLINE
  8
0
 66
1
 10
0.0
 20
0.0
 70
1
 40
0.025600
 41
0.025600
  0
VERTEX
  8
0
 10
-0.012800
 20
0.0
 42
1.0
  0
VERTEX
  8
0
 10
0.012800
 20
0.0
 42
1.0
  0
SEQEND
  8
0
 0
ENDBLK
  8
0
  0
BLOCK
  8
0
  2
D72
 70
64
 10
0.0
 20
0.0
  3
D72
  0
POLYLINE
  8
0
 66
1
 10
0.0
 20
0.0
 70
1
 40
0.013800
 41
0.013800
  0
VERTEX
  8
0
 10
-0.006900
 20
0.0
 42
1.0
  0
VERTEX
  8
0
 10
0.006900
 20
0.0
 42
1.0
  0
SEQEND
  8
0
 0
ENDBLK
  8
0
  0
BLOCK
  8
0
  2
D73
 70
64
 10
0.0
 20
0.0
  3
D73
  0
POLYLINE
  8
0
 66
1
 10
0.0
 20
0.0
 40
0.049200
 41
0.049200
  0
VERTEX
  8
0
 10
-0.021650
 20
0.0
  0
VERTEX
  8
0
 10
0.021650
 20
0.0
  0
SEQEND
  8
0
 0
ENDBLK
  8
0
  0
BLOCK
  8
0
  2
D74
 70
64
 10
0.0
 20
0.0
  3
D74
  0
POLYLINE
  8
0
 66
1
 10
0.0
 20
0.0
 40
0.024000
 41
0.024000
  0
VERTEX
  8
0
 10
-0.028000
 20
0.000000
  0
VERTEX
  8
0
 10
0.028000
 20
0.000000
  0
SEQEND
  8
0
  0
POLYLINE
  8
0
 66
1
 10
0.0
 20
0.0
 70
1
 40
0.012000
 41
0.012000
  0
VERTEX
  8
0
 10
-0.034000
 20
0.000000
 42
1.0
  0
VERTEX
  8
0
 10
-0.022000
 20
0.000000
 42
1.0
  0
SEQEND
  8
0
  0
POLYLINE
  8
0
 66
1
 10
0.0
 20
0.0
 70
1
 40
0.012000
 41
0.012000
  0
VERTEX
  8
0
 10
0.022000
 20
0.000000
 42
1.0
  0
VERTEX
  8
0
 10
0.034000
 20
0.000000
 42
1.0
  0
SEQEND
  8
0
 0
ENDBLK
  8
0
  0
BLOCK
  8
0
  2
D75
 70
64
 10
0.0
 20
0.0
  3
D75
  0
POLYLINE
  8
0
 66
1
 10
0.0
 20
0.0
 40
0.024000
 41
0.024000
  0
VERTEX
  8
0
 10
-0.040000
 20
0.0
  0
VERTEX
  8
0
 10
0.040000
 20
0.0
  0
SEQEND
  8
0
 0
ENDBLK
  8
0
  0
BLOCK
  8
0
  2
D76
 70
64
 10
0.0
 20
0.0
  3
D76
  0
POLYLINE
  8
0
 66
1
 10
0.0
 20
0.0
 40
0.024000
 41
0.024000
  0
VERTEX
  8
0
 10
0.000000
 20
-0.028000
  0
VERTEX
  8
0
 10
0.000000
 20
0.028000
  0
SEQEND
  8
0
  0
POLYLINE
  8
0
 66
1
 10
0.0
 20
0.0
 70
1
 40
0.012000
 41
0.012000
  0
VERTEX
  8
0
 10
-0.006000
 20
-0.028000
 42
1.0
  0
VERTEX
  8
0
 10
0.006000
 20
-0.028000
 42
1.0
  0
SEQEND
  8
0
  0
POLYLINE
  8
0
 66
1
 10
0.0
 20
0.0
 70
1
 40
0.012000
 41
0.012000
  0
VERTEX
  8
0
 10
-0.006000
 20
0.028000
 42
1.0
  0
VERTEX
  8
0
 10
0.006000
 20
0.028000
 42
1.0
  0
SEQEND
  8
0
 0
ENDBLK
  8
0
  0
BLOCK
  8
0
  2
D77
 70
64
 10
0.0
 20
0.0
  3
D77
  0
POLYLINE
  8
0
 66
1
 10
0.0
 20
0.0
 40
0.080000
 41
0.080000
  0
VERTEX
  8
0
 10
-0.012000
 20
0.0
  0
VERTEX
  8
0
 10
0.012000
 20
0.0
  0
SEQEND
  8
0
 0
ENDBLK
  8
0
  0
BLOCK
  8
0
  2
D78
 70
64
 10
0.0
 20
0.0
  3
D78
  0
POLYLINE
  8
0
 66
1
 10
0.0
 20
0.0
 40
0.017700
 41
0.017700
  0
VERTEX
  8
0
 10
-0.032500
 20
0.000000
  0
VERTEX
  8
0
 10
0.032500
 20
0.000000
  0
SEQEND
  8
0
  0
POLYLINE
  8
0
 66
1
 10
0.0
 20
0.0
 70
1
 40
0.008850
 41
0.008850
  0
VERTEX
  8
0
 10
-0.036925
 20
0.000000
 42
1.0
  0
VERTEX
  8
0
 10
-0.028075
 20
0.000000
 42
1.0
  0
SEQEND
  8
0
  0
POLYLINE
  8
0
 66
1
 10
0.0
 20
0.0
 70
1
 40
0.008850
 41
0.008850
  0
VERTEX
  8
0
 10
0.028075
 20
0.000000
 42
1.0
  0
VERTEX
  8
0
 10
0.036925
 20
0.000000
 42
1.0
  0
SEQEND
  8
0
 0
ENDBLK
  8
0
  0
BLOCK
  8
0
  2
D79
 70
64
 10
0.0
 20
0.0
  3
D79
  0
POLYLINE
  8
0
 66
1
 10
0.0
 20
0.0
 40
0.050000
 41
0.050000
  0
VERTEX
  8
0
 10
0.000000
 20
-0.025000
  0
VERTEX
  8
0
 10
0.000000
 20
0.025000
  0
SEQEND
  8
0
  0
POLYLINE
  8
0
 66
1
 10
0.0
 20
0.0
 70
1
 40
0.025000
 41
0.025000
  0
VERTEX
  8
0
 10
-0.012500
 20
-0.025000
 42
1.0
  0
VERTEX
  8
0
 10
0.012500
 20
-0.025000
 42
1.0
  0
SEQEND
  8
0
  0
POLYLINE
  8
0
 66
1
 10
0.0
 20
0.0
 70
1
 40
0.025000
 41
0.025000
  0
VERTEX
  8
0
 10
-0.012500
 20
0.025000
 42
1.0
  0
VERTEX
  8
0
 10
0.012500
 20
0.025000
 42
1.0
  0
SEQEND
  8
0
 0
ENDBLK
  8
0
  0
BLOCK
  8
0
  2
D80
 70
64
 10
0.0
 20
0.0
  3
D80
  0
POLYLINE
  8
0
 66
1
 10
0.0
 20
0.0
 40
0.100000
 41
0.100000
  0
VERTEX
  8
0
 10
-0.025000
 20
0.0
  0
VERTEX
  8
0
 10
0.025000
 20
0.0
  0
SEQEND
  8
0
 0
ENDBLK
  8
0
  0
BLOCK
  8
0
  2
D81
 70
64
 10
0.0
 20
0.0
  3
D81
  0
POLYLINE
  8
0
 66
1
 10
0.0
 20
0.0
 40
0.050000
 41
0.050000
  0
VERTEX
  8
0
 10
-0.025000
 20
0.000000
  0
VERTEX
  8
0
 10
0.025000
 20
0.000000
  0
SEQEND
  8
0
  0
POLYLINE
  8
0
 66
1
 10
0.0
 20
0.0
 70
1
 40
0.025000
 41
0.025000
  0
VERTEX
  8
0
 10
-0.037500
 20
0.000000
 42
1.0
  0
VERTEX
  8
0
 10
-0.012500
 20
0.000000
 42
1.0
  0
SEQEND
  8
0
  0
POLYLINE
  8
0
 66
1
 10
0.0
 20
0.0
 70
1
 40
0.025000
 41
0.025000
  0
VERTEX
  8
0
 10
0.012500
 20
0.000000
 42
1.0
  0
VERTEX
  8
0
 10
0.037500
 20
0.000000
 42
1.0
  0
SEQEND
  8
0
 0
ENDBLK
  8
0
  0
BLOCK
  8
0
  2
D82
 70
64
 10
0.0
 20
0.0
  3
D82
  0
POLYLINE
  8
0
 66
1
 10
0.0
 20
0.0
 40
0.050000
 41
0.050000
  0
VERTEX
  8
0
 10
-0.050000
 20
0.0
  0
VERTEX
  8
0
 10
0.050000
 20
0.0
  0
SEQEND
  8
0
 0
ENDBLK
  8
0
  0
BLOCK
  8
0
  2
D83
 70
64
 10
0.0
 20
0.0
  3
D83
  0
POLYLINE
  8
0
 66
1
 10
0.0
 20
0.0
 40
0.050000
 41
0.050000
  0
VERTEX
  8
0
 10
-0.020000
 20
0.0
  0
VERTEX
  8
0
 10
0.020000
 20
0.0
  0
SEQEND
  8
0
 0
ENDBLK
  8
0
  0
BLOCK
  8
0
  2
D84
 70
64
 10
0.0
 20
0.0
  3
D84
  0
POLYLINE
  8
0
 66
1
 10
0.0
 20
0.0
 40
0.040000
 41
0.040000
  0
VERTEX
  8
0
 10
-0.025000
 20
0.0
  0
VERTEX
  8
0
 10
0.025000
 20
0.0
  0
SEQEND
  8
0
 0
ENDBLK
  8
0
  0
BLOCK
  8
0
  2
D85
 70
64
 10
0.0
 20
0.0
  3
D85
  0
POLYLINE
  8
0
 66
1
 10
0.0
 20
0.0
 40
0.043300
 41
0.043300
  0
VERTEX
  8
0
 10
-0.024600
 20
0.0
  0
VERTEX
  8
0
 10
0.024600
 20
0.0
  0
SEQEND
  8
0
 0
ENDBLK
  8
0
  0
BLOCK
  8
0
  2
D86
 70
64
 10
0.0
 20
0.0
  3
D86
  0
POLYLINE
  8
0
 66
1
 10
0.0
 20
0.0
 40
0.128000
 41
0.128000
  0
VERTEX
  8
0
 10
-0.064000
 20
0.0
  0
VERTEX
  8
0
 10
0.064000
 20
0.0
  0
SEQEND
  8
0
 0
ENDBLK
  8
0
  0
BLOCK
  8
0
  2
D87
 70
64
 10
0.0
 20
0.0
  3
D87
  0
POLYLINE
  8
0
 66
1
 10
0.0
 20
0.0
 40
0
 41
0
 70
1
  0
VERTEX
  8
0
 10
0.002400
 20
0.017700
 42
0
  0
VERTEX
  8
0
 10
-0.002400
 20
0.017700
 42
0
  0
VERTEX
  8
0
 10
-0.004900
 20
0.015200
 42
0
  0
VERTEX
  8
0
 10
-0.004900
 20
-0.015200
 42
0
  0
VERTEX
  8
0
 10
-0.002400
 20
-0.017700
 42
0
  0
VERTEX
  8
0
 10
0.002400
 20
-0.017700
 42
0
  0
VERTEX
  8
0
 10
0.004900
 20
-0.015200
 42
0
  0
VERTEX
  8
0
 10
0.004900
 20
0.015200
 42
0
  0
SEQEND
  8
0
  0
CIRCLE
  8
0
 10
0.002400
 20
0.015200
 40
0.002500
  0
CIRCLE
  8
0
 10
-0.002400
 20
0.015200
 40
0.002500
  0
CIRCLE
  8
0
 10
-0.002400
 20
-0.015200
 40
0.002500
  0
CIRCLE
  8
0
 10
0.002400
 20
-0.015200
 40
0.002500
 0
ENDBLK
  8
0
  0
BLOCK
  8
0
  2
D88
 70
64
 10
0.0
 20
0.0
  3
D88
  0
POLYLINE
  8
0
 66
1
 10
0.0
 20
0.0
 40
0.035400
 41
0.035400
  0
VERTEX
  8
0
 10
-0.004900
 20
0.0
  0
VERTEX
  8
0
 10
0.004900
 20
0.0
  0
SEQEND
  8
0
 0
ENDBLK
  8
0
  0
BLOCK
  8
0
  2
D89
 70
64
 10
0.0
 20
0.0
  3
D89
  0
POLYLINE
  8
0
 66
1
 10
0.0
 20
0.0
 40
0.009800
 41
0.009800
  0
VERTEX
  8
0
 10
-0.017700
 20
0.0
  0
VERTEX
  8
0
 10
0.017700
 20
0.0
  0
SEQEND
  8
0
 0
ENDBLK
  8
0
  0
BLOCK
  8
0
  2
D90
 70
64
 10
0.0
 20
0.0
  3
D90
  0
POLYLINE
  8
0
 66
1
 10
0.0
 20
0.0
 40
0.157500
 41
0.157500
  0
VERTEX
  8
0
 10
-0.007850
 20
0.0
  0
VERTEX
  8
0
 10
0.007850
 20
0.0
  0
SEQEND
  8
0
 0
ENDBLK
  8
0
  0
BLOCK
  8
0
  2
D91
 70
64
 10
0.0
 20
0.0
  3
D91
  0
POLYLINE
  8
0
 66
1
 10
0.0
 20
0.0
 40
0.015700
 41
0.015700
  0
VERTEX
  8
0
 10
0.000000
 20
-0.070900
  0
VERTEX
  8
0
 10
0.000000
 20
0.070900
  0
SEQEND
  8
0
  0
POLYLINE
  8
0
 66
1
 10
0.0
 20
0.0
 70
1
 40
0.007850
 41
0.007850
  0
VERTEX
  8
0
 10
-0.003925
 20
-0.070900
 42
1.0
  0
VERTEX
  8
0
 10
0.003925
 20
-0.070900
 42
1.0
  0
SEQEND
  8
0
  0
POLYLINE
  8
0
 66
1
 10
0.0
 20
0.0
 70
1
 40
0.007850
 41
0.007850
  0
VERTEX
  8
0
 10
-0.003925
 20
0.070900
 42
1.0
  0
VERTEX
  8
0
 10
0.003925
 20
0.070900
 42
1.0
  0
SEQEND
  8
0
 0
ENDBLK
  8
0
  0
BLOCK
  8
0
  2
D92
 70
64
 10
0.0
 20
0.0
  3
D92
  0
POLYLINE
  8
0
 66
1
 10
0.0
 20
0.0
 40
0.090600
 41
0.090600
  0
VERTEX
  8
0
 10
-0.045300
 20
0.0
  0
VERTEX
  8
0
 10
0.045300
 20
0.0
  0
SEQEND
  8
0
 0
ENDBLK
  8
0
  0
BLOCK
  8
0
  2
D93
 70
64
 10
0.0
 20
0.0
  3
D93
  0
POLYLINE
  8
0
 66
1
 10
0.0
 20
0.0
 40
0.090600
 41
0.090600
  0
VERTEX
  8
0
 10
-0.045300
 20
0.0
  0
VERTEX
  8
0
 10
0.045300
 20
0.0
  0
SEQEND
  8
0
 0
ENDBLK
  8
0
  0
BLOCK
  8
0
  2
D94
 70
64
 10
0.0
 20
0.0
  3
D94
  0
POLYLINE
  8
0
 66
1
 10
0.0
 20
0.0
 40
0.020000
 41
0.020000
  0
VERTEX
  8
0
 10
-0.012500
 20
0.0
  0
VERTEX
  8
0
 10
0.012500
 20
0.0
  0
SEQEND
  8
0
 0
ENDBLK
  8
0
  0
BLOCK
  8
0
  2
D95
 70
64
 10
0.0
 20
0.0
  3
D95
  0
POLYLINE
  8
0
 66
1
 10
0.0
 20
0.0
 40
0.027600
 41
0.027600
  0
VERTEX
  8
0
 10
-0.007850
 20
0.0
  0
VERTEX
  8
0
 10
0.007850
 20
0.0
  0
SEQEND
  8
0
 0
ENDBLK
  8
0
  0
BLOCK
  8
0
  2
D96
 70
64
 10
0.0
 20
0.0
  3
D96
  0
POLYLINE
  8
0
 66
1
 10
0.0
 20
0.0
 40
0.015700
 41
0.015700
  0
VERTEX
  8
0
 10
0.000000
 20
-0.005950
  0
VERTEX
  8
0
 10
0.000000
 20
0.005950
  0
SEQEND
  8
0
  0
POLYLINE
  8
0
 66
1
 10
0.0
 20
0.0
 70
1
 40
0.007850
 41
0.007850
  0
VERTEX
  8
0
 10
-0.003925
 20
-0.005950
 42
1.0
  0
VERTEX
  8
0
 10
0.003925
 20
-0.005950
 42
1.0
  0
SEQEND
  8
0
  0
POLYLINE
  8
0
 66
1
 10
0.0
 20
0.0
 70
1
 40
0.007850
 41
0.007850
  0
VERTEX
  8
0
 10
-0.003925
 20
0.005950
 42
1.0
  0
VERTEX
  8
0
 10
0.003925
 20
0.005950
 42
1.0
  0
SEQEND
  8
0
 0
ENDBLK
  8
0
  0
BLOCK
  8
0
  2
D97
 70
64
 10
0.0
 20
0.0
  3
D97
  0
POLYLINE
  8
0
 66
1
 10
0.0
 20
0.0
 40
0.354300
 41
0.354300
  0
VERTEX
  8
0
 10
-0.118100
 20
0.0
  0
VERTEX
  8
0
 10
0.118100
 20
0.0
  0
SEQEND
  8
0
 0
ENDBLK
  8
0
  0
BLOCK
  8
0
  2
D98
 70
64
 10
0.0
 20
0.0
  3
D98
  0
POLYLINE
  8
0
 66
1
 10
0.0
 20
0.0
 40
0.157500
 41
0.157500
  0
VERTEX
  8
0
 10
-0.265750
 20
0.0
  0
VERTEX
  8
0
 10
0.265750
 20
0.0
  0
SEQEND
  8
0
 0
ENDBLK
  8
0
  0
BLOCK
  8
0
  2
D99
 70
64
 10
0.0
 20
0.0
  3
D99
  0
POLYLINE
  8
0
 66
1
 10
0.0
 20
0.0
 70
1
 40
0.002000
 41
0.002000
  0
VERTEX
  8
0
 10
-0.001000
 20
0.0
 42
1.0
  0
VERTEX
  8
0
 10
0.001000
 20
0.0
 42
1.0
  0
SEQEND
  8
0
 0
ENDBLK
  8
0
  0
BLOCK
  8
0
  2
D100
 70
64
 10
0.0
 20
0.0
  3
D100
  0
POLYLINE
  8
0
 66
1
 10
0.0
 20
0.0
 70
1
 40
0.004900
 41
0.004900
  0
VERTEX
  8
0
 10
-0.002450
 20
0.0
 42
1.0
  0
VERTEX
  8
0
 10
0.002450
 20
0.0
 42
1.0
  0
SEQEND
  8
0
 0
ENDBLK
  8
0
  0
BLOCK
  8
0
  2
D101
 70
64
 10
0.0
 20
0.0
  3
D101
  0
POLYLINE
  8
0
 66
1
 10
0.0
 20
0.0
 70
1
 40
0.011800
 41
0.011800
  0
VERTEX
  8
0
 10
-0.005900
 20
0.0
 42
1.0
  0
VERTEX
  8
0
 10
0.005900
 20
0.0
 42
1.0
  0
SEQEND
  8
0
 0
ENDBLK
  8
0
  0
BLOCK
  8
0
  2
D102
 70
64
 10
0.0
 20
0.0
  3
D102
  0
POLYLINE
  8
0
 66
1
 10
0.0
 20
0.0
 70
1
 40
0.002500
 41
0.002500
  0
VERTEX
  8
0
 10
-0.001250
 20
0.0
 42
1.0
  0
VERTEX
  8
0
 10
0.001250
 20
0.0
 42
1.0
  0
SEQEND
  8
0
 0
ENDBLK
  8
0
  0
BLOCK
  8
0
  2
D103
 70
64
 10
0.0
 20
0.0
  3
D103
  0
POLYLINE
  8
0
 66
1
 10
0.0
 20
0.0
 70
1
 40
0.003950
 41
0.003950
  0
VERTEX
  8
0
 10
-0.001975
 20
0.0
 42
1.0
  0
VERTEX
  8
0
 10
0.001975
 20
0.0
 42
1.0
  0
SEQEND
  8
0
 0
ENDBLK
  8
0
  0
BLOCK
  8
0
  2
D104
 70
64
 10
0.0
 20
0.0
  3
D104
  0
POLYLINE
  8
0
 66
1
 10
0.0
 20
0.0
 70
1
 40
0.003000
 41
0.003000
  0
VERTEX
  8
0
 10
-0.001500
 20
0.0
 42
1.0
  0
VERTEX
  8
0
 10
0.001500
 20
0.0
 42
1.0
  0
SEQEND
  8
0
 0
ENDBLK
  8
0
  0
BLOCK
  8
0
  2
D105
 70
64
 10
0.0
 20
0.0
  3
D105
  0
POLYLINE
  8
0
 66
1
 10
0.0
 20
0.0
 70
1
 40
0.004000
 41
0.004000
  0
VERTEX
  8
0
 10
-0.002000
 20
0.0
 42
1.0
  0
VERTEX
  8
0
 10
0.002000
 20
0.0
 42
1.0
  0
SEQEND
  8
0
 0
ENDBLK
  8
0
  0
BLOCK
  8
0
  2
D106
 70
64
 10
0.0
 20
0.0
  3
D106
  0
POLYLINE
  8
0
 66
1
 10
0.0
 20
0.0
 70
1
 40
0.002950
 41
0.002950
  0
VERTEX
  8
0
 10
-0.001475
 20
0.0
 42
1.0
  0
VERTEX
  8
0
 10
0.001475
 20
0.0
 42
1.0
  0
SEQEND
  8
0
 0
ENDBLK
  8
0
  0
BLOCK
  8
0
  2
D107
 70
64
 10
0.0
 20
0.0
  3
D107
  0
POLYLINE
  8
0
 66
1
 10
0.0
 20
0.0
 40
0.030000
 41
0.030000
  0
VERTEX
  8
0
 10
-0.009850
 20
0.0
  0
VERTEX
  8
0
 10
0.009850
 20
0.0
  0
SEQEND
  8
0
 0
ENDBLK
  8
0
  0
BLOCK
  8
0
  2
D108
 70
64
 10
0.0
 20
0.0
  3
D108
  0
POLYLINE
  8
0
 66
1
 10
0.0
 20
0.0
 40
0.100000
 41
0.100000
  0
VERTEX
  8
0
 10
-0.049800
 20
0.0
  0
VERTEX
  8
0
 10
0.049800
 20
0.0
  0
SEQEND
  8
0
 0
ENDBLK
  8
0
  0
BLOCK
  8
0
  2
D109
 70
64
 10
0.0
 20
0.0
  3
D109
  0
POLYLINE
  8
0
 66
1
 10
0.0
 20
0.0
 40
0.099600
 41
0.099600
  0
VERTEX
  8
0
 10
-0.050000
 20
0.0
  0
VERTEX
  8
0
 10
0.050000
 20
0.0
  0
SEQEND
  8
0
 0
ENDBLK
  8
0
  0
BLOCK
  8
0
  2
D110
 70
64
 10
0.0
 20
0.0
  3
D110
  0
POLYLINE
  8
0
 66
1
 10
0.0
 20
0.0
 40
0.019800
 41
0.019800
  0
VERTEX
  8
0
 10
-0.029550
 20
0.000000
  0
VERTEX
  8
0
 10
0.029550
 20
0.000000
  0
SEQEND
  8
0
  0
POLYLINE
  8
0
 66
1
 10
0.0
 20
0.0
 70
1
 40
0.009900
 41
0.009900
  0
VERTEX
  8
0
 10
-0.034500
 20
0.000000
 42
1.0
  0
VERTEX
  8
0
 10
-0.024600
 20
0.000000
 42
1.0
  0
SEQEND
  8
0
  0
POLYLINE
  8
0
 66
1
 10
0.0
 20
0.0
 70
1
 40
0.009900
 41
0.009900
  0
VERTEX
  8
0
 10
0.024600
 20
0.000000
 42
1.0
  0
VERTEX
  8
0
 10
0.034500
 20
0.000000
 42
1.0
  0
SEQEND
  8
0
 0
ENDBLK
  8
0
  0
BLOCK
  8
0
  2
D111
 70
64
 10
0.0
 20
0.0
  3
D111
  0
POLYLINE
  8
0
 66
1
 10
0.0
 20
0.0
 40
0.019800
 41
0.019800
  0
VERTEX
  8
0
 10
0.000000
 20
-0.029550
  0
VERTEX
  8
0
 10
0.000000
 20
0.029550
  0
SEQEND
  8
0
  0
POLYLINE
  8
0
 66
1
 10
0.0
 20
0.0
 70
1
 40
0.009900
 41
0.009900
  0
VERTEX
  8
0
 10
-0.004950
 20
-0.029550
 42
1.0
  0
VERTEX
  8
0
 10
0.004950
 20
-0.029550
 42
1.0
  0
SEQEND
  8
0
  0
POLYLINE
  8
0
 66
1
 10
0.0
 20
0.0
 70
1
 40
0.009900
 41
0.009900
  0
VERTEX
  8
0
 10
-0.004950
 20
0.029550
 42
1.0
  0
VERTEX
  8
0
 10
0.004950
 20
0.029550
 42
1.0
  0
SEQEND
  8
0
 0
ENDBLK
  8
0
  0
BLOCK
  8
0
  2
D112
 70
64
 10
0.0
 20
0.0
  3
D112
  0
POLYLINE
  8
0
 66
1
 10
0.0
 20
0.0
 40
0.086700
 41
0.086700
  0
VERTEX
  8
0
 10
-0.032550
 20
0.0
  0
VERTEX
  8
0
 10
0.032550
 20
0.0
  0
SEQEND
  8
0
 0
ENDBLK
  8
0
  0
BLOCK
  8
0
  2
D113
 70
64
 10
0.0
 20
0.0
  3
D113
  0
POLYLINE
  8
0
 66
1
 10
0.0
 20
0.0
 40
0.043400
 41
0.043400
  0
VERTEX
  8
0
 10
-0.032550
 20
0.0
  0
VERTEX
  8
0
 10
0.032550
 20
0.0
  0
SEQEND
  8
0
 0
ENDBLK
  8
0
  0
BLOCK
  8
0
  2
D114
 70
64
 10
0.0
 20
0.0
  3
D114
  0
POLYLINE
  8
0
 66
1
 10
0.0
 20
0.0
 40
0.067100
 41
0.067100
  0
VERTEX
  8
0
 10
-0.019750
 20
0.0
  0
VERTEX
  8
0
 10
0.019750
 20
0.0
  0
SEQEND
  8
0
 0
ENDBLK
  8
0
  0
BLOCK
  8
0
  2
D115
 70
64
 10
0.0
 20
0.0
  3
D115
  0
POLYLINE
  8
0
 66
1
 10
0.0
 20
0.0
 40
0.044000
 41
0.044000
  0
VERTEX
  8
0
 10
-0.029000
 20
0.0
  0
VERTEX
  8
0
 10
0.029000
 20
0.0
  0
SEQEND
  8
0
 0
ENDBLK
  8
0
  0
BLOCK
  8
0
  2
D116
 70
64
 10
0.0
 20
0.0
  3
D116
  0
POLYLINE
  8
0
 66
1
 10
0.0
 20
0.0
 40
0.044000
 41
0.044000
  0
VERTEX
  8
0
 10
-0.022000
 20
0.0
  0
VERTEX
  8
0
 10
0.022000
 20
0.0
  0
SEQEND
  8
0
 0
ENDBLK
  8
0
  0
BLOCK
  8
0
  2
D117
 70
64
 10
0.0
 20
0.0
  3
D117
  0
POLYLINE
  8
0
 66
1
 10
0.0
 20
0.0
 40
0.058000
 41
0.058000
  0
VERTEX
  8
0
 10
-0.022000
 20
0.0
  0
VERTEX
  8
0
 10
0.022000
 20
0.0
  0
SEQEND
  8
0
 0
ENDBLK
  8
0
  0
BLOCK
  8
0
  2
D118
 70
64
 10
0.0
 20
0.0
  3
D118
  0
POLYLINE
  8
0
 66
1
 10
0.0
 20
0.0
 40
0.044000
 41
0.044000
  0
VERTEX
  8
0
 10
-0.022000
 20
0.0
  0
VERTEX
  8
0
 10
0.022000
 20
0.0
  0
SEQEND
  8
0
 0
ENDBLK
  8
0
  0
BLOCK
  8
0
  2
D119
 70
64
 10
0.0
 20
0.0
  3
D119
  0
POLYLINE
  8
0
 66
1
 10
0.0
 20
0.0
 40
0.058000
 41
0.058000
  0
VERTEX
  8
0
 10
-0.014000
 20
0.0
  0
VERTEX
  8
0
 10
0.014000
 20
0.0
  0
SEQEND
  8
0
 0
ENDBLK
  8
0
  0
BLOCK
  8
0
  2
D120
 70
64
 10
0.0
 20
0.0
  3
D120
  0
POLYLINE
  8
0
 66
1
 10
0.0
 20
0.0
 40
0.047400
 41
0.047400
  0
VERTEX
  8
0
 10
0.000000
 20
-0.041300
  0
VERTEX
  8
0
 10
0.000000
 20
0.041300
  0
SEQEND
  8
0
  0
POLYLINE
  8
0
 66
1
 10
0.0
 20
0.0
 70
1
 40
0.023700
 41
0.023700
  0
VERTEX
  8
0
 10
-0.011850
 20
-0.041300
 42
1.0
  0
VERTEX
  8
0
 10
0.011850
 20
-0.041300
 42
1.0
  0
SEQEND
  8
0
  0
POLYLINE
  8
0
 66
1
 10
0.0
 20
0.0
 70
1
 40
0.023700
 41
0.023700
  0
VERTEX
  8
0
 10
-0.011850
 20
0.041300
 42
1.0
  0
VERTEX
  8
0
 10
0.011850
 20
0.041300
 42
1.0
  0
SEQEND
  8
0
 0
ENDBLK
  8
0
  0
BLOCK
  8
0
  2
D121
 70
64
 10
0.0
 20
0.0
  3
D121
  0
POLYLINE
  8
0
 66
1
 10
0.0
 20
0.0
 40
0.130000
 41
0.130000
  0
VERTEX
  8
0
 10
-0.023700
 20
0.0
  0
VERTEX
  8
0
 10
0.023700
 20
0.0
  0
SEQEND
  8
0
 0
ENDBLK
  8
0
  0
BLOCK
  8
0
  2
D122
 70
64
 10
0.0
 20
0.0
  3
D122
  0
POLYLINE
  8
0
 66
1
 10
0.0
 20
0.0
 40
0.033000
 41
0.033000
  0
VERTEX
  8
0
 10
-0.014000
 20
0.0
  0
VERTEX
  8
0
 10
0.014000
 20
0.0
  0
SEQEND
  8
0
 0
ENDBLK
  8
0
  0
BLOCK
  8
0
  2
D123
 70
64
 10
0.0
 20
0.0
  3
D123
  0
POLYLINE
  8
0
 66
1
 10
0.0
 20
0.0
 40
0.038000
 41
0.038000
  0
VERTEX
  8
0
 10
-0.019000
 20
0.0
  0
VERTEX
  8
0
 10
0.019000
 20
0.0
  0
SEQEND
  8
0
 0
ENDBLK
  8
0
  0
BLOCK
  8
0
  2
D124
 70
64
 10
0.0
 20
0.0
  3
D124
  0
POLYLINE
  8
0
 66
1
 10
0.0
 20
0.0
 40
0.024500
 41
0.024500
  0
VERTEX
  8
0
 10
-0.015800
 20
0.0
  0
VERTEX
  8
0
 10
0.015800
 20
0.0
  0
SEQEND
  8
0
 0
ENDBLK
  8
0
  0
BLOCK
  8
0
  2
D125
 70
64
 10
0.0
 20
0.0
  3
D125
  0
POLYLINE
  8
0
 66
1
 10
0.0
 20
0.0
 40
0.108000
 41
0.108000
  0
VERTEX
  8
0
 10
-0.034000
 20
0.0
  0
VERTEX
  8
0
 10
0.034000
 20
0.0
  0
SEQEND
  8
0
 0
ENDBLK
  8
0
  0
BLOCK
  8
0
  2
D126
 70
64
 10
0.0
 20
0.0
  3
D126
  0
POLYLINE
  8
0
 66
1
 10
0.0
 20
0.0
 40
0.068000
 41
0.068000
  0
VERTEX
  8
0
 10
-0.054000
 20
0.0
  0
VERTEX
  8
0
 10
0.054000
 20
0.0
  0
SEQEND
  8
0
 0
ENDBLK
  8
0
  0
BLOCK
  8
0
  2
D127
 70
64
 10
0.0
 20
0.0
  3
D127
  0
POLYLINE
  8
0
 66
1
 10
0.0
 20
0.0
 40
0.098600
 41
0.098600
  0
VERTEX
  8
0
 10
-0.013850
 20
0.0
  0
VERTEX
  8
0
 10
0.013850
 20
0.0
  0
SEQEND
  8
0
 0
ENDBLK
  8
0
  0
BLOCK
  8
0
  2
D128
 70
64
 10
0.0
 20
0.0
  3
D128
  0
POLYLINE
  8
0
 66
1
 10
0.0
 20
0.0
 40
0.086700
 41
0.086700
  0
VERTEX
  8
0
 10
-0.043350
 20
0.0
  0
VERTEX
  8
0
 10
0.043350
 20
0.0
  0
SEQEND
  8
0
 0
ENDBLK
  8
0
  0
BLOCK
  8
0
  2
D129
 70
64
 10
0.0
 20
0.0
  3
D129
  0
POLYLINE
  8
0
 66
1
 10
0.0
 20
0.0
 40
0.106400
 41
0.106400
  0
VERTEX
  8
0
 10
-0.043350
 20
0.0
  0
VERTEX
  8
0
 10
0.043350
 20
0.0
  0
SEQEND
  8
0
 0
ENDBLK
  8
0
  0
BLOCK
  8
0
  2
D130
 70
64
 10
0.0
 20
0.0
  3
D130
  0
POLYLINE
  8
0
 66
1
 10
0.0
 20
0.0
 70
1
 40
0.029000
 41
0.029000
  0
VERTEX
  8
0
 10
-0.014500
 20
0.0
 42
1.0
  0
VERTEX
  8
0
 10
0.014500
 20
0.0
 42
1.0
  0
SEQEND
  8
0
 0
ENDBLK
  8
0
  0
BLOCK
  8
0
  2
D131
 70
64
 10
0.0
 20
0.0
  3
D131
  0
POLYLINE
  8
0
 66
1
 10
0.0
 20
0.0
 40
0.094600
 41
0.094600
  0
VERTEX
  8
0
 10
-0.063050
 20
0.0
  0
VERTEX
  8
0
 10
0.063050
 20
0.0
  0
SEQEND
  8
0
 0
ENDBLK
  8
0
  0
BLOCK
  8
0
  2
D132
 70
64
 10
0.0
 20
0.0
  3
D132
  0
POLYLINE
  8
0
 66
1
 10
0.0
 20
0.0
 40
0.038000
 41
0.038000
  0
VERTEX
  8
0
 10
-0.019000
 20
0.0
  0
VERTEX
  8
0
 10
0.019000
 20
0.0
  0
SEQEND
  8
0
 0
ENDBLK
  8
0
  0
BLOCK
  8
0
  2
D133
 70
64
 10
0.0
 20
0.0
  3
D133
  0
POLYLINE
  8
0
 66
1
 10
0.0
 20
0.0
 40
0.126100
 41
0.126100
  0
VERTEX
  8
0
 10
-0.047300
 20
0.0
  0
VERTEX
  8
0
 10
0.047300
 20
0.0
  0
SEQEND
  8
0
 0
ENDBLK
  8
0
  0
BLOCK
  8
0
  2
D134
 70
64
 10
0.0
 20
0.0
  3
D134
  0
POLYLINE
  8
0
 66
1
 10
0.0
 20
0.0
 40
0.031600
 41
0.031600
  0
VERTEX
  8
0
 10
0.000000
 20
-0.031500
  0
VERTEX
  8
0
 10
0.000000
 20
0.031500
  0
SEQEND
  8
0
  0
POLYLINE
  8
0
 66
1
 10
0.0
 20
0.0
 70
1
 40
0.015800
 41
0.015800
  0
VERTEX
  8
0
 10
-0.007900
 20
-0.031500
 42
1.0
  0
VERTEX
  8
0
 10
0.007900
 20
-0.031500
 42
1.0
  0
SEQEND
  8
0
  0
POLYLINE
  8
0
 66
1
 10
0.0
 20
0.0
 70
1
 40
0.015800
 41
0.015800
  0
VERTEX
  8
0
 10
-0.007900
 20
0.031500
 42
1.0
  0
VERTEX
  8
0
 10
0.007900
 20
0.031500
 42
1.0
  0
SEQEND
  8
0
 0
ENDBLK
  8
0
  0
BLOCK
  8
0
  2
D135
 70
64
 10
0.0
 20
0.0
  3
D135
  0
POLYLINE
  8
0
 66
1
 10
0.0
 20
0.0
 40
0.087000
 41
0.087000
  0
VERTEX
  8
0
 10
-0.033500
 20
0.0
  0
VERTEX
  8
0
 10
0.033500
 20
0.0
  0
SEQEND
  8
0
 0
ENDBLK
  8
0
  0
BLOCK
  8
0
  2
D136
 70
64
 10
0.0
 20
0.0
  3
D136
  0
POLYLINE
  8
0
 66
1
 10
0.0
 20
0.0
 40
0.087000
 41
0.087000
  0
VERTEX
  8
0
 10
-0.079000
 20
0.0
  0
VERTEX
  8
0
 10
0.079000
 20
0.0
  0
SEQEND
  8
0
 0
ENDBLK
  8
0
  0
BLOCK
  8
0
  2
D137
 70
64
 10
0.0
 20
0.0
  3
D137
  0
POLYLINE
  8
0
 66
1
 10
0.0
 20
0.0
 40
0.047400
 41
0.047400
  0
VERTEX
  8
0
 10
-0.041300
 20
0.000000
  0
VERTEX
  8
0
 10
0.041300
 20
0.000000
  0
SEQEND
  8
0
  0
POLYLINE
  8
0
 66
1
 10
0.0
 20
0.0
 70
1
 40
0.023700
 41
0.023700
  0
VERTEX
  8
0
 10
-0.053150
 20
0.000000
 42
1.0
  0
VERTEX
  8
0
 10
-0.029450
 20
0.000000
 42
1.0
  0
SEQEND
  8
0
  0
POLYLINE
  8
0
 66
1
 10
0.0
 20
0.0
 70
1
 40
0.023700
 41
0.023700
  0
VERTEX
  8
0
 10
0.029450
 20
0.000000
 42
1.0
  0
VERTEX
  8
0
 10
0.053150
 20
0.000000
 42
1.0
  0
SEQEND
  8
0
 0
ENDBLK
  8
0
  0
BLOCK
  8
0
  2
D138
 70
64
 10
0.0
 20
0.0
  3
D138
  0
POLYLINE
  8
0
 66
1
 10
0.0
 20
0.0
 40
0.047400
 41
0.047400
  0
VERTEX
  8
0
 10
-0.065000
 20
0.0
  0
VERTEX
  8
0
 10
0.065000
 20
0.0
  0
SEQEND
  8
0
 0
ENDBLK
  8
0
  0
BLOCK
  8
0
  2
D139
 70
64
 10
0.0
 20
0.0
  3
D139
  0
POLYLINE
  8
0
 66
1
 10
0.0
 20
0.0
 40
0.059200
 41
0.059200
  0
VERTEX
  8
0
 10
-0.043350
 20
0.0
  0
VERTEX
  8
0
 10
0.043350
 20
0.0
  0
SEQEND
  8
0
 0
ENDBLK
  8
0
  0
BLOCK
  8
0
  2
D140
 70
64
 10
0.0
 20
0.0
  3
D140
  0
POLYLINE
  8
0
 66
1
 10
0.0
 20
0.0
 40
0
 41
0
 70
1
  0
VERTEX
  8
0
 10
-0.026500
 20
-0.029600
 42
0
  0
VERTEX
  8
0
 10
0.026500
 20
-0.029600
 42
0
  0
VERTEX
  8
0
 10
0.043300
 20
-0.012800
 42
0
  0
VERTEX
  8
0
 10
0.043300
 20
0.012800
 42
0
  0
VERTEX
  8
0
 10
0.026500
 20
0.029600
 42
0
  0
VERTEX
  8
0
 10
-0.026500
 20
0.029600
 42
0
  0
VERTEX
  8
0
 10
-0.043300
 20
0.012800
 42
0
  0
VERTEX
  8
0
 10
-0.043300
 20
-0.012800
 42
0
  0
SEQEND
  8
0
  0
CIRCLE
  8
0
 10
-0.026500
 20
-0.012800
 40
0.016800
  0
CIRCLE
  8
0
 10
0.026500
 20
-0.012800
 40
0.016800
  0
CIRCLE
  8
0
 10
0.026500
 20
0.012800
 40
0.016800
  0
CIRCLE
  8
0
 10
-0.026500
 20
0.012800
 40
0.016800
 0
ENDBLK
  8
0
  0
BLOCK
  8
0
  2
D141
 70
64
 10
0.0
 20
0.0
  3
D141
  0
POLYLINE
  8
0
 66
1
 10
0.0
 20
0.0
 40
0.078000
 41
0.078000
  0
VERTEX
  8
0
 10
-0.039000
 20
0.0
  0
VERTEX
  8
0
 10
0.039000
 20
0.0
  0
SEQEND
  8
0
 0
ENDBLK
  8
0
  0
BLOCK
  8
0
  2
D142
 70
64
 10
0.0
 20
0.0
  3
D142
  0
POLYLINE
  8
0
 66
1
 10
0.0
 20
0.0
 70
1
 40
0.039000
 41
0.039000
  0
VERTEX
  8
0
 10
-0.019500
 20
0.0
 42
1.0
  0
VERTEX
  8
0
 10
0.019500
 20
0.0
 42
1.0
  0
SEQEND
  8
0
 0
ENDBLK
  8
0
  0
BLOCK
  8
0
  2
D143
 70
64
 10
0.0
 20
0.0
  3
D143
  0
POLYLINE
  8
0
 66
1
 10
0.0
 20
0.0
 70
1
 40
0.033550
 41
0.033550
  0
VERTEX
  8
0
 10
-0.016775
 20
0.0
 42
1.0
  0
VERTEX
  8
0
 10
0.016775
 20
0.0
 42
1.0
  0
SEQEND
  8
0
 0
ENDBLK
  8
0
  0
BLOCK
  8
0
  2
D144
 70
64
 10
0.0
 20
0.0
  3
D144
  0
POLYLINE
  8
0
 66
1
 10
0.0
 20
0.0
 70
1
 40
0.049000
 41
0.049000
  0
VERTEX
  8
0
 10
-0.024500
 20
0.0
 42
1.0
  0
VERTEX
  8
0
 10
0.024500
 20
0.0
 42
1.0
  0
SEQEND
  8
0
 0
ENDBLK
  8
0
  0
BLOCK
  8
0
  2
D145
 70
64
 10
0.0
 20
0.0
  3
D145
  0
POLYLINE
  8
0
 66
1
 10
0.0
 20
0.0
 70
1
 40
0.021700
 41
0.021700
  0
VERTEX
  8
0
 10
-0.010850
 20
0.0
 42
1.0
  0
VERTEX
  8
0
 10
0.010850
 20
0.0
 42
1.0
  0
SEQEND
  8
0
 0
ENDBLK
  8
0
  0
BLOCK
  8
0
  2
D146
 70
64
 10
0.0
 20
0.0
  3
D146
  0
POLYLINE
  8
0
 66
1
 10
0.0
 20
0.0
 70
1
 40
0.054000
 41
0.054000
  0
VERTEX
  8
0
 10
-0.027000
 20
0.0
 42
1.0
  0
VERTEX
  8
0
 10
0.027000
 20
0.0
 42
1.0
  0
SEQEND
  8
0
 0
ENDBLK
  8
0
  0
BLOCK
  8
0
  2
D147
 70
64
 10
0.0
 20
0.0
  3
D147
  0
POLYLINE
  8
0
 66
1
 10
0.0
 20
0.0
 40
0.078000
 41
0.078000
  0
VERTEX
  8
0
 10
-0.039000
 20
0.0
  0
VERTEX
  8
0
 10
0.039000
 20
0.0
  0
SEQEND
  8
0
 0
ENDBLK
  8
0
  0
BLOCK
  8
0
  2
D148
 70
64
 10
0.0
 20
0.0
  3
D148
  0
POLYLINE
  8
0
 66
1
 10
0.0
 20
0.0
 70
1
 40
0.034000
 41
0.034000
  0
VERTEX
  8
0
 10
-0.017000
 20
0.0
 42
1.0
  0
VERTEX
  8
0
 10
0.017000
 20
0.0
 42
1.0
  0
SEQEND
  8
0
 0
ENDBLK
  8
0
  0
BLOCK
  8
0
  2
D149
 70
64
 10
0.0
 20
0.0
  3
D149
  0
POLYLINE
  8
0
 66
1
 10
0.0
 20
0.0
 70
1
 40
0.129000
 41
0.129000
  0
VERTEX
  8
0
 10
-0.064500
 20
0.0
 42
1.0
  0
VERTEX
  8
0
 10
0.064500
 20
0.0
 42
1.0
  0
SEQEND
  8
0
 0
ENDBLK
  8
0
  0
BLOCK
  8
0
  2
D150
 70
64
 10
0.0
 20
0.0
  3
D150
  0
POLYLINE
  8
0
 66
1
 10
0.0
 20
0.0
 70
1
 40
0.041850
 41
0.041850
  0
VERTEX
  8
0
 10
-0.020925
 20
0.0
 42
1.0
  0
VERTEX
  8
0
 10
0.020925
 20
0.0
 42
1.0
  0
SEQEND
  8
0
 0
ENDBLK
  8
0
  0
BLOCK
  8
0
  2
D151
 70
64
 10
0.0
 20
0.0
  3
D151
  0
POLYLINE
  8
0
 66
1
 10
0.0
 20
0.0
 70
1
 40
0.029600
 41
0.029600
  0
VERTEX
  8
0
 10
-0.014800
 20
0.0
 42
1.0
  0
VERTEX
  8
0
 10
0.014800
 20
0.0
 42
1.0
  0
SEQEND
  8
0
 0
ENDBLK
  8
0
  0
BLOCK
  8
0
  2
D152
 70
64
 10
0.0
 20
0.0
  3
D152
  0
POLYLINE
  8
0
 66
1
 10
0.0
 20
0.0
 70
1
 40
0.017800
 41
0.017800
  0
VERTEX
  8
0
 10
-0.008900
 20
0.0
 42
1.0
  0
VERTEX
  8
0
 10
0.008900
 20
0.0
 42
1.0
  0
SEQEND
  8
0
 0
ENDBLK
  8
0
  0
BLOCK
  8
0
  2
D153
 70
64
 10
0.0
 20
0.0
  3
D153
  0
POLYLINE
  8
0
 66
1
 10
0.0
 20
0.0
 40
0.057200
 41
0.057200
  0
VERTEX
  8
0
 10
-0.025650
 20
0.0
  0
VERTEX
  8
0
 10
0.025650
 20
0.0
  0
SEQEND
  8
0
 0
ENDBLK
  8
0
  0
BLOCK
  8
0
  2
D154
 70
64
 10
0.0
 20
0.0
  3
D154
  0
POLYLINE
  8
0
 66
1
 10
0.0
 20
0.0
 40
0.032000
 41
0.032000
  0
VERTEX
  8
0
 10
-0.028000
 20
0.000000
  0
VERTEX
  8
0
 10
0.028000
 20
0.000000
  0
SEQEND
  8
0
  0
POLYLINE
  8
0
 66
1
 10
0.0
 20
0.0
 70
1
 40
0.016000
 41
0.016000
  0
VERTEX
  8
0
 10
-0.036000
 20
0.000000
 42
1.0
  0
VERTEX
  8
0
 10
-0.020000
 20
0.000000
 42
1.0
  0
SEQEND
  8
0
  0
POLYLINE
  8
0
 66
1
 10
0.0
 20
0.0
 70
1
 40
0.016000
 41
0.016000
  0
VERTEX
  8
0
 10
0.020000
 20
0.000000
 42
1.0
  0
VERTEX
  8
0
 10
0.036000
 20
0.000000
 42
1.0
  0
SEQEND
  8
0
 0
ENDBLK
  8
0
  0
BLOCK
  8
0
  2
D155
 70
64
 10
0.0
 20
0.0
  3
D155
  0
POLYLINE
  8
0
 66
1
 10
0.0
 20
0.0
 40
0.032000
 41
0.032000
  0
VERTEX
  8
0
 10
-0.044000
 20
0.0
  0
VERTEX
  8
0
 10
0.044000
 20
0.0
  0
SEQEND
  8
0
 0
ENDBLK
  8
0
  0
BLOCK
  8
0
  2
D156
 70
64
 10
0.0
 20
0.0
  3
D156
  0
POLYLINE
  8
0
 66
1
 10
0.0
 20
0.0
 40
0.032000
 41
0.032000
  0
VERTEX
  8
0
 10
0.000000
 20
-0.028000
  0
VERTEX
  8
0
 10
0.000000
 20
0.028000
  0
SEQEND
  8
0
  0
POLYLINE
  8
0
 66
1
 10
0.0
 20
0.0
 70
1
 40
0.016000
 41
0.016000
  0
VERTEX
  8
0
 10
-0.008000
 20
-0.028000
 42
1.0
  0
VERTEX
  8
0
 10
0.008000
 20
-0.028000
 42
1.0
  0
SEQEND
  8
0
  0
POLYLINE
  8
0
 66
1
 10
0.0
 20
0.0
 70
1
 40
0.016000
 41
0.016000
  0
VERTEX
  8
0
 10
-0.008000
 20
0.028000
 42
1.0
  0
VERTEX
  8
0
 10
0.008000
 20
0.028000
 42
1.0
  0
SEQEND
  8
0
 0
ENDBLK
  8
0
  0
BLOCK
  8
0
  2
D157
 70
64
 10
0.0
 20
0.0
  3
D157
  0
POLYLINE
  8
0
 66
1
 10
0.0
 20
0.0
 40
0.088000
 41
0.088000
  0
VERTEX
  8
0
 10
-0.016000
 20
0.0
  0
VERTEX
  8
0
 10
0.016000
 20
0.0
  0
SEQEND
  8
0
 0
ENDBLK
  8
0
  0
BLOCK
  8
0
  2
D158
 70
64
 10
0.0
 20
0.0
  3
D158
  0
POLYLINE
  8
0
 66
1
 10
0.0
 20
0.0
 40
0.025700
 41
0.025700
  0
VERTEX
  8
0
 10
-0.032500
 20
0.000000
  0
VERTEX
  8
0
 10
0.032500
 20
0.000000
  0
SEQEND
  8
0
  0
POLYLINE
  8
0
 66
1
 10
0.0
 20
0.0
 70
1
 40
0.012850
 41
0.012850
  0
VERTEX
  8
0
 10
-0.038925
 20
0.000000
 42
1.0
  0
VERTEX
  8
0
 10
-0.026075
 20
0.000000
 42
1.0
  0
SEQEND
  8
0
  0
POLYLINE
  8
0
 66
1
 10
0.0
 20
0.0
 70
1
 40
0.012850
 41
0.012850
  0
VERTEX
  8
0
 10
0.026075
 20
0.000000
 42
1.0
  0
VERTEX
  8
0
 10
0.038925
 20
0.000000
 42
1.0
  0
SEQEND
  8
0
 0
ENDBLK
  8
0
  0
BLOCK
  8
0
  2
D159
 70
64
 10
0.0
 20
0.0
  3
D159
  0
POLYLINE
  8
0
 66
1
 10
0.0
 20
0.0
 40
0.058000
 41
0.058000
  0
VERTEX
  8
0
 10
0.000000
 20
-0.025000
  0
VERTEX
  8
0
 10
0.000000
 20
0.025000
  0
SEQEND
  8
0
  0
POLYLINE
  8
0
 66
1
 10
0.0
 20
0.0
 70
1
 40
0.029000
 41
0.029000
  0
VERTEX
  8
0
 10
-0.014500
 20
-0.025000
 42
1.0
  0
VERTEX
  8
0
 10
0.014500
 20
-0.025000
 42
1.0
  0
SEQEND
  8
0
  0
POLYLINE
  8
0
 66
1
 10
0.0
 20
0.0
 70
1
 40
0.029000
 41
0.029000
  0
VERTEX
  8
0
 10
-0.014500
 20
0.025000
 42
1.0
  0
VERTEX
  8
0
 10
0.014500
 20
0.025000
 42
1.0
  0
SEQEND
  8
0
 0
ENDBLK
  8
0
  0
BLOCK
  8
0
  2
D160
 70
64
 10
0.0
 20
0.0
  3
D160
  0
POLYLINE
  8
0
 66
1
 10
0.0
 20
0.0
 40
0.108000
 41
0.108000
  0
VERTEX
  8
0
 10
-0.029000
 20
0.0
  0
VERTEX
  8
0
 10
0.029000
 20
0.0
  0
SEQEND
  8
0
 0
ENDBLK
  8
0
  0
BLOCK
  8
0
  2
D161
 70
64
 10
0.0
 20
0.0
  3
D161
  0
POLYLINE
  8
0
 66
1
 10
0.0
 20
0.0
 40
0.058000
 41
0.058000
  0
VERTEX
  8
0
 10
-0.025000
 20
0.000000
  0
VERTEX
  8
0
 10
0.025000
 20
0.000000
  0
SEQEND
  8
0
  0
POLYLINE
  8
0
 66
1
 10
0.0
 20
0.0
 70
1
 40
0.029000
 41
0.029000
  0
VERTEX
  8
0
 10
-0.039500
 20
0.000000
 42
1.0
  0
VERTEX
  8
0
 10
-0.010500
 20
0.000000
 42
1.0
  0
SEQEND
  8
0
  0
POLYLINE
  8
0
 66
1
 10
0.0
 20
0.0
 70
1
 40
0.029000
 41
0.029000
  0
VERTEX
  8
0
 10
0.010500
 20
0.000000
 42
1.0
  0
VERTEX
  8
0
 10
0.039500
 20
0.000000
 42
1.0
  0
SEQEND
  8
0
 0
ENDBLK
  8
0
  0
BLOCK
  8
0
  2
D162
 70
64
 10
0.0
 20
0.0
  3
D162
  0
POLYLINE
  8
0
 66
1
 10
0.0
 20
0.0
 40
0.058000
 41
0.058000
  0
VERTEX
  8
0
 10
-0.054000
 20
0.0
  0
VERTEX
  8
0
 10
0.054000
 20
0.0
  0
SEQEND
  8
0
 0
ENDBLK
  8
0
  0
BLOCK
  8
0
  2
D163
 70
64
 10
0.0
 20
0.0
  3
D163
  0
POLYLINE
  8
0
 66
1
 10
0.0
 20
0.0
 40
0.058000
 41
0.058000
  0
VERTEX
  8
0
 10
-0.024000
 20
0.0
  0
VERTEX
  8
0
 10
0.024000
 20
0.0
  0
SEQEND
  8
0
 0
ENDBLK
  8
0
  0
BLOCK
  8
0
  2
D164
 70
64
 10
0.0
 20
0.0
  3
D164
  0
POLYLINE
  8
0
 66
1
 10
0.0
 20
0.0
 40
0.048000
 41
0.048000
  0
VERTEX
  8
0
 10
-0.029000
 20
0.0
  0
VERTEX
  8
0
 10
0.029000
 20
0.0
  0
SEQEND
  8
0
 0
ENDBLK
  8
0
  0
BLOCK
  8
0
  2
D165
 70
64
 10
0.0
 20
0.0
  3
D165
  0
POLYLINE
  8
0
 66
1
 10
0.0
 20
0.0
 40
0.051300
 41
0.051300
  0
VERTEX
  8
0
 10
-0.028600
 20
0.0
  0
VERTEX
  8
0
 10
0.028600
 20
0.0
  0
SEQEND
  8
0
 0
ENDBLK
  8
0
  0
BLOCK
  8
0
  2
D166
 70
64
 10
0.0
 20
0.0
  3
D166
  0
POLYLINE
  8
0
 66
1
 10
0.0
 20
0.0
 40
0.136000
 41
0.136000
  0
VERTEX
  8
0
 10
-0.068000
 20
0.0
  0
VERTEX
  8
0
 10
0.068000
 20
0.0
  0
SEQEND
  8
0
 0
ENDBLK
  8
0
  0
BLOCK
  8
0
  2
D167
 70
64
 10
0.0
 20
0.0
  3
D167
  0
POLYLINE
  8
0
 66
1
 10
0.0
 20
0.0
 40
0
 41
0
 70
1
  0
VERTEX
  8
0
 10
0.002400
 20
0.021700
 42
0
  0
VERTEX
  8
0
 10
-0.002400
 20
0.021700
 42
0
  0
VERTEX
  8
0
 10
-0.008900
 20
0.015200
 42
0
  0
VERTEX
  8
0
 10
-0.008900
 20
-0.015200
 42
0
  0
VERTEX
  8
0
 10
-0.002400
 20
-0.021700
 42
0
  0
VERTEX
  8
0
 10
0.002400
 20
-0.021700
 42
0
  0
VERTEX
  8
0
 10
0.008900
 20
-0.015200
 42
0
  0
VERTEX
  8
0
 10
0.008900
 20
0.015200
 42
0
  0
SEQEND
  8
0
  0
CIRCLE
  8
0
 10
0.002400
 20
0.015200
 40
0.006500
  0
CIRCLE
  8
0
 10
-0.002400
 20
0.015200
 40
0.006500
  0
CIRCLE
  8
0
 10
-0.002400
 20
-0.015200
 40
0.006500
  0
CIRCLE
  8
0
 10
0.002400
 20
-0.015200
 40
0.006500
 0
ENDBLK
  8
0
  0
BLOCK
  8
0
  2
D168
 70
64
 10
0.0
 20
0.0
  3
D168
  0
POLYLINE
  8
0
 66
1
 10
0.0
 20
0.0
 40
0.043400
 41
0.043400
  0
VERTEX
  8
0
 10
-0.008900
 20
0.0
  0
VERTEX
  8
0
 10
0.008900
 20
0.0
  0
SEQEND
  8
0
 0
ENDBLK
  8
0
  0
BLOCK
  8
0
  2
D169
 70
64
 10
0.0
 20
0.0
  3
D169
  0
POLYLINE
  8
0
 66
1
 10
0.0
 20
0.0
 40
0.017800
 41
0.017800
  0
VERTEX
  8
0
 10
-0.021700
 20
0.0
  0
VERTEX
  8
0
 10
0.021700
 20
0.0
  0
SEQEND
  8
0
 0
ENDBLK
  8
0
  0
BLOCK
  8
0
  2
D170
 70
64
 10
0.0
 20
0.0
  3
D170
  0
POLYLINE
  8
0
 66
1
 10
0.0
 20
0.0
 40
0.165500
 41
0.165500
  0
VERTEX
  8
0
 10
-0.011850
 20
0.0
  0
VERTEX
  8
0
 10
0.011850
 20
0.0
  0
SEQEND
  8
0
 0
ENDBLK
  8
0
  0
BLOCK
  8
0
  2
D171
 70
64
 10
0.0
 20
0.0
  3
D171
  0
POLYLINE
  8
0
 66
1
 10
0.0
 20
0.0
 40
0.023700
 41
0.023700
  0
VERTEX
  8
0
 10
0.000000
 20
-0.070900
  0
VERTEX
  8
0
 10
0.000000
 20
0.070900
  0
SEQEND
  8
0
  0
POLYLINE
  8
0
 66
1
 10
0.0
 20
0.0
 70
1
 40
0.011850
 41
0.011850
  0
VERTEX
  8
0
 10
-0.005925
 20
-0.070900
 42
1.0
  0
VERTEX
  8
0
 10
0.005925
 20
-0.070900
 42
1.0
  0
SEQEND
  8
0
  0
POLYLINE
  8
0
 66
1
 10
0.0
 20
0.0
 70
1
 40
0.011850
 41
0.011850
  0
VERTEX
  8
0
 10
-0.005925
 20
0.070900
 42
1.0
  0
VERTEX
  8
0
 10
0.005925
 20
0.070900
 42
1.0
  0
SEQEND
  8
0
 0
ENDBLK
  8
0
  0
BLOCK
  8
0
  2
D172
 70
64
 10
0.0
 20
0.0
  3
D172
  0
POLYLINE
  8
0
 66
1
 10
0.0
 20
0.0
 40
0.098600
 41
0.098600
  0
VERTEX
  8
0
 10
-0.049300
 20
0.0
  0
VERTEX
  8
0
 10
0.049300
 20
0.0
  0
SEQEND
  8
0
 0
ENDBLK
  8
0
  0
BLOCK
  8
0
  2
D173
 70
64
 10
0.0
 20
0.0
  3
D173
  0
POLYLINE
  8
0
 66
1
 10
0.0
 20
0.0
 40
0.098600
 41
0.098600
  0
VERTEX
  8
0
 10
-0.049300
 20
0.0
  0
VERTEX
  8
0
 10
0.049300
 20
0.0
  0
SEQEND
  8
0
 0
ENDBLK
  8
0
  0
BLOCK
  8
0
  2
D174
 70
64
 10
0.0
 20
0.0
  3
D174
  0
POLYLINE
  8
0
 66
1
 10
0.0
 20
0.0
 40
0.028000
 41
0.028000
  0
VERTEX
  8
0
 10
-0.016500
 20
0.0
  0
VERTEX
  8
0
 10
0.016500
 20
0.0
  0
SEQEND
  8
0
 0
ENDBLK
  8
0
  0
BLOCK
  8
0
  2
D175
 70
64
 10
0.0
 20
0.0
  3
D175
  0
POLYLINE
  8
0
 66
1
 10
0.0
 20
0.0
 40
0.035600
 41
0.035600
  0
VERTEX
  8
0
 10
-0.011850
 20
0.0
  0
VERTEX
  8
0
 10
0.011850
 20
0.0
  0
SEQEND
  8
0
 0
ENDBLK
  8
0
  0
BLOCK
  8
0
  2
D176
 70
64
 10
0.0
 20
0.0
  3
D176
  0
POLYLINE
  8
0
 66
1
 10
0.0
 20
0.0
 40
0.023700
 41
0.023700
  0
VERTEX
  8
0
 10
0.000000
 20
-0.005950
  0
VERTEX
  8
0
 10
0.000000
 20
0.005950
  0
SEQEND
  8
0
  0
POLYLINE
  8
0
 66
1
 10
0.0
 20
0.0
 70
1
 40
0.011850
 41
0.011850
  0
VERTEX
  8
0
 10
-0.005925
 20
-0.005950
 42
1.0
  0
VERTEX
  8
0
 10
0.005925
 20
-0.005950
 42
1.0
  0
SEQEND
  8
0
  0
POLYLINE
  8
0
 66
1
 10
0.0
 20
0.0
 70
1
 40
0.011850
 41
0.011850
  0
VERTEX
  8
0
 10
-0.005925
 20
0.005950
 42
1.0
  0
VERTEX
  8
0
 10
0.005925
 20
0.005950
 42
1.0
  0
SEQEND
  8
0
 0
ENDBLK
  8
0
  0
BLOCK
  8
0
  2
D177
 70
64
 10
0.0
 20
0.0
  3
D177
  0
POLYLINE
  8
0
 66
1
 10
0.0
 20
0.0
 70
1
 40
0.003950
 41
0.003950
  0
VERTEX
  8
0
 10
-0.001975
 20
0.0
 42
1.0
  0
VERTEX
  8
0
 10
0.001975
 20
0.0
 42
1.0
  0
SEQEND
  8
0
 0
ENDBLK
  8
0
  0
BLOCK
  8
0
  2
D178
 70
64
 10
0.0
 20
0.0
  3
D178
  0
POLYLINE
  8
0
 66
1
 10
0.0
 20
0.0
 70
1
 40
0.001950
 41
0.001950
  0
VERTEX
  8
0
 10
-0.000975
 20
0.0
 42
1.0
  0
VERTEX
  8
0
 10
0.000975
 20
0.0
 42
1.0
  0
SEQEND
  8
0
 0
ENDBLK
  8
0
  0
BLOCK
  8
0
  2
D179
 70
64
 10
0.0
 20
0.0
  3
D179
  0
POLYLINE
  8
0
 66
1
 10
0.0
 20
0.0
 40
0.040700
 41
0.040700
  0
VERTEX
  8
0
 10
-0.046250
 20
0.0
  0
VERTEX
  8
0
 10
0.046250
 20
0.0
  0
SEQEND
  8
0
 0
ENDBLK
  8
0
  0
BLOCK
  8
0
  2
D180
 70
64
 10
0.0
 20
0.0
  3
D180
  0
POLYLINE
  8
0
 66
1
 10
0.0
 20
0.0
 40
0.092500
 41
0.092500
  0
VERTEX
  8
0
 10
-0.020350
 20
0.0
  0
VERTEX
  8
0
 10
0.020350
 20
0.0
  0
SEQEND
  8
0
 0
ENDBLK
  8
0
  0
BLOCK
  8
0
  2
D1010
 70
64
 10
0.0
 20
0.0
  3
D1010
 0
ENDBLK
  8
0
  0
BLOCK
  8
0
  2
D9508
 70
64
 10
0.0
 20
0.0
  3
D9508
  0
POLYLINE
  8
0
 66
1
 10
0.0
 20
0.0
 70
1
 40
0.061000
 41
0.061000
  0
VERTEX
  8
0
 10
-0.030500
 20
0.0
 42
1.0
  0
VERTEX
  8
0
 10
0.030500
 20
0.0
 42
1.0
  0
SEQEND
  8
0
 0
ENDBLK
  8
0
  0
ENDSEC
  0
SECTION
  2
ENTITIES
  0
POLYLINE
  8
film1
 62
1
 40
0.000000
 41
0.000000
 66
  1
  0
VERTEX
  8
film1
 10
5.000000
 20
5.000000
  0
VERTEX
  8
film1
 10
0.000000
 20
5.000000
  0
VERTEX
  8
film1
 10
0.000000
 20
0.000000
  0
VERTEX
  8
film1
 10
5.000000
 20
0.000000
  0
VERTEX
  8
film1
 10
5.000000
 20
5.000000
  0
SEQEND
  8
film1
  0
INSERT
  8
film1
  2
D10
 10
3.998400
 20
2.055600
 41
1.0
 42
1.0
 43
1.0
 50
0.0
  0
INSERT
  8
film1
  2
D10
 10
3.998400
 20
2.016200
 41
1.0
 42
1.0
 43
1.0
 50
0.0
  0
INSERT
  8
film1
  2
D10
 10
3.998400
 20
2.035900
 41
1.0
 42
1.0
 43
1.0
 50
0.0
  0
INSERT
  8
film1
  2
D10
 10
3.998400
 20
2.075300
 41
1.0
 42
1.0
 43
1.0
 50
0.0
  0
INSERT
  8
film1
  2
D10
 10
3.998400
 20
1.937500
 41
1.0
 42
1.0
 43
1.0
 50
0.0
  0
INSERT
  8
film1
  2
D10
 10
3.998400
 20
1.917800
 41
1.0
 42
1.0
 43
1.0
 50
0.0
  0
INSERT
  8
film1
  2
D10
 10
3.998400
 20
1.858700
 41
1.0
 42
1.0
 43
1.0
 50
0.0
  0
INSERT
  8
film1
  2
D10
 10
3.998400
 20
1.878400
 41
1.0
 42
1.0
 43
1.0
 50
0.0
  0
INSERT
  8
film1
  2
D10
 10
3.998400
 20
1.898100
 41
1.0
 42
1.0
 43
1.0
 50
0.0
  0
INSERT
  8
film1
  2
D10
 10
3.998400
 20
1.957200
 41
1.0
 42
1.0
 43
1.0
 50
0.0
  0
INSERT
  8
film1
  2
D10
 10
3.679600
 20
1.976800
 41
1.0
 42
1.0
 43
1.0
 50
0.0
  0
INSERT
  8
film1
  2
D10
 10
3.679600
 20
1.996500
 41
1.0
 42
1.0
 43
1.0
 50
0.0
  0
INSERT
  8
film1
  2
D10
 10
3.679600
 20
2.016200
 41
1.0
 42
1.0
 43
1.0
 50
0.0
  0
INSERT
  8
film1
  2
D10
 10
3.679600
 20
2.035900
 41
1.0
 42
1.0
 43
1.0
 50
0.0
  0
INSERT
  8
film1
  2
D10
 10
3.679600
 20
2.055600
 41
1.0
 42
1.0
 43
1.0
 50
0.0
  0
INSERT
  8
film1
  2
D10
 10
3.679600
 20
2.075300
 41
1.0
 42
1.0
 43
1.0
 50
0.0
  0
INSERT
  8
film1
  2
D10
 10
3.679600
 20
1.917800
 41
1.0
 42
1.0
 43
1.0
 50
0.0
  0
INSERT
  8
film1
  2
D10
 10
3.679600
 20
1.898100
 41
1.0
 42
1.0
 43
1.0
 50
0.0
  0
INSERT
  8
film1
  2
D10
 10
3.679600
 20
1.878400
 41
1.0
 42
1.0
 43
1.0
 50
0.0
  0
INSERT
  8
film1
  2
D10
 10
3.679600
 20
1.858700
 41
1.0
 42
1.0
 43
1.0
 50
0.0
  0
INSERT
  8
film1
  2
D10
 10
3.679600
 20
1.937500
 41
1.0
 42
1.0
 43
1.0
 50
0.0
  0
INSERT
  8
film1
  2
D10
 10
3.679600
 20
1.957200
 41
1.0
 42
1.0
 43
1.0
 50
0.0
  0
INSERT
  8
film1
  2
D10
 10
3.998400
 20
1.976800
 41
1.0
 42
1.0
 43
1.0
 50
0.0
  0
INSERT
  8
film1
  2
D10
 10
3.998400
 20
1.996500
 41
1.0
 42
1.0
 43
1.0
 50
0.0
  0
INSERT
  8
film1
  2
D11
 10
3.868500
 20
1.807600
 41
1.0
 42
1.0
 43
1.0
 50
0.0
  0
INSERT
  8
film1
  2
D11
 10
3.888200
 20
1.807600
 41
1.0
 42
1.0
 43
1.0
 50
0.0
  0
INSERT
  8
film1
  2
D11
 10
3.730700
 20
2.126400
 41
1.0
 42
1.0
 43
1.0
 50
0.0
  0
INSERT
  8
film1
  2
D11
 10
3.750400
 20
2.126400
 41
1.0
 42
1.0
 43
1.0
 50
0.0
  0
INSERT
  8
film1
  2
D11
 10
3.809500
 20
2.126400
 41
1.0
 42
1.0
 43
1.0
 50
0.0
  0
INSERT
  8
film1
  2
D11
 10
3.947300
 20
1.807600
 41
1.0
 42
1.0
 43
1.0
 50
0.0
  0
INSERT
  8
film1
  2
D11
 10
3.927600
 20
1.807600
 41
1.0
 42
1.0
 43
1.0
 50
0.0
  0
INSERT
  8
film1
  2
D11
 10
3.907900
 20
1.807600
 41
1.0
 42
1.0
 43
1.0
 50
0.0
  0
INSERT
  8
film1
  2
D11
 10
3.848800
 20
1.807600
 41
1.0
 42
1.0
 43
1.0
 50
0.0
  0
INSERT
  8
film1
  2
D11
 10
3.829200
 20
1.807600
 41
1.0
 42
1.0
 43
1.0
 50
0.0
  0
INSERT
  8
film1
  2
D11
 10
3.809500
 20
1.807600
 41
1.0
 42
1.0
 43
1.0
 50
0.0
  0
INSERT
  8
film1
  2
D11
 10
3.789800
 20
1.807600
 41
1.0
 42
1.0
 43
1.0
 50
0.0
  0
INSERT
  8
film1
  2
D11
 10
3.770100
 20
1.807600
 41
1.0
 42
1.0
 43
1.0
 50
0.0
  0
INSERT
  8
film1
  2
D11
 10
3.750400
 20
1.807600
 41
1.0
 42
1.0
 43
1.0
 50
0.0
  0
INSERT
  8
film1
  2
D11
 10
3.730700
 20
1.807600
 41
1.0
 42
1.0
 43
1.0
 50
0.0
  0
INSERT
  8
film1
  2
D11
 10
3.947300
 20
2.126400
 41
1.0
 42
1.0
 43
1.0
 50
0.0
  0
INSERT
  8
film1
  2
D11
 10
3.868500
 20
2.126400
 41
1.0
 42
1.0
 43
1.0
 50
0.0
  0
INSERT
  8
film1
  2
D11
 10
3.848800
 20
2.126400
 41
1.0
 42
1.0
 43
1.0
 50
0.0
  0
INSERT
  8
film1
  2
D11
 10
3.829200
 20
2.126400
 41
1.0
 42
1.0
 43
1.0
 50
0.0
  0
INSERT
  8
film1
  2
D11
 10
3.789800
 20
2.126400
 41
1.0
 42
1.0
 43
1.0
 50
0.0
  0
INSERT
  8
film1
  2
D11
 10
3.770100
 20
2.126400
 41
1.0
 42
1.0
 43
1.0
 50
0.0
  0
INSERT
  8
film1
  2
D11
 10
3.888200
 20
2.126400
 41
1.0
 42
1.0
 43
1.0
 50
0.0
  0
INSERT
  8
film1
  2
D11
 10
3.907900
 20
2.126400
 41
1.0
 42
1.0
 43
1.0
 50
0.0
  0
INSERT
  8
film1
  2
D11
 10
3.927600
 20
2.126400
 41
1.0
 42
1.0
 43
1.0
 50
0.0
  0
INSERT
  8
film1
  2
D12
 10
2.906300
 20
3.235800
 41
1.0
 42
1.0
 43
1.0
 50
0.0
  0
INSERT
  8
film1
  2
D12
 10
2.906300
 20
2.909000
 41
1.0
 42
1.0
 43
1.0
 50
0.0
  0
INSERT
  8
film1
  2
D12
 10
2.364900
 20
2.909000
 41
1.0
 42
1.0
 43
1.0
 50
0.0
  0
INSERT
  8
film1
  2
D12
 10
2.364900
 20
3.235800
 41
1.0
 42
1.0
 43
1.0
 50
0.0
  0
INSERT
  8
film1
  2
D13
 10
2.906300
 20
2.842100
 41
1.0
 42
1.0
 43
1.0
 50
0.0
  0
INSERT
  8
film1
  2
D13
 10
2.364900
 20
3.302700
 41
1.0
 42
1.0
 43
1.0
 50
0.0
  0
INSERT
  8
film1
  2
D14
 10
2.761600
 20
3.011400
 41
1.0
 42
1.0
 43
1.0
 50
0.0
  0
INSERT
  8
film1
  2
D14
 10
2.718300
 20
3.011400
 41
1.0
 42
1.0
 43
1.0
 50
0.0
  0
INSERT
  8
film1
  2
D14
 10
2.675000
 20
3.011400
 41
1.0
 42
1.0
 43
1.0
 50
0.0
  0
INSERT
  8
film1
  2
D14
 10
2.631700
 20
3.011400
 41
1.0
 42
1.0
 43
1.0
 50
0.0
  0
INSERT
  8
film1
  2
D14
 10
2.588400
 20
3.011400
 41
1.0
 42
1.0
 43
1.0
 50
0.0
  0
INSERT
  8
film1
  2
D14
 10
2.545100
 20
3.011400
 41
1.0
 42
1.0
 43
1.0
 50
0.0
  0
INSERT
  8
film1
  2
D14
 10
2.501800
 20
3.011400
 41
1.0
 42
1.0
 43
1.0
 50
0.0
  0
INSERT
  8
film1
  2
D14
 10
2.458400
 20
3.011400
 41
1.0
 42
1.0
 43
1.0
 50
0.0
  0
INSERT
  8
film1
  2
D15
 10
1.356000
 20
2.904800
 41
1.0
 42
1.0
 43
1.0
 50
0.0
  0
INSERT
  8
film1
  2
D15
 10
1.496000
 20
2.904800
 41
1.0
 42
1.0
 43
1.0
 50
0.0
  0
INSERT
  8
film1
  2
D15
 10
1.356500
 20
3.062500
 41
1.0
 42
1.0
 43
1.0
 50
0.0
  0
INSERT
  8
film1
  2
D15
 10
1.496500
 20
3.062500
 41
1.0
 42
1.0
 43
1.0
 50
0.0
  0
INSERT
  8
film1
  2
D15
 10
1.359800
 20
3.216000
 41
1.0
 42
1.0
 43
1.0
 50
0.0
  0
INSERT
  8
film1
  2
D15
 10
1.499800
 20
3.216000
 41
1.0
 42
1.0
 43
1.0
 50
0.0
  0
INSERT
  8
film1
  2
D15
 10
1.357400
 20
3.377300
 41
1.0
 42
1.0
 43
1.0
 50
0.0
  0
INSERT
  8
film1
  2
D15
 10
1.497400
 20
3.377300
 41
1.0
 42
1.0
 43
1.0
 50
0.0
  0
INSERT
  8
film1
  2
D15
 10
1.356500
 20
3.527500
 41
1.0
 42
1.0
 43
1.0
 50
0.0
  0
INSERT
  8
film1
  2
D15
 10
1.496500
 20
3.527500
 41
1.0
 42
1.0
 43
1.0
 50
0.0
  0
INSERT
  8
film1
  2
D15
 10
1.254200
 20
2.353300
 41
1.0
 42
1.0
 43
1.0
 50
0.0
  0
INSERT
  8
film1
  2
D15
 10
1.254200
 20
2.726400
 41
1.0
 42
1.0
 43
1.0
 50
0.0
  0
INSERT
  8
film1
  2
D16
 10
1.436000
 20
2.941800
 41
1.0
 42
1.0
 43
1.0
 50
0.0
  0
INSERT
  8
film1
  2
D16
 10
1.436000
 20
2.866800
 41
1.0
 42
1.0
 43
1.0
 50
0.0
  0
INSERT
  8
film1
  2
D16
 10
1.576000
 20
2.941800
 41
1.0
 42
1.0
 43
1.0
 50
0.0
  0
INSERT
  8
film1
  2
D16
 10
1.576000
 20
2.866800
 41
1.0
 42
1.0
 43
1.0
 50
0.0
  0
INSERT
  8
film1
  2
D16
 10
1.436500
 20
3.099500
 41
1.0
 42
1.0
 43
1.0
 50
0.0
  0
INSERT
  8
film1
  2
D16
 10
1.436500
 20
3.024500
 41
1.0
 42
1.0
 43
1.0
 50
0.0
  0
INSERT
  8
film1
  2
D16
 10
1.576500
 20
3.099500
 41
1.0
 42
1.0
 43
1.0
 50
0.0
  0
INSERT
  8
film1
  2
D16
 10
1.576500
 20
3.024500
 41
1.0
 42
1.0
 43
1.0
 50
0.0
  0
INSERT
  8
film1
  2
D16
 10
1.439800
 20
3.253000
 41
1.0
 42
1.0
 43
1.0
 50
0.0
  0
INSERT
  8
film1
  2
D16
 10
1.439800
 20
3.178000
 41
1.0
 42
1.0
 43
1.0
 50
0.0
  0
INSERT
  8
film1
  2
D16
 10
1.579800
 20
3.253000
 41
1.0
 42
1.0
 43
1.0
 50
0.0
  0
INSERT
  8
film1
  2
D16
 10
1.579800
 20
3.178000
 41
1.0
 42
1.0
 43
1.0
 50
0.0
  0
INSERT
  8
film1
  2
D16
 10
1.437400
 20
3.414300
 41
1.0
 42
1.0
 43
1.0
 50
0.0
  0
INSERT
  8
film1
  2
D16
 10
1.437400
 20
3.339300
 41
1.0
 42
1.0
 43
1.0
 50
0.0
  0
INSERT
  8
film1
  2
D16
 10
1.577400
 20
3.414300
 41
1.0
 42
1.0
 43
1.0
 50
0.0
  0
INSERT
  8
film1
  2
D16
 10
1.577400
 20
3.339300
 41
1.0
 42
1.0
 43
1.0
 50
0.0
  0
INSERT
  8
film1
  2
D16
 10
1.436500
 20
3.564500
 41
1.0
 42
1.0
 43
1.0
 50
0.0
  0
INSERT
  8
film1
  2
D16
 10
1.436500
 20
3.489500
 41
1.0
 42
1.0
 43
1.0
 50
0.0
  0
INSERT
  8
film1
  2
D16
 10
1.576500
 20
3.564500
 41
1.0
 42
1.0
 43
1.0
 50
0.0
  0
INSERT
  8
film1
  2
D16
 10
1.576500
 20
3.489500
 41
1.0
 42
1.0
 43
1.0
 50
0.0
  0
INSERT
  8
film1
  2
D16
 10
1.174200
 20
2.391300
 41
1.0
 42
1.0
 43
1.0
 50
0.0
  0
INSERT
  8
film1
  2
D16
 10
1.174200
 20
2.316300
 41
1.0
 42
1.0
 43
1.0
 50
0.0
  0
INSERT
  8
film1
  2
D16
 10
1.174200
 20
2.764400
 41
1.0
 42
1.0
 43
1.0
 50
0.0
  0
INSERT
  8
film1
  2
D16
 10
1.174200
 20
2.689400
 41
1.0
 42
1.0
 43
1.0
 50
0.0
  0
INSERT
  8
film1
  2
D17
 10
1.304500
 20
3.899500
 41
1.0
 42
1.0
 43
1.0
 50
0.0
  0
INSERT
  8
film1
  2
D17
 10
1.304500
 20
3.759500
 41
1.0
 42
1.0
 43
1.0
 50
0.0
  0
INSERT
  8
film1
  2
D17
 10
1.524500
 20
3.899500
 41
1.0
 42
1.0
 43
1.0
 50
0.0
  0
INSERT
  8
film1
  2
D17
 10
1.524500
 20
3.759500
 41
1.0
 42
1.0
 43
1.0
 50
0.0
  0
INSERT
  8
film1
  2
D17
 10
1.744500
 20
3.899500
 41
1.0
 42
1.0
 43
1.0
 50
0.0
  0
INSERT
  8
film1
  2
D17
 10
1.744500
 20
3.759500
 41
1.0
 42
1.0
 43
1.0
 50
0.0
  0
INSERT
  8
film1
  2
D18
 10
1.341500
 20
3.819500
 41
1.0
 42
1.0
 43
1.0
 50
0.0
  0
INSERT
  8
film1
  2
D18
 10
1.266500
 20
3.819500
 41
1.0
 42
1.0
 43
1.0
 50
0.0
  0
INSERT
  8
film1
  2
D18
 10
1.341500
 20
3.679500
 41
1.0
 42
1.0
 43
1.0
 50
0.0
  0
INSERT
  8
film1
  2
D18
 10
1.266500
 20
3.679500
 41
1.0
 42
1.0
 43
1.0
 50
0.0
  0
INSERT
  8
film1
  2
D18
 10
1.561500
 20
3.819500
 41
1.0
 42
1.0
 43
1.0
 50
0.0
  0
INSERT
  8
film1
  2
D18
 10
1.486500
 20
3.819500
 41
1.0
 42
1.0
 43
1.0
 50
0.0
  0
INSERT
  8
film1
  2
D18
 10
1.561500
 20
3.679500
 41
1.0
 42
1.0
 43
1.0
 50
0.0
  0
INSERT
  8
film1
  2
D18
 10
1.486500
 20
3.679500
 41
1.0
 42
1.0
 43
1.0
 50
0.0
  0
INSERT
  8
film1
  2
D18
 10
1.781500
 20
3.819500
 41
1.0
 42
1.0
 43
1.0
 50
0.0
  0
INSERT
  8
film1
  2
D18
 10
1.706500
 20
3.819500
 41
1.0
 42
1.0
 43
1.0
 50
0.0
  0
INSERT
  8
film1
  2
D18
 10
1.781500
 20
3.679500
 41
1.0
 42
1.0
 43
1.0
 50
0.0
  0
INSERT
  8
film1
  2
D18
 10
1.706500
 20
3.679500
 41
1.0
 42
1.0
 43
1.0
 50
0.0
  0
INSERT
  8
film1
  2
D19
 10
2.100400
 20
1.818100
 41
1.0
 42
1.0
 43
1.0
 50
0.0
  0
INSERT
  8
film1
  2
D19
 10
2.025400
 20
1.718100
 41
1.0
 42
1.0
 43
1.0
 50
0.0
  0
INSERT
  8
film1
  2
D19
 10
2.100400
 20
1.718100
 41
1.0
 42
1.0
 43
1.0
 50
0.0
  0
INSERT
  8
film1
  2
D19
 10
2.062400
 20
1.718100
 41
1.0
 42
1.0
 43
1.0
 50
0.0
  0
INSERT
  8
film1
  2
D19
 10
2.025400
 20
1.818100
 41
1.0
 42
1.0
 43
1.0
 50
0.0
  0
INSERT
  8
film1
  2
D20
 10
3.344300
 20
1.100000
 41
1.0
 42
1.0
 43
1.0
 50
0.0
  0
INSERT
  8
film1
  2
D20
 10
3.244300
 20
1.100000
 41
1.0
 42
1.0
 43
1.0
 50
0.0
  0
INSERT
  8
film1
  2
D20
 10
3.144300
 20
1.100000
 41
1.0
 42
1.0
 43
1.0
 50
0.0
  0
INSERT
  8
film1
  2
D20
 10
3.044300
 20
1.312600
 41
1.0
 42
1.0
 43
1.0
 50
0.0
  0
INSERT
  8
film1
  2
D20
 10
3.144300
 20
1.312600
 41
1.0
 42
1.0
 43
1.0
 50
0.0
  0
INSERT
  8
film1
  2
D20
 10
3.244300
 20
1.312600
 41
1.0
 42
1.0
 43
1.0
 50
0.0
  0
INSERT
  8
film1
  2
D20
 10
3.344300
 20
1.312600
 41
1.0
 42
1.0
 43
1.0
 50
0.0
  0
INSERT
  8
film1
  2
D20
 10
2.793100
 20
4.170900
 41
1.0
 42
1.0
 43
1.0
 50
0.0
  0
INSERT
  8
film1
  2
D21
 10
3.044300
 20
1.100000
 41
1.0
 42
1.0
 43
1.0
 50
0.0
  0
INSERT
  8
film1
  2
D21
 10
2.893100
 20
4.170900
 41
1.0
 42
1.0
 43
1.0
 50
0.0
  0
INSERT
  8
film1
  2
D21
 10
2.993100
 20
4.170900
 41
1.0
 42
1.0
 43
1.0
 50
0.0
  0
INSERT
  8
film1
  2
D21
 10
3.093100
 20
4.170900
 41
1.0
 42
1.0
 43
1.0
 50
0.0
  0
INSERT
  8
film1
  2
D21
 10
3.193100
 20
4.170900
 41
1.0
 42
1.0
 43
1.0
 50
0.0
  0
INSERT
  8
film1
  2
D21
 10
3.293100
 20
4.170900
 41
1.0
 42
1.0
 43
1.0
 50
0.0
  0
INSERT
  8
film1
  2
D21
 10
3.393100
 20
4.170900
 41
1.0
 42
1.0
 43
1.0
 50
0.0
  0
INSERT
  8
film1
  2
D21
 10
3.493100
 20
4.170900
 41
1.0
 42
1.0
 43
1.0
 50
0.0
  0
INSERT
  8
film1
  2
D21
 10
3.493100
 20
4.383500
 41
1.0
 42
1.0
 43
1.0
 50
0.0
  0
INSERT
  8
film1
  2
D21
 10
3.393100
 20
4.383500
 41
1.0
 42
1.0
 43
1.0
 50
0.0
  0
INSERT
  8
film1
  2
D21
 10
3.293100
 20
4.383500
 41
1.0
 42
1.0
 43
1.0
 50
0.0
  0
INSERT
  8
film1
  2
D21
 10
3.193100
 20
4.383500
 41
1.0
 42
1.0
 43
1.0
 50
0.0
  0
INSERT
  8
film1
  2
D21
 10
3.093100
 20
4.383500
 41
1.0
 42
1.0
 43
1.0
 50
0.0
  0
INSERT
  8
film1
  2
D21
 10
2.993100
 20
4.383500
 41
1.0
 42
1.0
 43
1.0
 50
0.0
  0
INSERT
  8
film1
  2
D21
 10
2.893100
 20
4.383500
 41
1.0
 42
1.0
 43
1.0
 50
0.0
  0
INSERT
  8
film1
  2
D21
 10
2.793100
 20
4.383500
 41
1.0
 42
1.0
 43
1.0
 50
0.0
  0
INSERT
  8
film1
  2
D22
 10
2.945600
 20
1.186600
 41
1.0
 42
1.0
 43
1.0
 50
0.0
  0
INSERT
  8
film1
  2
D22
 10
2.945600
 20
1.226600
 41
1.0
 42
1.0
 43
1.0
 50
0.0
  0
INSERT
  8
film1
  2
D23
 10
3.501800
 20
1.029100
 41
1.0
 42
1.0
 43
1.0
 50
0.0
  0
INSERT
  8
film1
  2
D23
 10
3.556800
 20
1.029100
 41
1.0
 42
1.0
 43
1.0
 50
0.0
  0
INSERT
  8
film1
  2
D23
 10
3.501800
 20
1.127600
 41
1.0
 42
1.0
 43
1.0
 50
0.0
  0
INSERT
  8
film1
  2
D23
 10
3.556800
 20
1.127600
 41
1.0
 42
1.0
 43
1.0
 50
0.0
  0
INSERT
  8
film1
  2
D23
 10
1.233200
 20
2.253500
 41
1.0
 42
1.0
 43
1.0
 50
0.0
  0
INSERT
  8
film1
  2
D23
 10
1.288200
 20
2.253500
 41
1.0
 42
1.0
 43
1.0
 50
0.0
  0
INSERT
  8
film1
  2
D23
 10
1.233200
 20
2.626600
 41
1.0
 42
1.0
 43
1.0
 50
0.0
  0
INSERT
  8
film1
  2
D23
 10
1.288200
 20
2.626600
 41
1.0
 42
1.0
 43
1.0
 50
0.0
  0
INSERT
  8
film1
  2
D24
 10
1.314000
 20
2.371600
 41
1.0
 42
1.0
 43
1.0
 50
0.0
  0
INSERT
  8
film1
  2
D24
 10
1.314000
 20
2.397200
 41
1.0
 42
1.0
 43
1.0
 50
0.0
  0
INSERT
  8
film1
  2
D24
 10
1.314000
 20
2.346000
 41
1.0
 42
1.0
 43
1.0
 50
0.0
  0
INSERT
  8
film1
  2
D24
 10
1.388800
 20
2.346000
 41
1.0
 42
1.0
 43
1.0
 50
0.0
  0
INSERT
  8
film1
  2
D24
 10
1.388800
 20
2.397200
 41
1.0
 42
1.0
 43
1.0
 50
0.0
  0
INSERT
  8
film1
  2
D24
 10
1.314000
 20
2.744700
 41
1.0
 42
1.0
 43
1.0
 50
0.0
  0
INSERT
  8
film1
  2
D24
 10
1.314000
 20
2.770300
 41
1.0
 42
1.0
 43
1.0
 50
0.0
  0
INSERT
  8
film1
  2
D24
 10
1.314000
 20
2.719100
 41
1.0
 42
1.0
 43
1.0
 50
0.0
  0
INSERT
  8
film1
  2
D24
 10
1.388800
 20
2.719100
 41
1.0
 42
1.0
 43
1.0
 50
0.0
  0
INSERT
  8
film1
  2
D24
 10
1.388800
 20
2.770300
 41
1.0
 42
1.0
 43
1.0
 50
0.0
  0
INSERT
  8
film1
  2
D24
 10
1.986400
 20
2.597000
 41
1.0
 42
1.0
 43
1.0
 50
0.0
  0
INSERT
  8
film1
  2
D24
 10
1.986400
 20
2.571400
 41
1.0
 42
1.0
 43
1.0
 50
0.0
  0
INSERT
  8
film1
  2
D24
 10
1.986400
 20
2.622600
 41
1.0
 42
1.0
 43
1.0
 50
0.0
  0
INSERT
  8
film1
  2
D24
 10
1.911600
 20
2.622600
 41
1.0
 42
1.0
 43
1.0
 50
0.0
  0
INSERT
  8
film1
  2
D24
 10
1.911600
 20
2.571400
 41
1.0
 42
1.0
 43
1.0
 50
0.0
  0
INSERT
  8
film1
  2
D25
 10
1.999000
 20
3.012000
 41
1.0
 42
1.0
 43
1.0
 50
0.0
  0
INSERT
  8
film1
  2
D25
 10
1.864000
 20
3.012000
 41
1.0
 42
1.0
 43
1.0
 50
0.0
  0
INSERT
  8
film1
  2
D25
 10
2.249000
 20
3.862000
 41
1.0
 42
1.0
 43
1.0
 50
0.0
  0
INSERT
  8
film1
  2
D25
 10
2.114000
 20
3.862000
 41
1.0
 42
1.0
 43
1.0
 50
0.0
  0
INSERT
  8
film1
  2
D25
 10
2.804000
 20
3.987000
 41
1.0
 42
1.0
 43
1.0
 50
0.0
  0
INSERT
  8
film1
  2
D25
 10
2.939000
 20
3.987000
 41
1.0
 42
1.0
 43
1.0
 50
0.0
  0
INSERT
  8
film1
  2
D26
 10
3.419000
 20
3.812000
 41
1.0
 42
1.0
 43
1.0
 50
0.0
  0
INSERT
  8
film1
  2
D26
 10
3.419000
 20
3.947000
 41
1.0
 42
1.0
 43
1.0
 50
0.0
  0
INSERT
  8
film1
  2
D26
 10
2.596200
 20
0.967300
 41
1.0
 42
1.0
 43
1.0
 50
0.0
  0
INSERT
  8
film1
  2
D26
 10
2.596200
 20
0.832300
 41
1.0
 42
1.0
 43
1.0
 50
0.0
  0
INSERT
  8
film1
  2
D26
 10
1.904100
 20
0.967300
 41
1.0
 42
1.0
 43
1.0
 50
0.0
  0
INSERT
  8
film1
  2
D26
 10
1.904100
 20
0.832300
 41
1.0
 42
1.0
 43
1.0
 50
0.0
  0
INSERT
  8
film1
  2
D26
 10
1.001800
 20
1.875600
 41
1.0
 42
1.0
 43
1.0
 50
0.0
  0
INSERT
  8
film1
  2
D26
 10
1.001800
 20
2.010600
 41
1.0
 42
1.0
 43
1.0
 50
0.0
  0
INSERT
  8
film1
  2
D26
 10
1.001800
 20
1.718100
 41
1.0
 42
1.0
 43
1.0
 50
0.0
  0
INSERT
  8
film1
  2
D26
 10
1.001800
 20
1.583100
 41
1.0
 42
1.0
 43
1.0
 50
0.0
  0
INSERT
  8
film1
  2
D27
 10
3.241900
 20
0.852000
 41
1.0
 42
1.0
 43
1.0
 50
0.0
  0
INSERT
  8
film1
  2
D27
 10
3.273400
 20
0.852000
 41
1.0
 42
1.0
 43
1.0
 50
0.0
  0
INSERT
  8
film1
  2
D27
 10
3.304900
 20
0.852000
 41
1.0
 42
1.0
 43
1.0
 50
0.0
  0
INSERT
  8
film1
  2
D27
 10
3.336400
 20
0.852000
 41
1.0
 42
1.0
 43
1.0
 50
0.0
  0
INSERT
  8
film1
  2
D27
 10
3.367900
 20
0.852000
 41
1.0
 42
1.0
 43
1.0
 50
0.0
  0
INSERT
  8
film1
  2
D28
 10
3.129700
 20
0.857900
 41
1.0
 42
1.0
 43
1.0
 50
0.0
  0
INSERT
  8
film1
  2
D28
 10
3.480100
 20
0.857900
 41
1.0
 42
1.0
 43
1.0
 50
0.0
  0
INSERT
  8
film1
  2
D28
 10
3.480100
 20
0.641300
 41
1.0
 42
1.0
 43
1.0
 50
0.0
  0
INSERT
  8
film1
  2
D28
 10
3.129700
 20
0.641300
 41
1.0
 42
1.0
 43
1.0
 50
0.0
  0
INSERT
  8
film1
  2
D29
 10
3.273400
 20
1.501600
 41
1.0
 42
1.0
 43
1.0
 50
0.0
  0
INSERT
  8
film1
  2
D29
 10
3.049000
 20
1.501600
 41
1.0
 42
1.0
 43
1.0
 50
0.0
  0
INSERT
  8
film1
  2
D29
 10
1.525400
 20
2.013400
 41
1.0
 42
1.0
 43
1.0
 50
0.0
  0
INSERT
  8
film1
  2
D29
 10
1.749800
 20
2.013400
 41
1.0
 42
1.0
 43
1.0
 50
0.0
  0
INSERT
  8
film1
  2
D30
 10
0.627700
 20
4.080300
 41
1.0
 42
1.0
 43
1.0
 50
0.0
  0
INSERT
  8
film1
  2
D30
 10
4.407300
 20
0.930700
 41
1.0
 42
1.0
 43
1.0
 50
0.0
  0
INSERT
  8
film1
  2
D31
 10
0.864000
 20
1.025200
 41
1.0
 42
1.0
 43
1.0
 50
0.0
  0
INSERT
  8
film1
  2
D31
 10
0.627700
 20
1.025200
 41
1.0
 42
1.0
 43
1.0
 50
0.0
  0
INSERT
  8
film1
  2
D31
 10
0.627700
 20
1.466100
 41
1.0
 42
1.0
 43
1.0
 50
0.0
  0
INSERT
  8
film1
  2
D31
 10
0.864000
 20
1.466100
 41
1.0
 42
1.0
 43
1.0
 50
0.0
  0
INSERT
  8
film1
  2
D32
 10
1.671000
 20
1.092200
 41
1.0
 42
1.0
 43
1.0
 50
0.0
  0
INSERT
  8
film1
  2
D32
 10
1.671000
 20
1.147200
 41
1.0
 42
1.0
 43
1.0
 50
0.0
  0
INSERT
  8
film1
  2
D32
 10
1.749800
 20
1.092200
 41
1.0
 42
1.0
 43
1.0
 50
0.0
  0
INSERT
  8
film1
  2
D32
 10
1.749800
 20
1.147200
 41
1.0
 42
1.0
 43
1.0
 50
0.0
  0
INSERT
  8
film1
  2
D32
 10
2.360000
 20
1.092200
 41
1.0
 42
1.0
 43
1.0
 50
0.0
  0
INSERT
  8
film1
  2
D32
 10
2.360000
 20
1.147200
 41
1.0
 42
1.0
 43
1.0
 50
0.0
  0
INSERT
  8
film1
  2
D32
 10
2.438800
 20
1.092200
 41
1.0
 42
1.0
 43
1.0
 50
0.0
  0
INSERT
  8
film1
  2
D32
 10
2.438800
 20
1.147200
 41
1.0
 42
1.0
 43
1.0
 50
0.0
  0
INSERT
  8
film1
  2
D32
 10
1.849000
 20
2.567000
 41
1.0
 42
1.0
 43
1.0
 50
0.0
  0
INSERT
  8
film1
  2
D32
 10
1.849000
 20
2.622000
 41
1.0
 42
1.0
 43
1.0
 50
0.0
  0
INSERT
  8
film1
  2
D32
 10
4.259000
 20
0.927000
 41
1.0
 42
1.0
 43
1.0
 50
0.0
  0
INSERT
  8
film1
  2
D32
 10
4.259000
 20
0.982000
 41
1.0
 42
1.0
 43
1.0
 50
0.0
  0
INSERT
  8
film1
  2
D32
 10
4.199000
 20
0.927000
 41
1.0
 42
1.0
 43
1.0
 50
0.0
  0
INSERT
  8
film1
  2
D32
 10
4.199000
 20
0.982000
 41
1.0
 42
1.0
 43
1.0
 50
0.0
  0
INSERT
  8
film1
  2
D32
 10
4.079000
 20
0.827000
 41
1.0
 42
1.0
 43
1.0
 50
0.0
  0
INSERT
  8
film1
  2
D32
 10
4.079000
 20
0.882000
 41
1.0
 42
1.0
 43
1.0
 50
0.0
  0
INSERT
  8
film1
  2
D32
 10
3.459000
 20
1.972000
 41
1.0
 42
1.0
 43
1.0
 50
0.0
  0
INSERT
  8
film1
  2
D32
 10
3.459000
 20
2.027000
 41
1.0
 42
1.0
 43
1.0
 50
0.0
  0
INSERT
  8
film1
  2
D32
 10
3.119000
 20
1.972000
 41
1.0
 42
1.0
 43
1.0
 50
0.0
  0
INSERT
  8
film1
  2
D32
 10
3.119000
 20
2.027000
 41
1.0
 42
1.0
 43
1.0
 50
0.0
  0
INSERT
  8
film1
  2
D32
 10
3.249000
 20
2.172000
 41
1.0
 42
1.0
 43
1.0
 50
0.0
  0
INSERT
  8
film1
  2
D32
 10
3.249000
 20
2.117000
 41
1.0
 42
1.0
 43
1.0
 50
0.0
  0
INSERT
  8
film1
  2
D32
 10
3.489000
 20
2.172000
 41
1.0
 42
1.0
 43
1.0
 50
0.0
  0
INSERT
  8
film1
  2
D32
 10
3.489000
 20
2.117000
 41
1.0
 42
1.0
 43
1.0
 50
0.0
  0
INSERT
  8
film1
  2
D33
 10
1.497800
 20
0.852000
 41
1.0
 42
1.0
 43
1.0
 50
0.0
  0
INSERT
  8
film1
  2
D33
 10
1.497800
 20
0.615700
 41
1.0
 42
1.0
 43
1.0
 50
0.0
  0
INSERT
  8
film1
  2
D33
 10
1.056900
 20
0.615700
 41
1.0
 42
1.0
 43
1.0
 50
0.0
  0
INSERT
  8
film1
  2
D33
 10
1.056900
 20
0.852000
 41
1.0
 42
1.0
 43
1.0
 50
0.0
  0
INSERT
  8
film1
  2
D34
 10
1.632300
 20
0.796800
 41
1.0
 42
1.0
 43
1.0
 50
0.0
  0
INSERT
  8
film1
  2
D34
 10
1.682300
 20
0.796800
 41
1.0
 42
1.0
 43
1.0
 50
0.0
  0
INSERT
  8
film1
  2
D34
 10
1.732300
 20
0.796800
 41
1.0
 42
1.0
 43
1.0
 50
0.0
  0
INSERT
  8
film1
  2
D34
 10
1.782300
 20
0.796800
 41
1.0
 42
1.0
 43
1.0
 50
0.0
  0
INSERT
  8
film1
  2
D34
 10
1.632300
 20
0.985800
 41
1.0
 42
1.0
 43
1.0
 50
0.0
  0
INSERT
  8
film1
  2
D34
 10
1.682300
 20
0.985800
 41
1.0
 42
1.0
 43
1.0
 50
0.0
  0
INSERT
  8
film1
  2
D34
 10
1.732300
 20
0.985800
 41
1.0
 42
1.0
 43
1.0
 50
0.0
  0
INSERT
  8
film1
  2
D34
 10
1.782300
 20
0.985800
 41
1.0
 42
1.0
 43
1.0
 50
0.0
  0
INSERT
  8
film1
  2
D34
 10
2.324400
 20
0.796800
 41
1.0
 42
1.0
 43
1.0
 50
0.0
  0
INSERT
  8
film1
  2
D34
 10
2.374400
 20
0.796800
 41
1.0
 42
1.0
 43
1.0
 50
0.0
  0
INSERT
  8
film1
  2
D34
 10
2.424400
 20
0.796800
 41
1.0
 42
1.0
 43
1.0
 50
0.0
  0
INSERT
  8
film1
  2
D34
 10
2.474400
 20
0.796800
 41
1.0
 42
1.0
 43
1.0
 50
0.0
  0
INSERT
  8
film1
  2
D34
 10
2.324400
 20
0.985800
 41
1.0
 42
1.0
 43
1.0
 50
0.0
  0
INSERT
  8
film1
  2
D34
 10
2.374400
 20
0.985800
 41
1.0
 42
1.0
 43
1.0
 50
0.0
  0
INSERT
  8
film1
  2
D34
 10
2.424400
 20
0.985800
 41
1.0
 42
1.0
 43
1.0
 50
0.0
  0
INSERT
  8
film1
  2
D34
 10
2.474400
 20
0.985800
 41
1.0
 42
1.0
 43
1.0
 50
0.0
  0
INSERT
  8
film1
  2
D35
 10
1.329000
 20
1.591400
 41
1.0
 42
1.0
 43
1.0
 50
0.0
  0
INSERT
  8
film1
  2
D35
 10
1.238000
 20
1.591400
 41
1.0
 42
1.0
 43
1.0
 50
0.0
  0
INSERT
  8
film1
  2
D35
 10
1.147000
 20
1.591400
 41
1.0
 42
1.0
 43
1.0
 50
0.0
  0
INSERT
  8
film1
  2
D35
 10
1.801400
 20
1.591400
 41
1.0
 42
1.0
 43
1.0
 50
0.0
  0
INSERT
  8
film1
  2
D35
 10
1.710400
 20
1.591400
 41
1.0
 42
1.0
 43
1.0
 50
0.0
  0
INSERT
  8
film1
  2
D35
 10
1.619400
 20
1.591400
 41
1.0
 42
1.0
 43
1.0
 50
0.0
  0
INSERT
  8
film1
  2
D36
 10
1.238000
 20
1.839400
 41
1.0
 42
1.0
 43
1.0
 50
0.0
  0
INSERT
  8
film1
  2
D36
 10
1.710400
 20
1.839400
 41
1.0
 42
1.0
 43
1.0
 50
0.0
  0
INSERT
  8
film1
  2
D37
 10
0.852100
 20
3.509400
 41
1.0
 42
1.0
 43
1.0
 50
0.0
  0
INSERT
  8
film1
  2
D38
 10
0.852100
 20
3.609400
 41
1.0
 42
1.0
 43
1.0
 50
0.0
  0
INSERT
  8
film1
  2
D38
 10
0.852100
 20
3.709400
 41
1.0
 42
1.0
 43
1.0
 50
0.0
  0
INSERT
  8
film1
  2
D38
 10
0.852100
 20
3.809400
 41
1.0
 42
1.0
 43
1.0
 50
0.0
  0
INSERT
  8
film1
  2
D38
 10
0.852100
 20
3.909400
 41
1.0
 42
1.0
 43
1.0
 50
0.0
  0
INSERT
  8
film1
  2
D38
 10
0.639600
 20
3.909400
 41
1.0
 42
1.0
 43
1.0
 50
0.0
  0
INSERT
  8
film1
  2
D38
 10
0.639600
 20
3.809400
 41
1.0
 42
1.0
 43
1.0
 50
0.0
  0
INSERT
  8
film1
  2
D38
 10
0.639600
 20
3.709400
 41
1.0
 42
1.0
 43
1.0
 50
0.0
  0
INSERT
  8
film1
  2
D38
 10
0.639600
 20
3.609400
 41
1.0
 42
1.0
 43
1.0
 50
0.0
  0
INSERT
  8
film1
  2
D38
 10
0.639600
 20
3.509400
 41
1.0
 42
1.0
 43
1.0
 50
0.0
  0
INSERT
  8
film1
  2
D39
 10
3.380100
 20
2.045400
 41
1.0
 42
1.0
 43
1.0
 50
0.0
  0
INSERT
  8
film1
  2
D39
 10
3.199000
 20
2.045400
 41
1.0
 42
1.0
 43
1.0
 50
0.0
  0
INSERT
  8
film1
  2
D39
 10
3.199000
 20
1.947000
 41
1.0
 42
1.0
 43
1.0
 50
0.0
  0
INSERT
  8
film1
  2
D40
 10
3.380100
 20
1.947000
 41
1.0
 42
1.0
 43
1.0
 50
0.0
  0
ENDSEC
  0
EOF
